%TF.GenerationSoftware,KiCad,Pcbnew,(5.99.0-12724-g8c8d66a181)*%
%TF.CreationDate,2021-10-09T23:30:49+02:00*%
%TF.ProjectId,MUXUS,4d555855-532e-46b6-9963-61645f706362,rev?*%
%TF.SameCoordinates,Original*%
%TF.FileFunction,Legend,Top*%
%TF.FilePolarity,Positive*%
%FSLAX46Y46*%
G04 Gerber Fmt 4.6, Leading zero omitted, Abs format (unit mm)*
G04 Created by KiCad (PCBNEW (5.99.0-12724-g8c8d66a181)) date 2021-10-09 23:30:49*
%MOMM*%
%LPD*%
G01*
G04 APERTURE LIST*
G04 Aperture macros list*
%AMRoundRect*
0 Rectangle with rounded corners*
0 $1 Rounding radius*
0 $2 $3 $4 $5 $6 $7 $8 $9 X,Y pos of 4 corners*
0 Add a 4 corners polygon primitive as box body*
4,1,4,$2,$3,$4,$5,$6,$7,$8,$9,$2,$3,0*
0 Add four circle primitives for the rounded corners*
1,1,$1+$1,$2,$3*
1,1,$1+$1,$4,$5*
1,1,$1+$1,$6,$7*
1,1,$1+$1,$8,$9*
0 Add four rect primitives between the rounded corners*
20,1,$1+$1,$2,$3,$4,$5,0*
20,1,$1+$1,$4,$5,$6,$7,0*
20,1,$1+$1,$6,$7,$8,$9,0*
20,1,$1+$1,$8,$9,$2,$3,0*%
G04 Aperture macros list end*
%ADD10C,0.150000*%
%ADD11C,0.120000*%
%ADD12C,0.300000*%
%ADD13C,0.127000*%
%ADD14C,0.254000*%
%ADD15C,0.100000*%
%ADD16C,0.200000*%
%ADD17C,0.250000*%
%ADD18RoundRect,0.250000X-0.250000X-0.475000X0.250000X-0.475000X0.250000X0.475000X-0.250000X0.475000X0*%
%ADD19RoundRect,0.250000X0.250000X0.475000X-0.250000X0.475000X-0.250000X-0.475000X0.250000X-0.475000X0*%
%ADD20RoundRect,0.250000X0.650000X-0.325000X0.650000X0.325000X-0.650000X0.325000X-0.650000X-0.325000X0*%
%ADD21RoundRect,0.250000X-0.325000X-0.650000X0.325000X-0.650000X0.325000X0.650000X-0.325000X0.650000X0*%
%ADD22RoundRect,0.250000X-0.650000X0.325000X-0.650000X-0.325000X0.650000X-0.325000X0.650000X0.325000X0*%
%ADD23RoundRect,0.250000X-0.475000X0.250000X-0.475000X-0.250000X0.475000X-0.250000X0.475000X0.250000X0*%
%ADD24RoundRect,0.250000X0.475000X-0.250000X0.475000X0.250000X-0.475000X0.250000X-0.475000X-0.250000X0*%
%ADD25C,1.600000*%
%ADD26RoundRect,0.250000X0.325000X1.100000X-0.325000X1.100000X-0.325000X-1.100000X0.325000X-1.100000X0*%
%ADD27RoundRect,0.250000X-0.375000X-0.625000X0.375000X-0.625000X0.375000X0.625000X-0.375000X0.625000X0*%
%ADD28R,1.800000X1.800000*%
%ADD29C,1.800000*%
%ADD30R,3.300000X2.500000*%
%ADD31RoundRect,0.250000X0.625000X-0.375000X0.625000X0.375000X-0.625000X0.375000X-0.625000X-0.375000X0*%
%ADD32C,0.800000*%
%ADD33C,6.400000*%
%ADD34C,1.545000*%
%ADD35C,3.570000*%
%ADD36R,3.200000X2.800000*%
%ADD37RoundRect,0.250000X0.262500X0.450000X-0.262500X0.450000X-0.262500X-0.450000X0.262500X-0.450000X0*%
%ADD38RoundRect,0.250000X-0.625000X0.312500X-0.625000X-0.312500X0.625000X-0.312500X0.625000X0.312500X0*%
%ADD39RoundRect,0.250000X-0.312500X-0.625000X0.312500X-0.625000X0.312500X0.625000X-0.312500X0.625000X0*%
%ADD40RoundRect,0.250000X0.625000X-0.312500X0.625000X0.312500X-0.625000X0.312500X-0.625000X-0.312500X0*%
%ADD41RoundRect,0.250000X-0.262500X-0.450000X0.262500X-0.450000X0.262500X0.450000X-0.262500X0.450000X0*%
%ADD42RoundRect,0.250000X0.450000X-0.262500X0.450000X0.262500X-0.450000X0.262500X-0.450000X-0.262500X0*%
%ADD43RoundRect,0.250000X0.312500X0.625000X-0.312500X0.625000X-0.312500X-0.625000X0.312500X-0.625000X0*%
%ADD44R,1.550000X1.300000*%
%ADD45R,1.060000X0.650000*%
%ADD46R,0.650000X1.060000*%
%ADD47R,0.200000X0.850000*%
%ADD48R,0.850000X0.200000*%
%ADD49C,1.080000*%
%ADD50R,1.500000X1.500000*%
%ADD51C,1.500000*%
%ADD52C,1.020000*%
%ADD53R,2.790000X0.740000*%
%ADD54R,1.525000X0.650000*%
%ADD55R,1.700000X1.700000*%
%ADD56O,1.700000X1.700000*%
%ADD57RoundRect,0.075000X0.700000X0.075000X-0.700000X0.075000X-0.700000X-0.075000X0.700000X-0.075000X0*%
%ADD58RoundRect,0.075000X0.075000X0.700000X-0.075000X0.700000X-0.075000X-0.700000X0.075000X-0.700000X0*%
%ADD59R,0.850000X0.250000*%
%ADD60R,0.250000X0.850000*%
%ADD61R,3.600000X3.600000*%
%ADD62RoundRect,0.250000X-1.100000X0.325000X-1.100000X-0.325000X1.100000X-0.325000X1.100000X0.325000X0*%
%ADD63C,0.650000*%
%ADD64R,0.300000X1.150000*%
%ADD65R,2.180000X2.000000*%
G04 APERTURE END LIST*
D10*
X16057619Y-63412857D02*
X16724285Y-63412857D01*
X16533809Y-63412857D02*
X16629047Y-63460476D01*
X16676666Y-63508095D01*
X16724285Y-63603333D01*
X16724285Y-63698571D01*
X16105238Y-64412857D02*
X16057619Y-64317619D01*
X16057619Y-64127142D01*
X16105238Y-64031904D01*
X16200476Y-63984285D01*
X16581428Y-63984285D01*
X16676666Y-64031904D01*
X16724285Y-64127142D01*
X16724285Y-64317619D01*
X16676666Y-64412857D01*
X16581428Y-64460476D01*
X16486190Y-64460476D01*
X16390952Y-63984285D01*
X16724285Y-64793809D02*
X16057619Y-65031904D01*
X16724285Y-65270000D01*
X16057619Y-66174761D02*
X16057619Y-65603333D01*
X16057619Y-65889047D02*
X17057619Y-65889047D01*
X16914761Y-65793809D01*
X16819523Y-65698571D01*
X16771904Y-65603333D01*
D11*
X20155803Y-32702500D02*
G75*
G03*
X20155803Y-32702500I-89803J0D01*
G01*
X100800803Y-62293500D02*
G75*
G03*
X100800803Y-62293500I-89803J0D01*
G01*
X74257803Y-31230202D02*
G75*
G03*
X74257803Y-31230202I-89803J0D01*
G01*
X100330000Y-59817000D02*
G75*
G03*
X100330000Y-59817000I-141990J0D01*
G01*
X100774500Y-41910000D02*
G75*
G03*
X100774500Y-41910000I-127000J0D01*
G01*
X101219000Y-79121000D02*
G75*
G03*
X101219000Y-79121000I-127000J0D01*
G01*
X101219000Y-38735000D02*
G75*
G03*
X101219000Y-38735000I-127000J0D01*
G01*
X92075000Y-31305500D02*
G75*
G03*
X92075000Y-31305500I-63500J0D01*
G01*
X77738990Y-60325000D02*
G75*
G03*
X77738990Y-60325000I-141990J0D01*
G01*
X56134000Y-31305500D02*
G75*
G03*
X56134000Y-31305500I-63500J0D01*
G01*
X101092000Y-82613500D02*
G75*
G03*
X101092000Y-82613500I-127000J0D01*
G01*
X34861500Y-29083000D02*
G75*
G03*
X34861500Y-29083000I-63500J0D01*
G01*
D10*
X101147619Y-36433333D02*
X102147619Y-36433333D01*
X102147619Y-36671428D01*
X102100000Y-36814285D01*
X102004761Y-36909523D01*
X101909523Y-36957142D01*
X101719047Y-37004761D01*
X101576190Y-37004761D01*
X101385714Y-36957142D01*
X101290476Y-36909523D01*
X101195238Y-36814285D01*
X101147619Y-36671428D01*
X101147619Y-36433333D01*
X101671428Y-37766666D02*
X101671428Y-37433333D01*
X101147619Y-37433333D02*
X102147619Y-37433333D01*
X102147619Y-37909523D01*
X101147619Y-38290476D02*
X102147619Y-38290476D01*
X102147619Y-38671428D01*
X102100000Y-38766666D01*
X102052380Y-38814285D01*
X101957142Y-38861904D01*
X101814285Y-38861904D01*
X101719047Y-38814285D01*
X101671428Y-38766666D01*
X101623809Y-38671428D01*
X101623809Y-38290476D01*
X101814285Y-39719047D02*
X101147619Y-39719047D01*
X102195238Y-39480952D02*
X101480952Y-39242857D01*
X101480952Y-39861904D01*
X101401619Y-76438333D02*
X102401619Y-76438333D01*
X102401619Y-76676428D01*
X102354000Y-76819285D01*
X102258761Y-76914523D01*
X102163523Y-76962142D01*
X101973047Y-77009761D01*
X101830190Y-77009761D01*
X101639714Y-76962142D01*
X101544476Y-76914523D01*
X101449238Y-76819285D01*
X101401619Y-76676428D01*
X101401619Y-76438333D01*
X101925428Y-77771666D02*
X101925428Y-77438333D01*
X101401619Y-77438333D02*
X102401619Y-77438333D01*
X102401619Y-77914523D01*
X101401619Y-78295476D02*
X102401619Y-78295476D01*
X102401619Y-78676428D01*
X102354000Y-78771666D01*
X102306380Y-78819285D01*
X102211142Y-78866904D01*
X102068285Y-78866904D01*
X101973047Y-78819285D01*
X101925428Y-78771666D01*
X101877809Y-78676428D01*
X101877809Y-78295476D01*
X102306380Y-79247857D02*
X102354000Y-79295476D01*
X102401619Y-79390714D01*
X102401619Y-79628809D01*
X102354000Y-79724047D01*
X102306380Y-79771666D01*
X102211142Y-79819285D01*
X102115904Y-79819285D01*
X101973047Y-79771666D01*
X101401619Y-79200238D01*
X101401619Y-79819285D01*
X36687333Y-78811380D02*
X36687333Y-77811380D01*
X36925428Y-77811380D01*
X37068285Y-77859000D01*
X37163523Y-77954238D01*
X37211142Y-78049476D01*
X37258761Y-78239952D01*
X37258761Y-78382809D01*
X37211142Y-78573285D01*
X37163523Y-78668523D01*
X37068285Y-78763761D01*
X36925428Y-78811380D01*
X36687333Y-78811380D01*
X38020666Y-78287571D02*
X37687333Y-78287571D01*
X37687333Y-78811380D02*
X37687333Y-77811380D01*
X38163523Y-77811380D01*
X38544476Y-78811380D02*
X38544476Y-77811380D01*
X38925428Y-77811380D01*
X39020666Y-77859000D01*
X39068285Y-77906619D01*
X39115904Y-78001857D01*
X39115904Y-78144714D01*
X39068285Y-78239952D01*
X39020666Y-78287571D01*
X38925428Y-78335190D01*
X38544476Y-78335190D01*
X40068285Y-78811380D02*
X39496857Y-78811380D01*
X39782571Y-78811380D02*
X39782571Y-77811380D01*
X39687333Y-77954238D01*
X39592095Y-78049476D01*
X39496857Y-78097095D01*
X21925595Y-91892380D02*
X21925595Y-90892380D01*
X22497023Y-91892380D01*
X22497023Y-90892380D01*
X23544642Y-91892380D02*
X23211309Y-91416190D01*
X22973214Y-91892380D02*
X22973214Y-90892380D01*
X23354166Y-90892380D01*
X23449404Y-90940000D01*
X23497023Y-90987619D01*
X23544642Y-91082857D01*
X23544642Y-91225714D01*
X23497023Y-91320952D01*
X23449404Y-91368571D01*
X23354166Y-91416190D01*
X22973214Y-91416190D01*
X23925595Y-91844761D02*
X24068452Y-91892380D01*
X24306547Y-91892380D01*
X24401785Y-91844761D01*
X24449404Y-91797142D01*
X24497023Y-91701904D01*
X24497023Y-91606666D01*
X24449404Y-91511428D01*
X24401785Y-91463809D01*
X24306547Y-91416190D01*
X24116071Y-91368571D01*
X24020833Y-91320952D01*
X23973214Y-91273333D01*
X23925595Y-91178095D01*
X23925595Y-91082857D01*
X23973214Y-90987619D01*
X24020833Y-90940000D01*
X24116071Y-90892380D01*
X24354166Y-90892380D01*
X24497023Y-90940000D01*
X24782738Y-90892380D02*
X25354166Y-90892380D01*
X25068452Y-91892380D02*
X25068452Y-90892380D01*
X55697619Y-103322380D02*
X55364285Y-102846190D01*
X55126190Y-103322380D02*
X55126190Y-102322380D01*
X55507142Y-102322380D01*
X55602380Y-102370000D01*
X55650000Y-102417619D01*
X55697619Y-102512857D01*
X55697619Y-102655714D01*
X55650000Y-102750952D01*
X55602380Y-102798571D01*
X55507142Y-102846190D01*
X55126190Y-102846190D01*
X56126190Y-102798571D02*
X56459523Y-102798571D01*
X56602380Y-103322380D02*
X56126190Y-103322380D01*
X56126190Y-102322380D01*
X56602380Y-102322380D01*
X56983333Y-103274761D02*
X57126190Y-103322380D01*
X57364285Y-103322380D01*
X57459523Y-103274761D01*
X57507142Y-103227142D01*
X57554761Y-103131904D01*
X57554761Y-103036666D01*
X57507142Y-102941428D01*
X57459523Y-102893809D01*
X57364285Y-102846190D01*
X57173809Y-102798571D01*
X57078571Y-102750952D01*
X57030952Y-102703333D01*
X56983333Y-102608095D01*
X56983333Y-102512857D01*
X57030952Y-102417619D01*
X57078571Y-102370000D01*
X57173809Y-102322380D01*
X57411904Y-102322380D01*
X57554761Y-102370000D01*
X57983333Y-102798571D02*
X58316666Y-102798571D01*
X58459523Y-103322380D02*
X57983333Y-103322380D01*
X57983333Y-102322380D01*
X58459523Y-102322380D01*
X58745238Y-102322380D02*
X59316666Y-102322380D01*
X59030952Y-103322380D02*
X59030952Y-102322380D01*
X101147619Y-56118333D02*
X102147619Y-56118333D01*
X102147619Y-56356428D01*
X102100000Y-56499285D01*
X102004761Y-56594523D01*
X101909523Y-56642142D01*
X101719047Y-56689761D01*
X101576190Y-56689761D01*
X101385714Y-56642142D01*
X101290476Y-56594523D01*
X101195238Y-56499285D01*
X101147619Y-56356428D01*
X101147619Y-56118333D01*
X101671428Y-57451666D02*
X101671428Y-57118333D01*
X101147619Y-57118333D02*
X102147619Y-57118333D01*
X102147619Y-57594523D01*
X101147619Y-57975476D02*
X102147619Y-57975476D01*
X102147619Y-58356428D01*
X102100000Y-58451666D01*
X102052380Y-58499285D01*
X101957142Y-58546904D01*
X101814285Y-58546904D01*
X101719047Y-58499285D01*
X101671428Y-58451666D01*
X101623809Y-58356428D01*
X101623809Y-57975476D01*
X102147619Y-58880238D02*
X102147619Y-59499285D01*
X101766666Y-59165952D01*
X101766666Y-59308809D01*
X101719047Y-59404047D01*
X101671428Y-59451666D01*
X101576190Y-59499285D01*
X101338095Y-59499285D01*
X101242857Y-59451666D01*
X101195238Y-59404047D01*
X101147619Y-59308809D01*
X101147619Y-59023095D01*
X101195238Y-58927857D01*
X101242857Y-58880238D01*
X52919523Y-29297380D02*
X52919523Y-30106904D01*
X52967142Y-30202142D01*
X53014761Y-30249761D01*
X53110000Y-30297380D01*
X53300476Y-30297380D01*
X53395714Y-30249761D01*
X53443333Y-30202142D01*
X53490952Y-30106904D01*
X53490952Y-29297380D01*
X54300476Y-29773571D02*
X53967142Y-29773571D01*
X53967142Y-30297380D02*
X53967142Y-29297380D01*
X54443333Y-29297380D01*
X54824285Y-30297380D02*
X54824285Y-29297380D01*
X55205238Y-29297380D01*
X55300476Y-29345000D01*
X55348095Y-29392619D01*
X55395714Y-29487857D01*
X55395714Y-29630714D01*
X55348095Y-29725952D01*
X55300476Y-29773571D01*
X55205238Y-29821190D01*
X54824285Y-29821190D01*
X55776666Y-29392619D02*
X55824285Y-29345000D01*
X55919523Y-29297380D01*
X56157619Y-29297380D01*
X56252857Y-29345000D01*
X56300476Y-29392619D01*
X56348095Y-29487857D01*
X56348095Y-29583095D01*
X56300476Y-29725952D01*
X55729047Y-30297380D01*
X56348095Y-30297380D01*
X66539671Y-102798571D02*
X66682528Y-102846190D01*
X66730147Y-102893809D01*
X66777766Y-102989047D01*
X66777766Y-103131904D01*
X66730147Y-103227142D01*
X66682528Y-103274761D01*
X66587290Y-103322380D01*
X66206338Y-103322380D01*
X66206338Y-102322380D01*
X66539671Y-102322380D01*
X66634909Y-102370000D01*
X66682528Y-102417619D01*
X66730147Y-102512857D01*
X66730147Y-102608095D01*
X66682528Y-102703333D01*
X66634909Y-102750952D01*
X66539671Y-102798571D01*
X66206338Y-102798571D01*
X67396814Y-102322380D02*
X67587290Y-102322380D01*
X67682528Y-102370000D01*
X67777766Y-102465238D01*
X67825385Y-102655714D01*
X67825385Y-102989047D01*
X67777766Y-103179523D01*
X67682528Y-103274761D01*
X67587290Y-103322380D01*
X67396814Y-103322380D01*
X67301576Y-103274761D01*
X67206338Y-103179523D01*
X67158719Y-102989047D01*
X67158719Y-102655714D01*
X67206338Y-102465238D01*
X67301576Y-102370000D01*
X67396814Y-102322380D01*
X68444433Y-102322380D02*
X68634909Y-102322380D01*
X68730147Y-102370000D01*
X68825385Y-102465238D01*
X68873005Y-102655714D01*
X68873005Y-102989047D01*
X68825385Y-103179523D01*
X68730147Y-103274761D01*
X68634909Y-103322380D01*
X68444433Y-103322380D01*
X68349195Y-103274761D01*
X68253957Y-103179523D01*
X68206338Y-102989047D01*
X68206338Y-102655714D01*
X68253957Y-102465238D01*
X68349195Y-102370000D01*
X68444433Y-102322380D01*
X69158719Y-102322380D02*
X69730147Y-102322380D01*
X69444433Y-103322380D02*
X69444433Y-102322380D01*
X70253957Y-102322380D02*
X70349195Y-102322380D01*
X70444433Y-102370000D01*
X70492052Y-102417619D01*
X70539671Y-102512857D01*
X70587290Y-102703333D01*
X70587290Y-102941428D01*
X70539671Y-103131904D01*
X70492052Y-103227142D01*
X70444433Y-103274761D01*
X70349195Y-103322380D01*
X70253957Y-103322380D01*
X70158719Y-103274761D01*
X70111100Y-103227142D01*
X70063481Y-103131904D01*
X70015862Y-102941428D01*
X70015862Y-102703333D01*
X70063481Y-102512857D01*
X70111100Y-102417619D01*
X70158719Y-102370000D01*
X70253957Y-102322380D01*
X70699523Y-29297380D02*
X70699523Y-30106904D01*
X70747142Y-30202142D01*
X70794761Y-30249761D01*
X70890000Y-30297380D01*
X71080476Y-30297380D01*
X71175714Y-30249761D01*
X71223333Y-30202142D01*
X71270952Y-30106904D01*
X71270952Y-29297380D01*
X72080476Y-29773571D02*
X71747142Y-29773571D01*
X71747142Y-30297380D02*
X71747142Y-29297380D01*
X72223333Y-29297380D01*
X72604285Y-30297380D02*
X72604285Y-29297380D01*
X72985238Y-29297380D01*
X73080476Y-29345000D01*
X73128095Y-29392619D01*
X73175714Y-29487857D01*
X73175714Y-29630714D01*
X73128095Y-29725952D01*
X73080476Y-29773571D01*
X72985238Y-29821190D01*
X72604285Y-29821190D01*
X73509047Y-29297380D02*
X74128095Y-29297380D01*
X73794761Y-29678333D01*
X73937619Y-29678333D01*
X74032857Y-29725952D01*
X74080476Y-29773571D01*
X74128095Y-29868809D01*
X74128095Y-30106904D01*
X74080476Y-30202142D01*
X74032857Y-30249761D01*
X73937619Y-30297380D01*
X73651904Y-30297380D01*
X73556666Y-30249761D01*
X73509047Y-30202142D01*
X21877976Y-84224761D02*
X22020833Y-84272380D01*
X22258928Y-84272380D01*
X22354166Y-84224761D01*
X22401785Y-84177142D01*
X22449404Y-84081904D01*
X22449404Y-83986666D01*
X22401785Y-83891428D01*
X22354166Y-83843809D01*
X22258928Y-83796190D01*
X22068452Y-83748571D01*
X21973214Y-83700952D01*
X21925595Y-83653333D01*
X21877976Y-83558095D01*
X21877976Y-83462857D01*
X21925595Y-83367619D01*
X21973214Y-83320000D01*
X22068452Y-83272380D01*
X22306547Y-83272380D01*
X22449404Y-83320000D01*
X22782738Y-83272380D02*
X23020833Y-84272380D01*
X23211309Y-83558095D01*
X23401785Y-84272380D01*
X23639880Y-83272380D01*
X24592261Y-84177142D02*
X24544642Y-84224761D01*
X24401785Y-84272380D01*
X24306547Y-84272380D01*
X24163690Y-84224761D01*
X24068452Y-84129523D01*
X24020833Y-84034285D01*
X23973214Y-83843809D01*
X23973214Y-83700952D01*
X24020833Y-83510476D01*
X24068452Y-83415238D01*
X24163690Y-83320000D01*
X24306547Y-83272380D01*
X24401785Y-83272380D01*
X24544642Y-83320000D01*
X24592261Y-83367619D01*
X25497023Y-84272380D02*
X25020833Y-84272380D01*
X25020833Y-83272380D01*
X25830357Y-84272380D02*
X25830357Y-83272380D01*
X26401785Y-84272380D02*
X25973214Y-83700952D01*
X26401785Y-83272380D02*
X25830357Y-83843809D01*
X29710476Y-23582380D02*
X29710476Y-24391904D01*
X29758095Y-24487142D01*
X29805714Y-24534761D01*
X29900952Y-24582380D01*
X30091428Y-24582380D01*
X30186666Y-24534761D01*
X30234285Y-24487142D01*
X30281904Y-24391904D01*
X30281904Y-23582380D01*
X31091428Y-24058571D02*
X30758095Y-24058571D01*
X30758095Y-24582380D02*
X30758095Y-23582380D01*
X31234285Y-23582380D01*
X31615238Y-24582380D02*
X31615238Y-23582380D01*
X31996190Y-23582380D01*
X32091428Y-23630000D01*
X32139047Y-23677619D01*
X32186666Y-23772857D01*
X32186666Y-23915714D01*
X32139047Y-24010952D01*
X32091428Y-24058571D01*
X31996190Y-24106190D01*
X31615238Y-24106190D01*
X33139047Y-24582380D02*
X32567619Y-24582380D01*
X32853333Y-24582380D02*
X32853333Y-23582380D01*
X32758095Y-23725238D01*
X32662857Y-23820476D01*
X32567619Y-23868095D01*
X33567619Y-24201428D02*
X34329523Y-24201428D01*
X33948571Y-24582380D02*
X33948571Y-23820476D01*
X34805714Y-24582380D02*
X34805714Y-23582380D01*
X35186666Y-23582380D01*
X35281904Y-23630000D01*
X35329523Y-23677619D01*
X35377142Y-23772857D01*
X35377142Y-23915714D01*
X35329523Y-24010952D01*
X35281904Y-24058571D01*
X35186666Y-24106190D01*
X34805714Y-24106190D01*
X35805714Y-24582380D02*
X35805714Y-23582380D01*
X36043809Y-23582380D01*
X36186666Y-23630000D01*
X36281904Y-23725238D01*
X36329523Y-23820476D01*
X36377142Y-24010952D01*
X36377142Y-24153809D01*
X36329523Y-24344285D01*
X36281904Y-24439523D01*
X36186666Y-24534761D01*
X36043809Y-24582380D01*
X35805714Y-24582380D01*
X88479523Y-29297380D02*
X88479523Y-30106904D01*
X88527142Y-30202142D01*
X88574761Y-30249761D01*
X88670000Y-30297380D01*
X88860476Y-30297380D01*
X88955714Y-30249761D01*
X89003333Y-30202142D01*
X89050952Y-30106904D01*
X89050952Y-29297380D01*
X89860476Y-29773571D02*
X89527142Y-29773571D01*
X89527142Y-30297380D02*
X89527142Y-29297380D01*
X90003333Y-29297380D01*
X90384285Y-30297380D02*
X90384285Y-29297380D01*
X90765238Y-29297380D01*
X90860476Y-29345000D01*
X90908095Y-29392619D01*
X90955714Y-29487857D01*
X90955714Y-29630714D01*
X90908095Y-29725952D01*
X90860476Y-29773571D01*
X90765238Y-29821190D01*
X90384285Y-29821190D01*
X91812857Y-29630714D02*
X91812857Y-30297380D01*
X91574761Y-29249761D02*
X91336666Y-29964047D01*
X91955714Y-29964047D01*
X21830357Y-80732380D02*
X22449404Y-80732380D01*
X22116071Y-81113333D01*
X22258928Y-81113333D01*
X22354166Y-81160952D01*
X22401785Y-81208571D01*
X22449404Y-81303809D01*
X22449404Y-81541904D01*
X22401785Y-81637142D01*
X22354166Y-81684761D01*
X22258928Y-81732380D01*
X21973214Y-81732380D01*
X21877976Y-81684761D01*
X21830357Y-81637142D01*
X22877976Y-81637142D02*
X22925595Y-81684761D01*
X22877976Y-81732380D01*
X22830357Y-81684761D01*
X22877976Y-81637142D01*
X22877976Y-81732380D01*
X23258928Y-80732380D02*
X23877976Y-80732380D01*
X23544642Y-81113333D01*
X23687500Y-81113333D01*
X23782738Y-81160952D01*
X23830357Y-81208571D01*
X23877976Y-81303809D01*
X23877976Y-81541904D01*
X23830357Y-81637142D01*
X23782738Y-81684761D01*
X23687500Y-81732380D01*
X23401785Y-81732380D01*
X23306547Y-81684761D01*
X23258928Y-81637142D01*
X24163690Y-80732380D02*
X24497023Y-81732380D01*
X24830357Y-80732380D01*
X21782738Y-98512380D02*
X22354166Y-98512380D01*
X22068452Y-99512380D02*
X22068452Y-98512380D01*
X22592261Y-98512380D02*
X23258928Y-99512380D01*
X23258928Y-98512380D02*
X22592261Y-99512380D01*
X22497023Y-102052380D02*
X22163690Y-101576190D01*
X21925595Y-102052380D02*
X21925595Y-101052380D01*
X22306547Y-101052380D01*
X22401785Y-101100000D01*
X22449404Y-101147619D01*
X22497023Y-101242857D01*
X22497023Y-101385714D01*
X22449404Y-101480952D01*
X22401785Y-101528571D01*
X22306547Y-101576190D01*
X21925595Y-101576190D01*
X22830357Y-101052380D02*
X23497023Y-102052380D01*
X23497023Y-101052380D02*
X22830357Y-102052380D01*
X21877976Y-94384761D02*
X22020833Y-94432380D01*
X22258928Y-94432380D01*
X22354166Y-94384761D01*
X22401785Y-94337142D01*
X22449404Y-94241904D01*
X22449404Y-94146666D01*
X22401785Y-94051428D01*
X22354166Y-94003809D01*
X22258928Y-93956190D01*
X22068452Y-93908571D01*
X21973214Y-93860952D01*
X21925595Y-93813333D01*
X21877976Y-93718095D01*
X21877976Y-93622857D01*
X21925595Y-93527619D01*
X21973214Y-93480000D01*
X22068452Y-93432380D01*
X22306547Y-93432380D01*
X22449404Y-93480000D01*
X22782738Y-93432380D02*
X23020833Y-94432380D01*
X23211309Y-93718095D01*
X23401785Y-94432380D01*
X23639880Y-93432380D01*
X24211309Y-93432380D02*
X24401785Y-93432380D01*
X24497023Y-93480000D01*
X24592261Y-93575238D01*
X24639880Y-93765714D01*
X24639880Y-94099047D01*
X24592261Y-94289523D01*
X24497023Y-94384761D01*
X24401785Y-94432380D01*
X24211309Y-94432380D01*
X24116071Y-94384761D01*
X24020833Y-94289523D01*
X23973214Y-94099047D01*
X23973214Y-93765714D01*
X24020833Y-93575238D01*
X24116071Y-93480000D01*
X24211309Y-93432380D01*
X21877976Y-89304761D02*
X22020833Y-89352380D01*
X22258928Y-89352380D01*
X22354166Y-89304761D01*
X22401785Y-89257142D01*
X22449404Y-89161904D01*
X22449404Y-89066666D01*
X22401785Y-88971428D01*
X22354166Y-88923809D01*
X22258928Y-88876190D01*
X22068452Y-88828571D01*
X21973214Y-88780952D01*
X21925595Y-88733333D01*
X21877976Y-88638095D01*
X21877976Y-88542857D01*
X21925595Y-88447619D01*
X21973214Y-88400000D01*
X22068452Y-88352380D01*
X22306547Y-88352380D01*
X22449404Y-88400000D01*
X22782738Y-88352380D02*
X23020833Y-89352380D01*
X23211309Y-88638095D01*
X23401785Y-89352380D01*
X23639880Y-88352380D01*
X24020833Y-89352380D02*
X24020833Y-88352380D01*
X24258928Y-88352380D01*
X24401785Y-88400000D01*
X24497023Y-88495238D01*
X24544642Y-88590476D01*
X24592261Y-88780952D01*
X24592261Y-88923809D01*
X24544642Y-89114285D01*
X24497023Y-89209523D01*
X24401785Y-89304761D01*
X24258928Y-89352380D01*
X24020833Y-89352380D01*
X25020833Y-89352380D02*
X25020833Y-88352380D01*
X25687500Y-88352380D02*
X25877976Y-88352380D01*
X25973214Y-88400000D01*
X26068452Y-88495238D01*
X26116071Y-88685714D01*
X26116071Y-89019047D01*
X26068452Y-89209523D01*
X25973214Y-89304761D01*
X25877976Y-89352380D01*
X25687500Y-89352380D01*
X25592261Y-89304761D01*
X25497023Y-89209523D01*
X25449404Y-89019047D01*
X25449404Y-88685714D01*
X25497023Y-88495238D01*
X25592261Y-88400000D01*
X25687500Y-88352380D01*
X22449404Y-85860000D02*
X22354166Y-85812380D01*
X22211309Y-85812380D01*
X22068452Y-85860000D01*
X21973214Y-85955238D01*
X21925595Y-86050476D01*
X21877976Y-86240952D01*
X21877976Y-86383809D01*
X21925595Y-86574285D01*
X21973214Y-86669523D01*
X22068452Y-86764761D01*
X22211309Y-86812380D01*
X22306547Y-86812380D01*
X22449404Y-86764761D01*
X22497023Y-86717142D01*
X22497023Y-86383809D01*
X22306547Y-86383809D01*
X22925595Y-86812380D02*
X22925595Y-85812380D01*
X23497023Y-86812380D01*
X23497023Y-85812380D01*
X23973214Y-86812380D02*
X23973214Y-85812380D01*
X24211309Y-85812380D01*
X24354166Y-85860000D01*
X24449404Y-85955238D01*
X24497023Y-86050476D01*
X24544642Y-86240952D01*
X24544642Y-86383809D01*
X24497023Y-86574285D01*
X24449404Y-86669523D01*
X24354166Y-86764761D01*
X24211309Y-86812380D01*
X23973214Y-86812380D01*
D12*
X80423333Y-104409761D02*
X80423333Y-102409761D01*
X81090000Y-103838333D01*
X81756666Y-102409761D01*
X81756666Y-104409761D01*
X82709047Y-102409761D02*
X82709047Y-104028809D01*
X82804285Y-104219285D01*
X82899523Y-104314523D01*
X83090000Y-104409761D01*
X83470952Y-104409761D01*
X83661428Y-104314523D01*
X83756666Y-104219285D01*
X83851904Y-104028809D01*
X83851904Y-102409761D01*
X84613809Y-102409761D02*
X85947142Y-104409761D01*
X85947142Y-102409761D02*
X84613809Y-104409761D01*
X86709047Y-102409761D02*
X86709047Y-104028809D01*
X86804285Y-104219285D01*
X86899523Y-104314523D01*
X87090000Y-104409761D01*
X87470952Y-104409761D01*
X87661428Y-104314523D01*
X87756666Y-104219285D01*
X87851904Y-104028809D01*
X87851904Y-102409761D01*
X88709047Y-104314523D02*
X88994761Y-104409761D01*
X89470952Y-104409761D01*
X89661428Y-104314523D01*
X89756666Y-104219285D01*
X89851904Y-104028809D01*
X89851904Y-103838333D01*
X89756666Y-103647857D01*
X89661428Y-103552619D01*
X89470952Y-103457380D01*
X89090000Y-103362142D01*
X88899523Y-103266904D01*
X88804285Y-103171666D01*
X88709047Y-102981190D01*
X88709047Y-102790714D01*
X88804285Y-102600238D01*
X88899523Y-102505000D01*
X89090000Y-102409761D01*
X89566190Y-102409761D01*
X89851904Y-102505000D01*
D13*
X67013666Y-54123166D02*
X67013666Y-54758166D01*
X66971333Y-54885166D01*
X66886666Y-54969833D01*
X66759666Y-55012166D01*
X66675000Y-55012166D01*
X67860333Y-55012166D02*
X67437000Y-55012166D01*
X67437000Y-54123166D01*
X68664666Y-54927500D02*
X68622333Y-54969833D01*
X68495333Y-55012166D01*
X68410666Y-55012166D01*
X68283666Y-54969833D01*
X68199000Y-54885166D01*
X68156666Y-54800500D01*
X68114333Y-54631166D01*
X68114333Y-54504166D01*
X68156666Y-54334833D01*
X68199000Y-54250166D01*
X68283666Y-54165500D01*
X68410666Y-54123166D01*
X68495333Y-54123166D01*
X68622333Y-54165500D01*
X68664666Y-54207833D01*
X69299666Y-54123166D02*
X69299666Y-54758166D01*
X69257333Y-54885166D01*
X69172666Y-54969833D01*
X69045666Y-55012166D01*
X68961000Y-55012166D01*
X70146333Y-55012166D02*
X69723000Y-55012166D01*
X69723000Y-54123166D01*
X70950666Y-54927500D02*
X70908333Y-54969833D01*
X70781333Y-55012166D01*
X70696666Y-55012166D01*
X70569666Y-54969833D01*
X70485000Y-54885166D01*
X70442666Y-54800500D01*
X70400333Y-54631166D01*
X70400333Y-54504166D01*
X70442666Y-54334833D01*
X70485000Y-54250166D01*
X70569666Y-54165500D01*
X70696666Y-54123166D01*
X70781333Y-54123166D01*
X70908333Y-54165500D01*
X70950666Y-54207833D01*
X71585666Y-54123166D02*
X71585666Y-54758166D01*
X71543333Y-54885166D01*
X71458666Y-54969833D01*
X71331666Y-55012166D01*
X71247000Y-55012166D01*
X72432333Y-55012166D02*
X72009000Y-55012166D01*
X72009000Y-54123166D01*
X73236666Y-54927500D02*
X73194333Y-54969833D01*
X73067333Y-55012166D01*
X72982666Y-55012166D01*
X72855666Y-54969833D01*
X72771000Y-54885166D01*
X72728666Y-54800500D01*
X72686333Y-54631166D01*
X72686333Y-54504166D01*
X72728666Y-54334833D01*
X72771000Y-54250166D01*
X72855666Y-54165500D01*
X72982666Y-54123166D01*
X73067333Y-54123166D01*
X73194333Y-54165500D01*
X73236666Y-54207833D01*
X73871666Y-54123166D02*
X73871666Y-54758166D01*
X73829333Y-54885166D01*
X73744666Y-54969833D01*
X73617666Y-55012166D01*
X73533000Y-55012166D01*
X74718333Y-55012166D02*
X74295000Y-55012166D01*
X74295000Y-54123166D01*
X75522666Y-54927500D02*
X75480333Y-54969833D01*
X75353333Y-55012166D01*
X75268666Y-55012166D01*
X75141666Y-54969833D01*
X75057000Y-54885166D01*
X75014666Y-54800500D01*
X74972333Y-54631166D01*
X74972333Y-54504166D01*
X75014666Y-54334833D01*
X75057000Y-54250166D01*
X75141666Y-54165500D01*
X75268666Y-54123166D01*
X75353333Y-54123166D01*
X75480333Y-54165500D01*
X75522666Y-54207833D01*
D10*
X69048333Y-72337142D02*
X69000714Y-72384761D01*
X68857857Y-72432380D01*
X68762619Y-72432380D01*
X68619761Y-72384761D01*
X68524523Y-72289523D01*
X68476904Y-72194285D01*
X68429285Y-72003809D01*
X68429285Y-71860952D01*
X68476904Y-71670476D01*
X68524523Y-71575238D01*
X68619761Y-71480000D01*
X68762619Y-71432380D01*
X68857857Y-71432380D01*
X69000714Y-71480000D01*
X69048333Y-71527619D01*
X70000714Y-72432380D02*
X69429285Y-72432380D01*
X69715000Y-72432380D02*
X69715000Y-71432380D01*
X69619761Y-71575238D01*
X69524523Y-71670476D01*
X69429285Y-71718095D01*
X74128333Y-72337142D02*
X74080714Y-72384761D01*
X73937857Y-72432380D01*
X73842619Y-72432380D01*
X73699761Y-72384761D01*
X73604523Y-72289523D01*
X73556904Y-72194285D01*
X73509285Y-72003809D01*
X73509285Y-71860952D01*
X73556904Y-71670476D01*
X73604523Y-71575238D01*
X73699761Y-71480000D01*
X73842619Y-71432380D01*
X73937857Y-71432380D01*
X74080714Y-71480000D01*
X74128333Y-71527619D01*
X74509285Y-71527619D02*
X74556904Y-71480000D01*
X74652142Y-71432380D01*
X74890238Y-71432380D01*
X74985476Y-71480000D01*
X75033095Y-71527619D01*
X75080714Y-71622857D01*
X75080714Y-71718095D01*
X75033095Y-71860952D01*
X74461666Y-72432380D01*
X75080714Y-72432380D01*
X41997333Y-19055142D02*
X41949714Y-19102761D01*
X41806857Y-19150380D01*
X41711619Y-19150380D01*
X41568761Y-19102761D01*
X41473523Y-19007523D01*
X41425904Y-18912285D01*
X41378285Y-18721809D01*
X41378285Y-18578952D01*
X41425904Y-18388476D01*
X41473523Y-18293238D01*
X41568761Y-18198000D01*
X41711619Y-18150380D01*
X41806857Y-18150380D01*
X41949714Y-18198000D01*
X41997333Y-18245619D01*
X42330666Y-18150380D02*
X42949714Y-18150380D01*
X42616380Y-18531333D01*
X42759238Y-18531333D01*
X42854476Y-18578952D01*
X42902095Y-18626571D01*
X42949714Y-18721809D01*
X42949714Y-18959904D01*
X42902095Y-19055142D01*
X42854476Y-19102761D01*
X42759238Y-19150380D01*
X42473523Y-19150380D01*
X42378285Y-19102761D01*
X42330666Y-19055142D01*
X75342142Y-63666666D02*
X75389761Y-63714285D01*
X75437380Y-63857142D01*
X75437380Y-63952380D01*
X75389761Y-64095238D01*
X75294523Y-64190476D01*
X75199285Y-64238095D01*
X75008809Y-64285714D01*
X74865952Y-64285714D01*
X74675476Y-64238095D01*
X74580238Y-64190476D01*
X74485000Y-64095238D01*
X74437380Y-63952380D01*
X74437380Y-63857142D01*
X74485000Y-63714285D01*
X74532619Y-63666666D01*
X74437380Y-63333333D02*
X74437380Y-62666666D01*
X75437380Y-63095238D01*
X60285333Y-54895142D02*
X60237714Y-54942761D01*
X60094857Y-54990380D01*
X59999619Y-54990380D01*
X59856761Y-54942761D01*
X59761523Y-54847523D01*
X59713904Y-54752285D01*
X59666285Y-54561809D01*
X59666285Y-54418952D01*
X59713904Y-54228476D01*
X59761523Y-54133238D01*
X59856761Y-54038000D01*
X59999619Y-53990380D01*
X60094857Y-53990380D01*
X60237714Y-54038000D01*
X60285333Y-54085619D01*
X61190095Y-53990380D02*
X60713904Y-53990380D01*
X60666285Y-54466571D01*
X60713904Y-54418952D01*
X60809142Y-54371333D01*
X61047238Y-54371333D01*
X61142476Y-54418952D01*
X61190095Y-54466571D01*
X61237714Y-54561809D01*
X61237714Y-54799904D01*
X61190095Y-54895142D01*
X61142476Y-54942761D01*
X61047238Y-54990380D01*
X60809142Y-54990380D01*
X60713904Y-54942761D01*
X60666285Y-54895142D01*
X67612142Y-48426666D02*
X67659761Y-48474285D01*
X67707380Y-48617142D01*
X67707380Y-48712380D01*
X67659761Y-48855238D01*
X67564523Y-48950476D01*
X67469285Y-48998095D01*
X67278809Y-49045714D01*
X67135952Y-49045714D01*
X66945476Y-48998095D01*
X66850238Y-48950476D01*
X66755000Y-48855238D01*
X66707380Y-48712380D01*
X66707380Y-48617142D01*
X66755000Y-48474285D01*
X66802619Y-48426666D01*
X67040714Y-47569523D02*
X67707380Y-47569523D01*
X66659761Y-47807619D02*
X67374047Y-48045714D01*
X67374047Y-47426666D01*
X63912142Y-63666666D02*
X63959761Y-63714285D01*
X64007380Y-63857142D01*
X64007380Y-63952380D01*
X63959761Y-64095238D01*
X63864523Y-64190476D01*
X63769285Y-64238095D01*
X63578809Y-64285714D01*
X63435952Y-64285714D01*
X63245476Y-64238095D01*
X63150238Y-64190476D01*
X63055000Y-64095238D01*
X63007380Y-63952380D01*
X63007380Y-63857142D01*
X63055000Y-63714285D01*
X63102619Y-63666666D01*
X63007380Y-62809523D02*
X63007380Y-63000000D01*
X63055000Y-63095238D01*
X63102619Y-63142857D01*
X63245476Y-63238095D01*
X63435952Y-63285714D01*
X63816904Y-63285714D01*
X63912142Y-63238095D01*
X63959761Y-63190476D01*
X64007380Y-63095238D01*
X64007380Y-62904761D01*
X63959761Y-62809523D01*
X63912142Y-62761904D01*
X63816904Y-62714285D01*
X63578809Y-62714285D01*
X63483571Y-62761904D01*
X63435952Y-62809523D01*
X63388333Y-62904761D01*
X63388333Y-63095238D01*
X63435952Y-63190476D01*
X63483571Y-63238095D01*
X63578809Y-63285714D01*
X80605333Y-58933142D02*
X80557714Y-58980761D01*
X80414857Y-59028380D01*
X80319619Y-59028380D01*
X80176761Y-58980761D01*
X80081523Y-58885523D01*
X80033904Y-58790285D01*
X79986285Y-58599809D01*
X79986285Y-58456952D01*
X80033904Y-58266476D01*
X80081523Y-58171238D01*
X80176761Y-58076000D01*
X80319619Y-58028380D01*
X80414857Y-58028380D01*
X80557714Y-58076000D01*
X80605333Y-58123619D01*
X81081523Y-59028380D02*
X81272000Y-59028380D01*
X81367238Y-58980761D01*
X81414857Y-58933142D01*
X81510095Y-58790285D01*
X81557714Y-58599809D01*
X81557714Y-58218857D01*
X81510095Y-58123619D01*
X81462476Y-58076000D01*
X81367238Y-58028380D01*
X81176761Y-58028380D01*
X81081523Y-58076000D01*
X81033904Y-58123619D01*
X80986285Y-58218857D01*
X80986285Y-58456952D01*
X81033904Y-58552190D01*
X81081523Y-58599809D01*
X81176761Y-58647428D01*
X81367238Y-58647428D01*
X81462476Y-58599809D01*
X81510095Y-58552190D01*
X81557714Y-58456952D01*
X80002142Y-55377142D02*
X79954523Y-55424761D01*
X79811666Y-55472380D01*
X79716428Y-55472380D01*
X79573571Y-55424761D01*
X79478333Y-55329523D01*
X79430714Y-55234285D01*
X79383095Y-55043809D01*
X79383095Y-54900952D01*
X79430714Y-54710476D01*
X79478333Y-54615238D01*
X79573571Y-54520000D01*
X79716428Y-54472380D01*
X79811666Y-54472380D01*
X79954523Y-54520000D01*
X80002142Y-54567619D01*
X80954523Y-55472380D02*
X80383095Y-55472380D01*
X80668809Y-55472380D02*
X80668809Y-54472380D01*
X80573571Y-54615238D01*
X80478333Y-54710476D01*
X80383095Y-54758095D01*
X81573571Y-54472380D02*
X81668809Y-54472380D01*
X81764047Y-54520000D01*
X81811666Y-54567619D01*
X81859285Y-54662857D01*
X81906904Y-54853333D01*
X81906904Y-55091428D01*
X81859285Y-55281904D01*
X81811666Y-55377142D01*
X81764047Y-55424761D01*
X81668809Y-55472380D01*
X81573571Y-55472380D01*
X81478333Y-55424761D01*
X81430714Y-55377142D01*
X81383095Y-55281904D01*
X81335476Y-55091428D01*
X81335476Y-54853333D01*
X81383095Y-54662857D01*
X81430714Y-54567619D01*
X81478333Y-54520000D01*
X81573571Y-54472380D01*
X73792142Y-46997857D02*
X73839761Y-47045476D01*
X73887380Y-47188333D01*
X73887380Y-47283571D01*
X73839761Y-47426428D01*
X73744523Y-47521666D01*
X73649285Y-47569285D01*
X73458809Y-47616904D01*
X73315952Y-47616904D01*
X73125476Y-47569285D01*
X73030238Y-47521666D01*
X72935000Y-47426428D01*
X72887380Y-47283571D01*
X72887380Y-47188333D01*
X72935000Y-47045476D01*
X72982619Y-46997857D01*
X73887380Y-46045476D02*
X73887380Y-46616904D01*
X73887380Y-46331190D02*
X72887380Y-46331190D01*
X73030238Y-46426428D01*
X73125476Y-46521666D01*
X73173095Y-46616904D01*
X73887380Y-45093095D02*
X73887380Y-45664523D01*
X73887380Y-45378809D02*
X72887380Y-45378809D01*
X73030238Y-45474047D01*
X73125476Y-45569285D01*
X73173095Y-45664523D01*
X70617142Y-46997857D02*
X70664761Y-47045476D01*
X70712380Y-47188333D01*
X70712380Y-47283571D01*
X70664761Y-47426428D01*
X70569523Y-47521666D01*
X70474285Y-47569285D01*
X70283809Y-47616904D01*
X70140952Y-47616904D01*
X69950476Y-47569285D01*
X69855238Y-47521666D01*
X69760000Y-47426428D01*
X69712380Y-47283571D01*
X69712380Y-47188333D01*
X69760000Y-47045476D01*
X69807619Y-46997857D01*
X70712380Y-46045476D02*
X70712380Y-46616904D01*
X70712380Y-46331190D02*
X69712380Y-46331190D01*
X69855238Y-46426428D01*
X69950476Y-46521666D01*
X69998095Y-46616904D01*
X69807619Y-45664523D02*
X69760000Y-45616904D01*
X69712380Y-45521666D01*
X69712380Y-45283571D01*
X69760000Y-45188333D01*
X69807619Y-45140714D01*
X69902857Y-45093095D01*
X69998095Y-45093095D01*
X70140952Y-45140714D01*
X70712380Y-45712142D01*
X70712380Y-45093095D01*
X99642142Y-73032857D02*
X99689761Y-73080476D01*
X99737380Y-73223333D01*
X99737380Y-73318571D01*
X99689761Y-73461428D01*
X99594523Y-73556666D01*
X99499285Y-73604285D01*
X99308809Y-73651904D01*
X99165952Y-73651904D01*
X98975476Y-73604285D01*
X98880238Y-73556666D01*
X98785000Y-73461428D01*
X98737380Y-73318571D01*
X98737380Y-73223333D01*
X98785000Y-73080476D01*
X98832619Y-73032857D01*
X99737380Y-72080476D02*
X99737380Y-72651904D01*
X99737380Y-72366190D02*
X98737380Y-72366190D01*
X98880238Y-72461428D01*
X98975476Y-72556666D01*
X99023095Y-72651904D01*
X98737380Y-71747142D02*
X98737380Y-71128095D01*
X99118333Y-71461428D01*
X99118333Y-71318571D01*
X99165952Y-71223333D01*
X99213571Y-71175714D01*
X99308809Y-71128095D01*
X99546904Y-71128095D01*
X99642142Y-71175714D01*
X99689761Y-71223333D01*
X99737380Y-71318571D01*
X99737380Y-71604285D01*
X99689761Y-71699523D01*
X99642142Y-71747142D01*
X48633142Y-31062142D02*
X48585523Y-31109761D01*
X48442666Y-31157380D01*
X48347428Y-31157380D01*
X48204571Y-31109761D01*
X48109333Y-31014523D01*
X48061714Y-30919285D01*
X48014095Y-30728809D01*
X48014095Y-30585952D01*
X48061714Y-30395476D01*
X48109333Y-30300238D01*
X48204571Y-30205000D01*
X48347428Y-30157380D01*
X48442666Y-30157380D01*
X48585523Y-30205000D01*
X48633142Y-30252619D01*
X49585523Y-31157380D02*
X49014095Y-31157380D01*
X49299809Y-31157380D02*
X49299809Y-30157380D01*
X49204571Y-30300238D01*
X49109333Y-30395476D01*
X49014095Y-30443095D01*
X50442666Y-30490714D02*
X50442666Y-31157380D01*
X50204571Y-30109761D02*
X49966476Y-30824047D01*
X50585523Y-30824047D01*
X88667142Y-85117857D02*
X88714761Y-85165476D01*
X88762380Y-85308333D01*
X88762380Y-85403571D01*
X88714761Y-85546428D01*
X88619523Y-85641666D01*
X88524285Y-85689285D01*
X88333809Y-85736904D01*
X88190952Y-85736904D01*
X88000476Y-85689285D01*
X87905238Y-85641666D01*
X87810000Y-85546428D01*
X87762380Y-85403571D01*
X87762380Y-85308333D01*
X87810000Y-85165476D01*
X87857619Y-85117857D01*
X88762380Y-84165476D02*
X88762380Y-84736904D01*
X88762380Y-84451190D02*
X87762380Y-84451190D01*
X87905238Y-84546428D01*
X88000476Y-84641666D01*
X88048095Y-84736904D01*
X87762380Y-83260714D02*
X87762380Y-83736904D01*
X88238571Y-83784523D01*
X88190952Y-83736904D01*
X88143333Y-83641666D01*
X88143333Y-83403571D01*
X88190952Y-83308333D01*
X88238571Y-83260714D01*
X88333809Y-83213095D01*
X88571904Y-83213095D01*
X88667142Y-83260714D01*
X88714761Y-83308333D01*
X88762380Y-83403571D01*
X88762380Y-83641666D01*
X88714761Y-83736904D01*
X88667142Y-83784523D01*
X57269142Y-40997142D02*
X57221523Y-41044761D01*
X57078666Y-41092380D01*
X56983428Y-41092380D01*
X56840571Y-41044761D01*
X56745333Y-40949523D01*
X56697714Y-40854285D01*
X56650095Y-40663809D01*
X56650095Y-40520952D01*
X56697714Y-40330476D01*
X56745333Y-40235238D01*
X56840571Y-40140000D01*
X56983428Y-40092380D01*
X57078666Y-40092380D01*
X57221523Y-40140000D01*
X57269142Y-40187619D01*
X58221523Y-41092380D02*
X57650095Y-41092380D01*
X57935809Y-41092380D02*
X57935809Y-40092380D01*
X57840571Y-40235238D01*
X57745333Y-40330476D01*
X57650095Y-40378095D01*
X58554857Y-40092380D02*
X59221523Y-40092380D01*
X58792952Y-41092380D01*
X93591142Y-88847142D02*
X93543523Y-88894761D01*
X93400666Y-88942380D01*
X93305428Y-88942380D01*
X93162571Y-88894761D01*
X93067333Y-88799523D01*
X93019714Y-88704285D01*
X92972095Y-88513809D01*
X92972095Y-88370952D01*
X93019714Y-88180476D01*
X93067333Y-88085238D01*
X93162571Y-87990000D01*
X93305428Y-87942380D01*
X93400666Y-87942380D01*
X93543523Y-87990000D01*
X93591142Y-88037619D01*
X94543523Y-88942380D02*
X93972095Y-88942380D01*
X94257809Y-88942380D02*
X94257809Y-87942380D01*
X94162571Y-88085238D01*
X94067333Y-88180476D01*
X93972095Y-88228095D01*
X95114952Y-88370952D02*
X95019714Y-88323333D01*
X94972095Y-88275714D01*
X94924476Y-88180476D01*
X94924476Y-88132857D01*
X94972095Y-88037619D01*
X95019714Y-87990000D01*
X95114952Y-87942380D01*
X95305428Y-87942380D01*
X95400666Y-87990000D01*
X95448285Y-88037619D01*
X95495904Y-88132857D01*
X95495904Y-88180476D01*
X95448285Y-88275714D01*
X95400666Y-88323333D01*
X95305428Y-88370952D01*
X95114952Y-88370952D01*
X95019714Y-88418571D01*
X94972095Y-88466190D01*
X94924476Y-88561428D01*
X94924476Y-88751904D01*
X94972095Y-88847142D01*
X95019714Y-88894761D01*
X95114952Y-88942380D01*
X95305428Y-88942380D01*
X95400666Y-88894761D01*
X95448285Y-88847142D01*
X95495904Y-88751904D01*
X95495904Y-88561428D01*
X95448285Y-88466190D01*
X95400666Y-88418571D01*
X95305428Y-88370952D01*
X98417142Y-87577142D02*
X98369523Y-87624761D01*
X98226666Y-87672380D01*
X98131428Y-87672380D01*
X97988571Y-87624761D01*
X97893333Y-87529523D01*
X97845714Y-87434285D01*
X97798095Y-87243809D01*
X97798095Y-87100952D01*
X97845714Y-86910476D01*
X97893333Y-86815238D01*
X97988571Y-86720000D01*
X98131428Y-86672380D01*
X98226666Y-86672380D01*
X98369523Y-86720000D01*
X98417142Y-86767619D01*
X99369523Y-87672380D02*
X98798095Y-87672380D01*
X99083809Y-87672380D02*
X99083809Y-86672380D01*
X98988571Y-86815238D01*
X98893333Y-86910476D01*
X98798095Y-86958095D01*
X99845714Y-87672380D02*
X100036190Y-87672380D01*
X100131428Y-87624761D01*
X100179047Y-87577142D01*
X100274285Y-87434285D01*
X100321904Y-87243809D01*
X100321904Y-86862857D01*
X100274285Y-86767619D01*
X100226666Y-86720000D01*
X100131428Y-86672380D01*
X99940952Y-86672380D01*
X99845714Y-86720000D01*
X99798095Y-86767619D01*
X99750476Y-86862857D01*
X99750476Y-87100952D01*
X99798095Y-87196190D01*
X99845714Y-87243809D01*
X99940952Y-87291428D01*
X100131428Y-87291428D01*
X100226666Y-87243809D01*
X100274285Y-87196190D01*
X100321904Y-87100952D01*
X47617142Y-75893142D02*
X47569523Y-75940761D01*
X47426666Y-75988380D01*
X47331428Y-75988380D01*
X47188571Y-75940761D01*
X47093333Y-75845523D01*
X47045714Y-75750285D01*
X46998095Y-75559809D01*
X46998095Y-75416952D01*
X47045714Y-75226476D01*
X47093333Y-75131238D01*
X47188571Y-75036000D01*
X47331428Y-74988380D01*
X47426666Y-74988380D01*
X47569523Y-75036000D01*
X47617142Y-75083619D01*
X47998095Y-75083619D02*
X48045714Y-75036000D01*
X48140952Y-74988380D01*
X48379047Y-74988380D01*
X48474285Y-75036000D01*
X48521904Y-75083619D01*
X48569523Y-75178857D01*
X48569523Y-75274095D01*
X48521904Y-75416952D01*
X47950476Y-75988380D01*
X48569523Y-75988380D01*
X49188571Y-74988380D02*
X49283809Y-74988380D01*
X49379047Y-75036000D01*
X49426666Y-75083619D01*
X49474285Y-75178857D01*
X49521904Y-75369333D01*
X49521904Y-75607428D01*
X49474285Y-75797904D01*
X49426666Y-75893142D01*
X49379047Y-75940761D01*
X49283809Y-75988380D01*
X49188571Y-75988380D01*
X49093333Y-75940761D01*
X49045714Y-75893142D01*
X48998095Y-75797904D01*
X48950476Y-75607428D01*
X48950476Y-75369333D01*
X48998095Y-75178857D01*
X49045714Y-75083619D01*
X49093333Y-75036000D01*
X49188571Y-74988380D01*
X99642142Y-52712857D02*
X99689761Y-52760476D01*
X99737380Y-52903333D01*
X99737380Y-52998571D01*
X99689761Y-53141428D01*
X99594523Y-53236666D01*
X99499285Y-53284285D01*
X99308809Y-53331904D01*
X99165952Y-53331904D01*
X98975476Y-53284285D01*
X98880238Y-53236666D01*
X98785000Y-53141428D01*
X98737380Y-52998571D01*
X98737380Y-52903333D01*
X98785000Y-52760476D01*
X98832619Y-52712857D01*
X98832619Y-52331904D02*
X98785000Y-52284285D01*
X98737380Y-52189047D01*
X98737380Y-51950952D01*
X98785000Y-51855714D01*
X98832619Y-51808095D01*
X98927857Y-51760476D01*
X99023095Y-51760476D01*
X99165952Y-51808095D01*
X99737380Y-52379523D01*
X99737380Y-51760476D01*
X98737380Y-51427142D02*
X98737380Y-50808095D01*
X99118333Y-51141428D01*
X99118333Y-50998571D01*
X99165952Y-50903333D01*
X99213571Y-50855714D01*
X99308809Y-50808095D01*
X99546904Y-50808095D01*
X99642142Y-50855714D01*
X99689761Y-50903333D01*
X99737380Y-50998571D01*
X99737380Y-51284285D01*
X99689761Y-51379523D01*
X99642142Y-51427142D01*
X66413142Y-31062142D02*
X66365523Y-31109761D01*
X66222666Y-31157380D01*
X66127428Y-31157380D01*
X65984571Y-31109761D01*
X65889333Y-31014523D01*
X65841714Y-30919285D01*
X65794095Y-30728809D01*
X65794095Y-30585952D01*
X65841714Y-30395476D01*
X65889333Y-30300238D01*
X65984571Y-30205000D01*
X66127428Y-30157380D01*
X66222666Y-30157380D01*
X66365523Y-30205000D01*
X66413142Y-30252619D01*
X66794095Y-30252619D02*
X66841714Y-30205000D01*
X66936952Y-30157380D01*
X67175047Y-30157380D01*
X67270285Y-30205000D01*
X67317904Y-30252619D01*
X67365523Y-30347857D01*
X67365523Y-30443095D01*
X67317904Y-30585952D01*
X66746476Y-31157380D01*
X67365523Y-31157380D01*
X68222666Y-30490714D02*
X68222666Y-31157380D01*
X67984571Y-30109761D02*
X67746476Y-30824047D01*
X68365523Y-30824047D01*
X77827142Y-98686857D02*
X77874761Y-98734476D01*
X77922380Y-98877333D01*
X77922380Y-98972571D01*
X77874761Y-99115428D01*
X77779523Y-99210666D01*
X77684285Y-99258285D01*
X77493809Y-99305904D01*
X77350952Y-99305904D01*
X77160476Y-99258285D01*
X77065238Y-99210666D01*
X76970000Y-99115428D01*
X76922380Y-98972571D01*
X76922380Y-98877333D01*
X76970000Y-98734476D01*
X77017619Y-98686857D01*
X77017619Y-98305904D02*
X76970000Y-98258285D01*
X76922380Y-98163047D01*
X76922380Y-97924952D01*
X76970000Y-97829714D01*
X77017619Y-97782095D01*
X77112857Y-97734476D01*
X77208095Y-97734476D01*
X77350952Y-97782095D01*
X77922380Y-98353523D01*
X77922380Y-97734476D01*
X76922380Y-96877333D02*
X76922380Y-97067809D01*
X76970000Y-97163047D01*
X77017619Y-97210666D01*
X77160476Y-97305904D01*
X77350952Y-97353523D01*
X77731904Y-97353523D01*
X77827142Y-97305904D01*
X77874761Y-97258285D01*
X77922380Y-97163047D01*
X77922380Y-96972571D01*
X77874761Y-96877333D01*
X77827142Y-96829714D01*
X77731904Y-96782095D01*
X77493809Y-96782095D01*
X77398571Y-96829714D01*
X77350952Y-96877333D01*
X77303333Y-96972571D01*
X77303333Y-97163047D01*
X77350952Y-97258285D01*
X77398571Y-97305904D01*
X77493809Y-97353523D01*
X48715142Y-98686857D02*
X48762761Y-98734476D01*
X48810380Y-98877333D01*
X48810380Y-98972571D01*
X48762761Y-99115428D01*
X48667523Y-99210666D01*
X48572285Y-99258285D01*
X48381809Y-99305904D01*
X48238952Y-99305904D01*
X48048476Y-99258285D01*
X47953238Y-99210666D01*
X47858000Y-99115428D01*
X47810380Y-98972571D01*
X47810380Y-98877333D01*
X47858000Y-98734476D01*
X47905619Y-98686857D01*
X47905619Y-98305904D02*
X47858000Y-98258285D01*
X47810380Y-98163047D01*
X47810380Y-97924952D01*
X47858000Y-97829714D01*
X47905619Y-97782095D01*
X48000857Y-97734476D01*
X48096095Y-97734476D01*
X48238952Y-97782095D01*
X48810380Y-98353523D01*
X48810380Y-97734476D01*
X47810380Y-97401142D02*
X47810380Y-96734476D01*
X48810380Y-97163047D01*
X93337142Y-68527142D02*
X93289523Y-68574761D01*
X93146666Y-68622380D01*
X93051428Y-68622380D01*
X92908571Y-68574761D01*
X92813333Y-68479523D01*
X92765714Y-68384285D01*
X92718095Y-68193809D01*
X92718095Y-68050952D01*
X92765714Y-67860476D01*
X92813333Y-67765238D01*
X92908571Y-67670000D01*
X93051428Y-67622380D01*
X93146666Y-67622380D01*
X93289523Y-67670000D01*
X93337142Y-67717619D01*
X93718095Y-67717619D02*
X93765714Y-67670000D01*
X93860952Y-67622380D01*
X94099047Y-67622380D01*
X94194285Y-67670000D01*
X94241904Y-67717619D01*
X94289523Y-67812857D01*
X94289523Y-67908095D01*
X94241904Y-68050952D01*
X93670476Y-68622380D01*
X94289523Y-68622380D01*
X94765714Y-68622380D02*
X94956190Y-68622380D01*
X95051428Y-68574761D01*
X95099047Y-68527142D01*
X95194285Y-68384285D01*
X95241904Y-68193809D01*
X95241904Y-67812857D01*
X95194285Y-67717619D01*
X95146666Y-67670000D01*
X95051428Y-67622380D01*
X94860952Y-67622380D01*
X94765714Y-67670000D01*
X94718095Y-67717619D01*
X94670476Y-67812857D01*
X94670476Y-68050952D01*
X94718095Y-68146190D01*
X94765714Y-68193809D01*
X94860952Y-68241428D01*
X95051428Y-68241428D01*
X95146666Y-68193809D01*
X95194285Y-68146190D01*
X95241904Y-68050952D01*
X29342142Y-29217857D02*
X29389761Y-29265476D01*
X29437380Y-29408333D01*
X29437380Y-29503571D01*
X29389761Y-29646428D01*
X29294523Y-29741666D01*
X29199285Y-29789285D01*
X29008809Y-29836904D01*
X28865952Y-29836904D01*
X28675476Y-29789285D01*
X28580238Y-29741666D01*
X28485000Y-29646428D01*
X28437380Y-29503571D01*
X28437380Y-29408333D01*
X28485000Y-29265476D01*
X28532619Y-29217857D01*
X28437380Y-28884523D02*
X28437380Y-28265476D01*
X28818333Y-28598809D01*
X28818333Y-28455952D01*
X28865952Y-28360714D01*
X28913571Y-28313095D01*
X29008809Y-28265476D01*
X29246904Y-28265476D01*
X29342142Y-28313095D01*
X29389761Y-28360714D01*
X29437380Y-28455952D01*
X29437380Y-28741666D01*
X29389761Y-28836904D01*
X29342142Y-28884523D01*
X29437380Y-27313095D02*
X29437380Y-27884523D01*
X29437380Y-27598809D02*
X28437380Y-27598809D01*
X28580238Y-27694047D01*
X28675476Y-27789285D01*
X28723095Y-27884523D01*
X98417142Y-67257142D02*
X98369523Y-67304761D01*
X98226666Y-67352380D01*
X98131428Y-67352380D01*
X97988571Y-67304761D01*
X97893333Y-67209523D01*
X97845714Y-67114285D01*
X97798095Y-66923809D01*
X97798095Y-66780952D01*
X97845714Y-66590476D01*
X97893333Y-66495238D01*
X97988571Y-66400000D01*
X98131428Y-66352380D01*
X98226666Y-66352380D01*
X98369523Y-66400000D01*
X98417142Y-66447619D01*
X98750476Y-66352380D02*
X99369523Y-66352380D01*
X99036190Y-66733333D01*
X99179047Y-66733333D01*
X99274285Y-66780952D01*
X99321904Y-66828571D01*
X99369523Y-66923809D01*
X99369523Y-67161904D01*
X99321904Y-67257142D01*
X99274285Y-67304761D01*
X99179047Y-67352380D01*
X98893333Y-67352380D01*
X98798095Y-67304761D01*
X98750476Y-67257142D01*
X99750476Y-66447619D02*
X99798095Y-66400000D01*
X99893333Y-66352380D01*
X100131428Y-66352380D01*
X100226666Y-66400000D01*
X100274285Y-66447619D01*
X100321904Y-66542857D01*
X100321904Y-66638095D01*
X100274285Y-66780952D01*
X99702857Y-67352380D01*
X100321904Y-67352380D01*
X34917142Y-39502142D02*
X34869523Y-39549761D01*
X34726666Y-39597380D01*
X34631428Y-39597380D01*
X34488571Y-39549761D01*
X34393333Y-39454523D01*
X34345714Y-39359285D01*
X34298095Y-39168809D01*
X34298095Y-39025952D01*
X34345714Y-38835476D01*
X34393333Y-38740238D01*
X34488571Y-38645000D01*
X34631428Y-38597380D01*
X34726666Y-38597380D01*
X34869523Y-38645000D01*
X34917142Y-38692619D01*
X35250476Y-38597380D02*
X35869523Y-38597380D01*
X35536190Y-38978333D01*
X35679047Y-38978333D01*
X35774285Y-39025952D01*
X35821904Y-39073571D01*
X35869523Y-39168809D01*
X35869523Y-39406904D01*
X35821904Y-39502142D01*
X35774285Y-39549761D01*
X35679047Y-39597380D01*
X35393333Y-39597380D01*
X35298095Y-39549761D01*
X35250476Y-39502142D01*
X36202857Y-38597380D02*
X36821904Y-38597380D01*
X36488571Y-38978333D01*
X36631428Y-38978333D01*
X36726666Y-39025952D01*
X36774285Y-39073571D01*
X36821904Y-39168809D01*
X36821904Y-39406904D01*
X36774285Y-39502142D01*
X36726666Y-39549761D01*
X36631428Y-39597380D01*
X36345714Y-39597380D01*
X36250476Y-39549761D01*
X36202857Y-39502142D01*
X16457142Y-34932857D02*
X16504761Y-34980476D01*
X16552380Y-35123333D01*
X16552380Y-35218571D01*
X16504761Y-35361428D01*
X16409523Y-35456666D01*
X16314285Y-35504285D01*
X16123809Y-35551904D01*
X15980952Y-35551904D01*
X15790476Y-35504285D01*
X15695238Y-35456666D01*
X15600000Y-35361428D01*
X15552380Y-35218571D01*
X15552380Y-35123333D01*
X15600000Y-34980476D01*
X15647619Y-34932857D01*
X15552380Y-34599523D02*
X15552380Y-33980476D01*
X15933333Y-34313809D01*
X15933333Y-34170952D01*
X15980952Y-34075714D01*
X16028571Y-34028095D01*
X16123809Y-33980476D01*
X16361904Y-33980476D01*
X16457142Y-34028095D01*
X16504761Y-34075714D01*
X16552380Y-34170952D01*
X16552380Y-34456666D01*
X16504761Y-34551904D01*
X16457142Y-34599523D01*
X15885714Y-33123333D02*
X16552380Y-33123333D01*
X15504761Y-33361428D02*
X16219047Y-33599523D01*
X16219047Y-32980476D01*
X99642142Y-32646857D02*
X99689761Y-32694476D01*
X99737380Y-32837333D01*
X99737380Y-32932571D01*
X99689761Y-33075428D01*
X99594523Y-33170666D01*
X99499285Y-33218285D01*
X99308809Y-33265904D01*
X99165952Y-33265904D01*
X98975476Y-33218285D01*
X98880238Y-33170666D01*
X98785000Y-33075428D01*
X98737380Y-32932571D01*
X98737380Y-32837333D01*
X98785000Y-32694476D01*
X98832619Y-32646857D01*
X98737380Y-32313523D02*
X98737380Y-31694476D01*
X99118333Y-32027809D01*
X99118333Y-31884952D01*
X99165952Y-31789714D01*
X99213571Y-31742095D01*
X99308809Y-31694476D01*
X99546904Y-31694476D01*
X99642142Y-31742095D01*
X99689761Y-31789714D01*
X99737380Y-31884952D01*
X99737380Y-32170666D01*
X99689761Y-32265904D01*
X99642142Y-32313523D01*
X98737380Y-30789714D02*
X98737380Y-31265904D01*
X99213571Y-31313523D01*
X99165952Y-31265904D01*
X99118333Y-31170666D01*
X99118333Y-30932571D01*
X99165952Y-30837333D01*
X99213571Y-30789714D01*
X99308809Y-30742095D01*
X99546904Y-30742095D01*
X99642142Y-30789714D01*
X99689761Y-30837333D01*
X99737380Y-30932571D01*
X99737380Y-31170666D01*
X99689761Y-31265904D01*
X99642142Y-31313523D01*
X84193142Y-31189142D02*
X84145523Y-31236761D01*
X84002666Y-31284380D01*
X83907428Y-31284380D01*
X83764571Y-31236761D01*
X83669333Y-31141523D01*
X83621714Y-31046285D01*
X83574095Y-30855809D01*
X83574095Y-30712952D01*
X83621714Y-30522476D01*
X83669333Y-30427238D01*
X83764571Y-30332000D01*
X83907428Y-30284380D01*
X84002666Y-30284380D01*
X84145523Y-30332000D01*
X84193142Y-30379619D01*
X84526476Y-30284380D02*
X85145523Y-30284380D01*
X84812190Y-30665333D01*
X84955047Y-30665333D01*
X85050285Y-30712952D01*
X85097904Y-30760571D01*
X85145523Y-30855809D01*
X85145523Y-31093904D01*
X85097904Y-31189142D01*
X85050285Y-31236761D01*
X84955047Y-31284380D01*
X84669333Y-31284380D01*
X84574095Y-31236761D01*
X84526476Y-31189142D01*
X86002666Y-30284380D02*
X85812190Y-30284380D01*
X85716952Y-30332000D01*
X85669333Y-30379619D01*
X85574095Y-30522476D01*
X85526476Y-30712952D01*
X85526476Y-31093904D01*
X85574095Y-31189142D01*
X85621714Y-31236761D01*
X85716952Y-31284380D01*
X85907428Y-31284380D01*
X86002666Y-31236761D01*
X86050285Y-31189142D01*
X86097904Y-31093904D01*
X86097904Y-30855809D01*
X86050285Y-30760571D01*
X86002666Y-30712952D01*
X85907428Y-30665333D01*
X85716952Y-30665333D01*
X85621714Y-30712952D01*
X85574095Y-30760571D01*
X85526476Y-30855809D01*
X93337142Y-48207142D02*
X93289523Y-48254761D01*
X93146666Y-48302380D01*
X93051428Y-48302380D01*
X92908571Y-48254761D01*
X92813333Y-48159523D01*
X92765714Y-48064285D01*
X92718095Y-47873809D01*
X92718095Y-47730952D01*
X92765714Y-47540476D01*
X92813333Y-47445238D01*
X92908571Y-47350000D01*
X93051428Y-47302380D01*
X93146666Y-47302380D01*
X93289523Y-47350000D01*
X93337142Y-47397619D01*
X93670476Y-47302380D02*
X94289523Y-47302380D01*
X93956190Y-47683333D01*
X94099047Y-47683333D01*
X94194285Y-47730952D01*
X94241904Y-47778571D01*
X94289523Y-47873809D01*
X94289523Y-48111904D01*
X94241904Y-48207142D01*
X94194285Y-48254761D01*
X94099047Y-48302380D01*
X93813333Y-48302380D01*
X93718095Y-48254761D01*
X93670476Y-48207142D01*
X94860952Y-47730952D02*
X94765714Y-47683333D01*
X94718095Y-47635714D01*
X94670476Y-47540476D01*
X94670476Y-47492857D01*
X94718095Y-47397619D01*
X94765714Y-47350000D01*
X94860952Y-47302380D01*
X95051428Y-47302380D01*
X95146666Y-47350000D01*
X95194285Y-47397619D01*
X95241904Y-47492857D01*
X95241904Y-47540476D01*
X95194285Y-47635714D01*
X95146666Y-47683333D01*
X95051428Y-47730952D01*
X94860952Y-47730952D01*
X94765714Y-47778571D01*
X94718095Y-47826190D01*
X94670476Y-47921428D01*
X94670476Y-48111904D01*
X94718095Y-48207142D01*
X94765714Y-48254761D01*
X94860952Y-48302380D01*
X95051428Y-48302380D01*
X95146666Y-48254761D01*
X95194285Y-48207142D01*
X95241904Y-48111904D01*
X95241904Y-47921428D01*
X95194285Y-47826190D01*
X95146666Y-47778571D01*
X95051428Y-47730952D01*
X27297142Y-55362142D02*
X27249523Y-55409761D01*
X27106666Y-55457380D01*
X27011428Y-55457380D01*
X26868571Y-55409761D01*
X26773333Y-55314523D01*
X26725714Y-55219285D01*
X26678095Y-55028809D01*
X26678095Y-54885952D01*
X26725714Y-54695476D01*
X26773333Y-54600238D01*
X26868571Y-54505000D01*
X27011428Y-54457380D01*
X27106666Y-54457380D01*
X27249523Y-54505000D01*
X27297142Y-54552619D01*
X27630476Y-54457380D02*
X28249523Y-54457380D01*
X27916190Y-54838333D01*
X28059047Y-54838333D01*
X28154285Y-54885952D01*
X28201904Y-54933571D01*
X28249523Y-55028809D01*
X28249523Y-55266904D01*
X28201904Y-55362142D01*
X28154285Y-55409761D01*
X28059047Y-55457380D01*
X27773333Y-55457380D01*
X27678095Y-55409761D01*
X27630476Y-55362142D01*
X28725714Y-55457380D02*
X28916190Y-55457380D01*
X29011428Y-55409761D01*
X29059047Y-55362142D01*
X29154285Y-55219285D01*
X29201904Y-55028809D01*
X29201904Y-54647857D01*
X29154285Y-54552619D01*
X29106666Y-54505000D01*
X29011428Y-54457380D01*
X28820952Y-54457380D01*
X28725714Y-54505000D01*
X28678095Y-54552619D01*
X28630476Y-54647857D01*
X28630476Y-54885952D01*
X28678095Y-54981190D01*
X28725714Y-55028809D01*
X28820952Y-55076428D01*
X29011428Y-55076428D01*
X29106666Y-55028809D01*
X29154285Y-54981190D01*
X29201904Y-54885952D01*
X98417142Y-46937142D02*
X98369523Y-46984761D01*
X98226666Y-47032380D01*
X98131428Y-47032380D01*
X97988571Y-46984761D01*
X97893333Y-46889523D01*
X97845714Y-46794285D01*
X97798095Y-46603809D01*
X97798095Y-46460952D01*
X97845714Y-46270476D01*
X97893333Y-46175238D01*
X97988571Y-46080000D01*
X98131428Y-46032380D01*
X98226666Y-46032380D01*
X98369523Y-46080000D01*
X98417142Y-46127619D01*
X99274285Y-46365714D02*
X99274285Y-47032380D01*
X99036190Y-45984761D02*
X98798095Y-46699047D01*
X99417142Y-46699047D01*
X99988571Y-46032380D02*
X100083809Y-46032380D01*
X100179047Y-46080000D01*
X100226666Y-46127619D01*
X100274285Y-46222857D01*
X100321904Y-46413333D01*
X100321904Y-46651428D01*
X100274285Y-46841904D01*
X100226666Y-46937142D01*
X100179047Y-46984761D01*
X100083809Y-47032380D01*
X99988571Y-47032380D01*
X99893333Y-46984761D01*
X99845714Y-46937142D01*
X99798095Y-46841904D01*
X99750476Y-46651428D01*
X99750476Y-46413333D01*
X99798095Y-46222857D01*
X99845714Y-46127619D01*
X99893333Y-46080000D01*
X99988571Y-46032380D01*
X100861904Y-111662380D02*
X100861904Y-110662380D01*
X101100000Y-110662380D01*
X101242857Y-110710000D01*
X101338095Y-110805238D01*
X101385714Y-110900476D01*
X101433333Y-111090952D01*
X101433333Y-111233809D01*
X101385714Y-111424285D01*
X101338095Y-111519523D01*
X101242857Y-111614761D01*
X101100000Y-111662380D01*
X100861904Y-111662380D01*
X102385714Y-111662380D02*
X101814285Y-111662380D01*
X102100000Y-111662380D02*
X102100000Y-110662380D01*
X102004761Y-110805238D01*
X101909523Y-110900476D01*
X101814285Y-110948095D01*
X95781904Y-111662380D02*
X95781904Y-110662380D01*
X96020000Y-110662380D01*
X96162857Y-110710000D01*
X96258095Y-110805238D01*
X96305714Y-110900476D01*
X96353333Y-111090952D01*
X96353333Y-111233809D01*
X96305714Y-111424285D01*
X96258095Y-111519523D01*
X96162857Y-111614761D01*
X96020000Y-111662380D01*
X95781904Y-111662380D01*
X96734285Y-110757619D02*
X96781904Y-110710000D01*
X96877142Y-110662380D01*
X97115238Y-110662380D01*
X97210476Y-110710000D01*
X97258095Y-110757619D01*
X97305714Y-110852857D01*
X97305714Y-110948095D01*
X97258095Y-111090952D01*
X96686666Y-111662380D01*
X97305714Y-111662380D01*
X88161904Y-111662380D02*
X88161904Y-110662380D01*
X88400000Y-110662380D01*
X88542857Y-110710000D01*
X88638095Y-110805238D01*
X88685714Y-110900476D01*
X88733333Y-111090952D01*
X88733333Y-111233809D01*
X88685714Y-111424285D01*
X88638095Y-111519523D01*
X88542857Y-111614761D01*
X88400000Y-111662380D01*
X88161904Y-111662380D01*
X89066666Y-110662380D02*
X89685714Y-110662380D01*
X89352380Y-111043333D01*
X89495238Y-111043333D01*
X89590476Y-111090952D01*
X89638095Y-111138571D01*
X89685714Y-111233809D01*
X89685714Y-111471904D01*
X89638095Y-111567142D01*
X89590476Y-111614761D01*
X89495238Y-111662380D01*
X89209523Y-111662380D01*
X89114285Y-111614761D01*
X89066666Y-111567142D01*
X83081904Y-111662380D02*
X83081904Y-110662380D01*
X83320000Y-110662380D01*
X83462857Y-110710000D01*
X83558095Y-110805238D01*
X83605714Y-110900476D01*
X83653333Y-111090952D01*
X83653333Y-111233809D01*
X83605714Y-111424285D01*
X83558095Y-111519523D01*
X83462857Y-111614761D01*
X83320000Y-111662380D01*
X83081904Y-111662380D01*
X84510476Y-110995714D02*
X84510476Y-111662380D01*
X84272380Y-110614761D02*
X84034285Y-111329047D01*
X84653333Y-111329047D01*
X75331904Y-111662380D02*
X75331904Y-110662380D01*
X75570000Y-110662380D01*
X75712857Y-110710000D01*
X75808095Y-110805238D01*
X75855714Y-110900476D01*
X75903333Y-111090952D01*
X75903333Y-111233809D01*
X75855714Y-111424285D01*
X75808095Y-111519523D01*
X75712857Y-111614761D01*
X75570000Y-111662380D01*
X75331904Y-111662380D01*
X76808095Y-110662380D02*
X76331904Y-110662380D01*
X76284285Y-111138571D01*
X76331904Y-111090952D01*
X76427142Y-111043333D01*
X76665238Y-111043333D01*
X76760476Y-111090952D01*
X76808095Y-111138571D01*
X76855714Y-111233809D01*
X76855714Y-111471904D01*
X76808095Y-111567142D01*
X76760476Y-111614761D01*
X76665238Y-111662380D01*
X76427142Y-111662380D01*
X76331904Y-111614761D01*
X76284285Y-111567142D01*
X70381904Y-111662380D02*
X70381904Y-110662380D01*
X70620000Y-110662380D01*
X70762857Y-110710000D01*
X70858095Y-110805238D01*
X70905714Y-110900476D01*
X70953333Y-111090952D01*
X70953333Y-111233809D01*
X70905714Y-111424285D01*
X70858095Y-111519523D01*
X70762857Y-111614761D01*
X70620000Y-111662380D01*
X70381904Y-111662380D01*
X71810476Y-110662380D02*
X71620000Y-110662380D01*
X71524761Y-110710000D01*
X71477142Y-110757619D01*
X71381904Y-110900476D01*
X71334285Y-111090952D01*
X71334285Y-111471904D01*
X71381904Y-111567142D01*
X71429523Y-111614761D01*
X71524761Y-111662380D01*
X71715238Y-111662380D01*
X71810476Y-111614761D01*
X71858095Y-111567142D01*
X71905714Y-111471904D01*
X71905714Y-111233809D01*
X71858095Y-111138571D01*
X71810476Y-111090952D01*
X71715238Y-111043333D01*
X71524761Y-111043333D01*
X71429523Y-111090952D01*
X71381904Y-111138571D01*
X71334285Y-111233809D01*
X62761904Y-111662380D02*
X62761904Y-110662380D01*
X63000000Y-110662380D01*
X63142857Y-110710000D01*
X63238095Y-110805238D01*
X63285714Y-110900476D01*
X63333333Y-111090952D01*
X63333333Y-111233809D01*
X63285714Y-111424285D01*
X63238095Y-111519523D01*
X63142857Y-111614761D01*
X63000000Y-111662380D01*
X62761904Y-111662380D01*
X63666666Y-110662380D02*
X64333333Y-110662380D01*
X63904761Y-111662380D01*
X57681904Y-111662380D02*
X57681904Y-110662380D01*
X57920000Y-110662380D01*
X58062857Y-110710000D01*
X58158095Y-110805238D01*
X58205714Y-110900476D01*
X58253333Y-111090952D01*
X58253333Y-111233809D01*
X58205714Y-111424285D01*
X58158095Y-111519523D01*
X58062857Y-111614761D01*
X57920000Y-111662380D01*
X57681904Y-111662380D01*
X58824761Y-111090952D02*
X58729523Y-111043333D01*
X58681904Y-110995714D01*
X58634285Y-110900476D01*
X58634285Y-110852857D01*
X58681904Y-110757619D01*
X58729523Y-110710000D01*
X58824761Y-110662380D01*
X59015238Y-110662380D01*
X59110476Y-110710000D01*
X59158095Y-110757619D01*
X59205714Y-110852857D01*
X59205714Y-110900476D01*
X59158095Y-110995714D01*
X59110476Y-111043333D01*
X59015238Y-111090952D01*
X58824761Y-111090952D01*
X58729523Y-111138571D01*
X58681904Y-111186190D01*
X58634285Y-111281428D01*
X58634285Y-111471904D01*
X58681904Y-111567142D01*
X58729523Y-111614761D01*
X58824761Y-111662380D01*
X59015238Y-111662380D01*
X59110476Y-111614761D01*
X59158095Y-111567142D01*
X59205714Y-111471904D01*
X59205714Y-111281428D01*
X59158095Y-111186190D01*
X59110476Y-111138571D01*
X59015238Y-111090952D01*
X27201904Y-106982380D02*
X27201904Y-105982380D01*
X27440000Y-105982380D01*
X27582857Y-106030000D01*
X27678095Y-106125238D01*
X27725714Y-106220476D01*
X27773333Y-106410952D01*
X27773333Y-106553809D01*
X27725714Y-106744285D01*
X27678095Y-106839523D01*
X27582857Y-106934761D01*
X27440000Y-106982380D01*
X27201904Y-106982380D01*
X28249523Y-106982380D02*
X28440000Y-106982380D01*
X28535238Y-106934761D01*
X28582857Y-106887142D01*
X28678095Y-106744285D01*
X28725714Y-106553809D01*
X28725714Y-106172857D01*
X28678095Y-106077619D01*
X28630476Y-106030000D01*
X28535238Y-105982380D01*
X28344761Y-105982380D01*
X28249523Y-106030000D01*
X28201904Y-106077619D01*
X28154285Y-106172857D01*
X28154285Y-106410952D01*
X28201904Y-106506190D01*
X28249523Y-106553809D01*
X28344761Y-106601428D01*
X28535238Y-106601428D01*
X28630476Y-106553809D01*
X28678095Y-106506190D01*
X28725714Y-106410952D01*
X34345714Y-106982380D02*
X34345714Y-105982380D01*
X34583809Y-105982380D01*
X34726666Y-106030000D01*
X34821904Y-106125238D01*
X34869523Y-106220476D01*
X34917142Y-106410952D01*
X34917142Y-106553809D01*
X34869523Y-106744285D01*
X34821904Y-106839523D01*
X34726666Y-106934761D01*
X34583809Y-106982380D01*
X34345714Y-106982380D01*
X35869523Y-106982380D02*
X35298095Y-106982380D01*
X35583809Y-106982380D02*
X35583809Y-105982380D01*
X35488571Y-106125238D01*
X35393333Y-106220476D01*
X35298095Y-106268095D01*
X36488571Y-105982380D02*
X36583809Y-105982380D01*
X36679047Y-106030000D01*
X36726666Y-106077619D01*
X36774285Y-106172857D01*
X36821904Y-106363333D01*
X36821904Y-106601428D01*
X36774285Y-106791904D01*
X36726666Y-106887142D01*
X36679047Y-106934761D01*
X36583809Y-106982380D01*
X36488571Y-106982380D01*
X36393333Y-106934761D01*
X36345714Y-106887142D01*
X36298095Y-106791904D01*
X36250476Y-106601428D01*
X36250476Y-106363333D01*
X36298095Y-106172857D01*
X36345714Y-106077619D01*
X36393333Y-106030000D01*
X36488571Y-105982380D01*
X41965714Y-106982380D02*
X41965714Y-105982380D01*
X42203809Y-105982380D01*
X42346666Y-106030000D01*
X42441904Y-106125238D01*
X42489523Y-106220476D01*
X42537142Y-106410952D01*
X42537142Y-106553809D01*
X42489523Y-106744285D01*
X42441904Y-106839523D01*
X42346666Y-106934761D01*
X42203809Y-106982380D01*
X41965714Y-106982380D01*
X43489523Y-106982380D02*
X42918095Y-106982380D01*
X43203809Y-106982380D02*
X43203809Y-105982380D01*
X43108571Y-106125238D01*
X43013333Y-106220476D01*
X42918095Y-106268095D01*
X44441904Y-106982380D02*
X43870476Y-106982380D01*
X44156190Y-106982380D02*
X44156190Y-105982380D01*
X44060952Y-106125238D01*
X43965714Y-106220476D01*
X43870476Y-106268095D01*
X36302380Y-46299285D02*
X35302380Y-46299285D01*
X35302380Y-46061190D01*
X35350000Y-45918333D01*
X35445238Y-45823095D01*
X35540476Y-45775476D01*
X35730952Y-45727857D01*
X35873809Y-45727857D01*
X36064285Y-45775476D01*
X36159523Y-45823095D01*
X36254761Y-45918333D01*
X36302380Y-46061190D01*
X36302380Y-46299285D01*
X36302380Y-44775476D02*
X36302380Y-45346904D01*
X36302380Y-45061190D02*
X35302380Y-45061190D01*
X35445238Y-45156428D01*
X35540476Y-45251666D01*
X35588095Y-45346904D01*
X35302380Y-44442142D02*
X35302380Y-43823095D01*
X35683333Y-44156428D01*
X35683333Y-44013571D01*
X35730952Y-43918333D01*
X35778571Y-43870714D01*
X35873809Y-43823095D01*
X36111904Y-43823095D01*
X36207142Y-43870714D01*
X36254761Y-43918333D01*
X36302380Y-44013571D01*
X36302380Y-44299285D01*
X36254761Y-44394523D01*
X36207142Y-44442142D01*
X23796666Y-25226971D02*
X23463333Y-25226971D01*
X23463333Y-25750780D02*
X23463333Y-24750780D01*
X23939523Y-24750780D01*
X24844285Y-25750780D02*
X24272857Y-25750780D01*
X24558571Y-25750780D02*
X24558571Y-24750780D01*
X24463333Y-24893638D01*
X24368095Y-24988876D01*
X24272857Y-25036495D01*
D14*
X110074523Y-78838333D02*
X110981666Y-78838333D01*
X111163095Y-78898809D01*
X111284047Y-79019761D01*
X111344523Y-79201190D01*
X111344523Y-79322142D01*
X110074523Y-78354523D02*
X110074523Y-77568333D01*
X110558333Y-77991666D01*
X110558333Y-77810238D01*
X110618809Y-77689285D01*
X110679285Y-77628809D01*
X110800238Y-77568333D01*
X111102619Y-77568333D01*
X111223571Y-77628809D01*
X111284047Y-77689285D01*
X111344523Y-77810238D01*
X111344523Y-78173095D01*
X111284047Y-78294047D01*
X111223571Y-78354523D01*
X26990523Y-45296666D02*
X26990523Y-45901428D01*
X25720523Y-45901428D01*
X26990523Y-44208095D02*
X26990523Y-44933809D01*
X26990523Y-44570952D02*
X25720523Y-44570952D01*
X25901952Y-44691904D01*
X26022904Y-44812857D01*
X26083380Y-44933809D01*
D10*
X41997333Y-22422380D02*
X41664000Y-21946190D01*
X41425904Y-22422380D02*
X41425904Y-21422380D01*
X41806857Y-21422380D01*
X41902095Y-21470000D01*
X41949714Y-21517619D01*
X41997333Y-21612857D01*
X41997333Y-21755714D01*
X41949714Y-21850952D01*
X41902095Y-21898571D01*
X41806857Y-21946190D01*
X41425904Y-21946190D01*
X42949714Y-22422380D02*
X42378285Y-22422380D01*
X42664000Y-22422380D02*
X42664000Y-21422380D01*
X42568761Y-21565238D01*
X42473523Y-21660476D01*
X42378285Y-21708095D01*
X59676380Y-60110666D02*
X59200190Y-60444000D01*
X59676380Y-60682095D02*
X58676380Y-60682095D01*
X58676380Y-60301142D01*
X58724000Y-60205904D01*
X58771619Y-60158285D01*
X58866857Y-60110666D01*
X59009714Y-60110666D01*
X59104952Y-60158285D01*
X59152571Y-60205904D01*
X59200190Y-60301142D01*
X59200190Y-60682095D01*
X58676380Y-59777333D02*
X58676380Y-59158285D01*
X59057333Y-59491619D01*
X59057333Y-59348761D01*
X59104952Y-59253523D01*
X59152571Y-59205904D01*
X59247809Y-59158285D01*
X59485904Y-59158285D01*
X59581142Y-59205904D01*
X59628761Y-59253523D01*
X59676380Y-59348761D01*
X59676380Y-59634476D01*
X59628761Y-59729714D01*
X59581142Y-59777333D01*
X79716333Y-66936880D02*
X79383000Y-66460690D01*
X79144904Y-66936880D02*
X79144904Y-65936880D01*
X79525857Y-65936880D01*
X79621095Y-65984500D01*
X79668714Y-66032119D01*
X79716333Y-66127357D01*
X79716333Y-66270214D01*
X79668714Y-66365452D01*
X79621095Y-66413071D01*
X79525857Y-66460690D01*
X79144904Y-66460690D01*
X80573476Y-66270214D02*
X80573476Y-66936880D01*
X80335380Y-65889261D02*
X80097285Y-66603547D01*
X80716333Y-66603547D01*
X96353333Y-110052380D02*
X96020000Y-109576190D01*
X95781904Y-110052380D02*
X95781904Y-109052380D01*
X96162857Y-109052380D01*
X96258095Y-109100000D01*
X96305714Y-109147619D01*
X96353333Y-109242857D01*
X96353333Y-109385714D01*
X96305714Y-109480952D01*
X96258095Y-109528571D01*
X96162857Y-109576190D01*
X95781904Y-109576190D01*
X97210476Y-109052380D02*
X97020000Y-109052380D01*
X96924761Y-109100000D01*
X96877142Y-109147619D01*
X96781904Y-109290476D01*
X96734285Y-109480952D01*
X96734285Y-109861904D01*
X96781904Y-109957142D01*
X96829523Y-110004761D01*
X96924761Y-110052380D01*
X97115238Y-110052380D01*
X97210476Y-110004761D01*
X97258095Y-109957142D01*
X97305714Y-109861904D01*
X97305714Y-109623809D01*
X97258095Y-109528571D01*
X97210476Y-109480952D01*
X97115238Y-109433333D01*
X96924761Y-109433333D01*
X96829523Y-109480952D01*
X96781904Y-109528571D01*
X96734285Y-109623809D01*
X88733333Y-110052380D02*
X88400000Y-109576190D01*
X88161904Y-110052380D02*
X88161904Y-109052380D01*
X88542857Y-109052380D01*
X88638095Y-109100000D01*
X88685714Y-109147619D01*
X88733333Y-109242857D01*
X88733333Y-109385714D01*
X88685714Y-109480952D01*
X88638095Y-109528571D01*
X88542857Y-109576190D01*
X88161904Y-109576190D01*
X89066666Y-109052380D02*
X89733333Y-109052380D01*
X89304761Y-110052380D01*
X83653333Y-110052380D02*
X83320000Y-109576190D01*
X83081904Y-110052380D02*
X83081904Y-109052380D01*
X83462857Y-109052380D01*
X83558095Y-109100000D01*
X83605714Y-109147619D01*
X83653333Y-109242857D01*
X83653333Y-109385714D01*
X83605714Y-109480952D01*
X83558095Y-109528571D01*
X83462857Y-109576190D01*
X83081904Y-109576190D01*
X84224761Y-109480952D02*
X84129523Y-109433333D01*
X84081904Y-109385714D01*
X84034285Y-109290476D01*
X84034285Y-109242857D01*
X84081904Y-109147619D01*
X84129523Y-109100000D01*
X84224761Y-109052380D01*
X84415238Y-109052380D01*
X84510476Y-109100000D01*
X84558095Y-109147619D01*
X84605714Y-109242857D01*
X84605714Y-109290476D01*
X84558095Y-109385714D01*
X84510476Y-109433333D01*
X84415238Y-109480952D01*
X84224761Y-109480952D01*
X84129523Y-109528571D01*
X84081904Y-109576190D01*
X84034285Y-109671428D01*
X84034285Y-109861904D01*
X84081904Y-109957142D01*
X84129523Y-110004761D01*
X84224761Y-110052380D01*
X84415238Y-110052380D01*
X84510476Y-110004761D01*
X84558095Y-109957142D01*
X84605714Y-109861904D01*
X84605714Y-109671428D01*
X84558095Y-109576190D01*
X84510476Y-109528571D01*
X84415238Y-109480952D01*
X76033333Y-110052380D02*
X75700000Y-109576190D01*
X75461904Y-110052380D02*
X75461904Y-109052380D01*
X75842857Y-109052380D01*
X75938095Y-109100000D01*
X75985714Y-109147619D01*
X76033333Y-109242857D01*
X76033333Y-109385714D01*
X75985714Y-109480952D01*
X75938095Y-109528571D01*
X75842857Y-109576190D01*
X75461904Y-109576190D01*
X76509523Y-110052380D02*
X76700000Y-110052380D01*
X76795238Y-110004761D01*
X76842857Y-109957142D01*
X76938095Y-109814285D01*
X76985714Y-109623809D01*
X76985714Y-109242857D01*
X76938095Y-109147619D01*
X76890476Y-109100000D01*
X76795238Y-109052380D01*
X76604761Y-109052380D01*
X76509523Y-109100000D01*
X76461904Y-109147619D01*
X76414285Y-109242857D01*
X76414285Y-109480952D01*
X76461904Y-109576190D01*
X76509523Y-109623809D01*
X76604761Y-109671428D01*
X76795238Y-109671428D01*
X76890476Y-109623809D01*
X76938095Y-109576190D01*
X76985714Y-109480952D01*
X70477142Y-110052380D02*
X70143809Y-109576190D01*
X69905714Y-110052380D02*
X69905714Y-109052380D01*
X70286666Y-109052380D01*
X70381904Y-109100000D01*
X70429523Y-109147619D01*
X70477142Y-109242857D01*
X70477142Y-109385714D01*
X70429523Y-109480952D01*
X70381904Y-109528571D01*
X70286666Y-109576190D01*
X69905714Y-109576190D01*
X71429523Y-110052380D02*
X70858095Y-110052380D01*
X71143809Y-110052380D02*
X71143809Y-109052380D01*
X71048571Y-109195238D01*
X70953333Y-109290476D01*
X70858095Y-109338095D01*
X72048571Y-109052380D02*
X72143809Y-109052380D01*
X72239047Y-109100000D01*
X72286666Y-109147619D01*
X72334285Y-109242857D01*
X72381904Y-109433333D01*
X72381904Y-109671428D01*
X72334285Y-109861904D01*
X72286666Y-109957142D01*
X72239047Y-110004761D01*
X72143809Y-110052380D01*
X72048571Y-110052380D01*
X71953333Y-110004761D01*
X71905714Y-109957142D01*
X71858095Y-109861904D01*
X71810476Y-109671428D01*
X71810476Y-109433333D01*
X71858095Y-109242857D01*
X71905714Y-109147619D01*
X71953333Y-109100000D01*
X72048571Y-109052380D01*
X62857142Y-110052380D02*
X62523809Y-109576190D01*
X62285714Y-110052380D02*
X62285714Y-109052380D01*
X62666666Y-109052380D01*
X62761904Y-109100000D01*
X62809523Y-109147619D01*
X62857142Y-109242857D01*
X62857142Y-109385714D01*
X62809523Y-109480952D01*
X62761904Y-109528571D01*
X62666666Y-109576190D01*
X62285714Y-109576190D01*
X63809523Y-110052380D02*
X63238095Y-110052380D01*
X63523809Y-110052380D02*
X63523809Y-109052380D01*
X63428571Y-109195238D01*
X63333333Y-109290476D01*
X63238095Y-109338095D01*
X64761904Y-110052380D02*
X64190476Y-110052380D01*
X64476190Y-110052380D02*
X64476190Y-109052380D01*
X64380952Y-109195238D01*
X64285714Y-109290476D01*
X64190476Y-109338095D01*
X35081380Y-55506857D02*
X34605190Y-55840190D01*
X35081380Y-56078285D02*
X34081380Y-56078285D01*
X34081380Y-55697333D01*
X34129000Y-55602095D01*
X34176619Y-55554476D01*
X34271857Y-55506857D01*
X34414714Y-55506857D01*
X34509952Y-55554476D01*
X34557571Y-55602095D01*
X34605190Y-55697333D01*
X34605190Y-56078285D01*
X34081380Y-55173523D02*
X34081380Y-54554476D01*
X34462333Y-54887809D01*
X34462333Y-54744952D01*
X34509952Y-54649714D01*
X34557571Y-54602095D01*
X34652809Y-54554476D01*
X34890904Y-54554476D01*
X34986142Y-54602095D01*
X35033761Y-54649714D01*
X35081380Y-54744952D01*
X35081380Y-55030666D01*
X35033761Y-55125904D01*
X34986142Y-55173523D01*
X34081380Y-53935428D02*
X34081380Y-53840190D01*
X34129000Y-53744952D01*
X34176619Y-53697333D01*
X34271857Y-53649714D01*
X34462333Y-53602095D01*
X34700428Y-53602095D01*
X34890904Y-53649714D01*
X34986142Y-53697333D01*
X35033761Y-53744952D01*
X35081380Y-53840190D01*
X35081380Y-53935428D01*
X35033761Y-54030666D01*
X34986142Y-54078285D01*
X34890904Y-54125904D01*
X34700428Y-54173523D01*
X34462333Y-54173523D01*
X34271857Y-54125904D01*
X34176619Y-54078285D01*
X34129000Y-54030666D01*
X34081380Y-53935428D01*
X40161380Y-55506857D02*
X39685190Y-55840190D01*
X40161380Y-56078285D02*
X39161380Y-56078285D01*
X39161380Y-55697333D01*
X39209000Y-55602095D01*
X39256619Y-55554476D01*
X39351857Y-55506857D01*
X39494714Y-55506857D01*
X39589952Y-55554476D01*
X39637571Y-55602095D01*
X39685190Y-55697333D01*
X39685190Y-56078285D01*
X39161380Y-55173523D02*
X39161380Y-54554476D01*
X39542333Y-54887809D01*
X39542333Y-54744952D01*
X39589952Y-54649714D01*
X39637571Y-54602095D01*
X39732809Y-54554476D01*
X39970904Y-54554476D01*
X40066142Y-54602095D01*
X40113761Y-54649714D01*
X40161380Y-54744952D01*
X40161380Y-55030666D01*
X40113761Y-55125904D01*
X40066142Y-55173523D01*
X40161380Y-53602095D02*
X40161380Y-54173523D01*
X40161380Y-53887809D02*
X39161380Y-53887809D01*
X39304238Y-53983047D01*
X39399476Y-54078285D01*
X39447095Y-54173523D01*
X57777142Y-110052380D02*
X57443809Y-109576190D01*
X57205714Y-110052380D02*
X57205714Y-109052380D01*
X57586666Y-109052380D01*
X57681904Y-109100000D01*
X57729523Y-109147619D01*
X57777142Y-109242857D01*
X57777142Y-109385714D01*
X57729523Y-109480952D01*
X57681904Y-109528571D01*
X57586666Y-109576190D01*
X57205714Y-109576190D01*
X58729523Y-110052380D02*
X58158095Y-110052380D01*
X58443809Y-110052380D02*
X58443809Y-109052380D01*
X58348571Y-109195238D01*
X58253333Y-109290476D01*
X58158095Y-109338095D01*
X59062857Y-109052380D02*
X59681904Y-109052380D01*
X59348571Y-109433333D01*
X59491428Y-109433333D01*
X59586666Y-109480952D01*
X59634285Y-109528571D01*
X59681904Y-109623809D01*
X59681904Y-109861904D01*
X59634285Y-109957142D01*
X59586666Y-110004761D01*
X59491428Y-110052380D01*
X59205714Y-110052380D01*
X59110476Y-110004761D01*
X59062857Y-109957142D01*
X48633142Y-34870380D02*
X48299809Y-34394190D01*
X48061714Y-34870380D02*
X48061714Y-33870380D01*
X48442666Y-33870380D01*
X48537904Y-33918000D01*
X48585523Y-33965619D01*
X48633142Y-34060857D01*
X48633142Y-34203714D01*
X48585523Y-34298952D01*
X48537904Y-34346571D01*
X48442666Y-34394190D01*
X48061714Y-34394190D01*
X49585523Y-34870380D02*
X49014095Y-34870380D01*
X49299809Y-34870380D02*
X49299809Y-33870380D01*
X49204571Y-34013238D01*
X49109333Y-34108476D01*
X49014095Y-34156095D01*
X50442666Y-34203714D02*
X50442666Y-34870380D01*
X50204571Y-33822761D02*
X49966476Y-34537047D01*
X50585523Y-34537047D01*
X60057380Y-48902857D02*
X59581190Y-49236190D01*
X60057380Y-49474285D02*
X59057380Y-49474285D01*
X59057380Y-49093333D01*
X59105000Y-48998095D01*
X59152619Y-48950476D01*
X59247857Y-48902857D01*
X59390714Y-48902857D01*
X59485952Y-48950476D01*
X59533571Y-48998095D01*
X59581190Y-49093333D01*
X59581190Y-49474285D01*
X60057380Y-47950476D02*
X60057380Y-48521904D01*
X60057380Y-48236190D02*
X59057380Y-48236190D01*
X59200238Y-48331428D01*
X59295476Y-48426666D01*
X59343095Y-48521904D01*
X59057380Y-47045714D02*
X59057380Y-47521904D01*
X59533571Y-47569523D01*
X59485952Y-47521904D01*
X59438333Y-47426666D01*
X59438333Y-47188571D01*
X59485952Y-47093333D01*
X59533571Y-47045714D01*
X59628809Y-46998095D01*
X59866904Y-46998095D01*
X59962142Y-47045714D01*
X60009761Y-47093333D01*
X60057380Y-47188571D01*
X60057380Y-47426666D01*
X60009761Y-47521904D01*
X59962142Y-47569523D01*
X67857147Y-90580380D02*
X67523814Y-90104190D01*
X67285719Y-90580380D02*
X67285719Y-89580380D01*
X67666671Y-89580380D01*
X67761909Y-89628000D01*
X67809528Y-89675619D01*
X67857147Y-89770857D01*
X67857147Y-89913714D01*
X67809528Y-90008952D01*
X67761909Y-90056571D01*
X67666671Y-90104190D01*
X67285719Y-90104190D01*
X68809528Y-90580380D02*
X68238100Y-90580380D01*
X68523814Y-90580380D02*
X68523814Y-89580380D01*
X68428576Y-89723238D01*
X68333338Y-89818476D01*
X68238100Y-89866095D01*
X69285719Y-90580380D02*
X69476195Y-90580380D01*
X69571433Y-90532761D01*
X69619052Y-90485142D01*
X69714290Y-90342285D01*
X69761909Y-90151809D01*
X69761909Y-89770857D01*
X69714290Y-89675619D01*
X69666671Y-89628000D01*
X69571433Y-89580380D01*
X69380957Y-89580380D01*
X69285719Y-89628000D01*
X69238100Y-89675619D01*
X69190481Y-89770857D01*
X69190481Y-90008952D01*
X69238100Y-90104190D01*
X69285719Y-90151809D01*
X69380957Y-90199428D01*
X69571433Y-90199428D01*
X69666671Y-90151809D01*
X69714290Y-90104190D01*
X69761909Y-90008952D01*
X96338380Y-52712857D02*
X95862190Y-53046190D01*
X96338380Y-53284285D02*
X95338380Y-53284285D01*
X95338380Y-52903333D01*
X95386000Y-52808095D01*
X95433619Y-52760476D01*
X95528857Y-52712857D01*
X95671714Y-52712857D01*
X95766952Y-52760476D01*
X95814571Y-52808095D01*
X95862190Y-52903333D01*
X95862190Y-53284285D01*
X96338380Y-51760476D02*
X96338380Y-52331904D01*
X96338380Y-52046190D02*
X95338380Y-52046190D01*
X95481238Y-52141428D01*
X95576476Y-52236666D01*
X95624095Y-52331904D01*
X95338380Y-51427142D02*
X95338380Y-50760476D01*
X96338380Y-51189047D01*
X66413142Y-34870380D02*
X66079809Y-34394190D01*
X65841714Y-34870380D02*
X65841714Y-33870380D01*
X66222666Y-33870380D01*
X66317904Y-33918000D01*
X66365523Y-33965619D01*
X66413142Y-34060857D01*
X66413142Y-34203714D01*
X66365523Y-34298952D01*
X66317904Y-34346571D01*
X66222666Y-34394190D01*
X65841714Y-34394190D01*
X67365523Y-34870380D02*
X66794095Y-34870380D01*
X67079809Y-34870380D02*
X67079809Y-33870380D01*
X66984571Y-34013238D01*
X66889333Y-34108476D01*
X66794095Y-34156095D01*
X67936952Y-34298952D02*
X67841714Y-34251333D01*
X67794095Y-34203714D01*
X67746476Y-34108476D01*
X67746476Y-34060857D01*
X67794095Y-33965619D01*
X67841714Y-33918000D01*
X67936952Y-33870380D01*
X68127428Y-33870380D01*
X68222666Y-33918000D01*
X68270285Y-33965619D01*
X68317904Y-34060857D01*
X68317904Y-34108476D01*
X68270285Y-34203714D01*
X68222666Y-34251333D01*
X68127428Y-34298952D01*
X67936952Y-34298952D01*
X67841714Y-34346571D01*
X67794095Y-34394190D01*
X67746476Y-34489428D01*
X67746476Y-34679904D01*
X67794095Y-34775142D01*
X67841714Y-34822761D01*
X67936952Y-34870380D01*
X68127428Y-34870380D01*
X68222666Y-34822761D01*
X68270285Y-34775142D01*
X68317904Y-34679904D01*
X68317904Y-34489428D01*
X68270285Y-34394190D01*
X68222666Y-34346571D01*
X68127428Y-34298952D01*
X56253142Y-90580380D02*
X55919809Y-90104190D01*
X55681714Y-90580380D02*
X55681714Y-89580380D01*
X56062666Y-89580380D01*
X56157904Y-89628000D01*
X56205523Y-89675619D01*
X56253142Y-89770857D01*
X56253142Y-89913714D01*
X56205523Y-90008952D01*
X56157904Y-90056571D01*
X56062666Y-90104190D01*
X55681714Y-90104190D01*
X56634095Y-89675619D02*
X56681714Y-89628000D01*
X56776952Y-89580380D01*
X57015047Y-89580380D01*
X57110285Y-89628000D01*
X57157904Y-89675619D01*
X57205523Y-89770857D01*
X57205523Y-89866095D01*
X57157904Y-90008952D01*
X56586476Y-90580380D01*
X57205523Y-90580380D01*
X57824571Y-89580380D02*
X57919809Y-89580380D01*
X58015047Y-89628000D01*
X58062666Y-89675619D01*
X58110285Y-89770857D01*
X58157904Y-89961333D01*
X58157904Y-90199428D01*
X58110285Y-90389904D01*
X58062666Y-90485142D01*
X58015047Y-90532761D01*
X57919809Y-90580380D01*
X57824571Y-90580380D01*
X57729333Y-90532761D01*
X57681714Y-90485142D01*
X57634095Y-90389904D01*
X57586476Y-90199428D01*
X57586476Y-89961333D01*
X57634095Y-89770857D01*
X57681714Y-89675619D01*
X57729333Y-89628000D01*
X57824571Y-89580380D01*
X27654642Y-103577380D02*
X27321309Y-103101190D01*
X27083214Y-103577380D02*
X27083214Y-102577380D01*
X27464166Y-102577380D01*
X27559404Y-102625000D01*
X27607023Y-102672619D01*
X27654642Y-102767857D01*
X27654642Y-102910714D01*
X27607023Y-103005952D01*
X27559404Y-103053571D01*
X27464166Y-103101190D01*
X27083214Y-103101190D01*
X28035595Y-102672619D02*
X28083214Y-102625000D01*
X28178452Y-102577380D01*
X28416547Y-102577380D01*
X28511785Y-102625000D01*
X28559404Y-102672619D01*
X28607023Y-102767857D01*
X28607023Y-102863095D01*
X28559404Y-103005952D01*
X27987976Y-103577380D01*
X28607023Y-103577380D01*
X29559404Y-103577380D02*
X28987976Y-103577380D01*
X29273690Y-103577380D02*
X29273690Y-102577380D01*
X29178452Y-102720238D01*
X29083214Y-102815476D01*
X28987976Y-102863095D01*
X35274642Y-103577380D02*
X34941309Y-103101190D01*
X34703214Y-103577380D02*
X34703214Y-102577380D01*
X35084166Y-102577380D01*
X35179404Y-102625000D01*
X35227023Y-102672619D01*
X35274642Y-102767857D01*
X35274642Y-102910714D01*
X35227023Y-103005952D01*
X35179404Y-103053571D01*
X35084166Y-103101190D01*
X34703214Y-103101190D01*
X35655595Y-102672619D02*
X35703214Y-102625000D01*
X35798452Y-102577380D01*
X36036547Y-102577380D01*
X36131785Y-102625000D01*
X36179404Y-102672619D01*
X36227023Y-102767857D01*
X36227023Y-102863095D01*
X36179404Y-103005952D01*
X35607976Y-103577380D01*
X36227023Y-103577380D01*
X36607976Y-102672619D02*
X36655595Y-102625000D01*
X36750833Y-102577380D01*
X36988928Y-102577380D01*
X37084166Y-102625000D01*
X37131785Y-102672619D01*
X37179404Y-102767857D01*
X37179404Y-102863095D01*
X37131785Y-103005952D01*
X36560357Y-103577380D01*
X37179404Y-103577380D01*
X42894642Y-103577380D02*
X42561309Y-103101190D01*
X42323214Y-103577380D02*
X42323214Y-102577380D01*
X42704166Y-102577380D01*
X42799404Y-102625000D01*
X42847023Y-102672619D01*
X42894642Y-102767857D01*
X42894642Y-102910714D01*
X42847023Y-103005952D01*
X42799404Y-103053571D01*
X42704166Y-103101190D01*
X42323214Y-103101190D01*
X43275595Y-102672619D02*
X43323214Y-102625000D01*
X43418452Y-102577380D01*
X43656547Y-102577380D01*
X43751785Y-102625000D01*
X43799404Y-102672619D01*
X43847023Y-102767857D01*
X43847023Y-102863095D01*
X43799404Y-103005952D01*
X43227976Y-103577380D01*
X43847023Y-103577380D01*
X44180357Y-102577380D02*
X44799404Y-102577380D01*
X44466071Y-102958333D01*
X44608928Y-102958333D01*
X44704166Y-103005952D01*
X44751785Y-103053571D01*
X44799404Y-103148809D01*
X44799404Y-103386904D01*
X44751785Y-103482142D01*
X44704166Y-103529761D01*
X44608928Y-103577380D01*
X44323214Y-103577380D01*
X44227976Y-103529761D01*
X44180357Y-103482142D01*
X50514642Y-103577380D02*
X50181309Y-103101190D01*
X49943214Y-103577380D02*
X49943214Y-102577380D01*
X50324166Y-102577380D01*
X50419404Y-102625000D01*
X50467023Y-102672619D01*
X50514642Y-102767857D01*
X50514642Y-102910714D01*
X50467023Y-103005952D01*
X50419404Y-103053571D01*
X50324166Y-103101190D01*
X49943214Y-103101190D01*
X50895595Y-102672619D02*
X50943214Y-102625000D01*
X51038452Y-102577380D01*
X51276547Y-102577380D01*
X51371785Y-102625000D01*
X51419404Y-102672619D01*
X51467023Y-102767857D01*
X51467023Y-102863095D01*
X51419404Y-103005952D01*
X50847976Y-103577380D01*
X51467023Y-103577380D01*
X52324166Y-102910714D02*
X52324166Y-103577380D01*
X52086071Y-102529761D02*
X51847976Y-103244047D01*
X52467023Y-103244047D01*
X30472142Y-39737380D02*
X30138809Y-39261190D01*
X29900714Y-39737380D02*
X29900714Y-38737380D01*
X30281666Y-38737380D01*
X30376904Y-38785000D01*
X30424523Y-38832619D01*
X30472142Y-38927857D01*
X30472142Y-39070714D01*
X30424523Y-39165952D01*
X30376904Y-39213571D01*
X30281666Y-39261190D01*
X29900714Y-39261190D01*
X30853095Y-38832619D02*
X30900714Y-38785000D01*
X30995952Y-38737380D01*
X31234047Y-38737380D01*
X31329285Y-38785000D01*
X31376904Y-38832619D01*
X31424523Y-38927857D01*
X31424523Y-39023095D01*
X31376904Y-39165952D01*
X30805476Y-39737380D01*
X31424523Y-39737380D01*
X32329285Y-38737380D02*
X31853095Y-38737380D01*
X31805476Y-39213571D01*
X31853095Y-39165952D01*
X31948333Y-39118333D01*
X32186428Y-39118333D01*
X32281666Y-39165952D01*
X32329285Y-39213571D01*
X32376904Y-39308809D01*
X32376904Y-39546904D01*
X32329285Y-39642142D01*
X32281666Y-39689761D01*
X32186428Y-39737380D01*
X31948333Y-39737380D01*
X31853095Y-39689761D01*
X31805476Y-39642142D01*
X96338380Y-32646857D02*
X95862190Y-32980190D01*
X96338380Y-33218285D02*
X95338380Y-33218285D01*
X95338380Y-32837333D01*
X95386000Y-32742095D01*
X95433619Y-32694476D01*
X95528857Y-32646857D01*
X95671714Y-32646857D01*
X95766952Y-32694476D01*
X95814571Y-32742095D01*
X95862190Y-32837333D01*
X95862190Y-33218285D01*
X95433619Y-32265904D02*
X95386000Y-32218285D01*
X95338380Y-32123047D01*
X95338380Y-31884952D01*
X95386000Y-31789714D01*
X95433619Y-31742095D01*
X95528857Y-31694476D01*
X95624095Y-31694476D01*
X95766952Y-31742095D01*
X96338380Y-32313523D01*
X96338380Y-31694476D01*
X95338380Y-30837333D02*
X95338380Y-31027809D01*
X95386000Y-31123047D01*
X95433619Y-31170666D01*
X95576476Y-31265904D01*
X95766952Y-31313523D01*
X96147904Y-31313523D01*
X96243142Y-31265904D01*
X96290761Y-31218285D01*
X96338380Y-31123047D01*
X96338380Y-30932571D01*
X96290761Y-30837333D01*
X96243142Y-30789714D01*
X96147904Y-30742095D01*
X95909809Y-30742095D01*
X95814571Y-30789714D01*
X95766952Y-30837333D01*
X95719333Y-30932571D01*
X95719333Y-31123047D01*
X95766952Y-31218285D01*
X95814571Y-31265904D01*
X95909809Y-31313523D01*
X84193142Y-34870380D02*
X83859809Y-34394190D01*
X83621714Y-34870380D02*
X83621714Y-33870380D01*
X84002666Y-33870380D01*
X84097904Y-33918000D01*
X84145523Y-33965619D01*
X84193142Y-34060857D01*
X84193142Y-34203714D01*
X84145523Y-34298952D01*
X84097904Y-34346571D01*
X84002666Y-34394190D01*
X83621714Y-34394190D01*
X84574095Y-33965619D02*
X84621714Y-33918000D01*
X84716952Y-33870380D01*
X84955047Y-33870380D01*
X85050285Y-33918000D01*
X85097904Y-33965619D01*
X85145523Y-34060857D01*
X85145523Y-34156095D01*
X85097904Y-34298952D01*
X84526476Y-34870380D01*
X85145523Y-34870380D01*
X85478857Y-33870380D02*
X86145523Y-33870380D01*
X85716952Y-34870380D01*
X16412380Y-45092857D02*
X15936190Y-45426190D01*
X16412380Y-45664285D02*
X15412380Y-45664285D01*
X15412380Y-45283333D01*
X15460000Y-45188095D01*
X15507619Y-45140476D01*
X15602857Y-45092857D01*
X15745714Y-45092857D01*
X15840952Y-45140476D01*
X15888571Y-45188095D01*
X15936190Y-45283333D01*
X15936190Y-45664285D01*
X15507619Y-44711904D02*
X15460000Y-44664285D01*
X15412380Y-44569047D01*
X15412380Y-44330952D01*
X15460000Y-44235714D01*
X15507619Y-44188095D01*
X15602857Y-44140476D01*
X15698095Y-44140476D01*
X15840952Y-44188095D01*
X16412380Y-44759523D01*
X16412380Y-44140476D01*
X15840952Y-43569047D02*
X15793333Y-43664285D01*
X15745714Y-43711904D01*
X15650476Y-43759523D01*
X15602857Y-43759523D01*
X15507619Y-43711904D01*
X15460000Y-43664285D01*
X15412380Y-43569047D01*
X15412380Y-43378571D01*
X15460000Y-43283333D01*
X15507619Y-43235714D01*
X15602857Y-43188095D01*
X15650476Y-43188095D01*
X15745714Y-43235714D01*
X15793333Y-43283333D01*
X15840952Y-43378571D01*
X15840952Y-43569047D01*
X15888571Y-43664285D01*
X15936190Y-43711904D01*
X16031428Y-43759523D01*
X16221904Y-43759523D01*
X16317142Y-43711904D01*
X16364761Y-43664285D01*
X16412380Y-43569047D01*
X16412380Y-43378571D01*
X16364761Y-43283333D01*
X16317142Y-43235714D01*
X16221904Y-43188095D01*
X16031428Y-43188095D01*
X15936190Y-43235714D01*
X15888571Y-43283333D01*
X15840952Y-43378571D01*
X16412380Y-40012857D02*
X15936190Y-40346190D01*
X16412380Y-40584285D02*
X15412380Y-40584285D01*
X15412380Y-40203333D01*
X15460000Y-40108095D01*
X15507619Y-40060476D01*
X15602857Y-40012857D01*
X15745714Y-40012857D01*
X15840952Y-40060476D01*
X15888571Y-40108095D01*
X15936190Y-40203333D01*
X15936190Y-40584285D01*
X15507619Y-39631904D02*
X15460000Y-39584285D01*
X15412380Y-39489047D01*
X15412380Y-39250952D01*
X15460000Y-39155714D01*
X15507619Y-39108095D01*
X15602857Y-39060476D01*
X15698095Y-39060476D01*
X15840952Y-39108095D01*
X16412380Y-39679523D01*
X16412380Y-39060476D01*
X16412380Y-38584285D02*
X16412380Y-38393809D01*
X16364761Y-38298571D01*
X16317142Y-38250952D01*
X16174285Y-38155714D01*
X15983809Y-38108095D01*
X15602857Y-38108095D01*
X15507619Y-38155714D01*
X15460000Y-38203333D01*
X15412380Y-38298571D01*
X15412380Y-38489047D01*
X15460000Y-38584285D01*
X15507619Y-38631904D01*
X15602857Y-38679523D01*
X15840952Y-38679523D01*
X15936190Y-38631904D01*
X15983809Y-38584285D01*
X16031428Y-38489047D01*
X16031428Y-38298571D01*
X15983809Y-38203333D01*
X15936190Y-38155714D01*
X15840952Y-38108095D01*
D14*
X55202666Y-98558047D02*
X55384095Y-98618523D01*
X55686476Y-98618523D01*
X55807428Y-98558047D01*
X55867904Y-98497571D01*
X55928380Y-98376619D01*
X55928380Y-98255666D01*
X55867904Y-98134714D01*
X55807428Y-98074238D01*
X55686476Y-98013761D01*
X55444571Y-97953285D01*
X55323619Y-97892809D01*
X55263142Y-97832333D01*
X55202666Y-97711380D01*
X55202666Y-97590428D01*
X55263142Y-97469476D01*
X55323619Y-97409000D01*
X55444571Y-97348523D01*
X55746952Y-97348523D01*
X55928380Y-97409000D01*
X56351714Y-97348523D02*
X56654095Y-98618523D01*
X56896000Y-97711380D01*
X57137904Y-98618523D01*
X57440285Y-97348523D01*
X57863619Y-97469476D02*
X57924095Y-97409000D01*
X58045047Y-97348523D01*
X58347428Y-97348523D01*
X58468380Y-97409000D01*
X58528857Y-97469476D01*
X58589333Y-97590428D01*
X58589333Y-97711380D01*
X58528857Y-97892809D01*
X57803142Y-98618523D01*
X58589333Y-98618523D01*
D10*
X32258095Y-30292380D02*
X32258095Y-31101904D01*
X32305714Y-31197142D01*
X32353333Y-31244761D01*
X32448571Y-31292380D01*
X32639047Y-31292380D01*
X32734285Y-31244761D01*
X32781904Y-31197142D01*
X32829523Y-31101904D01*
X32829523Y-30292380D01*
X33829523Y-31292380D02*
X33258095Y-31292380D01*
X33543809Y-31292380D02*
X33543809Y-30292380D01*
X33448571Y-30435238D01*
X33353333Y-30530476D01*
X33258095Y-30578095D01*
X98298095Y-80457380D02*
X98298095Y-81266904D01*
X98345714Y-81362142D01*
X98393333Y-81409761D01*
X98488571Y-81457380D01*
X98679047Y-81457380D01*
X98774285Y-81409761D01*
X98821904Y-81362142D01*
X98869523Y-81266904D01*
X98869523Y-80457380D01*
X99250476Y-80457380D02*
X99869523Y-80457380D01*
X99536190Y-80838333D01*
X99679047Y-80838333D01*
X99774285Y-80885952D01*
X99821904Y-80933571D01*
X99869523Y-81028809D01*
X99869523Y-81266904D01*
X99821904Y-81362142D01*
X99774285Y-81409761D01*
X99679047Y-81457380D01*
X99393333Y-81457380D01*
X99298095Y-81409761D01*
X99250476Y-81362142D01*
X56962380Y-33781904D02*
X57771904Y-33781904D01*
X57867142Y-33734285D01*
X57914761Y-33686666D01*
X57962380Y-33591428D01*
X57962380Y-33400952D01*
X57914761Y-33305714D01*
X57867142Y-33258095D01*
X57771904Y-33210476D01*
X56962380Y-33210476D01*
X57295714Y-32305714D02*
X57962380Y-32305714D01*
X56914761Y-32543809D02*
X57629047Y-32781904D01*
X57629047Y-32162857D01*
X101412380Y-85216904D02*
X102221904Y-85216904D01*
X102317142Y-85169285D01*
X102364761Y-85121666D01*
X102412380Y-85026428D01*
X102412380Y-84835952D01*
X102364761Y-84740714D01*
X102317142Y-84693095D01*
X102221904Y-84645476D01*
X101412380Y-84645476D01*
X101412380Y-83693095D02*
X101412380Y-84169285D01*
X101888571Y-84216904D01*
X101840952Y-84169285D01*
X101793333Y-84074047D01*
X101793333Y-83835952D01*
X101840952Y-83740714D01*
X101888571Y-83693095D01*
X101983809Y-83645476D01*
X102221904Y-83645476D01*
X102317142Y-83693095D01*
X102364761Y-83740714D01*
X102412380Y-83835952D01*
X102412380Y-84074047D01*
X102364761Y-84169285D01*
X102317142Y-84216904D01*
D14*
X51559580Y-41112923D02*
X51559580Y-42141019D01*
X51620057Y-42261971D01*
X51680533Y-42322447D01*
X51801485Y-42382923D01*
X52043390Y-42382923D01*
X52164342Y-42322447D01*
X52224819Y-42261971D01*
X52285295Y-42141019D01*
X52285295Y-41112923D01*
X53434342Y-41112923D02*
X53192438Y-41112923D01*
X53071485Y-41173400D01*
X53011009Y-41233876D01*
X52890057Y-41415304D01*
X52829580Y-41657209D01*
X52829580Y-42141019D01*
X52890057Y-42261971D01*
X52950533Y-42322447D01*
X53071485Y-42382923D01*
X53313390Y-42382923D01*
X53434342Y-42322447D01*
X53494819Y-42261971D01*
X53555295Y-42141019D01*
X53555295Y-41838638D01*
X53494819Y-41717685D01*
X53434342Y-41657209D01*
X53313390Y-41596733D01*
X53071485Y-41596733D01*
X52950533Y-41657209D01*
X52890057Y-41717685D01*
X52829580Y-41838638D01*
D10*
X74742380Y-33781904D02*
X75551904Y-33781904D01*
X75647142Y-33734285D01*
X75694761Y-33686666D01*
X75742380Y-33591428D01*
X75742380Y-33400952D01*
X75694761Y-33305714D01*
X75647142Y-33258095D01*
X75551904Y-33210476D01*
X74742380Y-33210476D01*
X75742380Y-32686666D02*
X75742380Y-32496190D01*
X75694761Y-32400952D01*
X75647142Y-32353333D01*
X75504285Y-32258095D01*
X75313809Y-32210476D01*
X74932857Y-32210476D01*
X74837619Y-32258095D01*
X74790000Y-32305714D01*
X74742380Y-32400952D01*
X74742380Y-32591428D01*
X74790000Y-32686666D01*
X74837619Y-32734285D01*
X74932857Y-32781904D01*
X75170952Y-32781904D01*
X75266190Y-32734285D01*
X75313809Y-32686666D01*
X75361428Y-32591428D01*
X75361428Y-32400952D01*
X75313809Y-32305714D01*
X75266190Y-32258095D01*
X75170952Y-32210476D01*
X92522380Y-34258095D02*
X93331904Y-34258095D01*
X93427142Y-34210476D01*
X93474761Y-34162857D01*
X93522380Y-34067619D01*
X93522380Y-33877142D01*
X93474761Y-33781904D01*
X93427142Y-33734285D01*
X93331904Y-33686666D01*
X92522380Y-33686666D01*
X93522380Y-32686666D02*
X93522380Y-33258095D01*
X93522380Y-32972380D02*
X92522380Y-32972380D01*
X92665238Y-33067619D01*
X92760476Y-33162857D01*
X92808095Y-33258095D01*
X92522380Y-32353333D02*
X92522380Y-31734285D01*
X92903333Y-32067619D01*
X92903333Y-31924761D01*
X92950952Y-31829523D01*
X92998571Y-31781904D01*
X93093809Y-31734285D01*
X93331904Y-31734285D01*
X93427142Y-31781904D01*
X93474761Y-31829523D01*
X93522380Y-31924761D01*
X93522380Y-32210476D01*
X93474761Y-32305714D01*
X93427142Y-32353333D01*
X69353809Y-65171190D02*
X69353809Y-65647380D01*
X69020476Y-64647380D02*
X69353809Y-65171190D01*
X69687142Y-64647380D01*
X70544285Y-65647380D02*
X69972857Y-65647380D01*
X70258571Y-65647380D02*
X70258571Y-64647380D01*
X70163333Y-64790238D01*
X70068095Y-64885476D01*
X69972857Y-64933095D01*
D14*
X54166666Y-19484523D02*
X54166666Y-20391666D01*
X54106190Y-20573095D01*
X53985238Y-20694047D01*
X53803809Y-20754523D01*
X53682857Y-20754523D01*
X54710952Y-19605476D02*
X54771428Y-19545000D01*
X54892380Y-19484523D01*
X55194761Y-19484523D01*
X55315714Y-19545000D01*
X55376190Y-19605476D01*
X55436666Y-19726428D01*
X55436666Y-19847380D01*
X55376190Y-20028809D01*
X54650476Y-20754523D01*
X55436666Y-20754523D01*
X89726666Y-19484523D02*
X89726666Y-20391666D01*
X89666190Y-20573095D01*
X89545238Y-20694047D01*
X89363809Y-20754523D01*
X89242857Y-20754523D01*
X90391904Y-20754523D02*
X90633809Y-20754523D01*
X90754761Y-20694047D01*
X90815238Y-20633571D01*
X90936190Y-20452142D01*
X90996666Y-20210238D01*
X90996666Y-19726428D01*
X90936190Y-19605476D01*
X90875714Y-19545000D01*
X90754761Y-19484523D01*
X90512857Y-19484523D01*
X90391904Y-19545000D01*
X90331428Y-19605476D01*
X90270952Y-19726428D01*
X90270952Y-20028809D01*
X90331428Y-20149761D01*
X90391904Y-20210238D01*
X90512857Y-20270714D01*
X90754761Y-20270714D01*
X90875714Y-20210238D01*
X90936190Y-20149761D01*
X90996666Y-20028809D01*
X71946666Y-19484523D02*
X71946666Y-20391666D01*
X71886190Y-20573095D01*
X71765238Y-20694047D01*
X71583809Y-20754523D01*
X71462857Y-20754523D01*
X73095714Y-19907857D02*
X73095714Y-20754523D01*
X72793333Y-19424047D02*
X72490952Y-20331190D01*
X73277142Y-20331190D01*
X66806671Y-98558047D02*
X66988100Y-98618523D01*
X67290481Y-98618523D01*
X67411433Y-98558047D01*
X67471909Y-98497571D01*
X67532385Y-98376619D01*
X67532385Y-98255666D01*
X67471909Y-98134714D01*
X67411433Y-98074238D01*
X67290481Y-98013761D01*
X67048576Y-97953285D01*
X66927624Y-97892809D01*
X66867147Y-97832333D01*
X66806671Y-97711380D01*
X66806671Y-97590428D01*
X66867147Y-97469476D01*
X66927624Y-97409000D01*
X67048576Y-97348523D01*
X67350957Y-97348523D01*
X67532385Y-97409000D01*
X67955719Y-97348523D02*
X68258100Y-98618523D01*
X68500005Y-97711380D01*
X68741909Y-98618523D01*
X69044290Y-97348523D01*
X70193338Y-98618523D02*
X69467624Y-98618523D01*
X69830481Y-98618523D02*
X69830481Y-97348523D01*
X69709528Y-97529952D01*
X69588576Y-97650904D01*
X69467624Y-97711380D01*
X19896666Y-66868523D02*
X19896666Y-67775666D01*
X19836190Y-67957095D01*
X19715238Y-68078047D01*
X19533809Y-68138523D01*
X19412857Y-68138523D01*
X21045714Y-66868523D02*
X20803809Y-66868523D01*
X20682857Y-66929000D01*
X20622380Y-66989476D01*
X20501428Y-67170904D01*
X20440952Y-67412809D01*
X20440952Y-67896619D01*
X20501428Y-68017571D01*
X20561904Y-68078047D01*
X20682857Y-68138523D01*
X20924761Y-68138523D01*
X21045714Y-68078047D01*
X21106190Y-68017571D01*
X21166666Y-67896619D01*
X21166666Y-67594238D01*
X21106190Y-67473285D01*
X21045714Y-67412809D01*
X20924761Y-67352333D01*
X20682857Y-67352333D01*
X20561904Y-67412809D01*
X20501428Y-67473285D01*
X20440952Y-67594238D01*
X22557619Y-38674523D02*
X22557619Y-39702619D01*
X22618095Y-39823571D01*
X22678571Y-39884047D01*
X22799523Y-39944523D01*
X23041428Y-39944523D01*
X23162380Y-39884047D01*
X23222857Y-39823571D01*
X23283333Y-39702619D01*
X23283333Y-38674523D01*
X24553333Y-39944523D02*
X23827619Y-39944523D01*
X24190476Y-39944523D02*
X24190476Y-38674523D01*
X24069523Y-38855952D01*
X23948571Y-38976904D01*
X23827619Y-39037380D01*
X25762857Y-39944523D02*
X25037142Y-39944523D01*
X25400000Y-39944523D02*
X25400000Y-38674523D01*
X25279047Y-38855952D01*
X25158095Y-38976904D01*
X25037142Y-39037380D01*
D10*
X49585714Y-106982380D02*
X49585714Y-105982380D01*
X49823809Y-105982380D01*
X49966666Y-106030000D01*
X50061904Y-106125238D01*
X50109523Y-106220476D01*
X50157142Y-106410952D01*
X50157142Y-106553809D01*
X50109523Y-106744285D01*
X50061904Y-106839523D01*
X49966666Y-106934761D01*
X49823809Y-106982380D01*
X49585714Y-106982380D01*
X51109523Y-106982380D02*
X50538095Y-106982380D01*
X50823809Y-106982380D02*
X50823809Y-105982380D01*
X50728571Y-106125238D01*
X50633333Y-106220476D01*
X50538095Y-106268095D01*
X51490476Y-106077619D02*
X51538095Y-106030000D01*
X51633333Y-105982380D01*
X51871428Y-105982380D01*
X51966666Y-106030000D01*
X52014285Y-106077619D01*
X52061904Y-106172857D01*
X52061904Y-106268095D01*
X52014285Y-106410952D01*
X51442857Y-106982380D01*
X52061904Y-106982380D01*
X101433333Y-110052380D02*
X101100000Y-109576190D01*
X100861904Y-110052380D02*
X100861904Y-109052380D01*
X101242857Y-109052380D01*
X101338095Y-109100000D01*
X101385714Y-109147619D01*
X101433333Y-109242857D01*
X101433333Y-109385714D01*
X101385714Y-109480952D01*
X101338095Y-109528571D01*
X101242857Y-109576190D01*
X100861904Y-109576190D01*
X102338095Y-109052380D02*
X101861904Y-109052380D01*
X101814285Y-109528571D01*
X101861904Y-109480952D01*
X101957142Y-109433333D01*
X102195238Y-109433333D01*
X102290476Y-109480952D01*
X102338095Y-109528571D01*
X102385714Y-109623809D01*
X102385714Y-109861904D01*
X102338095Y-109957142D01*
X102290476Y-110004761D01*
X102195238Y-110052380D01*
X101957142Y-110052380D01*
X101861904Y-110004761D01*
X101814285Y-109957142D01*
X63740380Y-60110666D02*
X63264190Y-60444000D01*
X63740380Y-60682095D02*
X62740380Y-60682095D01*
X62740380Y-60301142D01*
X62788000Y-60205904D01*
X62835619Y-60158285D01*
X62930857Y-60110666D01*
X63073714Y-60110666D01*
X63168952Y-60158285D01*
X63216571Y-60205904D01*
X63264190Y-60301142D01*
X63264190Y-60682095D01*
X62835619Y-59729714D02*
X62788000Y-59682095D01*
X62740380Y-59586857D01*
X62740380Y-59348761D01*
X62788000Y-59253523D01*
X62835619Y-59205904D01*
X62930857Y-59158285D01*
X63026095Y-59158285D01*
X63168952Y-59205904D01*
X63740380Y-59777333D01*
X63740380Y-59158285D01*
X97821904Y-39817380D02*
X97821904Y-40626904D01*
X97869523Y-40722142D01*
X97917142Y-40769761D01*
X98012380Y-40817380D01*
X98202857Y-40817380D01*
X98298095Y-40769761D01*
X98345714Y-40722142D01*
X98393333Y-40626904D01*
X98393333Y-39817380D01*
X99393333Y-40817380D02*
X98821904Y-40817380D01*
X99107619Y-40817380D02*
X99107619Y-39817380D01*
X99012380Y-39960238D01*
X98917142Y-40055476D01*
X98821904Y-40103095D01*
X99774285Y-39912619D02*
X99821904Y-39865000D01*
X99917142Y-39817380D01*
X100155238Y-39817380D01*
X100250476Y-39865000D01*
X100298095Y-39912619D01*
X100345714Y-40007857D01*
X100345714Y-40103095D01*
X100298095Y-40245952D01*
X99726666Y-40817380D01*
X100345714Y-40817380D01*
X101412380Y-45053095D02*
X102221904Y-45053095D01*
X102317142Y-45005476D01*
X102364761Y-44957857D01*
X102412380Y-44862619D01*
X102412380Y-44672142D01*
X102364761Y-44576904D01*
X102317142Y-44529285D01*
X102221904Y-44481666D01*
X101412380Y-44481666D01*
X102412380Y-43481666D02*
X102412380Y-44053095D01*
X102412380Y-43767380D02*
X101412380Y-43767380D01*
X101555238Y-43862619D01*
X101650476Y-43957857D01*
X101698095Y-44053095D01*
X101745714Y-42624523D02*
X102412380Y-42624523D01*
X101364761Y-42862619D02*
X102079047Y-43100714D01*
X102079047Y-42481666D01*
D14*
X110074523Y-38803095D02*
X110981666Y-38803095D01*
X111163095Y-38863571D01*
X111284047Y-38984523D01*
X111344523Y-39165952D01*
X111344523Y-39286904D01*
X111344523Y-37533095D02*
X111344523Y-38258809D01*
X111344523Y-37895952D02*
X110074523Y-37895952D01*
X110255952Y-38016904D01*
X110376904Y-38137857D01*
X110437380Y-38258809D01*
X110074523Y-36746904D02*
X110074523Y-36625952D01*
X110135000Y-36505000D01*
X110195476Y-36444523D01*
X110316428Y-36384047D01*
X110558333Y-36323571D01*
X110860714Y-36323571D01*
X111102619Y-36384047D01*
X111223571Y-36444523D01*
X111284047Y-36505000D01*
X111344523Y-36625952D01*
X111344523Y-36746904D01*
X111284047Y-36867857D01*
X111223571Y-36928333D01*
X111102619Y-36988809D01*
X110860714Y-37049285D01*
X110558333Y-37049285D01*
X110316428Y-36988809D01*
X110195476Y-36928333D01*
X110135000Y-36867857D01*
X110074523Y-36746904D01*
D10*
X88667142Y-44477857D02*
X88714761Y-44525476D01*
X88762380Y-44668333D01*
X88762380Y-44763571D01*
X88714761Y-44906428D01*
X88619523Y-45001666D01*
X88524285Y-45049285D01*
X88333809Y-45096904D01*
X88190952Y-45096904D01*
X88000476Y-45049285D01*
X87905238Y-45001666D01*
X87810000Y-44906428D01*
X87762380Y-44763571D01*
X87762380Y-44668333D01*
X87810000Y-44525476D01*
X87857619Y-44477857D01*
X87762380Y-44144523D02*
X87762380Y-43525476D01*
X88143333Y-43858809D01*
X88143333Y-43715952D01*
X88190952Y-43620714D01*
X88238571Y-43573095D01*
X88333809Y-43525476D01*
X88571904Y-43525476D01*
X88667142Y-43573095D01*
X88714761Y-43620714D01*
X88762380Y-43715952D01*
X88762380Y-44001666D01*
X88714761Y-44096904D01*
X88667142Y-44144523D01*
X87762380Y-43192142D02*
X87762380Y-42525476D01*
X88762380Y-42954047D01*
X101412380Y-65373095D02*
X102221904Y-65373095D01*
X102317142Y-65325476D01*
X102364761Y-65277857D01*
X102412380Y-65182619D01*
X102412380Y-64992142D01*
X102364761Y-64896904D01*
X102317142Y-64849285D01*
X102221904Y-64801666D01*
X101412380Y-64801666D01*
X102412380Y-63801666D02*
X102412380Y-64373095D01*
X102412380Y-64087380D02*
X101412380Y-64087380D01*
X101555238Y-64182619D01*
X101650476Y-64277857D01*
X101698095Y-64373095D01*
X101412380Y-63182619D02*
X101412380Y-63087380D01*
X101460000Y-62992142D01*
X101507619Y-62944523D01*
X101602857Y-62896904D01*
X101793333Y-62849285D01*
X102031428Y-62849285D01*
X102221904Y-62896904D01*
X102317142Y-62944523D01*
X102364761Y-62992142D01*
X102412380Y-63087380D01*
X102412380Y-63182619D01*
X102364761Y-63277857D01*
X102317142Y-63325476D01*
X102221904Y-63373095D01*
X102031428Y-63420714D01*
X101793333Y-63420714D01*
X101602857Y-63373095D01*
X101507619Y-63325476D01*
X101460000Y-63277857D01*
X101412380Y-63182619D01*
X98298095Y-60137380D02*
X98298095Y-60946904D01*
X98345714Y-61042142D01*
X98393333Y-61089761D01*
X98488571Y-61137380D01*
X98679047Y-61137380D01*
X98774285Y-61089761D01*
X98821904Y-61042142D01*
X98869523Y-60946904D01*
X98869523Y-60137380D01*
X99488571Y-60565952D02*
X99393333Y-60518333D01*
X99345714Y-60470714D01*
X99298095Y-60375476D01*
X99298095Y-60327857D01*
X99345714Y-60232619D01*
X99393333Y-60185000D01*
X99488571Y-60137380D01*
X99679047Y-60137380D01*
X99774285Y-60185000D01*
X99821904Y-60232619D01*
X99869523Y-60327857D01*
X99869523Y-60375476D01*
X99821904Y-60470714D01*
X99774285Y-60518333D01*
X99679047Y-60565952D01*
X99488571Y-60565952D01*
X99393333Y-60613571D01*
X99345714Y-60661190D01*
X99298095Y-60756428D01*
X99298095Y-60946904D01*
X99345714Y-61042142D01*
X99393333Y-61089761D01*
X99488571Y-61137380D01*
X99679047Y-61137380D01*
X99774285Y-61089761D01*
X99821904Y-61042142D01*
X99869523Y-60946904D01*
X99869523Y-60756428D01*
X99821904Y-60661190D01*
X99774285Y-60613571D01*
X99679047Y-60565952D01*
D14*
X110074523Y-58518333D02*
X110981666Y-58518333D01*
X111163095Y-58578809D01*
X111284047Y-58699761D01*
X111344523Y-58881190D01*
X111344523Y-59002142D01*
X110074523Y-57308809D02*
X110074523Y-57913571D01*
X110679285Y-57974047D01*
X110618809Y-57913571D01*
X110558333Y-57792619D01*
X110558333Y-57490238D01*
X110618809Y-57369285D01*
X110679285Y-57308809D01*
X110800238Y-57248333D01*
X111102619Y-57248333D01*
X111223571Y-57308809D01*
X111284047Y-57369285D01*
X111344523Y-57490238D01*
X111344523Y-57792619D01*
X111284047Y-57913571D01*
X111223571Y-57974047D01*
D10*
X88667142Y-64797857D02*
X88714761Y-64845476D01*
X88762380Y-64988333D01*
X88762380Y-65083571D01*
X88714761Y-65226428D01*
X88619523Y-65321666D01*
X88524285Y-65369285D01*
X88333809Y-65416904D01*
X88190952Y-65416904D01*
X88000476Y-65369285D01*
X87905238Y-65321666D01*
X87810000Y-65226428D01*
X87762380Y-65083571D01*
X87762380Y-64988333D01*
X87810000Y-64845476D01*
X87857619Y-64797857D01*
X87857619Y-64416904D02*
X87810000Y-64369285D01*
X87762380Y-64274047D01*
X87762380Y-64035952D01*
X87810000Y-63940714D01*
X87857619Y-63893095D01*
X87952857Y-63845476D01*
X88048095Y-63845476D01*
X88190952Y-63893095D01*
X88762380Y-64464523D01*
X88762380Y-63845476D01*
X88190952Y-63274047D02*
X88143333Y-63369285D01*
X88095714Y-63416904D01*
X88000476Y-63464523D01*
X87952857Y-63464523D01*
X87857619Y-63416904D01*
X87810000Y-63369285D01*
X87762380Y-63274047D01*
X87762380Y-63083571D01*
X87810000Y-62988333D01*
X87857619Y-62940714D01*
X87952857Y-62893095D01*
X88000476Y-62893095D01*
X88095714Y-62940714D01*
X88143333Y-62988333D01*
X88190952Y-63083571D01*
X88190952Y-63274047D01*
X88238571Y-63369285D01*
X88286190Y-63416904D01*
X88381428Y-63464523D01*
X88571904Y-63464523D01*
X88667142Y-63416904D01*
X88714761Y-63369285D01*
X88762380Y-63274047D01*
X88762380Y-63083571D01*
X88714761Y-62988333D01*
X88667142Y-62940714D01*
X88571904Y-62893095D01*
X88381428Y-62893095D01*
X88286190Y-62940714D01*
X88238571Y-62988333D01*
X88190952Y-63083571D01*
X63867380Y-48902857D02*
X63391190Y-49236190D01*
X63867380Y-49474285D02*
X62867380Y-49474285D01*
X62867380Y-49093333D01*
X62915000Y-48998095D01*
X62962619Y-48950476D01*
X63057857Y-48902857D01*
X63200714Y-48902857D01*
X63295952Y-48950476D01*
X63343571Y-48998095D01*
X63391190Y-49093333D01*
X63391190Y-49474285D01*
X63867380Y-47950476D02*
X63867380Y-48521904D01*
X63867380Y-48236190D02*
X62867380Y-48236190D01*
X63010238Y-48331428D01*
X63105476Y-48426666D01*
X63153095Y-48521904D01*
X62867380Y-47093333D02*
X62867380Y-47283809D01*
X62915000Y-47379047D01*
X62962619Y-47426666D01*
X63105476Y-47521904D01*
X63295952Y-47569523D01*
X63676904Y-47569523D01*
X63772142Y-47521904D01*
X63819761Y-47474285D01*
X63867380Y-47379047D01*
X63867380Y-47188571D01*
X63819761Y-47093333D01*
X63772142Y-47045714D01*
X63676904Y-46998095D01*
X63438809Y-46998095D01*
X63343571Y-47045714D01*
X63295952Y-47093333D01*
X63248333Y-47188571D01*
X63248333Y-47379047D01*
X63295952Y-47474285D01*
X63343571Y-47521904D01*
X63438809Y-47569523D01*
X35806142Y-60946380D02*
X35472809Y-60470190D01*
X35234714Y-60946380D02*
X35234714Y-59946380D01*
X35615666Y-59946380D01*
X35710904Y-59994000D01*
X35758523Y-60041619D01*
X35806142Y-60136857D01*
X35806142Y-60279714D01*
X35758523Y-60374952D01*
X35710904Y-60422571D01*
X35615666Y-60470190D01*
X35234714Y-60470190D01*
X36139476Y-59946380D02*
X36758523Y-59946380D01*
X36425190Y-60327333D01*
X36568047Y-60327333D01*
X36663285Y-60374952D01*
X36710904Y-60422571D01*
X36758523Y-60517809D01*
X36758523Y-60755904D01*
X36710904Y-60851142D01*
X36663285Y-60898761D01*
X36568047Y-60946380D01*
X36282333Y-60946380D01*
X36187095Y-60898761D01*
X36139476Y-60851142D01*
X37091857Y-59946380D02*
X37758523Y-59946380D01*
X37329952Y-60946380D01*
X47617142Y-81510142D02*
X47569523Y-81557761D01*
X47426666Y-81605380D01*
X47331428Y-81605380D01*
X47188571Y-81557761D01*
X47093333Y-81462523D01*
X47045714Y-81367285D01*
X46998095Y-81176809D01*
X46998095Y-81033952D01*
X47045714Y-80843476D01*
X47093333Y-80748238D01*
X47188571Y-80653000D01*
X47331428Y-80605380D01*
X47426666Y-80605380D01*
X47569523Y-80653000D01*
X47617142Y-80700619D01*
X47998095Y-80700619D02*
X48045714Y-80653000D01*
X48140952Y-80605380D01*
X48379047Y-80605380D01*
X48474285Y-80653000D01*
X48521904Y-80700619D01*
X48569523Y-80795857D01*
X48569523Y-80891095D01*
X48521904Y-81033952D01*
X47950476Y-81605380D01*
X48569523Y-81605380D01*
X49521904Y-81605380D02*
X48950476Y-81605380D01*
X49236190Y-81605380D02*
X49236190Y-80605380D01*
X49140952Y-80748238D01*
X49045714Y-80843476D01*
X48950476Y-80891095D01*
X56761142Y-35253142D02*
X56713523Y-35300761D01*
X56570666Y-35348380D01*
X56475428Y-35348380D01*
X56332571Y-35300761D01*
X56237333Y-35205523D01*
X56189714Y-35110285D01*
X56142095Y-34919809D01*
X56142095Y-34776952D01*
X56189714Y-34586476D01*
X56237333Y-34491238D01*
X56332571Y-34396000D01*
X56475428Y-34348380D01*
X56570666Y-34348380D01*
X56713523Y-34396000D01*
X56761142Y-34443619D01*
X57713523Y-35348380D02*
X57142095Y-35348380D01*
X57427809Y-35348380D02*
X57427809Y-34348380D01*
X57332571Y-34491238D01*
X57237333Y-34586476D01*
X57142095Y-34634095D01*
X58570666Y-34348380D02*
X58380190Y-34348380D01*
X58284952Y-34396000D01*
X58237333Y-34443619D01*
X58142095Y-34586476D01*
X58094476Y-34776952D01*
X58094476Y-35157904D01*
X58142095Y-35253142D01*
X58189714Y-35300761D01*
X58284952Y-35348380D01*
X58475428Y-35348380D01*
X58570666Y-35300761D01*
X58618285Y-35253142D01*
X58665904Y-35157904D01*
X58665904Y-34919809D01*
X58618285Y-34824571D01*
X58570666Y-34776952D01*
X58475428Y-34729333D01*
X58284952Y-34729333D01*
X58189714Y-34776952D01*
X58142095Y-34824571D01*
X58094476Y-34919809D01*
X96338380Y-73032857D02*
X95862190Y-73366190D01*
X96338380Y-73604285D02*
X95338380Y-73604285D01*
X95338380Y-73223333D01*
X95386000Y-73128095D01*
X95433619Y-73080476D01*
X95528857Y-73032857D01*
X95671714Y-73032857D01*
X95766952Y-73080476D01*
X95814571Y-73128095D01*
X95862190Y-73223333D01*
X95862190Y-73604285D01*
X96338380Y-72080476D02*
X96338380Y-72651904D01*
X96338380Y-72366190D02*
X95338380Y-72366190D01*
X95481238Y-72461428D01*
X95576476Y-72556666D01*
X95624095Y-72651904D01*
X95433619Y-71699523D02*
X95386000Y-71651904D01*
X95338380Y-71556666D01*
X95338380Y-71318571D01*
X95386000Y-71223333D01*
X95433619Y-71175714D01*
X95528857Y-71128095D01*
X95624095Y-71128095D01*
X95766952Y-71175714D01*
X96338380Y-71747142D01*
X96338380Y-71128095D01*
X19986666Y-96182380D02*
X19986666Y-96896666D01*
X19939047Y-97039523D01*
X19843809Y-97134761D01*
X19700952Y-97182380D01*
X19605714Y-97182380D01*
X20605714Y-96610952D02*
X20510476Y-96563333D01*
X20462857Y-96515714D01*
X20415238Y-96420476D01*
X20415238Y-96372857D01*
X20462857Y-96277619D01*
X20510476Y-96230000D01*
X20605714Y-96182380D01*
X20796190Y-96182380D01*
X20891428Y-96230000D01*
X20939047Y-96277619D01*
X20986666Y-96372857D01*
X20986666Y-96420476D01*
X20939047Y-96515714D01*
X20891428Y-96563333D01*
X20796190Y-96610952D01*
X20605714Y-96610952D01*
X20510476Y-96658571D01*
X20462857Y-96706190D01*
X20415238Y-96801428D01*
X20415238Y-96991904D01*
X20462857Y-97087142D01*
X20510476Y-97134761D01*
X20605714Y-97182380D01*
X20796190Y-97182380D01*
X20891428Y-97134761D01*
X20939047Y-97087142D01*
X20986666Y-96991904D01*
X20986666Y-96801428D01*
X20939047Y-96706190D01*
X20891428Y-96658571D01*
X20796190Y-96610952D01*
X70358095Y-62732380D02*
X70358095Y-63541904D01*
X70405714Y-63637142D01*
X70453333Y-63684761D01*
X70548571Y-63732380D01*
X70739047Y-63732380D01*
X70834285Y-63684761D01*
X70881904Y-63637142D01*
X70929523Y-63541904D01*
X70929523Y-62732380D01*
X71358095Y-62827619D02*
X71405714Y-62780000D01*
X71500952Y-62732380D01*
X71739047Y-62732380D01*
X71834285Y-62780000D01*
X71881904Y-62827619D01*
X71929523Y-62922857D01*
X71929523Y-63018095D01*
X71881904Y-63160952D01*
X71310476Y-63732380D01*
X71929523Y-63732380D01*
X19986666Y-78402380D02*
X19986666Y-79116666D01*
X19939047Y-79259523D01*
X19843809Y-79354761D01*
X19700952Y-79402380D01*
X19605714Y-79402380D01*
X20367619Y-78402380D02*
X21034285Y-78402380D01*
X20605714Y-79402380D01*
X50321380Y-55506857D02*
X49845190Y-55840190D01*
X50321380Y-56078285D02*
X49321380Y-56078285D01*
X49321380Y-55697333D01*
X49369000Y-55602095D01*
X49416619Y-55554476D01*
X49511857Y-55506857D01*
X49654714Y-55506857D01*
X49749952Y-55554476D01*
X49797571Y-55602095D01*
X49845190Y-55697333D01*
X49845190Y-56078285D01*
X49321380Y-55173523D02*
X49321380Y-54554476D01*
X49702333Y-54887809D01*
X49702333Y-54744952D01*
X49749952Y-54649714D01*
X49797571Y-54602095D01*
X49892809Y-54554476D01*
X50130904Y-54554476D01*
X50226142Y-54602095D01*
X50273761Y-54649714D01*
X50321380Y-54744952D01*
X50321380Y-55030666D01*
X50273761Y-55125904D01*
X50226142Y-55173523D01*
X49321380Y-54221142D02*
X49321380Y-53602095D01*
X49702333Y-53935428D01*
X49702333Y-53792571D01*
X49749952Y-53697333D01*
X49797571Y-53649714D01*
X49892809Y-53602095D01*
X50130904Y-53602095D01*
X50226142Y-53649714D01*
X50273761Y-53697333D01*
X50321380Y-53792571D01*
X50321380Y-54078285D01*
X50273761Y-54173523D01*
X50226142Y-54221142D01*
X51046142Y-60946380D02*
X50712809Y-60470190D01*
X50474714Y-60946380D02*
X50474714Y-59946380D01*
X50855666Y-59946380D01*
X50950904Y-59994000D01*
X50998523Y-60041619D01*
X51046142Y-60136857D01*
X51046142Y-60279714D01*
X50998523Y-60374952D01*
X50950904Y-60422571D01*
X50855666Y-60470190D01*
X50474714Y-60470190D01*
X51379476Y-59946380D02*
X51998523Y-59946380D01*
X51665190Y-60327333D01*
X51808047Y-60327333D01*
X51903285Y-60374952D01*
X51950904Y-60422571D01*
X51998523Y-60517809D01*
X51998523Y-60755904D01*
X51950904Y-60851142D01*
X51903285Y-60898761D01*
X51808047Y-60946380D01*
X51522333Y-60946380D01*
X51427095Y-60898761D01*
X51379476Y-60851142D01*
X52855666Y-60279714D02*
X52855666Y-60946380D01*
X52617571Y-59898761D02*
X52379476Y-60613047D01*
X52998523Y-60613047D01*
D14*
X38402380Y-69789523D02*
X38402380Y-70817619D01*
X38462857Y-70938571D01*
X38523333Y-70999047D01*
X38644285Y-71059523D01*
X38886190Y-71059523D01*
X39007142Y-70999047D01*
X39067619Y-70938571D01*
X39128095Y-70817619D01*
X39128095Y-69789523D01*
X39611904Y-69789523D02*
X40458571Y-69789523D01*
X39914285Y-71059523D01*
D10*
X45241380Y-55506857D02*
X44765190Y-55840190D01*
X45241380Y-56078285D02*
X44241380Y-56078285D01*
X44241380Y-55697333D01*
X44289000Y-55602095D01*
X44336619Y-55554476D01*
X44431857Y-55506857D01*
X44574714Y-55506857D01*
X44669952Y-55554476D01*
X44717571Y-55602095D01*
X44765190Y-55697333D01*
X44765190Y-56078285D01*
X44241380Y-55173523D02*
X44241380Y-54554476D01*
X44622333Y-54887809D01*
X44622333Y-54744952D01*
X44669952Y-54649714D01*
X44717571Y-54602095D01*
X44812809Y-54554476D01*
X45050904Y-54554476D01*
X45146142Y-54602095D01*
X45193761Y-54649714D01*
X45241380Y-54744952D01*
X45241380Y-55030666D01*
X45193761Y-55125904D01*
X45146142Y-55173523D01*
X44336619Y-54173523D02*
X44289000Y-54125904D01*
X44241380Y-54030666D01*
X44241380Y-53792571D01*
X44289000Y-53697333D01*
X44336619Y-53649714D01*
X44431857Y-53602095D01*
X44527095Y-53602095D01*
X44669952Y-53649714D01*
X45241380Y-54221142D01*
X45241380Y-53602095D01*
X40886142Y-60946380D02*
X40552809Y-60470190D01*
X40314714Y-60946380D02*
X40314714Y-59946380D01*
X40695666Y-59946380D01*
X40790904Y-59994000D01*
X40838523Y-60041619D01*
X40886142Y-60136857D01*
X40886142Y-60279714D01*
X40838523Y-60374952D01*
X40790904Y-60422571D01*
X40695666Y-60470190D01*
X40314714Y-60470190D01*
X41219476Y-59946380D02*
X41838523Y-59946380D01*
X41505190Y-60327333D01*
X41648047Y-60327333D01*
X41743285Y-60374952D01*
X41790904Y-60422571D01*
X41838523Y-60517809D01*
X41838523Y-60755904D01*
X41790904Y-60851142D01*
X41743285Y-60898761D01*
X41648047Y-60946380D01*
X41362333Y-60946380D01*
X41267095Y-60898761D01*
X41219476Y-60851142D01*
X42695666Y-59946380D02*
X42505190Y-59946380D01*
X42409952Y-59994000D01*
X42362333Y-60041619D01*
X42267095Y-60184476D01*
X42219476Y-60374952D01*
X42219476Y-60755904D01*
X42267095Y-60851142D01*
X42314714Y-60898761D01*
X42409952Y-60946380D01*
X42600428Y-60946380D01*
X42695666Y-60898761D01*
X42743285Y-60851142D01*
X42790904Y-60755904D01*
X42790904Y-60517809D01*
X42743285Y-60422571D01*
X42695666Y-60374952D01*
X42600428Y-60327333D01*
X42409952Y-60327333D01*
X42314714Y-60374952D01*
X42267095Y-60422571D01*
X42219476Y-60517809D01*
X45966142Y-60946380D02*
X45632809Y-60470190D01*
X45394714Y-60946380D02*
X45394714Y-59946380D01*
X45775666Y-59946380D01*
X45870904Y-59994000D01*
X45918523Y-60041619D01*
X45966142Y-60136857D01*
X45966142Y-60279714D01*
X45918523Y-60374952D01*
X45870904Y-60422571D01*
X45775666Y-60470190D01*
X45394714Y-60470190D01*
X46299476Y-59946380D02*
X46918523Y-59946380D01*
X46585190Y-60327333D01*
X46728047Y-60327333D01*
X46823285Y-60374952D01*
X46870904Y-60422571D01*
X46918523Y-60517809D01*
X46918523Y-60755904D01*
X46870904Y-60851142D01*
X46823285Y-60898761D01*
X46728047Y-60946380D01*
X46442333Y-60946380D01*
X46347095Y-60898761D01*
X46299476Y-60851142D01*
X47823285Y-59946380D02*
X47347095Y-59946380D01*
X47299476Y-60422571D01*
X47347095Y-60374952D01*
X47442333Y-60327333D01*
X47680428Y-60327333D01*
X47775666Y-60374952D01*
X47823285Y-60422571D01*
X47870904Y-60517809D01*
X47870904Y-60755904D01*
X47823285Y-60851142D01*
X47775666Y-60898761D01*
X47680428Y-60946380D01*
X47442333Y-60946380D01*
X47347095Y-60898761D01*
X47299476Y-60851142D01*
X80097333Y-62997142D02*
X80049714Y-63044761D01*
X79906857Y-63092380D01*
X79811619Y-63092380D01*
X79668761Y-63044761D01*
X79573523Y-62949523D01*
X79525904Y-62854285D01*
X79478285Y-62663809D01*
X79478285Y-62520952D01*
X79525904Y-62330476D01*
X79573523Y-62235238D01*
X79668761Y-62140000D01*
X79811619Y-62092380D01*
X79906857Y-62092380D01*
X80049714Y-62140000D01*
X80097333Y-62187619D01*
X80668761Y-62520952D02*
X80573523Y-62473333D01*
X80525904Y-62425714D01*
X80478285Y-62330476D01*
X80478285Y-62282857D01*
X80525904Y-62187619D01*
X80573523Y-62140000D01*
X80668761Y-62092380D01*
X80859238Y-62092380D01*
X80954476Y-62140000D01*
X81002095Y-62187619D01*
X81049714Y-62282857D01*
X81049714Y-62330476D01*
X81002095Y-62425714D01*
X80954476Y-62473333D01*
X80859238Y-62520952D01*
X80668761Y-62520952D01*
X80573523Y-62568571D01*
X80525904Y-62616190D01*
X80478285Y-62711428D01*
X80478285Y-62901904D01*
X80525904Y-62997142D01*
X80573523Y-63044761D01*
X80668761Y-63092380D01*
X80859238Y-63092380D01*
X80954476Y-63044761D01*
X81002095Y-62997142D01*
X81049714Y-62901904D01*
X81049714Y-62711428D01*
X81002095Y-62616190D01*
X80954476Y-62568571D01*
X80859238Y-62520952D01*
X32543142Y-68714857D02*
X32590761Y-68762476D01*
X32638380Y-68905333D01*
X32638380Y-69000571D01*
X32590761Y-69143428D01*
X32495523Y-69238666D01*
X32400285Y-69286285D01*
X32209809Y-69333904D01*
X32066952Y-69333904D01*
X31876476Y-69286285D01*
X31781238Y-69238666D01*
X31686000Y-69143428D01*
X31638380Y-69000571D01*
X31638380Y-68905333D01*
X31686000Y-68762476D01*
X31733619Y-68714857D01*
X31733619Y-68333904D02*
X31686000Y-68286285D01*
X31638380Y-68191047D01*
X31638380Y-67952952D01*
X31686000Y-67857714D01*
X31733619Y-67810095D01*
X31828857Y-67762476D01*
X31924095Y-67762476D01*
X32066952Y-67810095D01*
X32638380Y-68381523D01*
X32638380Y-67762476D01*
X31638380Y-66857714D02*
X31638380Y-67333904D01*
X32114571Y-67381523D01*
X32066952Y-67333904D01*
X32019333Y-67238666D01*
X32019333Y-67000571D01*
X32066952Y-66905333D01*
X32114571Y-66857714D01*
X32209809Y-66810095D01*
X32447904Y-66810095D01*
X32543142Y-66857714D01*
X32590761Y-66905333D01*
X32638380Y-67000571D01*
X32638380Y-67238666D01*
X32590761Y-67333904D01*
X32543142Y-67381523D01*
X38863542Y-67190857D02*
X38911161Y-67238476D01*
X38958780Y-67381333D01*
X38958780Y-67476571D01*
X38911161Y-67619428D01*
X38815923Y-67714666D01*
X38720685Y-67762285D01*
X38530209Y-67809904D01*
X38387352Y-67809904D01*
X38196876Y-67762285D01*
X38101638Y-67714666D01*
X38006400Y-67619428D01*
X37958780Y-67476571D01*
X37958780Y-67381333D01*
X38006400Y-67238476D01*
X38054019Y-67190857D01*
X38054019Y-66809904D02*
X38006400Y-66762285D01*
X37958780Y-66667047D01*
X37958780Y-66428952D01*
X38006400Y-66333714D01*
X38054019Y-66286095D01*
X38149257Y-66238476D01*
X38244495Y-66238476D01*
X38387352Y-66286095D01*
X38958780Y-66857523D01*
X38958780Y-66238476D01*
X38054019Y-65857523D02*
X38006400Y-65809904D01*
X37958780Y-65714666D01*
X37958780Y-65476571D01*
X38006400Y-65381333D01*
X38054019Y-65333714D01*
X38149257Y-65286095D01*
X38244495Y-65286095D01*
X38387352Y-65333714D01*
X38958780Y-65905142D01*
X38958780Y-65286095D01*
X20134342Y-25757142D02*
X20086723Y-25804761D01*
X19943866Y-25852380D01*
X19848628Y-25852380D01*
X19705771Y-25804761D01*
X19610533Y-25709523D01*
X19562914Y-25614285D01*
X19515295Y-25423809D01*
X19515295Y-25280952D01*
X19562914Y-25090476D01*
X19610533Y-24995238D01*
X19705771Y-24900000D01*
X19848628Y-24852380D01*
X19943866Y-24852380D01*
X20086723Y-24900000D01*
X20134342Y-24947619D01*
X20467676Y-24852380D02*
X21086723Y-24852380D01*
X20753390Y-25233333D01*
X20896247Y-25233333D01*
X20991485Y-25280952D01*
X21039104Y-25328571D01*
X21086723Y-25423809D01*
X21086723Y-25661904D01*
X21039104Y-25757142D01*
X20991485Y-25804761D01*
X20896247Y-25852380D01*
X20610533Y-25852380D01*
X20515295Y-25804761D01*
X20467676Y-25757142D01*
X21705771Y-24852380D02*
X21801009Y-24852380D01*
X21896247Y-24900000D01*
X21943866Y-24947619D01*
X21991485Y-25042857D01*
X22039104Y-25233333D01*
X22039104Y-25471428D01*
X21991485Y-25661904D01*
X21943866Y-25757142D01*
X21896247Y-25804761D01*
X21801009Y-25852380D01*
X21705771Y-25852380D01*
X21610533Y-25804761D01*
X21562914Y-25757142D01*
X21515295Y-25661904D01*
X21467676Y-25471428D01*
X21467676Y-25233333D01*
X21515295Y-25042857D01*
X21562914Y-24947619D01*
X21610533Y-24900000D01*
X21705771Y-24852380D01*
D14*
X32596666Y-17112523D02*
X32596666Y-18019666D01*
X32536190Y-18201095D01*
X32415238Y-18322047D01*
X32233809Y-18382523D01*
X32112857Y-18382523D01*
X33866666Y-18382523D02*
X33140952Y-18382523D01*
X33503809Y-18382523D02*
X33503809Y-17112523D01*
X33382857Y-17293952D01*
X33261904Y-17414904D01*
X33140952Y-17475380D01*
D11*
X68953748Y-74395000D02*
X69476252Y-74395000D01*
X68953748Y-72925000D02*
X69476252Y-72925000D01*
X74033748Y-72925000D02*
X74556252Y-72925000D01*
X74033748Y-74395000D02*
X74556252Y-74395000D01*
X42425252Y-16283000D02*
X41902748Y-16283000D01*
X42425252Y-17753000D02*
X41902748Y-17753000D01*
X75925000Y-64211252D02*
X75925000Y-62788748D01*
X77745000Y-64211252D02*
X77745000Y-62788748D01*
X59740748Y-57298000D02*
X61163252Y-57298000D01*
X59740748Y-55478000D02*
X61163252Y-55478000D01*
X64495000Y-47548748D02*
X64495000Y-48971252D01*
X66315000Y-47548748D02*
X66315000Y-48971252D01*
X66315000Y-64211252D02*
X66315000Y-62788748D01*
X64495000Y-64211252D02*
X64495000Y-62788748D01*
X81033252Y-56161000D02*
X80510748Y-56161000D01*
X81033252Y-57631000D02*
X80510748Y-57631000D01*
X80906252Y-52605000D02*
X80383748Y-52605000D01*
X80906252Y-54075000D02*
X80383748Y-54075000D01*
X72490000Y-46093748D02*
X72490000Y-46616252D01*
X71020000Y-46093748D02*
X71020000Y-46616252D01*
X69315000Y-46093748D02*
X69315000Y-46616252D01*
X67845000Y-46093748D02*
X67845000Y-46616252D01*
X100230000Y-72651252D02*
X100230000Y-72128748D01*
X101700000Y-72651252D02*
X101700000Y-72128748D01*
X49014748Y-33120000D02*
X49537252Y-33120000D01*
X49014748Y-31650000D02*
X49537252Y-31650000D01*
X95980000Y-84475000D02*
G75*
G03*
X95980000Y-84475000I-3270000J0D01*
G01*
X57142748Y-41429000D02*
X57665252Y-41429000D01*
X57142748Y-42899000D02*
X57665252Y-42899000D01*
X93972748Y-90905000D02*
X94495252Y-90905000D01*
X93972748Y-89435000D02*
X94495252Y-89435000D01*
X98798748Y-88165000D02*
X99321252Y-88165000D01*
X98798748Y-89635000D02*
X99321252Y-89635000D01*
X47998748Y-77951000D02*
X48521252Y-77951000D01*
X47998748Y-76481000D02*
X48521252Y-76481000D01*
X100230000Y-52331252D02*
X100230000Y-51808748D01*
X101700000Y-52331252D02*
X101700000Y-51808748D01*
X66794748Y-33120000D02*
X67317252Y-33120000D01*
X66794748Y-31650000D02*
X67317252Y-31650000D01*
X74703000Y-98305252D02*
X74703000Y-97782748D01*
X76173000Y-98305252D02*
X76173000Y-97782748D01*
X49303000Y-98305252D02*
X49303000Y-97782748D01*
X50773000Y-98305252D02*
X50773000Y-97782748D01*
X93718748Y-70585000D02*
X94241252Y-70585000D01*
X93718748Y-69115000D02*
X94241252Y-69115000D01*
X28040000Y-28313748D02*
X28040000Y-28836252D01*
X26570000Y-28313748D02*
X26570000Y-28836252D01*
X98798748Y-69315000D02*
X99321252Y-69315000D01*
X98798748Y-67845000D02*
X99321252Y-67845000D01*
X35821252Y-38200000D02*
X35298748Y-38200000D01*
X35821252Y-36730000D02*
X35298748Y-36730000D01*
X18515000Y-34551252D02*
X18515000Y-34028748D01*
X17045000Y-34551252D02*
X17045000Y-34028748D01*
X100230000Y-32265252D02*
X100230000Y-31742748D01*
X101700000Y-32265252D02*
X101700000Y-31742748D01*
X84574748Y-31777000D02*
X85097252Y-31777000D01*
X84574748Y-33247000D02*
X85097252Y-33247000D01*
X93718748Y-50265000D02*
X94241252Y-50265000D01*
X93718748Y-48795000D02*
X94241252Y-48795000D01*
X28651252Y-51345000D02*
X27228748Y-51345000D01*
X28651252Y-54065000D02*
X27228748Y-54065000D01*
X98798748Y-47525000D02*
X99321252Y-47525000D01*
X98798748Y-48995000D02*
X99321252Y-48995000D01*
X99315000Y-114165000D02*
X103200000Y-114165000D01*
X103200000Y-111895000D02*
X99315000Y-111895000D01*
X99315000Y-111895000D02*
X99315000Y-114165000D01*
X94235000Y-111895000D02*
X94235000Y-114165000D01*
X98120000Y-111895000D02*
X94235000Y-111895000D01*
X94235000Y-114165000D02*
X98120000Y-114165000D01*
X90500000Y-111895000D02*
X86615000Y-111895000D01*
X86615000Y-114165000D02*
X90500000Y-114165000D01*
X86615000Y-111895000D02*
X86615000Y-114165000D01*
X85420000Y-111895000D02*
X81535000Y-111895000D01*
X81535000Y-111895000D02*
X81535000Y-114165000D01*
X81535000Y-114165000D02*
X85420000Y-114165000D01*
X73785000Y-114165000D02*
X77670000Y-114165000D01*
X77670000Y-111895000D02*
X73785000Y-111895000D01*
X73785000Y-111895000D02*
X73785000Y-114165000D01*
X72720000Y-111895000D02*
X68835000Y-111895000D01*
X68835000Y-114165000D02*
X72720000Y-114165000D01*
X68835000Y-111895000D02*
X68835000Y-114165000D01*
X61215000Y-111895000D02*
X61215000Y-114165000D01*
X61215000Y-114165000D02*
X65100000Y-114165000D01*
X65100000Y-111895000D02*
X61215000Y-111895000D01*
X56135000Y-114165000D02*
X60020000Y-114165000D01*
X60020000Y-111895000D02*
X56135000Y-111895000D01*
X56135000Y-111895000D02*
X56135000Y-114165000D01*
X25380000Y-108945000D02*
X25380000Y-112035000D01*
X30930000Y-110489538D02*
G75*
G02*
X25380000Y-112034830I-2990000J-462D01*
G01*
X30930000Y-110490462D02*
G75*
G03*
X25380000Y-108945170I-2990000J462D01*
G01*
X30440000Y-110490000D02*
G75*
G03*
X30440000Y-110490000I-2500000J0D01*
G01*
X33000000Y-108945000D02*
X33000000Y-112035000D01*
X38550000Y-110489538D02*
G75*
G02*
X33000000Y-112034830I-2990000J-462D01*
G01*
X38550000Y-110490462D02*
G75*
G03*
X33000000Y-108945170I-2990000J462D01*
G01*
X38060000Y-110490000D02*
G75*
G03*
X38060000Y-110490000I-2500000J0D01*
G01*
X40620000Y-108945000D02*
X40620000Y-112035000D01*
X46170000Y-110490462D02*
G75*
G03*
X40620000Y-108945170I-2990000J462D01*
G01*
X46170000Y-110489538D02*
G75*
G02*
X40620000Y-112034830I-2990000J-462D01*
G01*
X45680000Y-110490000D02*
G75*
G03*
X45680000Y-110490000I-2500000J0D01*
G01*
X28500000Y-40285000D02*
X35000000Y-40285000D01*
X35000000Y-40285000D02*
X35000000Y-48685000D01*
X28500000Y-40285000D02*
X28500000Y-48685000D01*
X25040000Y-29177064D02*
X25040000Y-27972936D01*
X23220000Y-29177064D02*
X23220000Y-27972936D01*
D15*
X118400000Y-71215000D02*
X110410000Y-71215000D01*
D12*
X105410000Y-86515000D02*
X105410000Y-86515000D01*
D15*
X110410000Y-85615000D02*
X118400000Y-85615000D01*
X103140000Y-71215000D02*
X105910000Y-71215000D01*
D12*
X105410000Y-86415000D02*
X105410000Y-86415000D01*
D15*
X105910000Y-85615000D02*
X103140000Y-85615000D01*
X118400000Y-85615000D02*
X118400000Y-71215000D01*
X103140000Y-85615000D02*
X103140000Y-71215000D01*
D12*
X105410000Y-86515000D02*
G75*
G02*
X105410000Y-86415000I0J50000D01*
G01*
X105410000Y-86415000D02*
G75*
G02*
X105410000Y-86515000I0J-50000D01*
G01*
D16*
X27430000Y-48635000D02*
X27430000Y-41535000D01*
X20830000Y-41535000D02*
X20830000Y-48635000D01*
D11*
X42391064Y-21055000D02*
X41936936Y-21055000D01*
X42391064Y-19585000D02*
X41936936Y-19585000D01*
X58314000Y-59216936D02*
X58314000Y-60671064D01*
X56494000Y-59216936D02*
X56494000Y-60671064D01*
X79790936Y-63606000D02*
X81245064Y-63606000D01*
X79790936Y-65426000D02*
X81245064Y-65426000D01*
X96747064Y-107215000D02*
X96292936Y-107215000D01*
X96747064Y-108685000D02*
X96292936Y-108685000D01*
X89127064Y-108685000D02*
X88672936Y-108685000D01*
X89127064Y-107215000D02*
X88672936Y-107215000D01*
X84047064Y-107215000D02*
X83592936Y-107215000D01*
X84047064Y-108685000D02*
X83592936Y-108685000D01*
X76427064Y-108685000D02*
X75972936Y-108685000D01*
X76427064Y-107215000D02*
X75972936Y-107215000D01*
X71347064Y-107215000D02*
X70892936Y-107215000D01*
X71347064Y-108685000D02*
X70892936Y-108685000D01*
X63727064Y-108685000D02*
X63272936Y-108685000D01*
X63727064Y-107215000D02*
X63272936Y-107215000D01*
X37359000Y-55591064D02*
X37359000Y-54136936D01*
X35539000Y-55591064D02*
X35539000Y-54136936D01*
X40619000Y-55591064D02*
X40619000Y-54136936D01*
X42439000Y-55591064D02*
X42439000Y-54136936D01*
X58647064Y-108685000D02*
X58192936Y-108685000D01*
X58647064Y-107215000D02*
X58192936Y-107215000D01*
X49048936Y-35333000D02*
X49503064Y-35333000D01*
X49048936Y-36803000D02*
X49503064Y-36803000D01*
X56875000Y-47532936D02*
X56875000Y-48987064D01*
X58695000Y-47532936D02*
X58695000Y-48987064D01*
X67772941Y-92858000D02*
X69227069Y-92858000D01*
X67772941Y-91038000D02*
X69227069Y-91038000D01*
X96801000Y-52297064D02*
X96801000Y-51842936D01*
X98271000Y-52297064D02*
X98271000Y-51842936D01*
X66828936Y-36803000D02*
X67283064Y-36803000D01*
X66828936Y-35333000D02*
X67283064Y-35333000D01*
X56168936Y-92858000D02*
X57623064Y-92858000D01*
X56168936Y-91038000D02*
X57623064Y-91038000D01*
X28070436Y-105510000D02*
X28524564Y-105510000D01*
X28070436Y-104040000D02*
X28524564Y-104040000D01*
X35690436Y-105510000D02*
X36144564Y-105510000D01*
X35690436Y-104040000D02*
X36144564Y-104040000D01*
X43310436Y-104040000D02*
X43764564Y-104040000D01*
X43310436Y-105510000D02*
X43764564Y-105510000D01*
X50930436Y-104040000D02*
X51384564Y-104040000D01*
X50930436Y-105510000D02*
X51384564Y-105510000D01*
X31842064Y-36555000D02*
X30387936Y-36555000D01*
X31842064Y-38375000D02*
X30387936Y-38375000D01*
X96801000Y-32231064D02*
X96801000Y-31776936D01*
X98271000Y-32231064D02*
X98271000Y-31776936D01*
X84608936Y-35333000D02*
X85063064Y-35333000D01*
X84608936Y-36803000D02*
X85063064Y-36803000D01*
X16870000Y-45177064D02*
X16870000Y-43722936D01*
X18690000Y-45177064D02*
X18690000Y-43722936D01*
X16870000Y-40097064D02*
X16870000Y-38642936D01*
X18690000Y-40097064D02*
X18690000Y-38642936D01*
D16*
X54196000Y-94944000D02*
X59596000Y-94944000D01*
D15*
X51696000Y-95644000D02*
X51696000Y-95644000D01*
D16*
X54196000Y-101144000D02*
X59596000Y-101144000D01*
X59996000Y-96844000D02*
X59996000Y-99244000D01*
D15*
X51796000Y-95644000D02*
X51796000Y-95644000D01*
D16*
X53796000Y-96844000D02*
X53796000Y-99244000D01*
D15*
X51796000Y-95644000D02*
G75*
G02*
X51696000Y-95644000I-50000J0D01*
G01*
X51696000Y-95644000D02*
G75*
G02*
X51796000Y-95644000I50000J0D01*
G01*
D11*
X33920000Y-26330000D02*
X32120000Y-26330000D01*
X32120000Y-29550000D02*
X34570000Y-29550000D01*
X98160000Y-79715000D02*
X100610000Y-79715000D01*
X99960000Y-76495000D02*
X98160000Y-76495000D01*
X53000000Y-32120000D02*
X53000000Y-33920000D01*
X56220000Y-33920000D02*
X56220000Y-31470000D01*
X97450000Y-83555000D02*
X97450000Y-85355000D01*
X100670000Y-85355000D02*
X100670000Y-82905000D01*
D16*
X55910000Y-38095000D02*
G75*
G03*
X55910000Y-38095000I-100000J0D01*
G01*
D11*
X74000000Y-33920000D02*
X74000000Y-31470000D01*
X70780000Y-32120000D02*
X70780000Y-33920000D01*
X91780000Y-33920000D02*
X91780000Y-31470000D01*
X88560000Y-32120000D02*
X88560000Y-33920000D01*
D13*
X68580000Y-66330000D02*
X74930000Y-66330000D01*
X74930000Y-70830000D02*
X68580000Y-70830000D01*
X66330000Y-68580000D02*
G75*
G02*
X68580000Y-66330000I2250000J0D01*
G01*
X77180000Y-68580000D02*
G75*
G02*
X74930000Y-70830000I-2250000J0D01*
G01*
X74930000Y-66330000D02*
G75*
G02*
X77180000Y-68580000I0J-2250000D01*
G01*
X68580000Y-70830000D02*
G75*
G02*
X66330000Y-68580000I0J2250000D01*
G01*
D15*
X48590000Y-28680000D02*
X48590000Y-23960000D01*
X60590000Y-23960000D02*
X60590000Y-28680000D01*
X60590000Y-28680000D02*
X48590000Y-28680000D01*
X60610000Y-11680000D02*
X48590000Y-11680000D01*
X48590000Y-11680000D02*
X48570000Y-19960000D01*
X60590000Y-19960000D02*
X60610000Y-11680000D01*
X96150000Y-28680000D02*
X84150000Y-28680000D01*
X84150000Y-28680000D02*
X84150000Y-23960000D01*
X84150000Y-11680000D02*
X84130000Y-19960000D01*
X96150000Y-19960000D02*
X96170000Y-11680000D01*
X96150000Y-23960000D02*
X96150000Y-28680000D01*
X96170000Y-11680000D02*
X84150000Y-11680000D01*
X66370000Y-28680000D02*
X66370000Y-23960000D01*
X78370000Y-19960000D02*
X78390000Y-11680000D01*
X66370000Y-11680000D02*
X66350000Y-19960000D01*
X78370000Y-28680000D02*
X66370000Y-28680000D01*
X78390000Y-11680000D02*
X66370000Y-11680000D01*
X78370000Y-23960000D02*
X78370000Y-28680000D01*
D16*
X71600005Y-96844000D02*
X71600005Y-99244000D01*
D15*
X63400005Y-95644000D02*
X63400005Y-95644000D01*
D16*
X65800005Y-94944000D02*
X71200005Y-94944000D01*
X65400005Y-96844000D02*
X65400005Y-99244000D01*
X65800005Y-101144000D02*
X71200005Y-101144000D01*
D15*
X63300005Y-95644000D02*
X63300005Y-95644000D01*
X63400005Y-95644000D02*
G75*
G02*
X63300005Y-95644000I-50000J0D01*
G01*
X63300005Y-95644000D02*
G75*
G02*
X63400005Y-95644000I50000J0D01*
G01*
X18605000Y-69215000D02*
X22035000Y-69215000D01*
X22035000Y-78105000D02*
X18605000Y-78105000D01*
D16*
X16585000Y-69825000D02*
G75*
G03*
X16585000Y-69825000I-50000J0D01*
G01*
X22530000Y-38010000D02*
X22530000Y-33110000D01*
X20655000Y-32980000D02*
X22180000Y-32980000D01*
X25730000Y-38010000D02*
X22530000Y-38010000D01*
X22530000Y-33110000D02*
X25730000Y-33110000D01*
X25730000Y-33110000D02*
X25730000Y-38010000D01*
D11*
X48240000Y-108945000D02*
X48240000Y-112035000D01*
X53790000Y-110490462D02*
G75*
G03*
X48240000Y-108945170I-2990000J462D01*
G01*
X53790000Y-110489538D02*
G75*
G02*
X48240000Y-112034830I-2990000J-462D01*
G01*
X53300000Y-110490000D02*
G75*
G03*
X53300000Y-110490000I-2500000J0D01*
G01*
X101827064Y-107215000D02*
X101372936Y-107215000D01*
X101827064Y-108685000D02*
X101372936Y-108685000D01*
X60558000Y-59216936D02*
X60558000Y-60671064D01*
X62378000Y-59216936D02*
X62378000Y-60671064D01*
X99960000Y-35855000D02*
X98160000Y-35855000D01*
X98160000Y-39075000D02*
X100610000Y-39075000D01*
X97450000Y-42915000D02*
X97450000Y-44715000D01*
X100670000Y-44715000D02*
X100670000Y-42265000D01*
D15*
X105910000Y-44975000D02*
X103140000Y-44975000D01*
X118400000Y-44975000D02*
X118400000Y-30575000D01*
X103140000Y-30575000D02*
X105910000Y-30575000D01*
X118400000Y-30575000D02*
X110410000Y-30575000D01*
D12*
X105410000Y-45875000D02*
X105410000Y-45875000D01*
D15*
X110410000Y-44975000D02*
X118400000Y-44975000D01*
D12*
X105410000Y-45775000D02*
X105410000Y-45775000D01*
D15*
X103140000Y-44975000D02*
X103140000Y-30575000D01*
D12*
X105410000Y-45775000D02*
G75*
G02*
X105410000Y-45875000I0J-50000D01*
G01*
X105410000Y-45875000D02*
G75*
G02*
X105410000Y-45775000I0J50000D01*
G01*
D11*
X95980000Y-43835000D02*
G75*
G03*
X95980000Y-43835000I-3270000J0D01*
G01*
X100670000Y-65035000D02*
X100670000Y-62585000D01*
X97450000Y-63235000D02*
X97450000Y-65035000D01*
X98160000Y-59395000D02*
X100610000Y-59395000D01*
X99960000Y-56175000D02*
X98160000Y-56175000D01*
D12*
X105410000Y-66195000D02*
X105410000Y-66195000D01*
X105410000Y-66095000D02*
X105410000Y-66095000D01*
D15*
X103140000Y-50895000D02*
X105910000Y-50895000D01*
X118400000Y-65295000D02*
X118400000Y-50895000D01*
X103140000Y-65295000D02*
X103140000Y-50895000D01*
X118400000Y-50895000D02*
X110410000Y-50895000D01*
X105910000Y-65295000D02*
X103140000Y-65295000D01*
X110410000Y-65295000D02*
X118400000Y-65295000D01*
D12*
X105410000Y-66095000D02*
G75*
G02*
X105410000Y-66195000I0J-50000D01*
G01*
X105410000Y-66195000D02*
G75*
G02*
X105410000Y-66095000I0J50000D01*
G01*
D11*
X95980000Y-64155000D02*
G75*
G03*
X95980000Y-64155000I-3270000J0D01*
G01*
X60685000Y-47532936D02*
X60685000Y-48987064D01*
X62505000Y-47532936D02*
X62505000Y-48987064D01*
X37176064Y-57764000D02*
X35721936Y-57764000D01*
X37176064Y-59584000D02*
X35721936Y-59584000D01*
D16*
X88809445Y-100974239D02*
X88600676Y-101018168D01*
X88391599Y-101062360D01*
X88181769Y-101100674D01*
X87970741Y-101126970D01*
X87849445Y-101134239D01*
X90569445Y-94254239D02*
X90583264Y-94484059D01*
X90597266Y-94713901D01*
X90611301Y-94943764D01*
X90625223Y-95173650D01*
X90638882Y-95403558D01*
X90652130Y-95633489D01*
X90664820Y-95863445D01*
X90676803Y-96093426D01*
X90687931Y-96323431D01*
X90698056Y-96553463D01*
X90707030Y-96783522D01*
X90714704Y-97013608D01*
X90720931Y-97243722D01*
X90725562Y-97473865D01*
X90728449Y-97704037D01*
X90729445Y-97934239D01*
X90329445Y-91214239D02*
X90357297Y-91498769D01*
X90383976Y-91783420D01*
X90409504Y-92068183D01*
X90433905Y-92353050D01*
X90457201Y-92638013D01*
X90479414Y-92923064D01*
X90500569Y-93208196D01*
X90520687Y-93493400D01*
X90539793Y-93778669D01*
X90557907Y-94063994D01*
X90569445Y-94254239D01*
X87849445Y-101134239D02*
X87585595Y-101140990D01*
X87348088Y-101140383D01*
X87066614Y-101130877D01*
X86864323Y-101117281D01*
X86657170Y-101096261D01*
X86451025Y-101066427D01*
X86251760Y-101026392D01*
X85978606Y-100944177D01*
X85753959Y-100831202D01*
X85597633Y-100682784D01*
X85529445Y-100494239D01*
X81369445Y-98254239D02*
X81459779Y-98057690D01*
X81539705Y-97852181D01*
X81610159Y-97638818D01*
X81672075Y-97418709D01*
X81726388Y-97192962D01*
X81774034Y-96962683D01*
X81815946Y-96728979D01*
X81853061Y-96492958D01*
X81886312Y-96255727D01*
X81916635Y-96018393D01*
X81944966Y-95782064D01*
X81972238Y-95547847D01*
X81999387Y-95316848D01*
X82027348Y-95090176D01*
X82057055Y-94868937D01*
X82089445Y-94654239D01*
X88763298Y-89614059D02*
X88710046Y-89830109D01*
X88560943Y-90039036D01*
X88394466Y-90186998D01*
X88187578Y-90324312D01*
X87946067Y-90448134D01*
X87675720Y-90555616D01*
X87482329Y-90616789D01*
X87280409Y-90668593D01*
X87071676Y-90710184D01*
X86857845Y-90740719D01*
X86640631Y-90759355D01*
X86421750Y-90765249D01*
X90729445Y-97934239D02*
X90729167Y-98299563D01*
X90726408Y-98633383D01*
X90718278Y-98937441D01*
X90701889Y-99213477D01*
X90674353Y-99463235D01*
X90632779Y-99688455D01*
X90574279Y-99890879D01*
X90448474Y-100155582D01*
X90268335Y-100378790D01*
X90113242Y-100507446D01*
X89926779Y-100622014D01*
X89706057Y-100724236D01*
X89448186Y-100815853D01*
X89150278Y-100898606D01*
X88809445Y-100974239D01*
X83129445Y-90174239D02*
X83181360Y-89979055D01*
X83250786Y-89694832D01*
X83307538Y-89467397D01*
X83373184Y-89217658D01*
X83448169Y-88952524D01*
X83532936Y-88678903D01*
X83627931Y-88403704D01*
X83733598Y-88133833D01*
X83850382Y-87876200D01*
X83978728Y-87637712D01*
X84119080Y-87425278D01*
X84271883Y-87245805D01*
X84437582Y-87106203D01*
X84616621Y-87013378D01*
X84809445Y-86974239D01*
X85529445Y-100494239D02*
X85527484Y-100226400D01*
X85567209Y-100009042D01*
X85693350Y-99766046D01*
X85883440Y-99606776D01*
X86119577Y-99513320D01*
X86383854Y-99467763D01*
X86658368Y-99452193D01*
X86925215Y-99448696D01*
X87166490Y-99439359D01*
X87364288Y-99406269D01*
X87529445Y-99294239D01*
X84809445Y-86974239D02*
X85125702Y-86959057D01*
X85416332Y-86946771D01*
X85684217Y-86937766D01*
X85932243Y-86932427D01*
X86163294Y-86931137D01*
X86380254Y-86934282D01*
X86586007Y-86942246D01*
X86879936Y-86964069D01*
X87164876Y-86998898D01*
X87450561Y-87048032D01*
X87746728Y-87112768D01*
X87954803Y-87165234D01*
X88174747Y-87225596D01*
X88409445Y-87294239D01*
X82489445Y-99614239D02*
X82123424Y-99675847D01*
X81776773Y-99717103D01*
X81449688Y-99739372D01*
X81142370Y-99744017D01*
X80855016Y-99732401D01*
X80587826Y-99705888D01*
X80340998Y-99665840D01*
X80114730Y-99613623D01*
X79909223Y-99550598D01*
X79561283Y-99397581D01*
X79298768Y-99217698D01*
X79123267Y-99021855D01*
X79036371Y-98820961D01*
X79075640Y-98534010D01*
X79217214Y-98368209D01*
X79452958Y-98235534D01*
X79784463Y-98146891D01*
X79986623Y-98122491D01*
X80213319Y-98113189D01*
X80464750Y-98120350D01*
X80741116Y-98145336D01*
X81042614Y-98189511D01*
X81369445Y-98254239D01*
X84088224Y-89597884D02*
X84141475Y-89381833D01*
X84290578Y-89172906D01*
X84457055Y-89024944D01*
X84663943Y-88887630D01*
X84905454Y-88763808D01*
X85175801Y-88656326D01*
X85369192Y-88595153D01*
X85571112Y-88543349D01*
X85779845Y-88501758D01*
X85993676Y-88471223D01*
X86210890Y-88452587D01*
X86429772Y-88446694D01*
X86421750Y-90765249D02*
X86202914Y-90757840D01*
X85985834Y-90737701D01*
X85772220Y-90705688D01*
X85563780Y-90662653D01*
X85362223Y-90609454D01*
X85169259Y-90546944D01*
X84899663Y-90437593D01*
X84659015Y-90312104D01*
X84453082Y-90173361D01*
X84287633Y-90024251D01*
X84139978Y-89814298D01*
X84088224Y-89597884D01*
X87529445Y-99294239D02*
X87605859Y-99099815D01*
X87667122Y-98867760D01*
X87724863Y-98580708D01*
X87758329Y-98367198D01*
X87785622Y-98141861D01*
X87804900Y-97909743D01*
X87814320Y-97675890D01*
X87812040Y-97445349D01*
X87796215Y-97223167D01*
X87765005Y-97014388D01*
X87685309Y-96737391D01*
X87560628Y-96518939D01*
X87449445Y-96414239D01*
X86809445Y-96094239D02*
X86274608Y-96035732D01*
X85803132Y-96001278D01*
X85391262Y-95989557D01*
X85035239Y-95999252D01*
X84731309Y-96029044D01*
X84475714Y-96077616D01*
X84264697Y-96143649D01*
X83961373Y-96322828D01*
X83791286Y-96556036D01*
X83724382Y-96832730D01*
X83730610Y-97142365D01*
X83779916Y-97474397D01*
X83842249Y-97818282D01*
X83887557Y-98163476D01*
X83885786Y-98499434D01*
X83806884Y-98815612D01*
X83620800Y-99101466D01*
X83297480Y-99346452D01*
X83074965Y-99450325D01*
X82806872Y-99540026D01*
X82489445Y-99614239D01*
X88409445Y-87294239D02*
X88643586Y-87391268D01*
X88860094Y-87532923D01*
X89059486Y-87713867D01*
X89242279Y-87928767D01*
X89408992Y-88172287D01*
X89560140Y-88439093D01*
X89696243Y-88723850D01*
X89817816Y-89021223D01*
X89925378Y-89325878D01*
X90019445Y-89632481D01*
X90100536Y-89935695D01*
X90169167Y-90230188D01*
X90225856Y-90510623D01*
X90271120Y-90771666D01*
X90305477Y-91007983D01*
X90329445Y-91214239D01*
X86429772Y-88446694D02*
X86648607Y-88454102D01*
X86865687Y-88474241D01*
X87079301Y-88506255D01*
X87287741Y-88549289D01*
X87489298Y-88602488D01*
X87682262Y-88664998D01*
X87951858Y-88774349D01*
X88192506Y-88899839D01*
X88398439Y-89038581D01*
X88563888Y-89187692D01*
X88711543Y-89397645D01*
X88763298Y-89614059D01*
X87449445Y-96414239D02*
X87281243Y-96297966D01*
X87104930Y-96192501D01*
X86918341Y-96116654D01*
X86809445Y-96094239D01*
X82089445Y-94654239D02*
X82136620Y-94369371D01*
X82186123Y-94085329D01*
X82237965Y-93802075D01*
X82292155Y-93519570D01*
X82348705Y-93237777D01*
X82407624Y-92956658D01*
X82468923Y-92676175D01*
X82532613Y-92396291D01*
X82598704Y-92116968D01*
X82667206Y-91838168D01*
X82738130Y-91559854D01*
X82811487Y-91281986D01*
X82887286Y-91004529D01*
X82965538Y-90727444D01*
X83046254Y-90450693D01*
X83129445Y-90174239D01*
D11*
X47998748Y-80110000D02*
X48521252Y-80110000D01*
X47998748Y-78640000D02*
X48521252Y-78640000D01*
X57142748Y-37311000D02*
X57665252Y-37311000D01*
X57142748Y-35841000D02*
X57665252Y-35841000D01*
X96801000Y-72617064D02*
X96801000Y-72162936D01*
X98271000Y-72617064D02*
X98271000Y-72162936D01*
X18990000Y-100330000D02*
X21650000Y-100330000D01*
X18990000Y-99060000D02*
X18990000Y-97730000D01*
X21650000Y-100330000D02*
X21650000Y-102930000D01*
X18990000Y-97730000D02*
X20320000Y-97730000D01*
X18990000Y-102930000D02*
X21650000Y-102930000D01*
X18990000Y-100330000D02*
X18990000Y-102930000D01*
X76230000Y-50770000D02*
X76230000Y-51720000D01*
X75280000Y-50770000D02*
X76230000Y-50770000D01*
X66960000Y-60990000D02*
X66010000Y-60990000D01*
X66010000Y-50770000D02*
X66010000Y-51720000D01*
X66960000Y-50770000D02*
X66010000Y-50770000D01*
X76230000Y-60990000D02*
X76230000Y-60040000D01*
X76230000Y-60040000D02*
X77570000Y-60040000D01*
X66010000Y-60990000D02*
X66010000Y-60040000D01*
X75280000Y-60990000D02*
X76230000Y-60990000D01*
X21650000Y-82550000D02*
X21650000Y-95310000D01*
X18990000Y-79950000D02*
X20320000Y-79950000D01*
X18990000Y-82550000D02*
X21650000Y-82550000D01*
X18990000Y-95310000D02*
X21650000Y-95310000D01*
X18990000Y-82550000D02*
X18990000Y-95310000D01*
X18990000Y-81280000D02*
X18990000Y-79950000D01*
X52599000Y-55591064D02*
X52599000Y-54136936D01*
X50779000Y-55591064D02*
X50779000Y-54136936D01*
X52416064Y-57764000D02*
X50961936Y-57764000D01*
X52416064Y-59584000D02*
X50961936Y-59584000D01*
D17*
X36620000Y-71795000D02*
G75*
G03*
X36620000Y-71795000I-125000J0D01*
G01*
D11*
X45699000Y-55591064D02*
X45699000Y-54136936D01*
X47519000Y-55591064D02*
X47519000Y-54136936D01*
X42256064Y-59584000D02*
X40801936Y-59584000D01*
X42256064Y-57764000D02*
X40801936Y-57764000D01*
X47336064Y-57764000D02*
X45881936Y-57764000D01*
X47336064Y-59584000D02*
X45881936Y-59584000D01*
X80525252Y-60225000D02*
X80002748Y-60225000D01*
X80525252Y-61695000D02*
X80002748Y-61695000D01*
X33126000Y-68783252D02*
X33126000Y-67360748D01*
X34946000Y-68783252D02*
X34946000Y-67360748D01*
X35841000Y-66809252D02*
X35841000Y-66286748D01*
X37311000Y-66809252D02*
X37311000Y-66286748D01*
X21680000Y-27863748D02*
X21680000Y-29286252D01*
X18960000Y-27863748D02*
X18960000Y-29286252D01*
D15*
X28550000Y-13595000D02*
X28550000Y-13595000D01*
X37490000Y-18022000D02*
X37490000Y-18772000D01*
D16*
X36320000Y-21972000D02*
X36320000Y-21972000D01*
D15*
X37520000Y-18772000D02*
X37520000Y-18022000D01*
X37490000Y-13595000D02*
X37490000Y-13595000D01*
X37490000Y-13595000D02*
X28550000Y-13595000D01*
X37490000Y-13595000D02*
X37490000Y-13595000D01*
X28550000Y-13595000D02*
X28550000Y-15022000D01*
X28550000Y-13595000D02*
X28550000Y-13595000D01*
D16*
X36420000Y-21972000D02*
X36420000Y-21972000D01*
X36420000Y-21972000D02*
X36420000Y-21972000D01*
D15*
X28550000Y-15022000D02*
X28550000Y-13595000D01*
X28550000Y-19022000D02*
X28550000Y-18022000D01*
X28550000Y-19022000D02*
X28550000Y-19022000D01*
X37520000Y-18022000D02*
X37490000Y-18022000D01*
X37490000Y-14772000D02*
X37490000Y-14772000D01*
X37490000Y-14772000D02*
X37490000Y-13595000D01*
X37490000Y-13595000D02*
X37490000Y-14772000D01*
X37490000Y-18772000D02*
X37520000Y-18772000D01*
X28550000Y-13595000D02*
X37490000Y-13595000D01*
X28550000Y-15022000D02*
X28550000Y-15022000D01*
X28550000Y-18022000D02*
X28550000Y-18022000D01*
X28550000Y-18022000D02*
X28550000Y-19022000D01*
D16*
X36320000Y-21972000D02*
G75*
G02*
X36420000Y-21972000I50000J0D01*
G01*
X36320000Y-21972000D02*
G75*
G02*
X36420000Y-21972000I50000J0D01*
G01*
X36420000Y-21972000D02*
G75*
G02*
X36320000Y-21972000I-50000J0D01*
G01*
%LPC*%
D18*
X68265000Y-73660000D03*
X70165000Y-73660000D03*
X73345000Y-73660000D03*
X75245000Y-73660000D03*
D19*
X43114000Y-17018000D03*
X41214000Y-17018000D03*
D20*
X76835000Y-64975000D03*
X76835000Y-62025000D03*
D21*
X58977000Y-56388000D03*
X61927000Y-56388000D03*
D22*
X65405000Y-46785000D03*
X65405000Y-49735000D03*
D20*
X65405000Y-64975000D03*
X65405000Y-62025000D03*
D19*
X81722000Y-56896000D03*
X79822000Y-56896000D03*
X81595000Y-53340000D03*
X79695000Y-53340000D03*
D23*
X71755000Y-45405000D03*
X71755000Y-47305000D03*
X68580000Y-45405000D03*
X68580000Y-47305000D03*
D24*
X100965000Y-73340000D03*
X100965000Y-71440000D03*
D18*
X48326000Y-32385000D03*
X50226000Y-32385000D03*
D25*
X92710000Y-85725000D03*
X92710000Y-83225000D03*
D18*
X56454000Y-42164000D03*
X58354000Y-42164000D03*
X93284000Y-90170000D03*
X95184000Y-90170000D03*
X98110000Y-88900000D03*
X100010000Y-88900000D03*
X47310000Y-77216000D03*
X49210000Y-77216000D03*
D24*
X100965000Y-53020000D03*
X100965000Y-51120000D03*
D18*
X66106000Y-32385000D03*
X68006000Y-32385000D03*
D24*
X75438000Y-98994000D03*
X75438000Y-97094000D03*
X50038000Y-98994000D03*
X50038000Y-97094000D03*
D18*
X93030000Y-69850000D03*
X94930000Y-69850000D03*
D23*
X27305000Y-27625000D03*
X27305000Y-29525000D03*
D18*
X98110000Y-68580000D03*
X100010000Y-68580000D03*
D19*
X36510000Y-37465000D03*
X34610000Y-37465000D03*
D24*
X17780000Y-35240000D03*
X17780000Y-33340000D03*
X100965000Y-32954000D03*
X100965000Y-31054000D03*
D18*
X83886000Y-32512000D03*
X85786000Y-32512000D03*
X93030000Y-49530000D03*
X94930000Y-49530000D03*
D26*
X29415000Y-52705000D03*
X26465000Y-52705000D03*
D18*
X98110000Y-48260000D03*
X100010000Y-48260000D03*
D27*
X100200000Y-113030000D03*
X103000000Y-113030000D03*
X95120000Y-113030000D03*
X97920000Y-113030000D03*
X87500000Y-113030000D03*
X90300000Y-113030000D03*
X82420000Y-113030000D03*
X85220000Y-113030000D03*
X74670000Y-113030000D03*
X77470000Y-113030000D03*
X69720000Y-113030000D03*
X72520000Y-113030000D03*
X62100000Y-113030000D03*
X64900000Y-113030000D03*
X57020000Y-113030000D03*
X59820000Y-113030000D03*
D28*
X26670000Y-110490000D03*
D29*
X29210000Y-110490000D03*
D28*
X34290000Y-110490000D03*
D29*
X36830000Y-110490000D03*
D28*
X41910000Y-110490000D03*
D29*
X44450000Y-110490000D03*
D30*
X31750000Y-41685000D03*
X31750000Y-48485000D03*
D31*
X24130000Y-29975000D03*
X24130000Y-27175000D03*
D32*
X109220000Y-22720000D03*
D33*
X109220000Y-20320000D03*
D32*
X107522944Y-18622944D03*
X110917056Y-18622944D03*
X110917056Y-22017056D03*
X106820000Y-20320000D03*
X107522944Y-22017056D03*
X111620000Y-20320000D03*
X109220000Y-17920000D03*
X17920000Y-20320000D03*
X20320000Y-22720000D03*
X18622944Y-22017056D03*
X22720000Y-20320000D03*
X20320000Y-17920000D03*
X22017056Y-22017056D03*
X22017056Y-18622944D03*
X18622944Y-18622944D03*
D33*
X20320000Y-20320000D03*
D32*
X110917056Y-110917056D03*
X109220000Y-111620000D03*
X111620000Y-109220000D03*
X109220000Y-106820000D03*
D33*
X109220000Y-109220000D03*
D32*
X110917056Y-107522944D03*
X107522944Y-110917056D03*
X106820000Y-109220000D03*
X107522944Y-107522944D03*
D34*
X105410000Y-81915000D03*
X105410000Y-79415000D03*
X105410000Y-77415000D03*
X105410000Y-74915000D03*
D35*
X108120000Y-84985000D03*
X108120000Y-71845000D03*
D36*
X24130000Y-42285000D03*
X24130000Y-47885000D03*
D37*
X43076500Y-20320000D03*
X41251500Y-20320000D03*
D38*
X57404000Y-58481500D03*
X57404000Y-61406500D03*
D39*
X79055500Y-64516000D03*
X81980500Y-64516000D03*
D37*
X97432500Y-107950000D03*
X95607500Y-107950000D03*
X89812500Y-107950000D03*
X87987500Y-107950000D03*
X84732500Y-107950000D03*
X82907500Y-107950000D03*
X77112500Y-107950000D03*
X75287500Y-107950000D03*
X72032500Y-107950000D03*
X70207500Y-107950000D03*
X64412500Y-107950000D03*
X62587500Y-107950000D03*
D40*
X36449000Y-56326500D03*
X36449000Y-53401500D03*
X41529000Y-56326500D03*
X41529000Y-53401500D03*
D37*
X59332500Y-107950000D03*
X57507500Y-107950000D03*
D41*
X48363500Y-36068000D03*
X50188500Y-36068000D03*
D38*
X57785000Y-46797500D03*
X57785000Y-49722500D03*
D39*
X67037505Y-91948000D03*
X69962505Y-91948000D03*
D42*
X97536000Y-52982500D03*
X97536000Y-51157500D03*
D41*
X66143500Y-36068000D03*
X67968500Y-36068000D03*
D39*
X55433500Y-91948000D03*
X58358500Y-91948000D03*
D41*
X27385000Y-104775000D03*
X29210000Y-104775000D03*
X35005000Y-104775000D03*
X36830000Y-104775000D03*
X42625000Y-104775000D03*
X44450000Y-104775000D03*
X50245000Y-104775000D03*
X52070000Y-104775000D03*
D43*
X32577500Y-37465000D03*
X29652500Y-37465000D03*
D42*
X97536000Y-32916500D03*
X97536000Y-31091500D03*
D41*
X83923500Y-36068000D03*
X85748500Y-36068000D03*
D40*
X17780000Y-45912500D03*
X17780000Y-42987500D03*
X17780000Y-40832500D03*
X17780000Y-37907500D03*
D44*
X60871000Y-95794000D03*
X52921000Y-95794000D03*
X60871000Y-100294000D03*
X52921000Y-100294000D03*
D45*
X34120000Y-28890000D03*
X34120000Y-27940000D03*
X34120000Y-26990000D03*
X31920000Y-26990000D03*
X31920000Y-27940000D03*
X31920000Y-28890000D03*
X100160000Y-79055000D03*
X100160000Y-78105000D03*
X100160000Y-77155000D03*
X97960000Y-77155000D03*
X97960000Y-78105000D03*
X97960000Y-79055000D03*
D46*
X55560000Y-31920000D03*
X54610000Y-31920000D03*
X53660000Y-31920000D03*
X53660000Y-34120000D03*
X54610000Y-34120000D03*
X55560000Y-34120000D03*
X100010000Y-83355000D03*
X99060000Y-83355000D03*
X98110000Y-83355000D03*
X98110000Y-85555000D03*
X100010000Y-85555000D03*
D47*
X55210000Y-38520000D03*
X54810000Y-38520000D03*
X54410000Y-38520000D03*
X54010000Y-38520000D03*
D48*
X53360000Y-38770000D03*
X53360000Y-39170000D03*
X53360000Y-39570000D03*
X53360000Y-39970000D03*
D47*
X54010000Y-40220000D03*
X54410000Y-40220000D03*
X54810000Y-40220000D03*
X55210000Y-40220000D03*
D48*
X55860000Y-39970000D03*
X55860000Y-39570000D03*
X55860000Y-39170000D03*
X55860000Y-38770000D03*
D46*
X73340000Y-31920000D03*
X72390000Y-31920000D03*
X71440000Y-31920000D03*
X71440000Y-34120000D03*
X72390000Y-34120000D03*
X73340000Y-34120000D03*
X91120000Y-31920000D03*
X90170000Y-31920000D03*
X89220000Y-31920000D03*
X89220000Y-34120000D03*
X90170000Y-34120000D03*
X91120000Y-34120000D03*
D49*
X69315000Y-68580000D03*
X74195000Y-68580000D03*
D50*
X53340000Y-26670000D03*
D51*
X55840000Y-26670000D03*
X55840000Y-24670000D03*
X53340000Y-24670000D03*
D35*
X60610000Y-21960000D03*
X48570000Y-21960000D03*
D50*
X88900000Y-26670000D03*
D51*
X91400000Y-26670000D03*
X91400000Y-24670000D03*
X88900000Y-24670000D03*
D35*
X96170000Y-21960000D03*
X84130000Y-21960000D03*
D50*
X71120000Y-26670000D03*
D51*
X73620000Y-26670000D03*
X73620000Y-24670000D03*
X71120000Y-24670000D03*
D35*
X66350000Y-21960000D03*
X78390000Y-21960000D03*
D32*
X22017056Y-110917056D03*
X22720000Y-109220000D03*
X20320000Y-111620000D03*
X20320000Y-106820000D03*
X22017056Y-107522944D03*
X18622944Y-110917056D03*
X18622944Y-107522944D03*
D33*
X20320000Y-109220000D03*
D32*
X17920000Y-109220000D03*
D44*
X64525005Y-95794000D03*
X72475005Y-95794000D03*
X72475005Y-100294000D03*
X64525005Y-100294000D03*
D52*
X20320000Y-76835000D03*
X20320000Y-70485000D03*
D53*
X18285000Y-69850000D03*
X22355000Y-69850000D03*
X18285000Y-71120000D03*
X22355000Y-71120000D03*
X18285000Y-72390000D03*
X22355000Y-72390000D03*
X18285000Y-73660000D03*
X22355000Y-73660000D03*
X18285000Y-74930000D03*
X22355000Y-74930000D03*
X18285000Y-76200000D03*
X22355000Y-76200000D03*
X18285000Y-77470000D03*
X22355000Y-77470000D03*
D54*
X21418000Y-33655000D03*
X21418000Y-34925000D03*
X21418000Y-36195000D03*
X21418000Y-37465000D03*
X26842000Y-37465000D03*
X26842000Y-36195000D03*
X26842000Y-34925000D03*
X26842000Y-33655000D03*
D28*
X49530000Y-110490000D03*
D29*
X52070000Y-110490000D03*
D37*
X102512500Y-107950000D03*
X100687500Y-107950000D03*
D38*
X61468000Y-58481500D03*
X61468000Y-61406500D03*
D45*
X100160000Y-38415000D03*
X100160000Y-37465000D03*
X100160000Y-36515000D03*
X97960000Y-36515000D03*
X97960000Y-37465000D03*
X97960000Y-38415000D03*
D46*
X100010000Y-42715000D03*
X99060000Y-42715000D03*
X98110000Y-42715000D03*
X98110000Y-44915000D03*
X100010000Y-44915000D03*
D34*
X105410000Y-41275000D03*
X105410000Y-38775000D03*
X105410000Y-36775000D03*
X105410000Y-34275000D03*
D35*
X108120000Y-44345000D03*
X108120000Y-31205000D03*
D25*
X92710000Y-45085000D03*
X92710000Y-42585000D03*
D46*
X100010000Y-63035000D03*
X99060000Y-63035000D03*
X98110000Y-63035000D03*
X98110000Y-65235000D03*
X100010000Y-65235000D03*
D45*
X100160000Y-58735000D03*
X100160000Y-57785000D03*
X100160000Y-56835000D03*
X97960000Y-56835000D03*
X97960000Y-57785000D03*
X97960000Y-58735000D03*
D34*
X105410000Y-61595000D03*
X105410000Y-59095000D03*
X105410000Y-57095000D03*
X105410000Y-54595000D03*
D35*
X108120000Y-64665000D03*
X108120000Y-51525000D03*
D25*
X92710000Y-65405000D03*
X92710000Y-62905000D03*
D38*
X61595000Y-46797500D03*
X61595000Y-49722500D03*
D43*
X37911500Y-58674000D03*
X34986500Y-58674000D03*
D18*
X47310000Y-79375000D03*
X49210000Y-79375000D03*
X56454000Y-36576000D03*
X58354000Y-36576000D03*
D42*
X97536000Y-73302500D03*
X97536000Y-71477500D03*
D55*
X20320000Y-99060000D03*
D56*
X20320000Y-101600000D03*
D57*
X76795000Y-59630000D03*
X76795000Y-59130000D03*
X76795000Y-58630000D03*
X76795000Y-58130000D03*
X76795000Y-57630000D03*
X76795000Y-57130000D03*
X76795000Y-56630000D03*
X76795000Y-56130000D03*
X76795000Y-55630000D03*
X76795000Y-55130000D03*
X76795000Y-54630000D03*
X76795000Y-54130000D03*
X76795000Y-53630000D03*
X76795000Y-53130000D03*
X76795000Y-52630000D03*
X76795000Y-52130000D03*
D58*
X74870000Y-50205000D03*
X74370000Y-50205000D03*
X73870000Y-50205000D03*
X73370000Y-50205000D03*
X72870000Y-50205000D03*
X72370000Y-50205000D03*
X71870000Y-50205000D03*
X71370000Y-50205000D03*
X70870000Y-50205000D03*
X70370000Y-50205000D03*
X69870000Y-50205000D03*
X69370000Y-50205000D03*
X68870000Y-50205000D03*
X68370000Y-50205000D03*
X67870000Y-50205000D03*
X67370000Y-50205000D03*
D57*
X65445000Y-52130000D03*
X65445000Y-52630000D03*
X65445000Y-53130000D03*
X65445000Y-53630000D03*
X65445000Y-54130000D03*
X65445000Y-54630000D03*
X65445000Y-55130000D03*
X65445000Y-55630000D03*
X65445000Y-56130000D03*
X65445000Y-56630000D03*
X65445000Y-57130000D03*
X65445000Y-57630000D03*
X65445000Y-58130000D03*
X65445000Y-58630000D03*
X65445000Y-59130000D03*
X65445000Y-59630000D03*
D58*
X67370000Y-61555000D03*
X67870000Y-61555000D03*
X68370000Y-61555000D03*
X68870000Y-61555000D03*
X69370000Y-61555000D03*
X69870000Y-61555000D03*
X70370000Y-61555000D03*
X70870000Y-61555000D03*
X71370000Y-61555000D03*
X71870000Y-61555000D03*
X72370000Y-61555000D03*
X72870000Y-61555000D03*
X73370000Y-61555000D03*
X73870000Y-61555000D03*
X74370000Y-61555000D03*
X74870000Y-61555000D03*
D55*
X20320000Y-81280000D03*
D56*
X20320000Y-83820000D03*
X20320000Y-86360000D03*
X20320000Y-88900000D03*
X20320000Y-91440000D03*
X20320000Y-93980000D03*
D40*
X51689000Y-56326500D03*
X51689000Y-53401500D03*
D43*
X53151500Y-58674000D03*
X50226500Y-58674000D03*
D59*
X36920000Y-72545000D03*
X36920000Y-73045000D03*
X36920000Y-73545000D03*
X36920000Y-74045000D03*
X36920000Y-74545000D03*
X36920000Y-75045000D03*
X36920000Y-75545000D03*
X36920000Y-76045000D03*
D60*
X37620000Y-76745000D03*
X38120000Y-76745000D03*
X38620000Y-76745000D03*
X39120000Y-76745000D03*
X39620000Y-76745000D03*
X40120000Y-76745000D03*
X40620000Y-76745000D03*
X41120000Y-76745000D03*
D59*
X41820000Y-76045000D03*
X41820000Y-75545000D03*
X41820000Y-75045000D03*
X41820000Y-74545000D03*
X41820000Y-74045000D03*
X41820000Y-73545000D03*
X41820000Y-73045000D03*
X41820000Y-72545000D03*
D60*
X41120000Y-71845000D03*
X40620000Y-71845000D03*
X40120000Y-71845000D03*
X39620000Y-71845000D03*
X39120000Y-71845000D03*
X38620000Y-71845000D03*
X38120000Y-71845000D03*
X37620000Y-71845000D03*
D61*
X39370000Y-74295000D03*
D40*
X46609000Y-56326500D03*
X46609000Y-53401500D03*
D43*
X42991500Y-58674000D03*
X40066500Y-58674000D03*
X48071500Y-58674000D03*
X45146500Y-58674000D03*
D19*
X81214000Y-60960000D03*
X79314000Y-60960000D03*
D20*
X34036000Y-69547000D03*
X34036000Y-66597000D03*
D24*
X36576000Y-67498000D03*
X36576000Y-65598000D03*
D62*
X20320000Y-27100000D03*
X20320000Y-30050000D03*
D63*
X35910000Y-19875000D03*
X30130000Y-19875000D03*
D64*
X36370000Y-20950000D03*
X35570000Y-20950000D03*
X34270000Y-20950000D03*
X33270000Y-20950000D03*
X32770000Y-20950000D03*
X31770000Y-20950000D03*
X30470000Y-20950000D03*
X29670000Y-20950000D03*
X29970000Y-20950000D03*
X30770000Y-20950000D03*
X31270000Y-20950000D03*
X32270000Y-20950000D03*
X33770000Y-20950000D03*
X34770000Y-20950000D03*
X35270000Y-20950000D03*
X36070000Y-20950000D03*
D65*
X27910000Y-20375000D03*
X38130000Y-20375000D03*
X38130000Y-16445000D03*
X27910000Y-16445000D03*
M02*
