%TF.GenerationSoftware,KiCad,Pcbnew,(5.1.10)-1*%
%TF.CreationDate,2021-10-03T21:41:51+02:00*%
%TF.ProjectId,MUXUS,4d555855-532e-46b6-9963-61645f706362,rev?*%
%TF.SameCoordinates,Original*%
%TF.FileFunction,Paste,Top*%
%TF.FilePolarity,Positive*%
%FSLAX46Y46*%
G04 Gerber Fmt 4.6, Leading zero omitted, Abs format (unit mm)*
G04 Created by KiCad (PCBNEW (5.1.10)-1) date 2021-10-03 21:41:51*
%MOMM*%
%LPD*%
G01*
G04 APERTURE LIST*
%ADD10R,0.850000X0.200000*%
%ADD11R,0.200000X0.850000*%
%ADD12R,2.180000X2.000000*%
%ADD13R,0.300000X1.150000*%
%ADD14R,0.850000X0.250000*%
%ADD15R,0.250000X0.850000*%
%ADD16R,3.600000X3.600000*%
%ADD17R,2.790000X0.740000*%
%ADD18R,3.300000X2.500000*%
%ADD19R,3.200000X2.800000*%
%ADD20R,1.550000X1.300000*%
%ADD21R,1.060000X0.650000*%
%ADD22R,0.650000X1.060000*%
G04 APERTURE END LIST*
D10*
X55860000Y-38770000D03*
X55860000Y-39170000D03*
X55860000Y-39570000D03*
X55860000Y-39970000D03*
D11*
X55210000Y-40220000D03*
X54810000Y-40220000D03*
X54410000Y-40220000D03*
X54010000Y-40220000D03*
D10*
X53360000Y-39970000D03*
X53360000Y-39570000D03*
X53360000Y-39170000D03*
X53360000Y-38770000D03*
D11*
X54010000Y-38520000D03*
X54410000Y-38520000D03*
X54810000Y-38520000D03*
X55210000Y-38520000D03*
D12*
X27910000Y-20375000D03*
X38130000Y-20375000D03*
X27910000Y-16445000D03*
X38130000Y-16445000D03*
D13*
X36070000Y-20950000D03*
X35270000Y-20950000D03*
X34770000Y-20950000D03*
X33770000Y-20950000D03*
X32270000Y-20950000D03*
X31270000Y-20950000D03*
X30770000Y-20950000D03*
X29970000Y-20950000D03*
X29670000Y-20950000D03*
X30470000Y-20950000D03*
X31770000Y-20950000D03*
X32770000Y-20950000D03*
X33270000Y-20950000D03*
X34270000Y-20950000D03*
X35570000Y-20950000D03*
X36370000Y-20950000D03*
D14*
X36920000Y-72545000D03*
X36920000Y-73045000D03*
X36920000Y-73545000D03*
X36920000Y-74045000D03*
X36920000Y-74545000D03*
X36920000Y-75045000D03*
X36920000Y-75545000D03*
X36920000Y-76045000D03*
D15*
X37620000Y-76745000D03*
X38120000Y-76745000D03*
X38620000Y-76745000D03*
X39120000Y-76745000D03*
X39620000Y-76745000D03*
X40120000Y-76745000D03*
X40620000Y-76745000D03*
X41120000Y-76745000D03*
D14*
X41820000Y-76045000D03*
X41820000Y-75545000D03*
X41820000Y-75045000D03*
X41820000Y-74545000D03*
X41820000Y-74045000D03*
X41820000Y-73545000D03*
X41820000Y-73045000D03*
X41820000Y-72545000D03*
D15*
X41120000Y-71845000D03*
X40620000Y-71845000D03*
X40120000Y-71845000D03*
X39620000Y-71845000D03*
X39120000Y-71845000D03*
X38620000Y-71845000D03*
X38120000Y-71845000D03*
X37620000Y-71845000D03*
D16*
X39370000Y-74295000D03*
G36*
G01*
X52314001Y-53964000D02*
X51063999Y-53964000D01*
G75*
G02*
X50814000Y-53714001I0J249999D01*
G01*
X50814000Y-53088999D01*
G75*
G02*
X51063999Y-52839000I249999J0D01*
G01*
X52314001Y-52839000D01*
G75*
G02*
X52564000Y-53088999I0J-249999D01*
G01*
X52564000Y-53714001D01*
G75*
G02*
X52314001Y-53964000I-249999J0D01*
G01*
G37*
G36*
G01*
X52314001Y-56889000D02*
X51063999Y-56889000D01*
G75*
G02*
X50814000Y-56639001I0J249999D01*
G01*
X50814000Y-56013999D01*
G75*
G02*
X51063999Y-55764000I249999J0D01*
G01*
X52314001Y-55764000D01*
G75*
G02*
X52564000Y-56013999I0J-249999D01*
G01*
X52564000Y-56639001D01*
G75*
G02*
X52314001Y-56889000I-249999J0D01*
G01*
G37*
G36*
G01*
X50789000Y-58048999D02*
X50789000Y-59299001D01*
G75*
G02*
X50539001Y-59549000I-249999J0D01*
G01*
X49913999Y-59549000D01*
G75*
G02*
X49664000Y-59299001I0J249999D01*
G01*
X49664000Y-58048999D01*
G75*
G02*
X49913999Y-57799000I249999J0D01*
G01*
X50539001Y-57799000D01*
G75*
G02*
X50789000Y-58048999I0J-249999D01*
G01*
G37*
G36*
G01*
X53714000Y-58048999D02*
X53714000Y-59299001D01*
G75*
G02*
X53464001Y-59549000I-249999J0D01*
G01*
X52838999Y-59549000D01*
G75*
G02*
X52589000Y-59299001I0J249999D01*
G01*
X52589000Y-58048999D01*
G75*
G02*
X52838999Y-57799000I249999J0D01*
G01*
X53464001Y-57799000D01*
G75*
G02*
X53714000Y-58048999I0J-249999D01*
G01*
G37*
G36*
G01*
X57854000Y-42639000D02*
X57854000Y-41689000D01*
G75*
G02*
X58104000Y-41439000I250000J0D01*
G01*
X58604000Y-41439000D01*
G75*
G02*
X58854000Y-41689000I0J-250000D01*
G01*
X58854000Y-42639000D01*
G75*
G02*
X58604000Y-42889000I-250000J0D01*
G01*
X58104000Y-42889000D01*
G75*
G02*
X57854000Y-42639000I0J250000D01*
G01*
G37*
G36*
G01*
X55954000Y-42639000D02*
X55954000Y-41689000D01*
G75*
G02*
X56204000Y-41439000I250000J0D01*
G01*
X56704000Y-41439000D01*
G75*
G02*
X56954000Y-41689000I0J-250000D01*
G01*
X56954000Y-42639000D01*
G75*
G02*
X56704000Y-42889000I-250000J0D01*
G01*
X56204000Y-42889000D01*
G75*
G02*
X55954000Y-42639000I0J250000D01*
G01*
G37*
D17*
X22355000Y-77470000D03*
X18285000Y-77470000D03*
X22355000Y-76200000D03*
X18285000Y-76200000D03*
X22355000Y-74930000D03*
X18285000Y-74930000D03*
X22355000Y-73660000D03*
X18285000Y-73660000D03*
X22355000Y-72390000D03*
X18285000Y-72390000D03*
X22355000Y-71120000D03*
X18285000Y-71120000D03*
X22355000Y-69850000D03*
X18285000Y-69850000D03*
G36*
G01*
X67765000Y-74135000D02*
X67765000Y-73185000D01*
G75*
G02*
X68015000Y-72935000I250000J0D01*
G01*
X68515000Y-72935000D01*
G75*
G02*
X68765000Y-73185000I0J-250000D01*
G01*
X68765000Y-74135000D01*
G75*
G02*
X68515000Y-74385000I-250000J0D01*
G01*
X68015000Y-74385000D01*
G75*
G02*
X67765000Y-74135000I0J250000D01*
G01*
G37*
G36*
G01*
X69665000Y-74135000D02*
X69665000Y-73185000D01*
G75*
G02*
X69915000Y-72935000I250000J0D01*
G01*
X70415000Y-72935000D01*
G75*
G02*
X70665000Y-73185000I0J-250000D01*
G01*
X70665000Y-74135000D01*
G75*
G02*
X70415000Y-74385000I-250000J0D01*
G01*
X69915000Y-74385000D01*
G75*
G02*
X69665000Y-74135000I0J250000D01*
G01*
G37*
G36*
G01*
X74745000Y-74135000D02*
X74745000Y-73185000D01*
G75*
G02*
X74995000Y-72935000I250000J0D01*
G01*
X75495000Y-72935000D01*
G75*
G02*
X75745000Y-73185000I0J-250000D01*
G01*
X75745000Y-74135000D01*
G75*
G02*
X75495000Y-74385000I-250000J0D01*
G01*
X74995000Y-74385000D01*
G75*
G02*
X74745000Y-74135000I0J250000D01*
G01*
G37*
G36*
G01*
X72845000Y-74135000D02*
X72845000Y-73185000D01*
G75*
G02*
X73095000Y-72935000I250000J0D01*
G01*
X73595000Y-72935000D01*
G75*
G02*
X73845000Y-73185000I0J-250000D01*
G01*
X73845000Y-74135000D01*
G75*
G02*
X73595000Y-74385000I-250000J0D01*
G01*
X73095000Y-74385000D01*
G75*
G02*
X72845000Y-74135000I0J250000D01*
G01*
G37*
G36*
G01*
X43614000Y-16543000D02*
X43614000Y-17493000D01*
G75*
G02*
X43364000Y-17743000I-250000J0D01*
G01*
X42864000Y-17743000D01*
G75*
G02*
X42614000Y-17493000I0J250000D01*
G01*
X42614000Y-16543000D01*
G75*
G02*
X42864000Y-16293000I250000J0D01*
G01*
X43364000Y-16293000D01*
G75*
G02*
X43614000Y-16543000I0J-250000D01*
G01*
G37*
G36*
G01*
X41714000Y-16543000D02*
X41714000Y-17493000D01*
G75*
G02*
X41464000Y-17743000I-250000J0D01*
G01*
X40964000Y-17743000D01*
G75*
G02*
X40714000Y-17493000I0J250000D01*
G01*
X40714000Y-16543000D01*
G75*
G02*
X40964000Y-16293000I250000J0D01*
G01*
X41464000Y-16293000D01*
G75*
G02*
X41714000Y-16543000I0J-250000D01*
G01*
G37*
G36*
G01*
X77485001Y-62600000D02*
X76184999Y-62600000D01*
G75*
G02*
X75935000Y-62350001I0J249999D01*
G01*
X75935000Y-61699999D01*
G75*
G02*
X76184999Y-61450000I249999J0D01*
G01*
X77485001Y-61450000D01*
G75*
G02*
X77735000Y-61699999I0J-249999D01*
G01*
X77735000Y-62350001D01*
G75*
G02*
X77485001Y-62600000I-249999J0D01*
G01*
G37*
G36*
G01*
X77485001Y-65550000D02*
X76184999Y-65550000D01*
G75*
G02*
X75935000Y-65300001I0J249999D01*
G01*
X75935000Y-64649999D01*
G75*
G02*
X76184999Y-64400000I249999J0D01*
G01*
X77485001Y-64400000D01*
G75*
G02*
X77735000Y-64649999I0J-249999D01*
G01*
X77735000Y-65300001D01*
G75*
G02*
X77485001Y-65550000I-249999J0D01*
G01*
G37*
G36*
G01*
X58402000Y-57038001D02*
X58402000Y-55737999D01*
G75*
G02*
X58651999Y-55488000I249999J0D01*
G01*
X59302001Y-55488000D01*
G75*
G02*
X59552000Y-55737999I0J-249999D01*
G01*
X59552000Y-57038001D01*
G75*
G02*
X59302001Y-57288000I-249999J0D01*
G01*
X58651999Y-57288000D01*
G75*
G02*
X58402000Y-57038001I0J249999D01*
G01*
G37*
G36*
G01*
X61352000Y-57038001D02*
X61352000Y-55737999D01*
G75*
G02*
X61601999Y-55488000I249999J0D01*
G01*
X62252001Y-55488000D01*
G75*
G02*
X62502000Y-55737999I0J-249999D01*
G01*
X62502000Y-57038001D01*
G75*
G02*
X62252001Y-57288000I-249999J0D01*
G01*
X61601999Y-57288000D01*
G75*
G02*
X61352000Y-57038001I0J249999D01*
G01*
G37*
G36*
G01*
X64754999Y-49160000D02*
X66055001Y-49160000D01*
G75*
G02*
X66305000Y-49409999I0J-249999D01*
G01*
X66305000Y-50060001D01*
G75*
G02*
X66055001Y-50310000I-249999J0D01*
G01*
X64754999Y-50310000D01*
G75*
G02*
X64505000Y-50060001I0J249999D01*
G01*
X64505000Y-49409999D01*
G75*
G02*
X64754999Y-49160000I249999J0D01*
G01*
G37*
G36*
G01*
X64754999Y-46210000D02*
X66055001Y-46210000D01*
G75*
G02*
X66305000Y-46459999I0J-249999D01*
G01*
X66305000Y-47110001D01*
G75*
G02*
X66055001Y-47360000I-249999J0D01*
G01*
X64754999Y-47360000D01*
G75*
G02*
X64505000Y-47110001I0J249999D01*
G01*
X64505000Y-46459999D01*
G75*
G02*
X64754999Y-46210000I249999J0D01*
G01*
G37*
G36*
G01*
X66055001Y-65550000D02*
X64754999Y-65550000D01*
G75*
G02*
X64505000Y-65300001I0J249999D01*
G01*
X64505000Y-64649999D01*
G75*
G02*
X64754999Y-64400000I249999J0D01*
G01*
X66055001Y-64400000D01*
G75*
G02*
X66305000Y-64649999I0J-249999D01*
G01*
X66305000Y-65300001D01*
G75*
G02*
X66055001Y-65550000I-249999J0D01*
G01*
G37*
G36*
G01*
X66055001Y-62600000D02*
X64754999Y-62600000D01*
G75*
G02*
X64505000Y-62350001I0J249999D01*
G01*
X64505000Y-61699999D01*
G75*
G02*
X64754999Y-61450000I249999J0D01*
G01*
X66055001Y-61450000D01*
G75*
G02*
X66305000Y-61699999I0J-249999D01*
G01*
X66305000Y-62350001D01*
G75*
G02*
X66055001Y-62600000I-249999J0D01*
G01*
G37*
G36*
G01*
X81714000Y-60485000D02*
X81714000Y-61435000D01*
G75*
G02*
X81464000Y-61685000I-250000J0D01*
G01*
X80964000Y-61685000D01*
G75*
G02*
X80714000Y-61435000I0J250000D01*
G01*
X80714000Y-60485000D01*
G75*
G02*
X80964000Y-60235000I250000J0D01*
G01*
X81464000Y-60235000D01*
G75*
G02*
X81714000Y-60485000I0J-250000D01*
G01*
G37*
G36*
G01*
X79814000Y-60485000D02*
X79814000Y-61435000D01*
G75*
G02*
X79564000Y-61685000I-250000J0D01*
G01*
X79064000Y-61685000D01*
G75*
G02*
X78814000Y-61435000I0J250000D01*
G01*
X78814000Y-60485000D01*
G75*
G02*
X79064000Y-60235000I250000J0D01*
G01*
X79564000Y-60235000D01*
G75*
G02*
X79814000Y-60485000I0J-250000D01*
G01*
G37*
G36*
G01*
X82222000Y-56421000D02*
X82222000Y-57371000D01*
G75*
G02*
X81972000Y-57621000I-250000J0D01*
G01*
X81472000Y-57621000D01*
G75*
G02*
X81222000Y-57371000I0J250000D01*
G01*
X81222000Y-56421000D01*
G75*
G02*
X81472000Y-56171000I250000J0D01*
G01*
X81972000Y-56171000D01*
G75*
G02*
X82222000Y-56421000I0J-250000D01*
G01*
G37*
G36*
G01*
X80322000Y-56421000D02*
X80322000Y-57371000D01*
G75*
G02*
X80072000Y-57621000I-250000J0D01*
G01*
X79572000Y-57621000D01*
G75*
G02*
X79322000Y-57371000I0J250000D01*
G01*
X79322000Y-56421000D01*
G75*
G02*
X79572000Y-56171000I250000J0D01*
G01*
X80072000Y-56171000D01*
G75*
G02*
X80322000Y-56421000I0J-250000D01*
G01*
G37*
G36*
G01*
X80195000Y-52865000D02*
X80195000Y-53815000D01*
G75*
G02*
X79945000Y-54065000I-250000J0D01*
G01*
X79445000Y-54065000D01*
G75*
G02*
X79195000Y-53815000I0J250000D01*
G01*
X79195000Y-52865000D01*
G75*
G02*
X79445000Y-52615000I250000J0D01*
G01*
X79945000Y-52615000D01*
G75*
G02*
X80195000Y-52865000I0J-250000D01*
G01*
G37*
G36*
G01*
X82095000Y-52865000D02*
X82095000Y-53815000D01*
G75*
G02*
X81845000Y-54065000I-250000J0D01*
G01*
X81345000Y-54065000D01*
G75*
G02*
X81095000Y-53815000I0J250000D01*
G01*
X81095000Y-52865000D01*
G75*
G02*
X81345000Y-52615000I250000J0D01*
G01*
X81845000Y-52615000D01*
G75*
G02*
X82095000Y-52865000I0J-250000D01*
G01*
G37*
G36*
G01*
X71280000Y-44905000D02*
X72230000Y-44905000D01*
G75*
G02*
X72480000Y-45155000I0J-250000D01*
G01*
X72480000Y-45655000D01*
G75*
G02*
X72230000Y-45905000I-250000J0D01*
G01*
X71280000Y-45905000D01*
G75*
G02*
X71030000Y-45655000I0J250000D01*
G01*
X71030000Y-45155000D01*
G75*
G02*
X71280000Y-44905000I250000J0D01*
G01*
G37*
G36*
G01*
X71280000Y-46805000D02*
X72230000Y-46805000D01*
G75*
G02*
X72480000Y-47055000I0J-250000D01*
G01*
X72480000Y-47555000D01*
G75*
G02*
X72230000Y-47805000I-250000J0D01*
G01*
X71280000Y-47805000D01*
G75*
G02*
X71030000Y-47555000I0J250000D01*
G01*
X71030000Y-47055000D01*
G75*
G02*
X71280000Y-46805000I250000J0D01*
G01*
G37*
G36*
G01*
X68105000Y-46805000D02*
X69055000Y-46805000D01*
G75*
G02*
X69305000Y-47055000I0J-250000D01*
G01*
X69305000Y-47555000D01*
G75*
G02*
X69055000Y-47805000I-250000J0D01*
G01*
X68105000Y-47805000D01*
G75*
G02*
X67855000Y-47555000I0J250000D01*
G01*
X67855000Y-47055000D01*
G75*
G02*
X68105000Y-46805000I250000J0D01*
G01*
G37*
G36*
G01*
X68105000Y-44905000D02*
X69055000Y-44905000D01*
G75*
G02*
X69305000Y-45155000I0J-250000D01*
G01*
X69305000Y-45655000D01*
G75*
G02*
X69055000Y-45905000I-250000J0D01*
G01*
X68105000Y-45905000D01*
G75*
G02*
X67855000Y-45655000I0J250000D01*
G01*
X67855000Y-45155000D01*
G75*
G02*
X68105000Y-44905000I250000J0D01*
G01*
G37*
G36*
G01*
X101440000Y-71940000D02*
X100490000Y-71940000D01*
G75*
G02*
X100240000Y-71690000I0J250000D01*
G01*
X100240000Y-71190000D01*
G75*
G02*
X100490000Y-70940000I250000J0D01*
G01*
X101440000Y-70940000D01*
G75*
G02*
X101690000Y-71190000I0J-250000D01*
G01*
X101690000Y-71690000D01*
G75*
G02*
X101440000Y-71940000I-250000J0D01*
G01*
G37*
G36*
G01*
X101440000Y-73840000D02*
X100490000Y-73840000D01*
G75*
G02*
X100240000Y-73590000I0J250000D01*
G01*
X100240000Y-73090000D01*
G75*
G02*
X100490000Y-72840000I250000J0D01*
G01*
X101440000Y-72840000D01*
G75*
G02*
X101690000Y-73090000I0J-250000D01*
G01*
X101690000Y-73590000D01*
G75*
G02*
X101440000Y-73840000I-250000J0D01*
G01*
G37*
G36*
G01*
X49726000Y-32860000D02*
X49726000Y-31910000D01*
G75*
G02*
X49976000Y-31660000I250000J0D01*
G01*
X50476000Y-31660000D01*
G75*
G02*
X50726000Y-31910000I0J-250000D01*
G01*
X50726000Y-32860000D01*
G75*
G02*
X50476000Y-33110000I-250000J0D01*
G01*
X49976000Y-33110000D01*
G75*
G02*
X49726000Y-32860000I0J250000D01*
G01*
G37*
G36*
G01*
X47826000Y-32860000D02*
X47826000Y-31910000D01*
G75*
G02*
X48076000Y-31660000I250000J0D01*
G01*
X48576000Y-31660000D01*
G75*
G02*
X48826000Y-31910000I0J-250000D01*
G01*
X48826000Y-32860000D01*
G75*
G02*
X48576000Y-33110000I-250000J0D01*
G01*
X48076000Y-33110000D01*
G75*
G02*
X47826000Y-32860000I0J250000D01*
G01*
G37*
G36*
G01*
X55954000Y-37051000D02*
X55954000Y-36101000D01*
G75*
G02*
X56204000Y-35851000I250000J0D01*
G01*
X56704000Y-35851000D01*
G75*
G02*
X56954000Y-36101000I0J-250000D01*
G01*
X56954000Y-37051000D01*
G75*
G02*
X56704000Y-37301000I-250000J0D01*
G01*
X56204000Y-37301000D01*
G75*
G02*
X55954000Y-37051000I0J250000D01*
G01*
G37*
G36*
G01*
X57854000Y-37051000D02*
X57854000Y-36101000D01*
G75*
G02*
X58104000Y-35851000I250000J0D01*
G01*
X58604000Y-35851000D01*
G75*
G02*
X58854000Y-36101000I0J-250000D01*
G01*
X58854000Y-37051000D01*
G75*
G02*
X58604000Y-37301000I-250000J0D01*
G01*
X58104000Y-37301000D01*
G75*
G02*
X57854000Y-37051000I0J250000D01*
G01*
G37*
G36*
G01*
X92784000Y-90645000D02*
X92784000Y-89695000D01*
G75*
G02*
X93034000Y-89445000I250000J0D01*
G01*
X93534000Y-89445000D01*
G75*
G02*
X93784000Y-89695000I0J-250000D01*
G01*
X93784000Y-90645000D01*
G75*
G02*
X93534000Y-90895000I-250000J0D01*
G01*
X93034000Y-90895000D01*
G75*
G02*
X92784000Y-90645000I0J250000D01*
G01*
G37*
G36*
G01*
X94684000Y-90645000D02*
X94684000Y-89695000D01*
G75*
G02*
X94934000Y-89445000I250000J0D01*
G01*
X95434000Y-89445000D01*
G75*
G02*
X95684000Y-89695000I0J-250000D01*
G01*
X95684000Y-90645000D01*
G75*
G02*
X95434000Y-90895000I-250000J0D01*
G01*
X94934000Y-90895000D01*
G75*
G02*
X94684000Y-90645000I0J250000D01*
G01*
G37*
G36*
G01*
X99510000Y-89375000D02*
X99510000Y-88425000D01*
G75*
G02*
X99760000Y-88175000I250000J0D01*
G01*
X100260000Y-88175000D01*
G75*
G02*
X100510000Y-88425000I0J-250000D01*
G01*
X100510000Y-89375000D01*
G75*
G02*
X100260000Y-89625000I-250000J0D01*
G01*
X99760000Y-89625000D01*
G75*
G02*
X99510000Y-89375000I0J250000D01*
G01*
G37*
G36*
G01*
X97610000Y-89375000D02*
X97610000Y-88425000D01*
G75*
G02*
X97860000Y-88175000I250000J0D01*
G01*
X98360000Y-88175000D01*
G75*
G02*
X98610000Y-88425000I0J-250000D01*
G01*
X98610000Y-89375000D01*
G75*
G02*
X98360000Y-89625000I-250000J0D01*
G01*
X97860000Y-89625000D01*
G75*
G02*
X97610000Y-89375000I0J250000D01*
G01*
G37*
G36*
G01*
X48710000Y-77691000D02*
X48710000Y-76741000D01*
G75*
G02*
X48960000Y-76491000I250000J0D01*
G01*
X49460000Y-76491000D01*
G75*
G02*
X49710000Y-76741000I0J-250000D01*
G01*
X49710000Y-77691000D01*
G75*
G02*
X49460000Y-77941000I-250000J0D01*
G01*
X48960000Y-77941000D01*
G75*
G02*
X48710000Y-77691000I0J250000D01*
G01*
G37*
G36*
G01*
X46810000Y-77691000D02*
X46810000Y-76741000D01*
G75*
G02*
X47060000Y-76491000I250000J0D01*
G01*
X47560000Y-76491000D01*
G75*
G02*
X47810000Y-76741000I0J-250000D01*
G01*
X47810000Y-77691000D01*
G75*
G02*
X47560000Y-77941000I-250000J0D01*
G01*
X47060000Y-77941000D01*
G75*
G02*
X46810000Y-77691000I0J250000D01*
G01*
G37*
G36*
G01*
X48710000Y-79850000D02*
X48710000Y-78900000D01*
G75*
G02*
X48960000Y-78650000I250000J0D01*
G01*
X49460000Y-78650000D01*
G75*
G02*
X49710000Y-78900000I0J-250000D01*
G01*
X49710000Y-79850000D01*
G75*
G02*
X49460000Y-80100000I-250000J0D01*
G01*
X48960000Y-80100000D01*
G75*
G02*
X48710000Y-79850000I0J250000D01*
G01*
G37*
G36*
G01*
X46810000Y-79850000D02*
X46810000Y-78900000D01*
G75*
G02*
X47060000Y-78650000I250000J0D01*
G01*
X47560000Y-78650000D01*
G75*
G02*
X47810000Y-78900000I0J-250000D01*
G01*
X47810000Y-79850000D01*
G75*
G02*
X47560000Y-80100000I-250000J0D01*
G01*
X47060000Y-80100000D01*
G75*
G02*
X46810000Y-79850000I0J250000D01*
G01*
G37*
G36*
G01*
X37051000Y-67998000D02*
X36101000Y-67998000D01*
G75*
G02*
X35851000Y-67748000I0J250000D01*
G01*
X35851000Y-67248000D01*
G75*
G02*
X36101000Y-66998000I250000J0D01*
G01*
X37051000Y-66998000D01*
G75*
G02*
X37301000Y-67248000I0J-250000D01*
G01*
X37301000Y-67748000D01*
G75*
G02*
X37051000Y-67998000I-250000J0D01*
G01*
G37*
G36*
G01*
X37051000Y-66098000D02*
X36101000Y-66098000D01*
G75*
G02*
X35851000Y-65848000I0J250000D01*
G01*
X35851000Y-65348000D01*
G75*
G02*
X36101000Y-65098000I250000J0D01*
G01*
X37051000Y-65098000D01*
G75*
G02*
X37301000Y-65348000I0J-250000D01*
G01*
X37301000Y-65848000D01*
G75*
G02*
X37051000Y-66098000I-250000J0D01*
G01*
G37*
G36*
G01*
X101440000Y-51620000D02*
X100490000Y-51620000D01*
G75*
G02*
X100240000Y-51370000I0J250000D01*
G01*
X100240000Y-50870000D01*
G75*
G02*
X100490000Y-50620000I250000J0D01*
G01*
X101440000Y-50620000D01*
G75*
G02*
X101690000Y-50870000I0J-250000D01*
G01*
X101690000Y-51370000D01*
G75*
G02*
X101440000Y-51620000I-250000J0D01*
G01*
G37*
G36*
G01*
X101440000Y-53520000D02*
X100490000Y-53520000D01*
G75*
G02*
X100240000Y-53270000I0J250000D01*
G01*
X100240000Y-52770000D01*
G75*
G02*
X100490000Y-52520000I250000J0D01*
G01*
X101440000Y-52520000D01*
G75*
G02*
X101690000Y-52770000I0J-250000D01*
G01*
X101690000Y-53270000D01*
G75*
G02*
X101440000Y-53520000I-250000J0D01*
G01*
G37*
G36*
G01*
X65606000Y-32860000D02*
X65606000Y-31910000D01*
G75*
G02*
X65856000Y-31660000I250000J0D01*
G01*
X66356000Y-31660000D01*
G75*
G02*
X66606000Y-31910000I0J-250000D01*
G01*
X66606000Y-32860000D01*
G75*
G02*
X66356000Y-33110000I-250000J0D01*
G01*
X65856000Y-33110000D01*
G75*
G02*
X65606000Y-32860000I0J250000D01*
G01*
G37*
G36*
G01*
X67506000Y-32860000D02*
X67506000Y-31910000D01*
G75*
G02*
X67756000Y-31660000I250000J0D01*
G01*
X68256000Y-31660000D01*
G75*
G02*
X68506000Y-31910000I0J-250000D01*
G01*
X68506000Y-32860000D01*
G75*
G02*
X68256000Y-33110000I-250000J0D01*
G01*
X67756000Y-33110000D01*
G75*
G02*
X67506000Y-32860000I0J250000D01*
G01*
G37*
G36*
G01*
X34686001Y-70122000D02*
X33385999Y-70122000D01*
G75*
G02*
X33136000Y-69872001I0J249999D01*
G01*
X33136000Y-69221999D01*
G75*
G02*
X33385999Y-68972000I249999J0D01*
G01*
X34686001Y-68972000D01*
G75*
G02*
X34936000Y-69221999I0J-249999D01*
G01*
X34936000Y-69872001D01*
G75*
G02*
X34686001Y-70122000I-249999J0D01*
G01*
G37*
G36*
G01*
X34686001Y-67172000D02*
X33385999Y-67172000D01*
G75*
G02*
X33136000Y-66922001I0J249999D01*
G01*
X33136000Y-66271999D01*
G75*
G02*
X33385999Y-66022000I249999J0D01*
G01*
X34686001Y-66022000D01*
G75*
G02*
X34936000Y-66271999I0J-249999D01*
G01*
X34936000Y-66922001D01*
G75*
G02*
X34686001Y-67172000I-249999J0D01*
G01*
G37*
G36*
G01*
X75151000Y-99494000D02*
X74201000Y-99494000D01*
G75*
G02*
X73951000Y-99244000I0J250000D01*
G01*
X73951000Y-98744000D01*
G75*
G02*
X74201000Y-98494000I250000J0D01*
G01*
X75151000Y-98494000D01*
G75*
G02*
X75401000Y-98744000I0J-250000D01*
G01*
X75401000Y-99244000D01*
G75*
G02*
X75151000Y-99494000I-250000J0D01*
G01*
G37*
G36*
G01*
X75151000Y-97594000D02*
X74201000Y-97594000D01*
G75*
G02*
X73951000Y-97344000I0J250000D01*
G01*
X73951000Y-96844000D01*
G75*
G02*
X74201000Y-96594000I250000J0D01*
G01*
X75151000Y-96594000D01*
G75*
G02*
X75401000Y-96844000I0J-250000D01*
G01*
X75401000Y-97344000D01*
G75*
G02*
X75151000Y-97594000I-250000J0D01*
G01*
G37*
G36*
G01*
X50767000Y-97594000D02*
X49817000Y-97594000D01*
G75*
G02*
X49567000Y-97344000I0J250000D01*
G01*
X49567000Y-96844000D01*
G75*
G02*
X49817000Y-96594000I250000J0D01*
G01*
X50767000Y-96594000D01*
G75*
G02*
X51017000Y-96844000I0J-250000D01*
G01*
X51017000Y-97344000D01*
G75*
G02*
X50767000Y-97594000I-250000J0D01*
G01*
G37*
G36*
G01*
X50767000Y-99494000D02*
X49817000Y-99494000D01*
G75*
G02*
X49567000Y-99244000I0J250000D01*
G01*
X49567000Y-98744000D01*
G75*
G02*
X49817000Y-98494000I250000J0D01*
G01*
X50767000Y-98494000D01*
G75*
G02*
X51017000Y-98744000I0J-250000D01*
G01*
X51017000Y-99244000D01*
G75*
G02*
X50767000Y-99494000I-250000J0D01*
G01*
G37*
G36*
G01*
X94430000Y-70325000D02*
X94430000Y-69375000D01*
G75*
G02*
X94680000Y-69125000I250000J0D01*
G01*
X95180000Y-69125000D01*
G75*
G02*
X95430000Y-69375000I0J-250000D01*
G01*
X95430000Y-70325000D01*
G75*
G02*
X95180000Y-70575000I-250000J0D01*
G01*
X94680000Y-70575000D01*
G75*
G02*
X94430000Y-70325000I0J250000D01*
G01*
G37*
G36*
G01*
X92530000Y-70325000D02*
X92530000Y-69375000D01*
G75*
G02*
X92780000Y-69125000I250000J0D01*
G01*
X93280000Y-69125000D01*
G75*
G02*
X93530000Y-69375000I0J-250000D01*
G01*
X93530000Y-70325000D01*
G75*
G02*
X93280000Y-70575000I-250000J0D01*
G01*
X92780000Y-70575000D01*
G75*
G02*
X92530000Y-70325000I0J250000D01*
G01*
G37*
G36*
G01*
X19219999Y-26525000D02*
X21420001Y-26525000D01*
G75*
G02*
X21670000Y-26774999I0J-249999D01*
G01*
X21670000Y-27425001D01*
G75*
G02*
X21420001Y-27675000I-249999J0D01*
G01*
X19219999Y-27675000D01*
G75*
G02*
X18970000Y-27425001I0J249999D01*
G01*
X18970000Y-26774999D01*
G75*
G02*
X19219999Y-26525000I249999J0D01*
G01*
G37*
G36*
G01*
X19219999Y-29475000D02*
X21420001Y-29475000D01*
G75*
G02*
X21670000Y-29724999I0J-249999D01*
G01*
X21670000Y-30375001D01*
G75*
G02*
X21420001Y-30625000I-249999J0D01*
G01*
X19219999Y-30625000D01*
G75*
G02*
X18970000Y-30375001I0J249999D01*
G01*
X18970000Y-29724999D01*
G75*
G02*
X19219999Y-29475000I249999J0D01*
G01*
G37*
G36*
G01*
X26830000Y-27125000D02*
X27780000Y-27125000D01*
G75*
G02*
X28030000Y-27375000I0J-250000D01*
G01*
X28030000Y-27875000D01*
G75*
G02*
X27780000Y-28125000I-250000J0D01*
G01*
X26830000Y-28125000D01*
G75*
G02*
X26580000Y-27875000I0J250000D01*
G01*
X26580000Y-27375000D01*
G75*
G02*
X26830000Y-27125000I250000J0D01*
G01*
G37*
G36*
G01*
X26830000Y-29025000D02*
X27780000Y-29025000D01*
G75*
G02*
X28030000Y-29275000I0J-250000D01*
G01*
X28030000Y-29775000D01*
G75*
G02*
X27780000Y-30025000I-250000J0D01*
G01*
X26830000Y-30025000D01*
G75*
G02*
X26580000Y-29775000I0J250000D01*
G01*
X26580000Y-29275000D01*
G75*
G02*
X26830000Y-29025000I250000J0D01*
G01*
G37*
G36*
G01*
X97610000Y-69055000D02*
X97610000Y-68105000D01*
G75*
G02*
X97860000Y-67855000I250000J0D01*
G01*
X98360000Y-67855000D01*
G75*
G02*
X98610000Y-68105000I0J-250000D01*
G01*
X98610000Y-69055000D01*
G75*
G02*
X98360000Y-69305000I-250000J0D01*
G01*
X97860000Y-69305000D01*
G75*
G02*
X97610000Y-69055000I0J250000D01*
G01*
G37*
G36*
G01*
X99510000Y-69055000D02*
X99510000Y-68105000D01*
G75*
G02*
X99760000Y-67855000I250000J0D01*
G01*
X100260000Y-67855000D01*
G75*
G02*
X100510000Y-68105000I0J-250000D01*
G01*
X100510000Y-69055000D01*
G75*
G02*
X100260000Y-69305000I-250000J0D01*
G01*
X99760000Y-69305000D01*
G75*
G02*
X99510000Y-69055000I0J250000D01*
G01*
G37*
G36*
G01*
X37010000Y-36990000D02*
X37010000Y-37940000D01*
G75*
G02*
X36760000Y-38190000I-250000J0D01*
G01*
X36260000Y-38190000D01*
G75*
G02*
X36010000Y-37940000I0J250000D01*
G01*
X36010000Y-36990000D01*
G75*
G02*
X36260000Y-36740000I250000J0D01*
G01*
X36760000Y-36740000D01*
G75*
G02*
X37010000Y-36990000I0J-250000D01*
G01*
G37*
G36*
G01*
X35110000Y-36990000D02*
X35110000Y-37940000D01*
G75*
G02*
X34860000Y-38190000I-250000J0D01*
G01*
X34360000Y-38190000D01*
G75*
G02*
X34110000Y-37940000I0J250000D01*
G01*
X34110000Y-36990000D01*
G75*
G02*
X34360000Y-36740000I250000J0D01*
G01*
X34860000Y-36740000D01*
G75*
G02*
X35110000Y-36990000I0J-250000D01*
G01*
G37*
G36*
G01*
X18255000Y-35740000D02*
X17305000Y-35740000D01*
G75*
G02*
X17055000Y-35490000I0J250000D01*
G01*
X17055000Y-34990000D01*
G75*
G02*
X17305000Y-34740000I250000J0D01*
G01*
X18255000Y-34740000D01*
G75*
G02*
X18505000Y-34990000I0J-250000D01*
G01*
X18505000Y-35490000D01*
G75*
G02*
X18255000Y-35740000I-250000J0D01*
G01*
G37*
G36*
G01*
X18255000Y-33840000D02*
X17305000Y-33840000D01*
G75*
G02*
X17055000Y-33590000I0J250000D01*
G01*
X17055000Y-33090000D01*
G75*
G02*
X17305000Y-32840000I250000J0D01*
G01*
X18255000Y-32840000D01*
G75*
G02*
X18505000Y-33090000I0J-250000D01*
G01*
X18505000Y-33590000D01*
G75*
G02*
X18255000Y-33840000I-250000J0D01*
G01*
G37*
G36*
G01*
X101440000Y-31554000D02*
X100490000Y-31554000D01*
G75*
G02*
X100240000Y-31304000I0J250000D01*
G01*
X100240000Y-30804000D01*
G75*
G02*
X100490000Y-30554000I250000J0D01*
G01*
X101440000Y-30554000D01*
G75*
G02*
X101690000Y-30804000I0J-250000D01*
G01*
X101690000Y-31304000D01*
G75*
G02*
X101440000Y-31554000I-250000J0D01*
G01*
G37*
G36*
G01*
X101440000Y-33454000D02*
X100490000Y-33454000D01*
G75*
G02*
X100240000Y-33204000I0J250000D01*
G01*
X100240000Y-32704000D01*
G75*
G02*
X100490000Y-32454000I250000J0D01*
G01*
X101440000Y-32454000D01*
G75*
G02*
X101690000Y-32704000I0J-250000D01*
G01*
X101690000Y-33204000D01*
G75*
G02*
X101440000Y-33454000I-250000J0D01*
G01*
G37*
G36*
G01*
X85286000Y-32987000D02*
X85286000Y-32037000D01*
G75*
G02*
X85536000Y-31787000I250000J0D01*
G01*
X86036000Y-31787000D01*
G75*
G02*
X86286000Y-32037000I0J-250000D01*
G01*
X86286000Y-32987000D01*
G75*
G02*
X86036000Y-33237000I-250000J0D01*
G01*
X85536000Y-33237000D01*
G75*
G02*
X85286000Y-32987000I0J250000D01*
G01*
G37*
G36*
G01*
X83386000Y-32987000D02*
X83386000Y-32037000D01*
G75*
G02*
X83636000Y-31787000I250000J0D01*
G01*
X84136000Y-31787000D01*
G75*
G02*
X84386000Y-32037000I0J-250000D01*
G01*
X84386000Y-32987000D01*
G75*
G02*
X84136000Y-33237000I-250000J0D01*
G01*
X83636000Y-33237000D01*
G75*
G02*
X83386000Y-32987000I0J250000D01*
G01*
G37*
G36*
G01*
X92530000Y-50005000D02*
X92530000Y-49055000D01*
G75*
G02*
X92780000Y-48805000I250000J0D01*
G01*
X93280000Y-48805000D01*
G75*
G02*
X93530000Y-49055000I0J-250000D01*
G01*
X93530000Y-50005000D01*
G75*
G02*
X93280000Y-50255000I-250000J0D01*
G01*
X92780000Y-50255000D01*
G75*
G02*
X92530000Y-50005000I0J250000D01*
G01*
G37*
G36*
G01*
X94430000Y-50005000D02*
X94430000Y-49055000D01*
G75*
G02*
X94680000Y-48805000I250000J0D01*
G01*
X95180000Y-48805000D01*
G75*
G02*
X95430000Y-49055000I0J-250000D01*
G01*
X95430000Y-50005000D01*
G75*
G02*
X95180000Y-50255000I-250000J0D01*
G01*
X94680000Y-50255000D01*
G75*
G02*
X94430000Y-50005000I0J250000D01*
G01*
G37*
G36*
G01*
X27040000Y-51604999D02*
X27040000Y-53805001D01*
G75*
G02*
X26790001Y-54055000I-249999J0D01*
G01*
X26139999Y-54055000D01*
G75*
G02*
X25890000Y-53805001I0J249999D01*
G01*
X25890000Y-51604999D01*
G75*
G02*
X26139999Y-51355000I249999J0D01*
G01*
X26790001Y-51355000D01*
G75*
G02*
X27040000Y-51604999I0J-249999D01*
G01*
G37*
G36*
G01*
X29990000Y-51604999D02*
X29990000Y-53805001D01*
G75*
G02*
X29740001Y-54055000I-249999J0D01*
G01*
X29089999Y-54055000D01*
G75*
G02*
X28840000Y-53805001I0J249999D01*
G01*
X28840000Y-51604999D01*
G75*
G02*
X29089999Y-51355000I249999J0D01*
G01*
X29740001Y-51355000D01*
G75*
G02*
X29990000Y-51604999I0J-249999D01*
G01*
G37*
G36*
G01*
X99510000Y-48735000D02*
X99510000Y-47785000D01*
G75*
G02*
X99760000Y-47535000I250000J0D01*
G01*
X100260000Y-47535000D01*
G75*
G02*
X100510000Y-47785000I0J-250000D01*
G01*
X100510000Y-48735000D01*
G75*
G02*
X100260000Y-48985000I-250000J0D01*
G01*
X99760000Y-48985000D01*
G75*
G02*
X99510000Y-48735000I0J250000D01*
G01*
G37*
G36*
G01*
X97610000Y-48735000D02*
X97610000Y-47785000D01*
G75*
G02*
X97860000Y-47535000I250000J0D01*
G01*
X98360000Y-47535000D01*
G75*
G02*
X98610000Y-47785000I0J-250000D01*
G01*
X98610000Y-48735000D01*
G75*
G02*
X98360000Y-48985000I-250000J0D01*
G01*
X97860000Y-48985000D01*
G75*
G02*
X97610000Y-48735000I0J250000D01*
G01*
G37*
G36*
G01*
X99575000Y-113655000D02*
X99575000Y-112405000D01*
G75*
G02*
X99825000Y-112155000I250000J0D01*
G01*
X100575000Y-112155000D01*
G75*
G02*
X100825000Y-112405000I0J-250000D01*
G01*
X100825000Y-113655000D01*
G75*
G02*
X100575000Y-113905000I-250000J0D01*
G01*
X99825000Y-113905000D01*
G75*
G02*
X99575000Y-113655000I0J250000D01*
G01*
G37*
G36*
G01*
X102375000Y-113655000D02*
X102375000Y-112405000D01*
G75*
G02*
X102625000Y-112155000I250000J0D01*
G01*
X103375000Y-112155000D01*
G75*
G02*
X103625000Y-112405000I0J-250000D01*
G01*
X103625000Y-113655000D01*
G75*
G02*
X103375000Y-113905000I-250000J0D01*
G01*
X102625000Y-113905000D01*
G75*
G02*
X102375000Y-113655000I0J250000D01*
G01*
G37*
G36*
G01*
X97295000Y-113655000D02*
X97295000Y-112405000D01*
G75*
G02*
X97545000Y-112155000I250000J0D01*
G01*
X98295000Y-112155000D01*
G75*
G02*
X98545000Y-112405000I0J-250000D01*
G01*
X98545000Y-113655000D01*
G75*
G02*
X98295000Y-113905000I-250000J0D01*
G01*
X97545000Y-113905000D01*
G75*
G02*
X97295000Y-113655000I0J250000D01*
G01*
G37*
G36*
G01*
X94495000Y-113655000D02*
X94495000Y-112405000D01*
G75*
G02*
X94745000Y-112155000I250000J0D01*
G01*
X95495000Y-112155000D01*
G75*
G02*
X95745000Y-112405000I0J-250000D01*
G01*
X95745000Y-113655000D01*
G75*
G02*
X95495000Y-113905000I-250000J0D01*
G01*
X94745000Y-113905000D01*
G75*
G02*
X94495000Y-113655000I0J250000D01*
G01*
G37*
G36*
G01*
X89675000Y-113655000D02*
X89675000Y-112405000D01*
G75*
G02*
X89925000Y-112155000I250000J0D01*
G01*
X90675000Y-112155000D01*
G75*
G02*
X90925000Y-112405000I0J-250000D01*
G01*
X90925000Y-113655000D01*
G75*
G02*
X90675000Y-113905000I-250000J0D01*
G01*
X89925000Y-113905000D01*
G75*
G02*
X89675000Y-113655000I0J250000D01*
G01*
G37*
G36*
G01*
X86875000Y-113655000D02*
X86875000Y-112405000D01*
G75*
G02*
X87125000Y-112155000I250000J0D01*
G01*
X87875000Y-112155000D01*
G75*
G02*
X88125000Y-112405000I0J-250000D01*
G01*
X88125000Y-113655000D01*
G75*
G02*
X87875000Y-113905000I-250000J0D01*
G01*
X87125000Y-113905000D01*
G75*
G02*
X86875000Y-113655000I0J250000D01*
G01*
G37*
G36*
G01*
X81795000Y-113655000D02*
X81795000Y-112405000D01*
G75*
G02*
X82045000Y-112155000I250000J0D01*
G01*
X82795000Y-112155000D01*
G75*
G02*
X83045000Y-112405000I0J-250000D01*
G01*
X83045000Y-113655000D01*
G75*
G02*
X82795000Y-113905000I-250000J0D01*
G01*
X82045000Y-113905000D01*
G75*
G02*
X81795000Y-113655000I0J250000D01*
G01*
G37*
G36*
G01*
X84595000Y-113655000D02*
X84595000Y-112405000D01*
G75*
G02*
X84845000Y-112155000I250000J0D01*
G01*
X85595000Y-112155000D01*
G75*
G02*
X85845000Y-112405000I0J-250000D01*
G01*
X85845000Y-113655000D01*
G75*
G02*
X85595000Y-113905000I-250000J0D01*
G01*
X84845000Y-113905000D01*
G75*
G02*
X84595000Y-113655000I0J250000D01*
G01*
G37*
G36*
G01*
X76845000Y-113655000D02*
X76845000Y-112405000D01*
G75*
G02*
X77095000Y-112155000I250000J0D01*
G01*
X77845000Y-112155000D01*
G75*
G02*
X78095000Y-112405000I0J-250000D01*
G01*
X78095000Y-113655000D01*
G75*
G02*
X77845000Y-113905000I-250000J0D01*
G01*
X77095000Y-113905000D01*
G75*
G02*
X76845000Y-113655000I0J250000D01*
G01*
G37*
G36*
G01*
X74045000Y-113655000D02*
X74045000Y-112405000D01*
G75*
G02*
X74295000Y-112155000I250000J0D01*
G01*
X75045000Y-112155000D01*
G75*
G02*
X75295000Y-112405000I0J-250000D01*
G01*
X75295000Y-113655000D01*
G75*
G02*
X75045000Y-113905000I-250000J0D01*
G01*
X74295000Y-113905000D01*
G75*
G02*
X74045000Y-113655000I0J250000D01*
G01*
G37*
G36*
G01*
X71895000Y-113655000D02*
X71895000Y-112405000D01*
G75*
G02*
X72145000Y-112155000I250000J0D01*
G01*
X72895000Y-112155000D01*
G75*
G02*
X73145000Y-112405000I0J-250000D01*
G01*
X73145000Y-113655000D01*
G75*
G02*
X72895000Y-113905000I-250000J0D01*
G01*
X72145000Y-113905000D01*
G75*
G02*
X71895000Y-113655000I0J250000D01*
G01*
G37*
G36*
G01*
X69095000Y-113655000D02*
X69095000Y-112405000D01*
G75*
G02*
X69345000Y-112155000I250000J0D01*
G01*
X70095000Y-112155000D01*
G75*
G02*
X70345000Y-112405000I0J-250000D01*
G01*
X70345000Y-113655000D01*
G75*
G02*
X70095000Y-113905000I-250000J0D01*
G01*
X69345000Y-113905000D01*
G75*
G02*
X69095000Y-113655000I0J250000D01*
G01*
G37*
G36*
G01*
X61475000Y-113655000D02*
X61475000Y-112405000D01*
G75*
G02*
X61725000Y-112155000I250000J0D01*
G01*
X62475000Y-112155000D01*
G75*
G02*
X62725000Y-112405000I0J-250000D01*
G01*
X62725000Y-113655000D01*
G75*
G02*
X62475000Y-113905000I-250000J0D01*
G01*
X61725000Y-113905000D01*
G75*
G02*
X61475000Y-113655000I0J250000D01*
G01*
G37*
G36*
G01*
X64275000Y-113655000D02*
X64275000Y-112405000D01*
G75*
G02*
X64525000Y-112155000I250000J0D01*
G01*
X65275000Y-112155000D01*
G75*
G02*
X65525000Y-112405000I0J-250000D01*
G01*
X65525000Y-113655000D01*
G75*
G02*
X65275000Y-113905000I-250000J0D01*
G01*
X64525000Y-113905000D01*
G75*
G02*
X64275000Y-113655000I0J250000D01*
G01*
G37*
G36*
G01*
X56395000Y-113655000D02*
X56395000Y-112405000D01*
G75*
G02*
X56645000Y-112155000I250000J0D01*
G01*
X57395000Y-112155000D01*
G75*
G02*
X57645000Y-112405000I0J-250000D01*
G01*
X57645000Y-113655000D01*
G75*
G02*
X57395000Y-113905000I-250000J0D01*
G01*
X56645000Y-113905000D01*
G75*
G02*
X56395000Y-113655000I0J250000D01*
G01*
G37*
G36*
G01*
X59195000Y-113655000D02*
X59195000Y-112405000D01*
G75*
G02*
X59445000Y-112155000I250000J0D01*
G01*
X60195000Y-112155000D01*
G75*
G02*
X60445000Y-112405000I0J-250000D01*
G01*
X60445000Y-113655000D01*
G75*
G02*
X60195000Y-113905000I-250000J0D01*
G01*
X59445000Y-113905000D01*
G75*
G02*
X59195000Y-113655000I0J250000D01*
G01*
G37*
D18*
X31750000Y-41685000D03*
X31750000Y-48485000D03*
G36*
G01*
X24755000Y-30600000D02*
X23505000Y-30600000D01*
G75*
G02*
X23255000Y-30350000I0J250000D01*
G01*
X23255000Y-29600000D01*
G75*
G02*
X23505000Y-29350000I250000J0D01*
G01*
X24755000Y-29350000D01*
G75*
G02*
X25005000Y-29600000I0J-250000D01*
G01*
X25005000Y-30350000D01*
G75*
G02*
X24755000Y-30600000I-250000J0D01*
G01*
G37*
G36*
G01*
X24755000Y-27800000D02*
X23505000Y-27800000D01*
G75*
G02*
X23255000Y-27550000I0J250000D01*
G01*
X23255000Y-26800000D01*
G75*
G02*
X23505000Y-26550000I250000J0D01*
G01*
X24755000Y-26550000D01*
G75*
G02*
X25005000Y-26800000I0J-250000D01*
G01*
X25005000Y-27550000D01*
G75*
G02*
X24755000Y-27800000I-250000J0D01*
G01*
G37*
D19*
X24130000Y-42285000D03*
X24130000Y-47885000D03*
G36*
G01*
X43589000Y-19869999D02*
X43589000Y-20770001D01*
G75*
G02*
X43339001Y-21020000I-249999J0D01*
G01*
X42813999Y-21020000D01*
G75*
G02*
X42564000Y-20770001I0J249999D01*
G01*
X42564000Y-19869999D01*
G75*
G02*
X42813999Y-19620000I249999J0D01*
G01*
X43339001Y-19620000D01*
G75*
G02*
X43589000Y-19869999I0J-249999D01*
G01*
G37*
G36*
G01*
X41764000Y-19869999D02*
X41764000Y-20770001D01*
G75*
G02*
X41514001Y-21020000I-249999J0D01*
G01*
X40988999Y-21020000D01*
G75*
G02*
X40739000Y-20770001I0J249999D01*
G01*
X40739000Y-19869999D01*
G75*
G02*
X40988999Y-19620000I249999J0D01*
G01*
X41514001Y-19620000D01*
G75*
G02*
X41764000Y-19869999I0J-249999D01*
G01*
G37*
G36*
G01*
X56778999Y-60844000D02*
X58029001Y-60844000D01*
G75*
G02*
X58279000Y-61093999I0J-249999D01*
G01*
X58279000Y-61719001D01*
G75*
G02*
X58029001Y-61969000I-249999J0D01*
G01*
X56778999Y-61969000D01*
G75*
G02*
X56529000Y-61719001I0J249999D01*
G01*
X56529000Y-61093999D01*
G75*
G02*
X56778999Y-60844000I249999J0D01*
G01*
G37*
G36*
G01*
X56778999Y-57919000D02*
X58029001Y-57919000D01*
G75*
G02*
X58279000Y-58168999I0J-249999D01*
G01*
X58279000Y-58794001D01*
G75*
G02*
X58029001Y-59044000I-249999J0D01*
G01*
X56778999Y-59044000D01*
G75*
G02*
X56529000Y-58794001I0J249999D01*
G01*
X56529000Y-58168999D01*
G75*
G02*
X56778999Y-57919000I249999J0D01*
G01*
G37*
G36*
G01*
X60842999Y-57919000D02*
X62093001Y-57919000D01*
G75*
G02*
X62343000Y-58168999I0J-249999D01*
G01*
X62343000Y-58794001D01*
G75*
G02*
X62093001Y-59044000I-249999J0D01*
G01*
X60842999Y-59044000D01*
G75*
G02*
X60593000Y-58794001I0J249999D01*
G01*
X60593000Y-58168999D01*
G75*
G02*
X60842999Y-57919000I249999J0D01*
G01*
G37*
G36*
G01*
X60842999Y-60844000D02*
X62093001Y-60844000D01*
G75*
G02*
X62343000Y-61093999I0J-249999D01*
G01*
X62343000Y-61719001D01*
G75*
G02*
X62093001Y-61969000I-249999J0D01*
G01*
X60842999Y-61969000D01*
G75*
G02*
X60593000Y-61719001I0J249999D01*
G01*
X60593000Y-61093999D01*
G75*
G02*
X60842999Y-60844000I249999J0D01*
G01*
G37*
G36*
G01*
X81418000Y-65141001D02*
X81418000Y-63890999D01*
G75*
G02*
X81667999Y-63641000I249999J0D01*
G01*
X82293001Y-63641000D01*
G75*
G02*
X82543000Y-63890999I0J-249999D01*
G01*
X82543000Y-65141001D01*
G75*
G02*
X82293001Y-65391000I-249999J0D01*
G01*
X81667999Y-65391000D01*
G75*
G02*
X81418000Y-65141001I0J249999D01*
G01*
G37*
G36*
G01*
X78493000Y-65141001D02*
X78493000Y-63890999D01*
G75*
G02*
X78742999Y-63641000I249999J0D01*
G01*
X79368001Y-63641000D01*
G75*
G02*
X79618000Y-63890999I0J-249999D01*
G01*
X79618000Y-65141001D01*
G75*
G02*
X79368001Y-65391000I-249999J0D01*
G01*
X78742999Y-65391000D01*
G75*
G02*
X78493000Y-65141001I0J249999D01*
G01*
G37*
G36*
G01*
X103025000Y-107499999D02*
X103025000Y-108400001D01*
G75*
G02*
X102775001Y-108650000I-249999J0D01*
G01*
X102249999Y-108650000D01*
G75*
G02*
X102000000Y-108400001I0J249999D01*
G01*
X102000000Y-107499999D01*
G75*
G02*
X102249999Y-107250000I249999J0D01*
G01*
X102775001Y-107250000D01*
G75*
G02*
X103025000Y-107499999I0J-249999D01*
G01*
G37*
G36*
G01*
X101200000Y-107499999D02*
X101200000Y-108400001D01*
G75*
G02*
X100950001Y-108650000I-249999J0D01*
G01*
X100424999Y-108650000D01*
G75*
G02*
X100175000Y-108400001I0J249999D01*
G01*
X100175000Y-107499999D01*
G75*
G02*
X100424999Y-107250000I249999J0D01*
G01*
X100950001Y-107250000D01*
G75*
G02*
X101200000Y-107499999I0J-249999D01*
G01*
G37*
G36*
G01*
X96120000Y-107499999D02*
X96120000Y-108400001D01*
G75*
G02*
X95870001Y-108650000I-249999J0D01*
G01*
X95344999Y-108650000D01*
G75*
G02*
X95095000Y-108400001I0J249999D01*
G01*
X95095000Y-107499999D01*
G75*
G02*
X95344999Y-107250000I249999J0D01*
G01*
X95870001Y-107250000D01*
G75*
G02*
X96120000Y-107499999I0J-249999D01*
G01*
G37*
G36*
G01*
X97945000Y-107499999D02*
X97945000Y-108400001D01*
G75*
G02*
X97695001Y-108650000I-249999J0D01*
G01*
X97169999Y-108650000D01*
G75*
G02*
X96920000Y-108400001I0J249999D01*
G01*
X96920000Y-107499999D01*
G75*
G02*
X97169999Y-107250000I249999J0D01*
G01*
X97695001Y-107250000D01*
G75*
G02*
X97945000Y-107499999I0J-249999D01*
G01*
G37*
G36*
G01*
X90325000Y-107499999D02*
X90325000Y-108400001D01*
G75*
G02*
X90075001Y-108650000I-249999J0D01*
G01*
X89549999Y-108650000D01*
G75*
G02*
X89300000Y-108400001I0J249999D01*
G01*
X89300000Y-107499999D01*
G75*
G02*
X89549999Y-107250000I249999J0D01*
G01*
X90075001Y-107250000D01*
G75*
G02*
X90325000Y-107499999I0J-249999D01*
G01*
G37*
G36*
G01*
X88500000Y-107499999D02*
X88500000Y-108400001D01*
G75*
G02*
X88250001Y-108650000I-249999J0D01*
G01*
X87724999Y-108650000D01*
G75*
G02*
X87475000Y-108400001I0J249999D01*
G01*
X87475000Y-107499999D01*
G75*
G02*
X87724999Y-107250000I249999J0D01*
G01*
X88250001Y-107250000D01*
G75*
G02*
X88500000Y-107499999I0J-249999D01*
G01*
G37*
G36*
G01*
X85245000Y-107499999D02*
X85245000Y-108400001D01*
G75*
G02*
X84995001Y-108650000I-249999J0D01*
G01*
X84469999Y-108650000D01*
G75*
G02*
X84220000Y-108400001I0J249999D01*
G01*
X84220000Y-107499999D01*
G75*
G02*
X84469999Y-107250000I249999J0D01*
G01*
X84995001Y-107250000D01*
G75*
G02*
X85245000Y-107499999I0J-249999D01*
G01*
G37*
G36*
G01*
X83420000Y-107499999D02*
X83420000Y-108400001D01*
G75*
G02*
X83170001Y-108650000I-249999J0D01*
G01*
X82644999Y-108650000D01*
G75*
G02*
X82395000Y-108400001I0J249999D01*
G01*
X82395000Y-107499999D01*
G75*
G02*
X82644999Y-107250000I249999J0D01*
G01*
X83170001Y-107250000D01*
G75*
G02*
X83420000Y-107499999I0J-249999D01*
G01*
G37*
G36*
G01*
X77625000Y-107499999D02*
X77625000Y-108400001D01*
G75*
G02*
X77375001Y-108650000I-249999J0D01*
G01*
X76849999Y-108650000D01*
G75*
G02*
X76600000Y-108400001I0J249999D01*
G01*
X76600000Y-107499999D01*
G75*
G02*
X76849999Y-107250000I249999J0D01*
G01*
X77375001Y-107250000D01*
G75*
G02*
X77625000Y-107499999I0J-249999D01*
G01*
G37*
G36*
G01*
X75800000Y-107499999D02*
X75800000Y-108400001D01*
G75*
G02*
X75550001Y-108650000I-249999J0D01*
G01*
X75024999Y-108650000D01*
G75*
G02*
X74775000Y-108400001I0J249999D01*
G01*
X74775000Y-107499999D01*
G75*
G02*
X75024999Y-107250000I249999J0D01*
G01*
X75550001Y-107250000D01*
G75*
G02*
X75800000Y-107499999I0J-249999D01*
G01*
G37*
G36*
G01*
X72545000Y-107499999D02*
X72545000Y-108400001D01*
G75*
G02*
X72295001Y-108650000I-249999J0D01*
G01*
X71769999Y-108650000D01*
G75*
G02*
X71520000Y-108400001I0J249999D01*
G01*
X71520000Y-107499999D01*
G75*
G02*
X71769999Y-107250000I249999J0D01*
G01*
X72295001Y-107250000D01*
G75*
G02*
X72545000Y-107499999I0J-249999D01*
G01*
G37*
G36*
G01*
X70720000Y-107499999D02*
X70720000Y-108400001D01*
G75*
G02*
X70470001Y-108650000I-249999J0D01*
G01*
X69944999Y-108650000D01*
G75*
G02*
X69695000Y-108400001I0J249999D01*
G01*
X69695000Y-107499999D01*
G75*
G02*
X69944999Y-107250000I249999J0D01*
G01*
X70470001Y-107250000D01*
G75*
G02*
X70720000Y-107499999I0J-249999D01*
G01*
G37*
G36*
G01*
X64925000Y-107499999D02*
X64925000Y-108400001D01*
G75*
G02*
X64675001Y-108650000I-249999J0D01*
G01*
X64149999Y-108650000D01*
G75*
G02*
X63900000Y-108400001I0J249999D01*
G01*
X63900000Y-107499999D01*
G75*
G02*
X64149999Y-107250000I249999J0D01*
G01*
X64675001Y-107250000D01*
G75*
G02*
X64925000Y-107499999I0J-249999D01*
G01*
G37*
G36*
G01*
X63100000Y-107499999D02*
X63100000Y-108400001D01*
G75*
G02*
X62850001Y-108650000I-249999J0D01*
G01*
X62324999Y-108650000D01*
G75*
G02*
X62075000Y-108400001I0J249999D01*
G01*
X62075000Y-107499999D01*
G75*
G02*
X62324999Y-107250000I249999J0D01*
G01*
X62850001Y-107250000D01*
G75*
G02*
X63100000Y-107499999I0J-249999D01*
G01*
G37*
G36*
G01*
X37074001Y-53964000D02*
X35823999Y-53964000D01*
G75*
G02*
X35574000Y-53714001I0J249999D01*
G01*
X35574000Y-53088999D01*
G75*
G02*
X35823999Y-52839000I249999J0D01*
G01*
X37074001Y-52839000D01*
G75*
G02*
X37324000Y-53088999I0J-249999D01*
G01*
X37324000Y-53714001D01*
G75*
G02*
X37074001Y-53964000I-249999J0D01*
G01*
G37*
G36*
G01*
X37074001Y-56889000D02*
X35823999Y-56889000D01*
G75*
G02*
X35574000Y-56639001I0J249999D01*
G01*
X35574000Y-56013999D01*
G75*
G02*
X35823999Y-55764000I249999J0D01*
G01*
X37074001Y-55764000D01*
G75*
G02*
X37324000Y-56013999I0J-249999D01*
G01*
X37324000Y-56639001D01*
G75*
G02*
X37074001Y-56889000I-249999J0D01*
G01*
G37*
G36*
G01*
X42154001Y-56889000D02*
X40903999Y-56889000D01*
G75*
G02*
X40654000Y-56639001I0J249999D01*
G01*
X40654000Y-56013999D01*
G75*
G02*
X40903999Y-55764000I249999J0D01*
G01*
X42154001Y-55764000D01*
G75*
G02*
X42404000Y-56013999I0J-249999D01*
G01*
X42404000Y-56639001D01*
G75*
G02*
X42154001Y-56889000I-249999J0D01*
G01*
G37*
G36*
G01*
X42154001Y-53964000D02*
X40903999Y-53964000D01*
G75*
G02*
X40654000Y-53714001I0J249999D01*
G01*
X40654000Y-53088999D01*
G75*
G02*
X40903999Y-52839000I249999J0D01*
G01*
X42154001Y-52839000D01*
G75*
G02*
X42404000Y-53088999I0J-249999D01*
G01*
X42404000Y-53714001D01*
G75*
G02*
X42154001Y-53964000I-249999J0D01*
G01*
G37*
G36*
G01*
X47234001Y-53964000D02*
X45983999Y-53964000D01*
G75*
G02*
X45734000Y-53714001I0J249999D01*
G01*
X45734000Y-53088999D01*
G75*
G02*
X45983999Y-52839000I249999J0D01*
G01*
X47234001Y-52839000D01*
G75*
G02*
X47484000Y-53088999I0J-249999D01*
G01*
X47484000Y-53714001D01*
G75*
G02*
X47234001Y-53964000I-249999J0D01*
G01*
G37*
G36*
G01*
X47234001Y-56889000D02*
X45983999Y-56889000D01*
G75*
G02*
X45734000Y-56639001I0J249999D01*
G01*
X45734000Y-56013999D01*
G75*
G02*
X45983999Y-55764000I249999J0D01*
G01*
X47234001Y-55764000D01*
G75*
G02*
X47484000Y-56013999I0J-249999D01*
G01*
X47484000Y-56639001D01*
G75*
G02*
X47234001Y-56889000I-249999J0D01*
G01*
G37*
G36*
G01*
X97986001Y-73815000D02*
X97085999Y-73815000D01*
G75*
G02*
X96836000Y-73565001I0J249999D01*
G01*
X96836000Y-73039999D01*
G75*
G02*
X97085999Y-72790000I249999J0D01*
G01*
X97986001Y-72790000D01*
G75*
G02*
X98236000Y-73039999I0J-249999D01*
G01*
X98236000Y-73565001D01*
G75*
G02*
X97986001Y-73815000I-249999J0D01*
G01*
G37*
G36*
G01*
X97986001Y-71990000D02*
X97085999Y-71990000D01*
G75*
G02*
X96836000Y-71740001I0J249999D01*
G01*
X96836000Y-71214999D01*
G75*
G02*
X97085999Y-70965000I249999J0D01*
G01*
X97986001Y-70965000D01*
G75*
G02*
X98236000Y-71214999I0J-249999D01*
G01*
X98236000Y-71740001D01*
G75*
G02*
X97986001Y-71990000I-249999J0D01*
G01*
G37*
G36*
G01*
X48634000Y-58048999D02*
X48634000Y-59299001D01*
G75*
G02*
X48384001Y-59549000I-249999J0D01*
G01*
X47758999Y-59549000D01*
G75*
G02*
X47509000Y-59299001I0J249999D01*
G01*
X47509000Y-58048999D01*
G75*
G02*
X47758999Y-57799000I249999J0D01*
G01*
X48384001Y-57799000D01*
G75*
G02*
X48634000Y-58048999I0J-249999D01*
G01*
G37*
G36*
G01*
X45709000Y-58048999D02*
X45709000Y-59299001D01*
G75*
G02*
X45459001Y-59549000I-249999J0D01*
G01*
X44833999Y-59549000D01*
G75*
G02*
X44584000Y-59299001I0J249999D01*
G01*
X44584000Y-58048999D01*
G75*
G02*
X44833999Y-57799000I249999J0D01*
G01*
X45459001Y-57799000D01*
G75*
G02*
X45709000Y-58048999I0J-249999D01*
G01*
G37*
G36*
G01*
X58020000Y-107499999D02*
X58020000Y-108400001D01*
G75*
G02*
X57770001Y-108650000I-249999J0D01*
G01*
X57244999Y-108650000D01*
G75*
G02*
X56995000Y-108400001I0J249999D01*
G01*
X56995000Y-107499999D01*
G75*
G02*
X57244999Y-107250000I249999J0D01*
G01*
X57770001Y-107250000D01*
G75*
G02*
X58020000Y-107499999I0J-249999D01*
G01*
G37*
G36*
G01*
X59845000Y-107499999D02*
X59845000Y-108400001D01*
G75*
G02*
X59595001Y-108650000I-249999J0D01*
G01*
X59069999Y-108650000D01*
G75*
G02*
X58820000Y-108400001I0J249999D01*
G01*
X58820000Y-107499999D01*
G75*
G02*
X59069999Y-107250000I249999J0D01*
G01*
X59595001Y-107250000D01*
G75*
G02*
X59845000Y-107499999I0J-249999D01*
G01*
G37*
G36*
G01*
X40629000Y-58048999D02*
X40629000Y-59299001D01*
G75*
G02*
X40379001Y-59549000I-249999J0D01*
G01*
X39753999Y-59549000D01*
G75*
G02*
X39504000Y-59299001I0J249999D01*
G01*
X39504000Y-58048999D01*
G75*
G02*
X39753999Y-57799000I249999J0D01*
G01*
X40379001Y-57799000D01*
G75*
G02*
X40629000Y-58048999I0J-249999D01*
G01*
G37*
G36*
G01*
X43554000Y-58048999D02*
X43554000Y-59299001D01*
G75*
G02*
X43304001Y-59549000I-249999J0D01*
G01*
X42678999Y-59549000D01*
G75*
G02*
X42429000Y-59299001I0J249999D01*
G01*
X42429000Y-58048999D01*
G75*
G02*
X42678999Y-57799000I249999J0D01*
G01*
X43304001Y-57799000D01*
G75*
G02*
X43554000Y-58048999I0J-249999D01*
G01*
G37*
G36*
G01*
X47851000Y-36518001D02*
X47851000Y-35617999D01*
G75*
G02*
X48100999Y-35368000I249999J0D01*
G01*
X48626001Y-35368000D01*
G75*
G02*
X48876000Y-35617999I0J-249999D01*
G01*
X48876000Y-36518001D01*
G75*
G02*
X48626001Y-36768000I-249999J0D01*
G01*
X48100999Y-36768000D01*
G75*
G02*
X47851000Y-36518001I0J249999D01*
G01*
G37*
G36*
G01*
X49676000Y-36518001D02*
X49676000Y-35617999D01*
G75*
G02*
X49925999Y-35368000I249999J0D01*
G01*
X50451001Y-35368000D01*
G75*
G02*
X50701000Y-35617999I0J-249999D01*
G01*
X50701000Y-36518001D01*
G75*
G02*
X50451001Y-36768000I-249999J0D01*
G01*
X49925999Y-36768000D01*
G75*
G02*
X49676000Y-36518001I0J249999D01*
G01*
G37*
G36*
G01*
X38474000Y-58048999D02*
X38474000Y-59299001D01*
G75*
G02*
X38224001Y-59549000I-249999J0D01*
G01*
X37598999Y-59549000D01*
G75*
G02*
X37349000Y-59299001I0J249999D01*
G01*
X37349000Y-58048999D01*
G75*
G02*
X37598999Y-57799000I249999J0D01*
G01*
X38224001Y-57799000D01*
G75*
G02*
X38474000Y-58048999I0J-249999D01*
G01*
G37*
G36*
G01*
X35549000Y-58048999D02*
X35549000Y-59299001D01*
G75*
G02*
X35299001Y-59549000I-249999J0D01*
G01*
X34673999Y-59549000D01*
G75*
G02*
X34424000Y-59299001I0J249999D01*
G01*
X34424000Y-58048999D01*
G75*
G02*
X34673999Y-57799000I249999J0D01*
G01*
X35299001Y-57799000D01*
G75*
G02*
X35549000Y-58048999I0J-249999D01*
G01*
G37*
G36*
G01*
X57159999Y-49160000D02*
X58410001Y-49160000D01*
G75*
G02*
X58660000Y-49409999I0J-249999D01*
G01*
X58660000Y-50035001D01*
G75*
G02*
X58410001Y-50285000I-249999J0D01*
G01*
X57159999Y-50285000D01*
G75*
G02*
X56910000Y-50035001I0J249999D01*
G01*
X56910000Y-49409999D01*
G75*
G02*
X57159999Y-49160000I249999J0D01*
G01*
G37*
G36*
G01*
X57159999Y-46235000D02*
X58410001Y-46235000D01*
G75*
G02*
X58660000Y-46484999I0J-249999D01*
G01*
X58660000Y-47110001D01*
G75*
G02*
X58410001Y-47360000I-249999J0D01*
G01*
X57159999Y-47360000D01*
G75*
G02*
X56910000Y-47110001I0J249999D01*
G01*
X56910000Y-46484999D01*
G75*
G02*
X57159999Y-46235000I249999J0D01*
G01*
G37*
G36*
G01*
X66047000Y-92573001D02*
X66047000Y-91322999D01*
G75*
G02*
X66296999Y-91073000I249999J0D01*
G01*
X66922001Y-91073000D01*
G75*
G02*
X67172000Y-91322999I0J-249999D01*
G01*
X67172000Y-92573001D01*
G75*
G02*
X66922001Y-92823000I-249999J0D01*
G01*
X66296999Y-92823000D01*
G75*
G02*
X66047000Y-92573001I0J249999D01*
G01*
G37*
G36*
G01*
X68972000Y-92573001D02*
X68972000Y-91322999D01*
G75*
G02*
X69221999Y-91073000I249999J0D01*
G01*
X69847001Y-91073000D01*
G75*
G02*
X70097000Y-91322999I0J-249999D01*
G01*
X70097000Y-92573001D01*
G75*
G02*
X69847001Y-92823000I-249999J0D01*
G01*
X69221999Y-92823000D01*
G75*
G02*
X68972000Y-92573001I0J249999D01*
G01*
G37*
G36*
G01*
X60969999Y-46235000D02*
X62220001Y-46235000D01*
G75*
G02*
X62470000Y-46484999I0J-249999D01*
G01*
X62470000Y-47110001D01*
G75*
G02*
X62220001Y-47360000I-249999J0D01*
G01*
X60969999Y-47360000D01*
G75*
G02*
X60720000Y-47110001I0J249999D01*
G01*
X60720000Y-46484999D01*
G75*
G02*
X60969999Y-46235000I249999J0D01*
G01*
G37*
G36*
G01*
X60969999Y-49160000D02*
X62220001Y-49160000D01*
G75*
G02*
X62470000Y-49409999I0J-249999D01*
G01*
X62470000Y-50035001D01*
G75*
G02*
X62220001Y-50285000I-249999J0D01*
G01*
X60969999Y-50285000D01*
G75*
G02*
X60720000Y-50035001I0J249999D01*
G01*
X60720000Y-49409999D01*
G75*
G02*
X60969999Y-49160000I249999J0D01*
G01*
G37*
G36*
G01*
X97986001Y-51670000D02*
X97085999Y-51670000D01*
G75*
G02*
X96836000Y-51420001I0J249999D01*
G01*
X96836000Y-50894999D01*
G75*
G02*
X97085999Y-50645000I249999J0D01*
G01*
X97986001Y-50645000D01*
G75*
G02*
X98236000Y-50894999I0J-249999D01*
G01*
X98236000Y-51420001D01*
G75*
G02*
X97986001Y-51670000I-249999J0D01*
G01*
G37*
G36*
G01*
X97986001Y-53495000D02*
X97085999Y-53495000D01*
G75*
G02*
X96836000Y-53245001I0J249999D01*
G01*
X96836000Y-52719999D01*
G75*
G02*
X97085999Y-52470000I249999J0D01*
G01*
X97986001Y-52470000D01*
G75*
G02*
X98236000Y-52719999I0J-249999D01*
G01*
X98236000Y-53245001D01*
G75*
G02*
X97986001Y-53495000I-249999J0D01*
G01*
G37*
G36*
G01*
X67456000Y-36518001D02*
X67456000Y-35617999D01*
G75*
G02*
X67705999Y-35368000I249999J0D01*
G01*
X68231001Y-35368000D01*
G75*
G02*
X68481000Y-35617999I0J-249999D01*
G01*
X68481000Y-36518001D01*
G75*
G02*
X68231001Y-36768000I-249999J0D01*
G01*
X67705999Y-36768000D01*
G75*
G02*
X67456000Y-36518001I0J249999D01*
G01*
G37*
G36*
G01*
X65631000Y-36518001D02*
X65631000Y-35617999D01*
G75*
G02*
X65880999Y-35368000I249999J0D01*
G01*
X66406001Y-35368000D01*
G75*
G02*
X66656000Y-35617999I0J-249999D01*
G01*
X66656000Y-36518001D01*
G75*
G02*
X66406001Y-36768000I-249999J0D01*
G01*
X65880999Y-36768000D01*
G75*
G02*
X65631000Y-36518001I0J249999D01*
G01*
G37*
G36*
G01*
X57796000Y-92573001D02*
X57796000Y-91322999D01*
G75*
G02*
X58045999Y-91073000I249999J0D01*
G01*
X58671001Y-91073000D01*
G75*
G02*
X58921000Y-91322999I0J-249999D01*
G01*
X58921000Y-92573001D01*
G75*
G02*
X58671001Y-92823000I-249999J0D01*
G01*
X58045999Y-92823000D01*
G75*
G02*
X57796000Y-92573001I0J249999D01*
G01*
G37*
G36*
G01*
X54871000Y-92573001D02*
X54871000Y-91322999D01*
G75*
G02*
X55120999Y-91073000I249999J0D01*
G01*
X55746001Y-91073000D01*
G75*
G02*
X55996000Y-91322999I0J-249999D01*
G01*
X55996000Y-92573001D01*
G75*
G02*
X55746001Y-92823000I-249999J0D01*
G01*
X55120999Y-92823000D01*
G75*
G02*
X54871000Y-92573001I0J249999D01*
G01*
G37*
G36*
G01*
X28697500Y-105225001D02*
X28697500Y-104324999D01*
G75*
G02*
X28947499Y-104075000I249999J0D01*
G01*
X29472501Y-104075000D01*
G75*
G02*
X29722500Y-104324999I0J-249999D01*
G01*
X29722500Y-105225001D01*
G75*
G02*
X29472501Y-105475000I-249999J0D01*
G01*
X28947499Y-105475000D01*
G75*
G02*
X28697500Y-105225001I0J249999D01*
G01*
G37*
G36*
G01*
X26872500Y-105225001D02*
X26872500Y-104324999D01*
G75*
G02*
X27122499Y-104075000I249999J0D01*
G01*
X27647501Y-104075000D01*
G75*
G02*
X27897500Y-104324999I0J-249999D01*
G01*
X27897500Y-105225001D01*
G75*
G02*
X27647501Y-105475000I-249999J0D01*
G01*
X27122499Y-105475000D01*
G75*
G02*
X26872500Y-105225001I0J249999D01*
G01*
G37*
G36*
G01*
X36317500Y-105225001D02*
X36317500Y-104324999D01*
G75*
G02*
X36567499Y-104075000I249999J0D01*
G01*
X37092501Y-104075000D01*
G75*
G02*
X37342500Y-104324999I0J-249999D01*
G01*
X37342500Y-105225001D01*
G75*
G02*
X37092501Y-105475000I-249999J0D01*
G01*
X36567499Y-105475000D01*
G75*
G02*
X36317500Y-105225001I0J249999D01*
G01*
G37*
G36*
G01*
X34492500Y-105225001D02*
X34492500Y-104324999D01*
G75*
G02*
X34742499Y-104075000I249999J0D01*
G01*
X35267501Y-104075000D01*
G75*
G02*
X35517500Y-104324999I0J-249999D01*
G01*
X35517500Y-105225001D01*
G75*
G02*
X35267501Y-105475000I-249999J0D01*
G01*
X34742499Y-105475000D01*
G75*
G02*
X34492500Y-105225001I0J249999D01*
G01*
G37*
G36*
G01*
X43937500Y-105225001D02*
X43937500Y-104324999D01*
G75*
G02*
X44187499Y-104075000I249999J0D01*
G01*
X44712501Y-104075000D01*
G75*
G02*
X44962500Y-104324999I0J-249999D01*
G01*
X44962500Y-105225001D01*
G75*
G02*
X44712501Y-105475000I-249999J0D01*
G01*
X44187499Y-105475000D01*
G75*
G02*
X43937500Y-105225001I0J249999D01*
G01*
G37*
G36*
G01*
X42112500Y-105225001D02*
X42112500Y-104324999D01*
G75*
G02*
X42362499Y-104075000I249999J0D01*
G01*
X42887501Y-104075000D01*
G75*
G02*
X43137500Y-104324999I0J-249999D01*
G01*
X43137500Y-105225001D01*
G75*
G02*
X42887501Y-105475000I-249999J0D01*
G01*
X42362499Y-105475000D01*
G75*
G02*
X42112500Y-105225001I0J249999D01*
G01*
G37*
G36*
G01*
X51557500Y-105225001D02*
X51557500Y-104324999D01*
G75*
G02*
X51807499Y-104075000I249999J0D01*
G01*
X52332501Y-104075000D01*
G75*
G02*
X52582500Y-104324999I0J-249999D01*
G01*
X52582500Y-105225001D01*
G75*
G02*
X52332501Y-105475000I-249999J0D01*
G01*
X51807499Y-105475000D01*
G75*
G02*
X51557500Y-105225001I0J249999D01*
G01*
G37*
G36*
G01*
X49732500Y-105225001D02*
X49732500Y-104324999D01*
G75*
G02*
X49982499Y-104075000I249999J0D01*
G01*
X50507501Y-104075000D01*
G75*
G02*
X50757500Y-104324999I0J-249999D01*
G01*
X50757500Y-105225001D01*
G75*
G02*
X50507501Y-105475000I-249999J0D01*
G01*
X49982499Y-105475000D01*
G75*
G02*
X49732500Y-105225001I0J249999D01*
G01*
G37*
G36*
G01*
X33140000Y-36839999D02*
X33140000Y-38090001D01*
G75*
G02*
X32890001Y-38340000I-249999J0D01*
G01*
X32264999Y-38340000D01*
G75*
G02*
X32015000Y-38090001I0J249999D01*
G01*
X32015000Y-36839999D01*
G75*
G02*
X32264999Y-36590000I249999J0D01*
G01*
X32890001Y-36590000D01*
G75*
G02*
X33140000Y-36839999I0J-249999D01*
G01*
G37*
G36*
G01*
X30215000Y-36839999D02*
X30215000Y-38090001D01*
G75*
G02*
X29965001Y-38340000I-249999J0D01*
G01*
X29339999Y-38340000D01*
G75*
G02*
X29090000Y-38090001I0J249999D01*
G01*
X29090000Y-36839999D01*
G75*
G02*
X29339999Y-36590000I249999J0D01*
G01*
X29965001Y-36590000D01*
G75*
G02*
X30215000Y-36839999I0J-249999D01*
G01*
G37*
G36*
G01*
X97986001Y-33429000D02*
X97085999Y-33429000D01*
G75*
G02*
X96836000Y-33179001I0J249999D01*
G01*
X96836000Y-32653999D01*
G75*
G02*
X97085999Y-32404000I249999J0D01*
G01*
X97986001Y-32404000D01*
G75*
G02*
X98236000Y-32653999I0J-249999D01*
G01*
X98236000Y-33179001D01*
G75*
G02*
X97986001Y-33429000I-249999J0D01*
G01*
G37*
G36*
G01*
X97986001Y-31604000D02*
X97085999Y-31604000D01*
G75*
G02*
X96836000Y-31354001I0J249999D01*
G01*
X96836000Y-30828999D01*
G75*
G02*
X97085999Y-30579000I249999J0D01*
G01*
X97986001Y-30579000D01*
G75*
G02*
X98236000Y-30828999I0J-249999D01*
G01*
X98236000Y-31354001D01*
G75*
G02*
X97986001Y-31604000I-249999J0D01*
G01*
G37*
G36*
G01*
X85236000Y-36518001D02*
X85236000Y-35617999D01*
G75*
G02*
X85485999Y-35368000I249999J0D01*
G01*
X86011001Y-35368000D01*
G75*
G02*
X86261000Y-35617999I0J-249999D01*
G01*
X86261000Y-36518001D01*
G75*
G02*
X86011001Y-36768000I-249999J0D01*
G01*
X85485999Y-36768000D01*
G75*
G02*
X85236000Y-36518001I0J249999D01*
G01*
G37*
G36*
G01*
X83411000Y-36518001D02*
X83411000Y-35617999D01*
G75*
G02*
X83660999Y-35368000I249999J0D01*
G01*
X84186001Y-35368000D01*
G75*
G02*
X84436000Y-35617999I0J-249999D01*
G01*
X84436000Y-36518001D01*
G75*
G02*
X84186001Y-36768000I-249999J0D01*
G01*
X83660999Y-36768000D01*
G75*
G02*
X83411000Y-36518001I0J249999D01*
G01*
G37*
G36*
G01*
X18405001Y-46475000D02*
X17154999Y-46475000D01*
G75*
G02*
X16905000Y-46225001I0J249999D01*
G01*
X16905000Y-45599999D01*
G75*
G02*
X17154999Y-45350000I249999J0D01*
G01*
X18405001Y-45350000D01*
G75*
G02*
X18655000Y-45599999I0J-249999D01*
G01*
X18655000Y-46225001D01*
G75*
G02*
X18405001Y-46475000I-249999J0D01*
G01*
G37*
G36*
G01*
X18405001Y-43550000D02*
X17154999Y-43550000D01*
G75*
G02*
X16905000Y-43300001I0J249999D01*
G01*
X16905000Y-42674999D01*
G75*
G02*
X17154999Y-42425000I249999J0D01*
G01*
X18405001Y-42425000D01*
G75*
G02*
X18655000Y-42674999I0J-249999D01*
G01*
X18655000Y-43300001D01*
G75*
G02*
X18405001Y-43550000I-249999J0D01*
G01*
G37*
G36*
G01*
X18405001Y-38470000D02*
X17154999Y-38470000D01*
G75*
G02*
X16905000Y-38220001I0J249999D01*
G01*
X16905000Y-37594999D01*
G75*
G02*
X17154999Y-37345000I249999J0D01*
G01*
X18405001Y-37345000D01*
G75*
G02*
X18655000Y-37594999I0J-249999D01*
G01*
X18655000Y-38220001D01*
G75*
G02*
X18405001Y-38470000I-249999J0D01*
G01*
G37*
G36*
G01*
X18405001Y-41395000D02*
X17154999Y-41395000D01*
G75*
G02*
X16905000Y-41145001I0J249999D01*
G01*
X16905000Y-40519999D01*
G75*
G02*
X17154999Y-40270000I249999J0D01*
G01*
X18405001Y-40270000D01*
G75*
G02*
X18655000Y-40519999I0J-249999D01*
G01*
X18655000Y-41145001D01*
G75*
G02*
X18405001Y-41395000I-249999J0D01*
G01*
G37*
D20*
X72047000Y-100294000D03*
X72047000Y-95794000D03*
X64097000Y-95794000D03*
X64097000Y-100294000D03*
X52921000Y-100294000D03*
X52921000Y-95794000D03*
X60871000Y-95794000D03*
X60871000Y-100294000D03*
D21*
X34120000Y-28890000D03*
X34120000Y-27940000D03*
X34120000Y-26990000D03*
X31920000Y-26990000D03*
X31920000Y-28890000D03*
X31920000Y-27940000D03*
G36*
G01*
X77570000Y-59555000D02*
X77570000Y-59705000D01*
G75*
G02*
X77495000Y-59780000I-75000J0D01*
G01*
X76095000Y-59780000D01*
G75*
G02*
X76020000Y-59705000I0J75000D01*
G01*
X76020000Y-59555000D01*
G75*
G02*
X76095000Y-59480000I75000J0D01*
G01*
X77495000Y-59480000D01*
G75*
G02*
X77570000Y-59555000I0J-75000D01*
G01*
G37*
G36*
G01*
X77570000Y-59055000D02*
X77570000Y-59205000D01*
G75*
G02*
X77495000Y-59280000I-75000J0D01*
G01*
X76095000Y-59280000D01*
G75*
G02*
X76020000Y-59205000I0J75000D01*
G01*
X76020000Y-59055000D01*
G75*
G02*
X76095000Y-58980000I75000J0D01*
G01*
X77495000Y-58980000D01*
G75*
G02*
X77570000Y-59055000I0J-75000D01*
G01*
G37*
G36*
G01*
X77570000Y-58555000D02*
X77570000Y-58705000D01*
G75*
G02*
X77495000Y-58780000I-75000J0D01*
G01*
X76095000Y-58780000D01*
G75*
G02*
X76020000Y-58705000I0J75000D01*
G01*
X76020000Y-58555000D01*
G75*
G02*
X76095000Y-58480000I75000J0D01*
G01*
X77495000Y-58480000D01*
G75*
G02*
X77570000Y-58555000I0J-75000D01*
G01*
G37*
G36*
G01*
X77570000Y-58055000D02*
X77570000Y-58205000D01*
G75*
G02*
X77495000Y-58280000I-75000J0D01*
G01*
X76095000Y-58280000D01*
G75*
G02*
X76020000Y-58205000I0J75000D01*
G01*
X76020000Y-58055000D01*
G75*
G02*
X76095000Y-57980000I75000J0D01*
G01*
X77495000Y-57980000D01*
G75*
G02*
X77570000Y-58055000I0J-75000D01*
G01*
G37*
G36*
G01*
X77570000Y-57555000D02*
X77570000Y-57705000D01*
G75*
G02*
X77495000Y-57780000I-75000J0D01*
G01*
X76095000Y-57780000D01*
G75*
G02*
X76020000Y-57705000I0J75000D01*
G01*
X76020000Y-57555000D01*
G75*
G02*
X76095000Y-57480000I75000J0D01*
G01*
X77495000Y-57480000D01*
G75*
G02*
X77570000Y-57555000I0J-75000D01*
G01*
G37*
G36*
G01*
X77570000Y-57055000D02*
X77570000Y-57205000D01*
G75*
G02*
X77495000Y-57280000I-75000J0D01*
G01*
X76095000Y-57280000D01*
G75*
G02*
X76020000Y-57205000I0J75000D01*
G01*
X76020000Y-57055000D01*
G75*
G02*
X76095000Y-56980000I75000J0D01*
G01*
X77495000Y-56980000D01*
G75*
G02*
X77570000Y-57055000I0J-75000D01*
G01*
G37*
G36*
G01*
X77570000Y-56555000D02*
X77570000Y-56705000D01*
G75*
G02*
X77495000Y-56780000I-75000J0D01*
G01*
X76095000Y-56780000D01*
G75*
G02*
X76020000Y-56705000I0J75000D01*
G01*
X76020000Y-56555000D01*
G75*
G02*
X76095000Y-56480000I75000J0D01*
G01*
X77495000Y-56480000D01*
G75*
G02*
X77570000Y-56555000I0J-75000D01*
G01*
G37*
G36*
G01*
X77570000Y-56055000D02*
X77570000Y-56205000D01*
G75*
G02*
X77495000Y-56280000I-75000J0D01*
G01*
X76095000Y-56280000D01*
G75*
G02*
X76020000Y-56205000I0J75000D01*
G01*
X76020000Y-56055000D01*
G75*
G02*
X76095000Y-55980000I75000J0D01*
G01*
X77495000Y-55980000D01*
G75*
G02*
X77570000Y-56055000I0J-75000D01*
G01*
G37*
G36*
G01*
X77570000Y-55555000D02*
X77570000Y-55705000D01*
G75*
G02*
X77495000Y-55780000I-75000J0D01*
G01*
X76095000Y-55780000D01*
G75*
G02*
X76020000Y-55705000I0J75000D01*
G01*
X76020000Y-55555000D01*
G75*
G02*
X76095000Y-55480000I75000J0D01*
G01*
X77495000Y-55480000D01*
G75*
G02*
X77570000Y-55555000I0J-75000D01*
G01*
G37*
G36*
G01*
X77570000Y-55055000D02*
X77570000Y-55205000D01*
G75*
G02*
X77495000Y-55280000I-75000J0D01*
G01*
X76095000Y-55280000D01*
G75*
G02*
X76020000Y-55205000I0J75000D01*
G01*
X76020000Y-55055000D01*
G75*
G02*
X76095000Y-54980000I75000J0D01*
G01*
X77495000Y-54980000D01*
G75*
G02*
X77570000Y-55055000I0J-75000D01*
G01*
G37*
G36*
G01*
X77570000Y-54555000D02*
X77570000Y-54705000D01*
G75*
G02*
X77495000Y-54780000I-75000J0D01*
G01*
X76095000Y-54780000D01*
G75*
G02*
X76020000Y-54705000I0J75000D01*
G01*
X76020000Y-54555000D01*
G75*
G02*
X76095000Y-54480000I75000J0D01*
G01*
X77495000Y-54480000D01*
G75*
G02*
X77570000Y-54555000I0J-75000D01*
G01*
G37*
G36*
G01*
X77570000Y-54055000D02*
X77570000Y-54205000D01*
G75*
G02*
X77495000Y-54280000I-75000J0D01*
G01*
X76095000Y-54280000D01*
G75*
G02*
X76020000Y-54205000I0J75000D01*
G01*
X76020000Y-54055000D01*
G75*
G02*
X76095000Y-53980000I75000J0D01*
G01*
X77495000Y-53980000D01*
G75*
G02*
X77570000Y-54055000I0J-75000D01*
G01*
G37*
G36*
G01*
X77570000Y-53555000D02*
X77570000Y-53705000D01*
G75*
G02*
X77495000Y-53780000I-75000J0D01*
G01*
X76095000Y-53780000D01*
G75*
G02*
X76020000Y-53705000I0J75000D01*
G01*
X76020000Y-53555000D01*
G75*
G02*
X76095000Y-53480000I75000J0D01*
G01*
X77495000Y-53480000D01*
G75*
G02*
X77570000Y-53555000I0J-75000D01*
G01*
G37*
G36*
G01*
X77570000Y-53055000D02*
X77570000Y-53205000D01*
G75*
G02*
X77495000Y-53280000I-75000J0D01*
G01*
X76095000Y-53280000D01*
G75*
G02*
X76020000Y-53205000I0J75000D01*
G01*
X76020000Y-53055000D01*
G75*
G02*
X76095000Y-52980000I75000J0D01*
G01*
X77495000Y-52980000D01*
G75*
G02*
X77570000Y-53055000I0J-75000D01*
G01*
G37*
G36*
G01*
X77570000Y-52555000D02*
X77570000Y-52705000D01*
G75*
G02*
X77495000Y-52780000I-75000J0D01*
G01*
X76095000Y-52780000D01*
G75*
G02*
X76020000Y-52705000I0J75000D01*
G01*
X76020000Y-52555000D01*
G75*
G02*
X76095000Y-52480000I75000J0D01*
G01*
X77495000Y-52480000D01*
G75*
G02*
X77570000Y-52555000I0J-75000D01*
G01*
G37*
G36*
G01*
X77570000Y-52055000D02*
X77570000Y-52205000D01*
G75*
G02*
X77495000Y-52280000I-75000J0D01*
G01*
X76095000Y-52280000D01*
G75*
G02*
X76020000Y-52205000I0J75000D01*
G01*
X76020000Y-52055000D01*
G75*
G02*
X76095000Y-51980000I75000J0D01*
G01*
X77495000Y-51980000D01*
G75*
G02*
X77570000Y-52055000I0J-75000D01*
G01*
G37*
G36*
G01*
X75020000Y-49505000D02*
X75020000Y-50905000D01*
G75*
G02*
X74945000Y-50980000I-75000J0D01*
G01*
X74795000Y-50980000D01*
G75*
G02*
X74720000Y-50905000I0J75000D01*
G01*
X74720000Y-49505000D01*
G75*
G02*
X74795000Y-49430000I75000J0D01*
G01*
X74945000Y-49430000D01*
G75*
G02*
X75020000Y-49505000I0J-75000D01*
G01*
G37*
G36*
G01*
X74520000Y-49505000D02*
X74520000Y-50905000D01*
G75*
G02*
X74445000Y-50980000I-75000J0D01*
G01*
X74295000Y-50980000D01*
G75*
G02*
X74220000Y-50905000I0J75000D01*
G01*
X74220000Y-49505000D01*
G75*
G02*
X74295000Y-49430000I75000J0D01*
G01*
X74445000Y-49430000D01*
G75*
G02*
X74520000Y-49505000I0J-75000D01*
G01*
G37*
G36*
G01*
X74020000Y-49505000D02*
X74020000Y-50905000D01*
G75*
G02*
X73945000Y-50980000I-75000J0D01*
G01*
X73795000Y-50980000D01*
G75*
G02*
X73720000Y-50905000I0J75000D01*
G01*
X73720000Y-49505000D01*
G75*
G02*
X73795000Y-49430000I75000J0D01*
G01*
X73945000Y-49430000D01*
G75*
G02*
X74020000Y-49505000I0J-75000D01*
G01*
G37*
G36*
G01*
X73520000Y-49505000D02*
X73520000Y-50905000D01*
G75*
G02*
X73445000Y-50980000I-75000J0D01*
G01*
X73295000Y-50980000D01*
G75*
G02*
X73220000Y-50905000I0J75000D01*
G01*
X73220000Y-49505000D01*
G75*
G02*
X73295000Y-49430000I75000J0D01*
G01*
X73445000Y-49430000D01*
G75*
G02*
X73520000Y-49505000I0J-75000D01*
G01*
G37*
G36*
G01*
X73020000Y-49505000D02*
X73020000Y-50905000D01*
G75*
G02*
X72945000Y-50980000I-75000J0D01*
G01*
X72795000Y-50980000D01*
G75*
G02*
X72720000Y-50905000I0J75000D01*
G01*
X72720000Y-49505000D01*
G75*
G02*
X72795000Y-49430000I75000J0D01*
G01*
X72945000Y-49430000D01*
G75*
G02*
X73020000Y-49505000I0J-75000D01*
G01*
G37*
G36*
G01*
X72520000Y-49505000D02*
X72520000Y-50905000D01*
G75*
G02*
X72445000Y-50980000I-75000J0D01*
G01*
X72295000Y-50980000D01*
G75*
G02*
X72220000Y-50905000I0J75000D01*
G01*
X72220000Y-49505000D01*
G75*
G02*
X72295000Y-49430000I75000J0D01*
G01*
X72445000Y-49430000D01*
G75*
G02*
X72520000Y-49505000I0J-75000D01*
G01*
G37*
G36*
G01*
X72020000Y-49505000D02*
X72020000Y-50905000D01*
G75*
G02*
X71945000Y-50980000I-75000J0D01*
G01*
X71795000Y-50980000D01*
G75*
G02*
X71720000Y-50905000I0J75000D01*
G01*
X71720000Y-49505000D01*
G75*
G02*
X71795000Y-49430000I75000J0D01*
G01*
X71945000Y-49430000D01*
G75*
G02*
X72020000Y-49505000I0J-75000D01*
G01*
G37*
G36*
G01*
X71520000Y-49505000D02*
X71520000Y-50905000D01*
G75*
G02*
X71445000Y-50980000I-75000J0D01*
G01*
X71295000Y-50980000D01*
G75*
G02*
X71220000Y-50905000I0J75000D01*
G01*
X71220000Y-49505000D01*
G75*
G02*
X71295000Y-49430000I75000J0D01*
G01*
X71445000Y-49430000D01*
G75*
G02*
X71520000Y-49505000I0J-75000D01*
G01*
G37*
G36*
G01*
X71020000Y-49505000D02*
X71020000Y-50905000D01*
G75*
G02*
X70945000Y-50980000I-75000J0D01*
G01*
X70795000Y-50980000D01*
G75*
G02*
X70720000Y-50905000I0J75000D01*
G01*
X70720000Y-49505000D01*
G75*
G02*
X70795000Y-49430000I75000J0D01*
G01*
X70945000Y-49430000D01*
G75*
G02*
X71020000Y-49505000I0J-75000D01*
G01*
G37*
G36*
G01*
X70520000Y-49505000D02*
X70520000Y-50905000D01*
G75*
G02*
X70445000Y-50980000I-75000J0D01*
G01*
X70295000Y-50980000D01*
G75*
G02*
X70220000Y-50905000I0J75000D01*
G01*
X70220000Y-49505000D01*
G75*
G02*
X70295000Y-49430000I75000J0D01*
G01*
X70445000Y-49430000D01*
G75*
G02*
X70520000Y-49505000I0J-75000D01*
G01*
G37*
G36*
G01*
X70020000Y-49505000D02*
X70020000Y-50905000D01*
G75*
G02*
X69945000Y-50980000I-75000J0D01*
G01*
X69795000Y-50980000D01*
G75*
G02*
X69720000Y-50905000I0J75000D01*
G01*
X69720000Y-49505000D01*
G75*
G02*
X69795000Y-49430000I75000J0D01*
G01*
X69945000Y-49430000D01*
G75*
G02*
X70020000Y-49505000I0J-75000D01*
G01*
G37*
G36*
G01*
X69520000Y-49505000D02*
X69520000Y-50905000D01*
G75*
G02*
X69445000Y-50980000I-75000J0D01*
G01*
X69295000Y-50980000D01*
G75*
G02*
X69220000Y-50905000I0J75000D01*
G01*
X69220000Y-49505000D01*
G75*
G02*
X69295000Y-49430000I75000J0D01*
G01*
X69445000Y-49430000D01*
G75*
G02*
X69520000Y-49505000I0J-75000D01*
G01*
G37*
G36*
G01*
X69020000Y-49505000D02*
X69020000Y-50905000D01*
G75*
G02*
X68945000Y-50980000I-75000J0D01*
G01*
X68795000Y-50980000D01*
G75*
G02*
X68720000Y-50905000I0J75000D01*
G01*
X68720000Y-49505000D01*
G75*
G02*
X68795000Y-49430000I75000J0D01*
G01*
X68945000Y-49430000D01*
G75*
G02*
X69020000Y-49505000I0J-75000D01*
G01*
G37*
G36*
G01*
X68520000Y-49505000D02*
X68520000Y-50905000D01*
G75*
G02*
X68445000Y-50980000I-75000J0D01*
G01*
X68295000Y-50980000D01*
G75*
G02*
X68220000Y-50905000I0J75000D01*
G01*
X68220000Y-49505000D01*
G75*
G02*
X68295000Y-49430000I75000J0D01*
G01*
X68445000Y-49430000D01*
G75*
G02*
X68520000Y-49505000I0J-75000D01*
G01*
G37*
G36*
G01*
X68020000Y-49505000D02*
X68020000Y-50905000D01*
G75*
G02*
X67945000Y-50980000I-75000J0D01*
G01*
X67795000Y-50980000D01*
G75*
G02*
X67720000Y-50905000I0J75000D01*
G01*
X67720000Y-49505000D01*
G75*
G02*
X67795000Y-49430000I75000J0D01*
G01*
X67945000Y-49430000D01*
G75*
G02*
X68020000Y-49505000I0J-75000D01*
G01*
G37*
G36*
G01*
X67520000Y-49505000D02*
X67520000Y-50905000D01*
G75*
G02*
X67445000Y-50980000I-75000J0D01*
G01*
X67295000Y-50980000D01*
G75*
G02*
X67220000Y-50905000I0J75000D01*
G01*
X67220000Y-49505000D01*
G75*
G02*
X67295000Y-49430000I75000J0D01*
G01*
X67445000Y-49430000D01*
G75*
G02*
X67520000Y-49505000I0J-75000D01*
G01*
G37*
G36*
G01*
X66220000Y-52055000D02*
X66220000Y-52205000D01*
G75*
G02*
X66145000Y-52280000I-75000J0D01*
G01*
X64745000Y-52280000D01*
G75*
G02*
X64670000Y-52205000I0J75000D01*
G01*
X64670000Y-52055000D01*
G75*
G02*
X64745000Y-51980000I75000J0D01*
G01*
X66145000Y-51980000D01*
G75*
G02*
X66220000Y-52055000I0J-75000D01*
G01*
G37*
G36*
G01*
X66220000Y-52555000D02*
X66220000Y-52705000D01*
G75*
G02*
X66145000Y-52780000I-75000J0D01*
G01*
X64745000Y-52780000D01*
G75*
G02*
X64670000Y-52705000I0J75000D01*
G01*
X64670000Y-52555000D01*
G75*
G02*
X64745000Y-52480000I75000J0D01*
G01*
X66145000Y-52480000D01*
G75*
G02*
X66220000Y-52555000I0J-75000D01*
G01*
G37*
G36*
G01*
X66220000Y-53055000D02*
X66220000Y-53205000D01*
G75*
G02*
X66145000Y-53280000I-75000J0D01*
G01*
X64745000Y-53280000D01*
G75*
G02*
X64670000Y-53205000I0J75000D01*
G01*
X64670000Y-53055000D01*
G75*
G02*
X64745000Y-52980000I75000J0D01*
G01*
X66145000Y-52980000D01*
G75*
G02*
X66220000Y-53055000I0J-75000D01*
G01*
G37*
G36*
G01*
X66220000Y-53555000D02*
X66220000Y-53705000D01*
G75*
G02*
X66145000Y-53780000I-75000J0D01*
G01*
X64745000Y-53780000D01*
G75*
G02*
X64670000Y-53705000I0J75000D01*
G01*
X64670000Y-53555000D01*
G75*
G02*
X64745000Y-53480000I75000J0D01*
G01*
X66145000Y-53480000D01*
G75*
G02*
X66220000Y-53555000I0J-75000D01*
G01*
G37*
G36*
G01*
X66220000Y-54055000D02*
X66220000Y-54205000D01*
G75*
G02*
X66145000Y-54280000I-75000J0D01*
G01*
X64745000Y-54280000D01*
G75*
G02*
X64670000Y-54205000I0J75000D01*
G01*
X64670000Y-54055000D01*
G75*
G02*
X64745000Y-53980000I75000J0D01*
G01*
X66145000Y-53980000D01*
G75*
G02*
X66220000Y-54055000I0J-75000D01*
G01*
G37*
G36*
G01*
X66220000Y-54555000D02*
X66220000Y-54705000D01*
G75*
G02*
X66145000Y-54780000I-75000J0D01*
G01*
X64745000Y-54780000D01*
G75*
G02*
X64670000Y-54705000I0J75000D01*
G01*
X64670000Y-54555000D01*
G75*
G02*
X64745000Y-54480000I75000J0D01*
G01*
X66145000Y-54480000D01*
G75*
G02*
X66220000Y-54555000I0J-75000D01*
G01*
G37*
G36*
G01*
X66220000Y-55055000D02*
X66220000Y-55205000D01*
G75*
G02*
X66145000Y-55280000I-75000J0D01*
G01*
X64745000Y-55280000D01*
G75*
G02*
X64670000Y-55205000I0J75000D01*
G01*
X64670000Y-55055000D01*
G75*
G02*
X64745000Y-54980000I75000J0D01*
G01*
X66145000Y-54980000D01*
G75*
G02*
X66220000Y-55055000I0J-75000D01*
G01*
G37*
G36*
G01*
X66220000Y-55555000D02*
X66220000Y-55705000D01*
G75*
G02*
X66145000Y-55780000I-75000J0D01*
G01*
X64745000Y-55780000D01*
G75*
G02*
X64670000Y-55705000I0J75000D01*
G01*
X64670000Y-55555000D01*
G75*
G02*
X64745000Y-55480000I75000J0D01*
G01*
X66145000Y-55480000D01*
G75*
G02*
X66220000Y-55555000I0J-75000D01*
G01*
G37*
G36*
G01*
X66220000Y-56055000D02*
X66220000Y-56205000D01*
G75*
G02*
X66145000Y-56280000I-75000J0D01*
G01*
X64745000Y-56280000D01*
G75*
G02*
X64670000Y-56205000I0J75000D01*
G01*
X64670000Y-56055000D01*
G75*
G02*
X64745000Y-55980000I75000J0D01*
G01*
X66145000Y-55980000D01*
G75*
G02*
X66220000Y-56055000I0J-75000D01*
G01*
G37*
G36*
G01*
X66220000Y-56555000D02*
X66220000Y-56705000D01*
G75*
G02*
X66145000Y-56780000I-75000J0D01*
G01*
X64745000Y-56780000D01*
G75*
G02*
X64670000Y-56705000I0J75000D01*
G01*
X64670000Y-56555000D01*
G75*
G02*
X64745000Y-56480000I75000J0D01*
G01*
X66145000Y-56480000D01*
G75*
G02*
X66220000Y-56555000I0J-75000D01*
G01*
G37*
G36*
G01*
X66220000Y-57055000D02*
X66220000Y-57205000D01*
G75*
G02*
X66145000Y-57280000I-75000J0D01*
G01*
X64745000Y-57280000D01*
G75*
G02*
X64670000Y-57205000I0J75000D01*
G01*
X64670000Y-57055000D01*
G75*
G02*
X64745000Y-56980000I75000J0D01*
G01*
X66145000Y-56980000D01*
G75*
G02*
X66220000Y-57055000I0J-75000D01*
G01*
G37*
G36*
G01*
X66220000Y-57555000D02*
X66220000Y-57705000D01*
G75*
G02*
X66145000Y-57780000I-75000J0D01*
G01*
X64745000Y-57780000D01*
G75*
G02*
X64670000Y-57705000I0J75000D01*
G01*
X64670000Y-57555000D01*
G75*
G02*
X64745000Y-57480000I75000J0D01*
G01*
X66145000Y-57480000D01*
G75*
G02*
X66220000Y-57555000I0J-75000D01*
G01*
G37*
G36*
G01*
X66220000Y-58055000D02*
X66220000Y-58205000D01*
G75*
G02*
X66145000Y-58280000I-75000J0D01*
G01*
X64745000Y-58280000D01*
G75*
G02*
X64670000Y-58205000I0J75000D01*
G01*
X64670000Y-58055000D01*
G75*
G02*
X64745000Y-57980000I75000J0D01*
G01*
X66145000Y-57980000D01*
G75*
G02*
X66220000Y-58055000I0J-75000D01*
G01*
G37*
G36*
G01*
X66220000Y-58555000D02*
X66220000Y-58705000D01*
G75*
G02*
X66145000Y-58780000I-75000J0D01*
G01*
X64745000Y-58780000D01*
G75*
G02*
X64670000Y-58705000I0J75000D01*
G01*
X64670000Y-58555000D01*
G75*
G02*
X64745000Y-58480000I75000J0D01*
G01*
X66145000Y-58480000D01*
G75*
G02*
X66220000Y-58555000I0J-75000D01*
G01*
G37*
G36*
G01*
X66220000Y-59055000D02*
X66220000Y-59205000D01*
G75*
G02*
X66145000Y-59280000I-75000J0D01*
G01*
X64745000Y-59280000D01*
G75*
G02*
X64670000Y-59205000I0J75000D01*
G01*
X64670000Y-59055000D01*
G75*
G02*
X64745000Y-58980000I75000J0D01*
G01*
X66145000Y-58980000D01*
G75*
G02*
X66220000Y-59055000I0J-75000D01*
G01*
G37*
G36*
G01*
X66220000Y-59555000D02*
X66220000Y-59705000D01*
G75*
G02*
X66145000Y-59780000I-75000J0D01*
G01*
X64745000Y-59780000D01*
G75*
G02*
X64670000Y-59705000I0J75000D01*
G01*
X64670000Y-59555000D01*
G75*
G02*
X64745000Y-59480000I75000J0D01*
G01*
X66145000Y-59480000D01*
G75*
G02*
X66220000Y-59555000I0J-75000D01*
G01*
G37*
G36*
G01*
X67520000Y-60855000D02*
X67520000Y-62255000D01*
G75*
G02*
X67445000Y-62330000I-75000J0D01*
G01*
X67295000Y-62330000D01*
G75*
G02*
X67220000Y-62255000I0J75000D01*
G01*
X67220000Y-60855000D01*
G75*
G02*
X67295000Y-60780000I75000J0D01*
G01*
X67445000Y-60780000D01*
G75*
G02*
X67520000Y-60855000I0J-75000D01*
G01*
G37*
G36*
G01*
X68020000Y-60855000D02*
X68020000Y-62255000D01*
G75*
G02*
X67945000Y-62330000I-75000J0D01*
G01*
X67795000Y-62330000D01*
G75*
G02*
X67720000Y-62255000I0J75000D01*
G01*
X67720000Y-60855000D01*
G75*
G02*
X67795000Y-60780000I75000J0D01*
G01*
X67945000Y-60780000D01*
G75*
G02*
X68020000Y-60855000I0J-75000D01*
G01*
G37*
G36*
G01*
X68520000Y-60855000D02*
X68520000Y-62255000D01*
G75*
G02*
X68445000Y-62330000I-75000J0D01*
G01*
X68295000Y-62330000D01*
G75*
G02*
X68220000Y-62255000I0J75000D01*
G01*
X68220000Y-60855000D01*
G75*
G02*
X68295000Y-60780000I75000J0D01*
G01*
X68445000Y-60780000D01*
G75*
G02*
X68520000Y-60855000I0J-75000D01*
G01*
G37*
G36*
G01*
X69020000Y-60855000D02*
X69020000Y-62255000D01*
G75*
G02*
X68945000Y-62330000I-75000J0D01*
G01*
X68795000Y-62330000D01*
G75*
G02*
X68720000Y-62255000I0J75000D01*
G01*
X68720000Y-60855000D01*
G75*
G02*
X68795000Y-60780000I75000J0D01*
G01*
X68945000Y-60780000D01*
G75*
G02*
X69020000Y-60855000I0J-75000D01*
G01*
G37*
G36*
G01*
X69520000Y-60855000D02*
X69520000Y-62255000D01*
G75*
G02*
X69445000Y-62330000I-75000J0D01*
G01*
X69295000Y-62330000D01*
G75*
G02*
X69220000Y-62255000I0J75000D01*
G01*
X69220000Y-60855000D01*
G75*
G02*
X69295000Y-60780000I75000J0D01*
G01*
X69445000Y-60780000D01*
G75*
G02*
X69520000Y-60855000I0J-75000D01*
G01*
G37*
G36*
G01*
X70020000Y-60855000D02*
X70020000Y-62255000D01*
G75*
G02*
X69945000Y-62330000I-75000J0D01*
G01*
X69795000Y-62330000D01*
G75*
G02*
X69720000Y-62255000I0J75000D01*
G01*
X69720000Y-60855000D01*
G75*
G02*
X69795000Y-60780000I75000J0D01*
G01*
X69945000Y-60780000D01*
G75*
G02*
X70020000Y-60855000I0J-75000D01*
G01*
G37*
G36*
G01*
X70520000Y-60855000D02*
X70520000Y-62255000D01*
G75*
G02*
X70445000Y-62330000I-75000J0D01*
G01*
X70295000Y-62330000D01*
G75*
G02*
X70220000Y-62255000I0J75000D01*
G01*
X70220000Y-60855000D01*
G75*
G02*
X70295000Y-60780000I75000J0D01*
G01*
X70445000Y-60780000D01*
G75*
G02*
X70520000Y-60855000I0J-75000D01*
G01*
G37*
G36*
G01*
X71020000Y-60855000D02*
X71020000Y-62255000D01*
G75*
G02*
X70945000Y-62330000I-75000J0D01*
G01*
X70795000Y-62330000D01*
G75*
G02*
X70720000Y-62255000I0J75000D01*
G01*
X70720000Y-60855000D01*
G75*
G02*
X70795000Y-60780000I75000J0D01*
G01*
X70945000Y-60780000D01*
G75*
G02*
X71020000Y-60855000I0J-75000D01*
G01*
G37*
G36*
G01*
X71520000Y-60855000D02*
X71520000Y-62255000D01*
G75*
G02*
X71445000Y-62330000I-75000J0D01*
G01*
X71295000Y-62330000D01*
G75*
G02*
X71220000Y-62255000I0J75000D01*
G01*
X71220000Y-60855000D01*
G75*
G02*
X71295000Y-60780000I75000J0D01*
G01*
X71445000Y-60780000D01*
G75*
G02*
X71520000Y-60855000I0J-75000D01*
G01*
G37*
G36*
G01*
X72020000Y-60855000D02*
X72020000Y-62255000D01*
G75*
G02*
X71945000Y-62330000I-75000J0D01*
G01*
X71795000Y-62330000D01*
G75*
G02*
X71720000Y-62255000I0J75000D01*
G01*
X71720000Y-60855000D01*
G75*
G02*
X71795000Y-60780000I75000J0D01*
G01*
X71945000Y-60780000D01*
G75*
G02*
X72020000Y-60855000I0J-75000D01*
G01*
G37*
G36*
G01*
X72520000Y-60855000D02*
X72520000Y-62255000D01*
G75*
G02*
X72445000Y-62330000I-75000J0D01*
G01*
X72295000Y-62330000D01*
G75*
G02*
X72220000Y-62255000I0J75000D01*
G01*
X72220000Y-60855000D01*
G75*
G02*
X72295000Y-60780000I75000J0D01*
G01*
X72445000Y-60780000D01*
G75*
G02*
X72520000Y-60855000I0J-75000D01*
G01*
G37*
G36*
G01*
X73020000Y-60855000D02*
X73020000Y-62255000D01*
G75*
G02*
X72945000Y-62330000I-75000J0D01*
G01*
X72795000Y-62330000D01*
G75*
G02*
X72720000Y-62255000I0J75000D01*
G01*
X72720000Y-60855000D01*
G75*
G02*
X72795000Y-60780000I75000J0D01*
G01*
X72945000Y-60780000D01*
G75*
G02*
X73020000Y-60855000I0J-75000D01*
G01*
G37*
G36*
G01*
X73520000Y-60855000D02*
X73520000Y-62255000D01*
G75*
G02*
X73445000Y-62330000I-75000J0D01*
G01*
X73295000Y-62330000D01*
G75*
G02*
X73220000Y-62255000I0J75000D01*
G01*
X73220000Y-60855000D01*
G75*
G02*
X73295000Y-60780000I75000J0D01*
G01*
X73445000Y-60780000D01*
G75*
G02*
X73520000Y-60855000I0J-75000D01*
G01*
G37*
G36*
G01*
X74020000Y-60855000D02*
X74020000Y-62255000D01*
G75*
G02*
X73945000Y-62330000I-75000J0D01*
G01*
X73795000Y-62330000D01*
G75*
G02*
X73720000Y-62255000I0J75000D01*
G01*
X73720000Y-60855000D01*
G75*
G02*
X73795000Y-60780000I75000J0D01*
G01*
X73945000Y-60780000D01*
G75*
G02*
X74020000Y-60855000I0J-75000D01*
G01*
G37*
G36*
G01*
X74520000Y-60855000D02*
X74520000Y-62255000D01*
G75*
G02*
X74445000Y-62330000I-75000J0D01*
G01*
X74295000Y-62330000D01*
G75*
G02*
X74220000Y-62255000I0J75000D01*
G01*
X74220000Y-60855000D01*
G75*
G02*
X74295000Y-60780000I75000J0D01*
G01*
X74445000Y-60780000D01*
G75*
G02*
X74520000Y-60855000I0J-75000D01*
G01*
G37*
G36*
G01*
X75020000Y-60855000D02*
X75020000Y-62255000D01*
G75*
G02*
X74945000Y-62330000I-75000J0D01*
G01*
X74795000Y-62330000D01*
G75*
G02*
X74720000Y-62255000I0J75000D01*
G01*
X74720000Y-60855000D01*
G75*
G02*
X74795000Y-60780000I75000J0D01*
G01*
X74945000Y-60780000D01*
G75*
G02*
X75020000Y-60855000I0J-75000D01*
G01*
G37*
X97960000Y-78105000D03*
X97960000Y-79055000D03*
X97960000Y-77155000D03*
X100160000Y-77155000D03*
X100160000Y-78105000D03*
X100160000Y-79055000D03*
D22*
X54610000Y-34120000D03*
X55560000Y-34120000D03*
X53660000Y-34120000D03*
X53660000Y-31920000D03*
X54610000Y-31920000D03*
X55560000Y-31920000D03*
X100010000Y-83355000D03*
X99060000Y-83355000D03*
X98110000Y-83355000D03*
X98110000Y-85555000D03*
X100010000Y-85555000D03*
D21*
X100160000Y-58735000D03*
X100160000Y-57785000D03*
X100160000Y-56835000D03*
X97960000Y-56835000D03*
X97960000Y-58735000D03*
X97960000Y-57785000D03*
D22*
X73340000Y-31920000D03*
X72390000Y-31920000D03*
X71440000Y-31920000D03*
X71440000Y-34120000D03*
X73340000Y-34120000D03*
X72390000Y-34120000D03*
X100010000Y-65235000D03*
X98110000Y-65235000D03*
X98110000Y-63035000D03*
X99060000Y-63035000D03*
X100010000Y-63035000D03*
G36*
G01*
X20680000Y-33805000D02*
X20680000Y-33505000D01*
G75*
G02*
X20830000Y-33355000I150000J0D01*
G01*
X22280000Y-33355000D01*
G75*
G02*
X22430000Y-33505000I0J-150000D01*
G01*
X22430000Y-33805000D01*
G75*
G02*
X22280000Y-33955000I-150000J0D01*
G01*
X20830000Y-33955000D01*
G75*
G02*
X20680000Y-33805000I0J150000D01*
G01*
G37*
G36*
G01*
X20680000Y-35075000D02*
X20680000Y-34775000D01*
G75*
G02*
X20830000Y-34625000I150000J0D01*
G01*
X22280000Y-34625000D01*
G75*
G02*
X22430000Y-34775000I0J-150000D01*
G01*
X22430000Y-35075000D01*
G75*
G02*
X22280000Y-35225000I-150000J0D01*
G01*
X20830000Y-35225000D01*
G75*
G02*
X20680000Y-35075000I0J150000D01*
G01*
G37*
G36*
G01*
X20680000Y-36345000D02*
X20680000Y-36045000D01*
G75*
G02*
X20830000Y-35895000I150000J0D01*
G01*
X22280000Y-35895000D01*
G75*
G02*
X22430000Y-36045000I0J-150000D01*
G01*
X22430000Y-36345000D01*
G75*
G02*
X22280000Y-36495000I-150000J0D01*
G01*
X20830000Y-36495000D01*
G75*
G02*
X20680000Y-36345000I0J150000D01*
G01*
G37*
G36*
G01*
X20680000Y-37615000D02*
X20680000Y-37315000D01*
G75*
G02*
X20830000Y-37165000I150000J0D01*
G01*
X22280000Y-37165000D01*
G75*
G02*
X22430000Y-37315000I0J-150000D01*
G01*
X22430000Y-37615000D01*
G75*
G02*
X22280000Y-37765000I-150000J0D01*
G01*
X20830000Y-37765000D01*
G75*
G02*
X20680000Y-37615000I0J150000D01*
G01*
G37*
G36*
G01*
X25830000Y-37615000D02*
X25830000Y-37315000D01*
G75*
G02*
X25980000Y-37165000I150000J0D01*
G01*
X27430000Y-37165000D01*
G75*
G02*
X27580000Y-37315000I0J-150000D01*
G01*
X27580000Y-37615000D01*
G75*
G02*
X27430000Y-37765000I-150000J0D01*
G01*
X25980000Y-37765000D01*
G75*
G02*
X25830000Y-37615000I0J150000D01*
G01*
G37*
G36*
G01*
X25830000Y-36345000D02*
X25830000Y-36045000D01*
G75*
G02*
X25980000Y-35895000I150000J0D01*
G01*
X27430000Y-35895000D01*
G75*
G02*
X27580000Y-36045000I0J-150000D01*
G01*
X27580000Y-36345000D01*
G75*
G02*
X27430000Y-36495000I-150000J0D01*
G01*
X25980000Y-36495000D01*
G75*
G02*
X25830000Y-36345000I0J150000D01*
G01*
G37*
G36*
G01*
X25830000Y-35075000D02*
X25830000Y-34775000D01*
G75*
G02*
X25980000Y-34625000I150000J0D01*
G01*
X27430000Y-34625000D01*
G75*
G02*
X27580000Y-34775000I0J-150000D01*
G01*
X27580000Y-35075000D01*
G75*
G02*
X27430000Y-35225000I-150000J0D01*
G01*
X25980000Y-35225000D01*
G75*
G02*
X25830000Y-35075000I0J150000D01*
G01*
G37*
G36*
G01*
X25830000Y-33805000D02*
X25830000Y-33505000D01*
G75*
G02*
X25980000Y-33355000I150000J0D01*
G01*
X27430000Y-33355000D01*
G75*
G02*
X27580000Y-33505000I0J-150000D01*
G01*
X27580000Y-33805000D01*
G75*
G02*
X27430000Y-33955000I-150000J0D01*
G01*
X25980000Y-33955000D01*
G75*
G02*
X25830000Y-33805000I0J150000D01*
G01*
G37*
D21*
X97960000Y-37465000D03*
X97960000Y-38415000D03*
X97960000Y-36515000D03*
X100160000Y-36515000D03*
X100160000Y-37465000D03*
X100160000Y-38415000D03*
D22*
X91120000Y-31920000D03*
X90170000Y-31920000D03*
X89220000Y-31920000D03*
X89220000Y-34120000D03*
X91120000Y-34120000D03*
X90170000Y-34120000D03*
X100010000Y-42715000D03*
X99060000Y-42715000D03*
X98110000Y-42715000D03*
X98110000Y-44915000D03*
X100010000Y-44915000D03*
M02*
