%TF.GenerationSoftware,KiCad,Pcbnew,(5.99.0-12724-g8c8d66a181)*%
%TF.CreationDate,2021-10-09T23:30:49+02:00*%
%TF.ProjectId,MUXUS,4d555855-532e-46b6-9963-61645f706362,rev?*%
%TF.SameCoordinates,Original*%
%TF.FileFunction,Legend,Bot*%
%TF.FilePolarity,Positive*%
%FSLAX46Y46*%
G04 Gerber Fmt 4.6, Leading zero omitted, Abs format (unit mm)*
G04 Created by KiCad (PCBNEW (5.99.0-12724-g8c8d66a181)) date 2021-10-09 23:30:49*
%MOMM*%
%LPD*%
G01*
G04 APERTURE LIST*
%ADD10C,1.600000*%
%ADD11R,1.800000X1.800000*%
%ADD12C,1.800000*%
%ADD13C,0.800000*%
%ADD14C,6.400000*%
%ADD15C,1.545000*%
%ADD16C,3.570000*%
%ADD17C,1.080000*%
%ADD18R,1.500000X1.500000*%
%ADD19C,1.500000*%
%ADD20C,1.020000*%
%ADD21R,1.700000X1.700000*%
%ADD22O,1.700000X1.700000*%
%ADD23C,0.650000*%
G04 APERTURE END LIST*
%LPC*%
D10*
X92710000Y-85725000D03*
X92710000Y-83225000D03*
D11*
X26670000Y-110490000D03*
D12*
X29210000Y-110490000D03*
D11*
X34290000Y-110490000D03*
D12*
X36830000Y-110490000D03*
D11*
X41910000Y-110490000D03*
D12*
X44450000Y-110490000D03*
D13*
X109220000Y-22720000D03*
D14*
X109220000Y-20320000D03*
D13*
X107522944Y-18622944D03*
X110917056Y-18622944D03*
X110917056Y-22017056D03*
X106820000Y-20320000D03*
X107522944Y-22017056D03*
X111620000Y-20320000D03*
X109220000Y-17920000D03*
X17920000Y-20320000D03*
X20320000Y-22720000D03*
X18622944Y-22017056D03*
X22720000Y-20320000D03*
X20320000Y-17920000D03*
X22017056Y-22017056D03*
X22017056Y-18622944D03*
X18622944Y-18622944D03*
D14*
X20320000Y-20320000D03*
D13*
X110917056Y-110917056D03*
X109220000Y-111620000D03*
X111620000Y-109220000D03*
X109220000Y-106820000D03*
D14*
X109220000Y-109220000D03*
D13*
X110917056Y-107522944D03*
X107522944Y-110917056D03*
X106820000Y-109220000D03*
X107522944Y-107522944D03*
D15*
X105410000Y-81915000D03*
X105410000Y-79415000D03*
X105410000Y-77415000D03*
X105410000Y-74915000D03*
D16*
X108120000Y-84985000D03*
X108120000Y-71845000D03*
D17*
X69315000Y-68580000D03*
X74195000Y-68580000D03*
D18*
X53340000Y-26670000D03*
D19*
X55840000Y-26670000D03*
X55840000Y-24670000D03*
X53340000Y-24670000D03*
D16*
X60610000Y-21960000D03*
X48570000Y-21960000D03*
D18*
X88900000Y-26670000D03*
D19*
X91400000Y-26670000D03*
X91400000Y-24670000D03*
X88900000Y-24670000D03*
D16*
X96170000Y-21960000D03*
X84130000Y-21960000D03*
D18*
X71120000Y-26670000D03*
D19*
X73620000Y-26670000D03*
X73620000Y-24670000D03*
X71120000Y-24670000D03*
D16*
X66350000Y-21960000D03*
X78390000Y-21960000D03*
D13*
X22017056Y-110917056D03*
X22720000Y-109220000D03*
X20320000Y-111620000D03*
X20320000Y-106820000D03*
X22017056Y-107522944D03*
X18622944Y-110917056D03*
X18622944Y-107522944D03*
D14*
X20320000Y-109220000D03*
D13*
X17920000Y-109220000D03*
D20*
X20320000Y-76835000D03*
X20320000Y-70485000D03*
D11*
X49530000Y-110490000D03*
D12*
X52070000Y-110490000D03*
D15*
X105410000Y-41275000D03*
X105410000Y-38775000D03*
X105410000Y-36775000D03*
X105410000Y-34275000D03*
D16*
X108120000Y-44345000D03*
X108120000Y-31205000D03*
D10*
X92710000Y-45085000D03*
X92710000Y-42585000D03*
D15*
X105410000Y-61595000D03*
X105410000Y-59095000D03*
X105410000Y-57095000D03*
X105410000Y-54595000D03*
D16*
X108120000Y-64665000D03*
X108120000Y-51525000D03*
D10*
X92710000Y-65405000D03*
X92710000Y-62905000D03*
D21*
X20320000Y-99060000D03*
D22*
X20320000Y-101600000D03*
D21*
X20320000Y-81280000D03*
D22*
X20320000Y-83820000D03*
X20320000Y-86360000D03*
X20320000Y-88900000D03*
X20320000Y-91440000D03*
X20320000Y-93980000D03*
D23*
X35910000Y-19875000D03*
X30130000Y-19875000D03*
M02*
