%FSLAX45Y45*%
G04 Gerber Fmt 4.5, Leading zero omitted, Abs format (unit mm)*
G04 Created by KiCad (PCBNEW (5.1.10)-1) date 2021-10-03 21:42:48*
%MOMM*%
%LPD*%
G01*
G04 APERTURE LIST*
%TA.AperFunction,Profile*%
%ADD10C,0.050000*%
%TD*%
%ADD11C,0.200000*%
%ADD12C,0.300000*%
G04 APERTURE END LIST*
D10*
X11430000Y-10922000D02*
G75*
G02*
X10922000Y-11430000I-508000J0D01*
G01*
X2032000Y-11430000D02*
G75*
G02*
X1524000Y-10922000I0J508000D01*
G01*
X1524000Y-2032000D02*
G75*
G02*
X2032000Y-1524000I508000J0D01*
G01*
X10922000Y-1524000D02*
G75*
G02*
X11430000Y-2032000I0J-508000D01*
G01*
X11430000Y-10922000D02*
X11430000Y-2032000D01*
X2032000Y-1524000D02*
X10922000Y-1524000D01*
X1524000Y-2032000D02*
X1524000Y-10922000D01*
X2032000Y-11430000D02*
X10922000Y-11430000D01*
D11*
X1618300Y-7092000D02*
X1658300Y-7132000D01*
X1658300Y-7092000D02*
X1618300Y-7132000D01*
X1716000Y-2986000D02*
X1756000Y-3026000D01*
X1756000Y-2986000D02*
X1716000Y-3026000D01*
X1758000Y-2520000D02*
X1798000Y-2560000D01*
X1798000Y-2520000D02*
X1758000Y-2560000D01*
X1758000Y-2774000D02*
X1798000Y-2814000D01*
X1798000Y-2774000D02*
X1758000Y-2814000D01*
X1758000Y-4806000D02*
X1798000Y-4846000D01*
X1798000Y-4806000D02*
X1758000Y-4846000D01*
X1758000Y-5060000D02*
X1798000Y-5100000D01*
X1798000Y-5060000D02*
X1758000Y-5100000D01*
X1758000Y-5314000D02*
X1798000Y-5354000D01*
X1798000Y-5314000D02*
X1758000Y-5354000D01*
X1758000Y-5568000D02*
X1798000Y-5608000D01*
X1798000Y-5568000D02*
X1758000Y-5608000D01*
X1758000Y-5822000D02*
X1798000Y-5862000D01*
X1798000Y-5822000D02*
X1758000Y-5862000D01*
X1758000Y-6076000D02*
X1798000Y-6116000D01*
X1798000Y-6076000D02*
X1758000Y-6116000D01*
X1758000Y-6330000D02*
X1798000Y-6370000D01*
X1798000Y-6330000D02*
X1758000Y-6370000D01*
X1758000Y-6584000D02*
X1798000Y-6624000D01*
X1798000Y-6584000D02*
X1758000Y-6624000D01*
X1758000Y-6838000D02*
X1798000Y-6878000D01*
X1798000Y-6838000D02*
X1758000Y-6878000D01*
X1758000Y-7854000D02*
X1798000Y-7894000D01*
X1798000Y-7854000D02*
X1758000Y-7894000D01*
X1758000Y-8108000D02*
X1798000Y-8148000D01*
X1798000Y-8108000D02*
X1758000Y-8148000D01*
X1758000Y-8362000D02*
X1798000Y-8402000D01*
X1798000Y-8362000D02*
X1758000Y-8402000D01*
X1758000Y-8616000D02*
X1798000Y-8656000D01*
X1798000Y-8616000D02*
X1758000Y-8656000D01*
X1758000Y-8870000D02*
X1798000Y-8910000D01*
X1798000Y-8870000D02*
X1758000Y-8910000D01*
X1758000Y-9124000D02*
X1798000Y-9164000D01*
X1798000Y-9124000D02*
X1758000Y-9164000D01*
X1758000Y-9378000D02*
X1798000Y-9418000D01*
X1798000Y-9378000D02*
X1758000Y-9418000D01*
X1758000Y-9632000D02*
X1798000Y-9672000D01*
X1798000Y-9632000D02*
X1758000Y-9672000D01*
X1758000Y-9886000D02*
X1798000Y-9926000D01*
X1798000Y-9886000D02*
X1758000Y-9926000D01*
X1758000Y-10140000D02*
X1798000Y-10180000D01*
X1798000Y-10140000D02*
X1758000Y-10180000D01*
X1758000Y-10394000D02*
X1798000Y-10434000D01*
X1798000Y-10394000D02*
X1758000Y-10434000D01*
X1849975Y-4663225D02*
X1889975Y-4703225D01*
X1889975Y-4663225D02*
X1849975Y-4703225D01*
X1955250Y-4768500D02*
X1995250Y-4808500D01*
X1995250Y-4768500D02*
X1955250Y-4808500D01*
X2012000Y-2520000D02*
X2052000Y-2560000D01*
X2052000Y-2520000D02*
X2012000Y-2560000D01*
X2012000Y-4298000D02*
X2052000Y-4338000D01*
X2052000Y-4298000D02*
X2012000Y-4338000D01*
X2012000Y-4552000D02*
X2052000Y-4592000D01*
X2052000Y-4552000D02*
X2012000Y-4592000D01*
X2012000Y-5060000D02*
X2052000Y-5100000D01*
X2052000Y-5060000D02*
X2012000Y-5100000D01*
X2012000Y-5314000D02*
X2052000Y-5354000D01*
X2052000Y-5314000D02*
X2012000Y-5354000D01*
X2012000Y-5568000D02*
X2052000Y-5608000D01*
X2052000Y-5568000D02*
X2012000Y-5608000D01*
X2012000Y-5822000D02*
X2052000Y-5862000D01*
X2052000Y-5822000D02*
X2012000Y-5862000D01*
X2012000Y-6076000D02*
X2052000Y-6116000D01*
X2052000Y-6076000D02*
X2012000Y-6116000D01*
X2012000Y-6330000D02*
X2052000Y-6370000D01*
X2052000Y-6330000D02*
X2012000Y-6370000D01*
X2012000Y-6584000D02*
X2052000Y-6624000D01*
X2052000Y-6584000D02*
X2012000Y-6624000D01*
X2012000Y-6838000D02*
X2052000Y-6878000D01*
X2052000Y-6838000D02*
X2012000Y-6878000D01*
X2012000Y-7854000D02*
X2052000Y-7894000D01*
X2052000Y-7854000D02*
X2012000Y-7894000D01*
X2012000Y-9632000D02*
X2052000Y-9672000D01*
X2052000Y-9632000D02*
X2012000Y-9672000D01*
X2012000Y-10394000D02*
X2052000Y-10434000D01*
X2052000Y-10394000D02*
X2012000Y-10434000D01*
X2100300Y-4768500D02*
X2140300Y-4808500D01*
X2140300Y-4768500D02*
X2100300Y-4808500D01*
X2266000Y-2520000D02*
X2306000Y-2560000D01*
X2306000Y-2520000D02*
X2266000Y-2560000D01*
X2266000Y-5314000D02*
X2306000Y-5354000D01*
X2306000Y-5314000D02*
X2266000Y-5354000D01*
X2266000Y-5568000D02*
X2306000Y-5608000D01*
X2306000Y-5568000D02*
X2266000Y-5608000D01*
X2266000Y-5822000D02*
X2306000Y-5862000D01*
X2306000Y-5822000D02*
X2266000Y-5862000D01*
X2266000Y-6076000D02*
X2306000Y-6116000D01*
X2306000Y-6076000D02*
X2266000Y-6116000D01*
X2266000Y-6330000D02*
X2306000Y-6370000D01*
X2306000Y-6330000D02*
X2266000Y-6370000D01*
X2266000Y-6584000D02*
X2306000Y-6624000D01*
X2306000Y-6584000D02*
X2266000Y-6624000D01*
X2266000Y-6838000D02*
X2306000Y-6878000D01*
X2306000Y-6838000D02*
X2266000Y-6878000D01*
X2266000Y-7854000D02*
X2306000Y-7894000D01*
X2306000Y-7854000D02*
X2266000Y-7894000D01*
X2266000Y-8362000D02*
X2306000Y-8402000D01*
X2306000Y-8362000D02*
X2266000Y-8402000D01*
X2266000Y-8616000D02*
X2306000Y-8656000D01*
X2306000Y-8616000D02*
X2266000Y-8656000D01*
X2266000Y-8870000D02*
X2306000Y-8910000D01*
X2306000Y-8870000D02*
X2266000Y-8910000D01*
X2266000Y-9124000D02*
X2306000Y-9164000D01*
X2306000Y-9124000D02*
X2266000Y-9164000D01*
X2266000Y-9378000D02*
X2306000Y-9418000D01*
X2306000Y-9378000D02*
X2266000Y-9418000D01*
X2266000Y-9632000D02*
X2306000Y-9672000D01*
X2306000Y-9632000D02*
X2266000Y-9672000D01*
X2266000Y-9886000D02*
X2306000Y-9926000D01*
X2306000Y-9886000D02*
X2266000Y-9926000D01*
X2266000Y-10140000D02*
X2306000Y-10180000D01*
X2306000Y-10140000D02*
X2266000Y-10180000D01*
X2266000Y-10394000D02*
X2306000Y-10434000D01*
X2306000Y-10394000D02*
X2266000Y-10434000D01*
X2278400Y-4996800D02*
X2318400Y-5036800D01*
X2318400Y-4996800D02*
X2278400Y-5036800D01*
X2380000Y-4996800D02*
X2420000Y-5036800D01*
X2420000Y-4996800D02*
X2380000Y-5036800D01*
X2380000Y-5098400D02*
X2420000Y-5138400D01*
X2420000Y-5098400D02*
X2380000Y-5138400D01*
X2456500Y-7092000D02*
X2496500Y-7132000D01*
X2496500Y-7092000D02*
X2456500Y-7132000D01*
X2456500Y-7219000D02*
X2496500Y-7259000D01*
X2496500Y-7219000D02*
X2456500Y-7259000D01*
X2481600Y-4996800D02*
X2521600Y-5036800D01*
X2521600Y-4996800D02*
X2481600Y-5036800D01*
X2481600Y-5098400D02*
X2521600Y-5138400D01*
X2521600Y-5098400D02*
X2481600Y-5138400D01*
X2481600Y-5200000D02*
X2521600Y-5240000D01*
X2521600Y-5200000D02*
X2481600Y-5240000D01*
X2520000Y-1758000D02*
X2560000Y-1798000D01*
X2560000Y-1758000D02*
X2520000Y-1798000D01*
X2520000Y-2012000D02*
X2560000Y-2052000D01*
X2560000Y-2012000D02*
X2520000Y-2052000D01*
X2520000Y-2266000D02*
X2560000Y-2306000D01*
X2560000Y-2266000D02*
X2520000Y-2306000D01*
X2520000Y-2520000D02*
X2560000Y-2560000D01*
X2560000Y-2520000D02*
X2520000Y-2560000D01*
X2520000Y-5568000D02*
X2560000Y-5608000D01*
X2560000Y-5568000D02*
X2520000Y-5608000D01*
X2520000Y-5822000D02*
X2560000Y-5862000D01*
X2560000Y-5822000D02*
X2520000Y-5862000D01*
X2520000Y-6076000D02*
X2560000Y-6116000D01*
X2560000Y-6076000D02*
X2520000Y-6116000D01*
X2520000Y-6330000D02*
X2560000Y-6370000D01*
X2560000Y-6330000D02*
X2520000Y-6370000D01*
X2520000Y-6584000D02*
X2560000Y-6624000D01*
X2560000Y-6584000D02*
X2520000Y-6624000D01*
X2520000Y-6838000D02*
X2560000Y-6878000D01*
X2560000Y-6838000D02*
X2520000Y-6878000D01*
X2520000Y-7600000D02*
X2560000Y-7640000D01*
X2560000Y-7600000D02*
X2520000Y-7640000D01*
X2520000Y-7854000D02*
X2560000Y-7894000D01*
X2560000Y-7854000D02*
X2520000Y-7894000D01*
X2520000Y-8108000D02*
X2560000Y-8148000D01*
X2560000Y-8108000D02*
X2520000Y-8148000D01*
X2520000Y-8362000D02*
X2560000Y-8402000D01*
X2560000Y-8362000D02*
X2520000Y-8402000D01*
X2520000Y-8616000D02*
X2560000Y-8656000D01*
X2560000Y-8616000D02*
X2520000Y-8656000D01*
X2520000Y-8870000D02*
X2560000Y-8910000D01*
X2560000Y-8870000D02*
X2520000Y-8910000D01*
X2520000Y-9124000D02*
X2560000Y-9164000D01*
X2560000Y-9124000D02*
X2520000Y-9164000D01*
X2520000Y-9378000D02*
X2560000Y-9418000D01*
X2560000Y-9378000D02*
X2520000Y-9418000D01*
X2520000Y-9632000D02*
X2560000Y-9672000D01*
X2560000Y-9632000D02*
X2520000Y-9672000D01*
X2520000Y-9886000D02*
X2560000Y-9926000D01*
X2560000Y-9886000D02*
X2520000Y-9926000D01*
X2520000Y-10140000D02*
X2560000Y-10180000D01*
X2560000Y-10140000D02*
X2520000Y-10180000D01*
X2520000Y-10394000D02*
X2560000Y-10434000D01*
X2560000Y-10394000D02*
X2520000Y-10434000D01*
X2520000Y-10648000D02*
X2560000Y-10688000D01*
X2560000Y-10648000D02*
X2520000Y-10688000D01*
X2596200Y-7092000D02*
X2636200Y-7132000D01*
X2636200Y-7092000D02*
X2596200Y-7132000D01*
X2723200Y-10622600D02*
X2763200Y-10662600D01*
X2763200Y-10622600D02*
X2723200Y-10662600D01*
X2771000Y-1811800D02*
X2811000Y-1851800D01*
X2811000Y-1811800D02*
X2771000Y-1851800D01*
X2774000Y-4044000D02*
X2814000Y-4084000D01*
X2814000Y-4044000D02*
X2774000Y-4084000D01*
X2774000Y-4552000D02*
X2814000Y-4592000D01*
X2814000Y-4552000D02*
X2774000Y-4592000D01*
X2774000Y-4806000D02*
X2814000Y-4846000D01*
X2814000Y-4806000D02*
X2774000Y-4846000D01*
X2774000Y-5060000D02*
X2814000Y-5100000D01*
X2814000Y-5060000D02*
X2774000Y-5100000D01*
X2774000Y-5568000D02*
X2814000Y-5608000D01*
X2814000Y-5568000D02*
X2774000Y-5608000D01*
X2774000Y-5822000D02*
X2814000Y-5862000D01*
X2814000Y-5822000D02*
X2774000Y-5862000D01*
X2774000Y-6076000D02*
X2814000Y-6116000D01*
X2814000Y-6076000D02*
X2774000Y-6116000D01*
X2774000Y-6330000D02*
X2814000Y-6370000D01*
X2814000Y-6330000D02*
X2774000Y-6370000D01*
X2774000Y-6584000D02*
X2814000Y-6624000D01*
X2814000Y-6584000D02*
X2774000Y-6624000D01*
X2774000Y-6838000D02*
X2814000Y-6878000D01*
X2814000Y-6838000D02*
X2774000Y-6878000D01*
X2774000Y-7092000D02*
X2814000Y-7132000D01*
X2814000Y-7092000D02*
X2774000Y-7132000D01*
X2774000Y-7600000D02*
X2814000Y-7640000D01*
X2814000Y-7600000D02*
X2774000Y-7640000D01*
X2774000Y-7854000D02*
X2814000Y-7894000D01*
X2814000Y-7854000D02*
X2774000Y-7894000D01*
X2774000Y-8108000D02*
X2814000Y-8148000D01*
X2814000Y-8108000D02*
X2774000Y-8148000D01*
X2774000Y-8362000D02*
X2814000Y-8402000D01*
X2814000Y-8362000D02*
X2774000Y-8402000D01*
X2774000Y-8616000D02*
X2814000Y-8656000D01*
X2814000Y-8616000D02*
X2774000Y-8656000D01*
X2774000Y-8870000D02*
X2814000Y-8910000D01*
X2814000Y-8870000D02*
X2774000Y-8910000D01*
X2774000Y-9124000D02*
X2814000Y-9164000D01*
X2814000Y-9124000D02*
X2774000Y-9164000D01*
X2774000Y-9378000D02*
X2814000Y-9418000D01*
X2814000Y-9378000D02*
X2774000Y-9418000D01*
X2774000Y-9632000D02*
X2814000Y-9672000D01*
X2814000Y-9632000D02*
X2774000Y-9672000D01*
X2774000Y-9886000D02*
X2814000Y-9926000D01*
X2814000Y-9886000D02*
X2774000Y-9926000D01*
X2774000Y-10140000D02*
X2814000Y-10180000D01*
X2814000Y-10140000D02*
X2774000Y-10180000D01*
X2901000Y-10317800D02*
X2941000Y-10357800D01*
X2941000Y-10317800D02*
X2901000Y-10357800D01*
X2958300Y-1624500D02*
X2998300Y-1664500D01*
X2998300Y-1624500D02*
X2958300Y-1664500D01*
X2977400Y-2291600D02*
X3017400Y-2331600D01*
X3017400Y-2291600D02*
X2977400Y-2331600D01*
X3028000Y-3282000D02*
X3068000Y-3322000D01*
X3068000Y-3282000D02*
X3028000Y-3322000D01*
X3028000Y-3536000D02*
X3068000Y-3576000D01*
X3068000Y-3536000D02*
X3028000Y-3576000D01*
X3028000Y-4552000D02*
X3068000Y-4592000D01*
X3068000Y-4552000D02*
X3028000Y-4592000D01*
X3028000Y-5568000D02*
X3068000Y-5608000D01*
X3068000Y-5568000D02*
X3028000Y-5608000D01*
X3028000Y-5822000D02*
X3068000Y-5862000D01*
X3068000Y-5822000D02*
X3028000Y-5862000D01*
X3028000Y-6076000D02*
X3068000Y-6116000D01*
X3068000Y-6076000D02*
X3028000Y-6116000D01*
X3028000Y-6330000D02*
X3068000Y-6370000D01*
X3068000Y-6330000D02*
X3028000Y-6370000D01*
X3028000Y-6584000D02*
X3068000Y-6624000D01*
X3068000Y-6584000D02*
X3028000Y-6624000D01*
X3028000Y-6838000D02*
X3068000Y-6878000D01*
X3068000Y-6838000D02*
X3028000Y-6878000D01*
X3028000Y-7092000D02*
X3068000Y-7132000D01*
X3068000Y-7092000D02*
X3028000Y-7132000D01*
X3028000Y-7600000D02*
X3068000Y-7640000D01*
X3068000Y-7600000D02*
X3028000Y-7640000D01*
X3028000Y-7854000D02*
X3068000Y-7894000D01*
X3068000Y-7854000D02*
X3028000Y-7894000D01*
X3028000Y-8108000D02*
X3068000Y-8148000D01*
X3068000Y-8108000D02*
X3028000Y-8148000D01*
X3028000Y-8362000D02*
X3068000Y-8402000D01*
X3068000Y-8362000D02*
X3028000Y-8402000D01*
X3028000Y-8616000D02*
X3068000Y-8656000D01*
X3068000Y-8616000D02*
X3028000Y-8656000D01*
X3028000Y-8870000D02*
X3068000Y-8910000D01*
X3068000Y-8870000D02*
X3028000Y-8910000D01*
X3028000Y-9124000D02*
X3068000Y-9164000D01*
X3068000Y-9124000D02*
X3028000Y-9164000D01*
X3028000Y-9378000D02*
X3068000Y-9418000D01*
X3068000Y-9378000D02*
X3028000Y-9418000D01*
X3028000Y-9632000D02*
X3068000Y-9672000D01*
X3068000Y-9632000D02*
X3028000Y-9672000D01*
X3028000Y-9886000D02*
X3068000Y-9926000D01*
X3068000Y-9886000D02*
X3028000Y-9926000D01*
X3028000Y-10140000D02*
X3068000Y-10180000D01*
X3068000Y-10140000D02*
X3028000Y-10180000D01*
X3028000Y-10394000D02*
X3068000Y-10434000D01*
X3068000Y-10394000D02*
X3028000Y-10434000D01*
X3028000Y-10648000D02*
X3068000Y-10688000D01*
X3068000Y-10648000D02*
X3028000Y-10688000D01*
X3028000Y-10902000D02*
X3068000Y-10942000D01*
X3068000Y-10902000D02*
X3028000Y-10942000D01*
X3028000Y-11156000D02*
X3068000Y-11196000D01*
X3068000Y-11156000D02*
X3028000Y-11196000D01*
X3078800Y-2570800D02*
X3118800Y-2610800D01*
X3118800Y-2570800D02*
X3078800Y-2610800D01*
X3082594Y-2897206D02*
X3122594Y-2937206D01*
X3122594Y-2897206D02*
X3082594Y-2937206D01*
X3231200Y-7765100D02*
X3271200Y-7805100D01*
X3271200Y-7765100D02*
X3231200Y-7805100D01*
X3263100Y-1624500D02*
X3303100Y-1664500D01*
X3303100Y-1624500D02*
X3263100Y-1664500D01*
X3282000Y-3536000D02*
X3322000Y-3576000D01*
X3322000Y-3536000D02*
X3282000Y-3576000D01*
X3282000Y-4552000D02*
X3322000Y-4592000D01*
X3322000Y-4552000D02*
X3282000Y-4592000D01*
X3282000Y-5060000D02*
X3322000Y-5100000D01*
X3322000Y-5060000D02*
X3282000Y-5100000D01*
X3282000Y-5314000D02*
X3322000Y-5354000D01*
X3322000Y-5314000D02*
X3282000Y-5354000D01*
X3282000Y-5568000D02*
X3322000Y-5608000D01*
X3322000Y-5568000D02*
X3282000Y-5608000D01*
X3282000Y-5822000D02*
X3322000Y-5862000D01*
X3322000Y-5822000D02*
X3282000Y-5862000D01*
X3282000Y-6076000D02*
X3322000Y-6116000D01*
X3322000Y-6076000D02*
X3282000Y-6116000D01*
X3282000Y-8108000D02*
X3322000Y-8148000D01*
X3322000Y-8108000D02*
X3282000Y-8148000D01*
X3282000Y-8362000D02*
X3322000Y-8402000D01*
X3322000Y-8362000D02*
X3282000Y-8402000D01*
X3282000Y-8616000D02*
X3322000Y-8656000D01*
X3322000Y-8616000D02*
X3282000Y-8656000D01*
X3282000Y-8870000D02*
X3322000Y-8910000D01*
X3322000Y-8870000D02*
X3282000Y-8910000D01*
X3282000Y-9124000D02*
X3322000Y-9164000D01*
X3322000Y-9124000D02*
X3282000Y-9164000D01*
X3282000Y-9378000D02*
X3322000Y-9418000D01*
X3322000Y-9378000D02*
X3282000Y-9418000D01*
X3282000Y-9632000D02*
X3322000Y-9672000D01*
X3322000Y-9632000D02*
X3282000Y-9672000D01*
X3282000Y-9886000D02*
X3322000Y-9926000D01*
X3322000Y-9886000D02*
X3282000Y-9926000D01*
X3282000Y-10140000D02*
X3322000Y-10180000D01*
X3322000Y-10140000D02*
X3282000Y-10180000D01*
X3282000Y-10140000D02*
X3322000Y-10180000D01*
X3322000Y-10140000D02*
X3282000Y-10180000D01*
X3282000Y-10394000D02*
X3322000Y-10434000D01*
X3322000Y-10394000D02*
X3282000Y-10434000D01*
X3282000Y-10648000D02*
X3322000Y-10688000D01*
X3322000Y-10648000D02*
X3282000Y-10688000D01*
X3358200Y-7523800D02*
X3398200Y-7563800D01*
X3398200Y-7523800D02*
X3358200Y-7563800D01*
X3459800Y-6507800D02*
X3499800Y-6547800D01*
X3499800Y-6507800D02*
X3459800Y-6547800D01*
X3459800Y-7452200D02*
X3499800Y-7492200D01*
X3499800Y-7452200D02*
X3459800Y-7492200D01*
X3483750Y-4499750D02*
X3523750Y-4539750D01*
X3523750Y-4499750D02*
X3483750Y-4539750D01*
X3485200Y-10622600D02*
X3525200Y-10662600D01*
X3525200Y-10622600D02*
X3485200Y-10662600D01*
X3494000Y-7045100D02*
X3534000Y-7085100D01*
X3534000Y-7045100D02*
X3494000Y-7085100D01*
X3502299Y-7553599D02*
X3542299Y-7593599D01*
X3542299Y-7553599D02*
X3502299Y-7593599D01*
X3510600Y-2774000D02*
X3550600Y-2814000D01*
X3550600Y-2774000D02*
X3510600Y-2814000D01*
X3536000Y-2291400D02*
X3576000Y-2331400D01*
X3576000Y-2291400D02*
X3536000Y-2331400D01*
X3536000Y-2520000D02*
X3576000Y-2560000D01*
X3576000Y-2520000D02*
X3536000Y-2560000D01*
X3536000Y-4044000D02*
X3576000Y-4084000D01*
X3576000Y-4044000D02*
X3536000Y-4084000D01*
X3536000Y-4298000D02*
X3576000Y-4338000D01*
X3576000Y-4298000D02*
X3536000Y-4338000D01*
X3536000Y-4806000D02*
X3576000Y-4846000D01*
X3576000Y-4806000D02*
X3536000Y-4846000D01*
X3536000Y-5060000D02*
X3576000Y-5100000D01*
X3576000Y-5060000D02*
X3536000Y-5100000D01*
X3536000Y-8108000D02*
X3576000Y-8148000D01*
X3576000Y-8108000D02*
X3536000Y-8148000D01*
X3536000Y-8362000D02*
X3576000Y-8402000D01*
X3576000Y-8362000D02*
X3536000Y-8402000D01*
X3536000Y-8616000D02*
X3576000Y-8656000D01*
X3576000Y-8616000D02*
X3536000Y-8656000D01*
X3536000Y-8870000D02*
X3576000Y-8910000D01*
X3576000Y-8870000D02*
X3536000Y-8910000D01*
X3536000Y-9124000D02*
X3576000Y-9164000D01*
X3576000Y-9124000D02*
X3536000Y-9164000D01*
X3536000Y-9378000D02*
X3576000Y-9418000D01*
X3576000Y-9378000D02*
X3536000Y-9418000D01*
X3536000Y-9632000D02*
X3576000Y-9672000D01*
X3576000Y-9632000D02*
X3536000Y-9672000D01*
X3536000Y-9886000D02*
X3576000Y-9926000D01*
X3576000Y-9886000D02*
X3536000Y-9926000D01*
X3536000Y-10140000D02*
X3576000Y-10180000D01*
X3576000Y-10140000D02*
X3536000Y-10180000D01*
X3570200Y-7121300D02*
X3610200Y-7161300D01*
X3610200Y-7121300D02*
X3570200Y-7161300D01*
X3618700Y-1624500D02*
X3658700Y-1664500D01*
X3658700Y-1624500D02*
X3618700Y-1664500D01*
X3663000Y-6330000D02*
X3703000Y-6370000D01*
X3703000Y-6330000D02*
X3663000Y-6370000D01*
X3663000Y-10317800D02*
X3703000Y-10357800D01*
X3703000Y-10317800D02*
X3663000Y-10357800D01*
X3672000Y-6867100D02*
X3712000Y-6907100D01*
X3712000Y-6867100D02*
X3672000Y-6907100D01*
X3672000Y-6981400D02*
X3712000Y-7021400D01*
X3712000Y-6981400D02*
X3672000Y-7021400D01*
X3790000Y-2520000D02*
X3830000Y-2560000D01*
X3830000Y-2520000D02*
X3790000Y-2560000D01*
X3790000Y-2774000D02*
X3830000Y-2814000D01*
X3830000Y-2774000D02*
X3790000Y-2814000D01*
X3790000Y-3028000D02*
X3830000Y-3068000D01*
X3830000Y-3028000D02*
X3790000Y-3068000D01*
X3790000Y-6203000D02*
X3830000Y-6243000D01*
X3830000Y-6203000D02*
X3790000Y-6243000D01*
X3790000Y-6330000D02*
X3830000Y-6370000D01*
X3830000Y-6330000D02*
X3790000Y-6370000D01*
X3790000Y-6457000D02*
X3830000Y-6497000D01*
X3830000Y-6457000D02*
X3790000Y-6497000D01*
X3790000Y-10902000D02*
X3830000Y-10942000D01*
X3830000Y-10902000D02*
X3790000Y-10942000D01*
X3790000Y-11156000D02*
X3830000Y-11196000D01*
X3830000Y-11156000D02*
X3790000Y-11196000D01*
X3793000Y-1805800D02*
X3833000Y-1845800D01*
X3833000Y-1805800D02*
X3793000Y-1845800D01*
X3837379Y-6930321D02*
X3877379Y-6970321D01*
X3877379Y-6930321D02*
X3837379Y-6970321D01*
X3878900Y-5707700D02*
X3918900Y-5747700D01*
X3918900Y-5707700D02*
X3878900Y-5747700D01*
X3917000Y-7409500D02*
X3957000Y-7449500D01*
X3957000Y-7409500D02*
X3917000Y-7449500D01*
X4031300Y-6799900D02*
X4071300Y-6839900D01*
X4071300Y-6799900D02*
X4031300Y-6839900D01*
X4044000Y-2520000D02*
X4084000Y-2560000D01*
X4084000Y-2520000D02*
X4044000Y-2560000D01*
X4044000Y-2774000D02*
X4084000Y-2814000D01*
X4084000Y-2774000D02*
X4044000Y-2814000D01*
X4044000Y-3028000D02*
X4084000Y-3068000D01*
X4084000Y-3028000D02*
X4044000Y-3068000D01*
X4044000Y-3282000D02*
X4084000Y-3322000D01*
X4084000Y-3282000D02*
X4044000Y-3322000D01*
X4044000Y-4044000D02*
X4084000Y-4084000D01*
X4084000Y-4044000D02*
X4044000Y-4084000D01*
X4044000Y-4298000D02*
X4084000Y-4338000D01*
X4084000Y-4298000D02*
X4044000Y-4338000D01*
X4044000Y-4552000D02*
X4084000Y-4592000D01*
X4084000Y-4552000D02*
X4044000Y-4592000D01*
X4044000Y-4806000D02*
X4084000Y-4846000D01*
X4084000Y-4806000D02*
X4044000Y-4846000D01*
X4044000Y-5060000D02*
X4084000Y-5100000D01*
X4084000Y-5060000D02*
X4044000Y-5100000D01*
X4044000Y-6076000D02*
X4084000Y-6116000D01*
X4084000Y-6076000D02*
X4044000Y-6116000D01*
X4044000Y-6203000D02*
X4084000Y-6243000D01*
X4084000Y-6203000D02*
X4044000Y-6243000D01*
X4044000Y-6330000D02*
X4084000Y-6370000D01*
X4084000Y-6330000D02*
X4044000Y-6370000D01*
X4044000Y-6457000D02*
X4084000Y-6497000D01*
X4084000Y-6457000D02*
X4044000Y-6497000D01*
X4044000Y-6584000D02*
X4084000Y-6624000D01*
X4084000Y-6584000D02*
X4044000Y-6624000D01*
X4044000Y-7041200D02*
X4084000Y-7081200D01*
X4084000Y-7041200D02*
X4044000Y-7081200D01*
X4044000Y-8108000D02*
X4084000Y-8148000D01*
X4084000Y-8108000D02*
X4044000Y-8148000D01*
X4044000Y-8362000D02*
X4084000Y-8402000D01*
X4084000Y-8362000D02*
X4044000Y-8402000D01*
X4044000Y-8616000D02*
X4084000Y-8656000D01*
X4084000Y-8616000D02*
X4044000Y-8656000D01*
X4044000Y-8870000D02*
X4084000Y-8910000D01*
X4084000Y-8870000D02*
X4044000Y-8910000D01*
X4044000Y-9124000D02*
X4084000Y-9164000D01*
X4084000Y-9124000D02*
X4044000Y-9164000D01*
X4044000Y-9378000D02*
X4084000Y-9418000D01*
X4084000Y-9378000D02*
X4044000Y-9418000D01*
X4044000Y-9632000D02*
X4084000Y-9672000D01*
X4084000Y-9632000D02*
X4044000Y-9672000D01*
X4044000Y-10140000D02*
X4084000Y-10180000D01*
X4084000Y-10140000D02*
X4044000Y-10180000D01*
X4044000Y-10394000D02*
X4084000Y-10434000D01*
X4084000Y-10394000D02*
X4044000Y-10434000D01*
X4044000Y-10648000D02*
X4084000Y-10688000D01*
X4084000Y-10648000D02*
X4044000Y-10688000D01*
X4107500Y-7917500D02*
X4147500Y-7957500D01*
X4147500Y-7917500D02*
X4107500Y-7957500D01*
X4112850Y-7797850D02*
X4152850Y-7837850D01*
X4152850Y-7797850D02*
X4112850Y-7837850D01*
X4132900Y-7003100D02*
X4172900Y-7043100D01*
X4172900Y-7003100D02*
X4132900Y-7043100D01*
X4158300Y-6799900D02*
X4198300Y-6839900D01*
X4198300Y-6799900D02*
X4158300Y-6839900D01*
X4158300Y-7663500D02*
X4198300Y-7703500D01*
X4198300Y-7663500D02*
X4158300Y-7703500D01*
X4171000Y-6076000D02*
X4211000Y-6116000D01*
X4211000Y-6076000D02*
X4171000Y-6116000D01*
X4171000Y-6203000D02*
X4211000Y-6243000D01*
X4211000Y-6203000D02*
X4171000Y-6243000D01*
X4171000Y-6330000D02*
X4211000Y-6370000D01*
X4211000Y-6330000D02*
X4171000Y-6370000D01*
X4171000Y-6457000D02*
X4211000Y-6497000D01*
X4211000Y-6457000D02*
X4171000Y-6497000D01*
X4234500Y-7917500D02*
X4274500Y-7957500D01*
X4274500Y-7917500D02*
X4234500Y-7957500D01*
X4247200Y-10622600D02*
X4287200Y-10662600D01*
X4287200Y-10622600D02*
X4247200Y-10662600D01*
X4259900Y-7104700D02*
X4299900Y-7144700D01*
X4299900Y-7104700D02*
X4259900Y-7144700D01*
X4291062Y-3860438D02*
X4331062Y-3900438D01*
X4331062Y-3860438D02*
X4291062Y-3900438D01*
X4294600Y-7268744D02*
X4334600Y-7308744D01*
X4334600Y-7268744D02*
X4294600Y-7308744D01*
X4298000Y-2520000D02*
X4338000Y-2560000D01*
X4338000Y-2520000D02*
X4298000Y-2560000D01*
X4298000Y-2774000D02*
X4338000Y-2814000D01*
X4338000Y-2774000D02*
X4298000Y-2814000D01*
X4298000Y-3028000D02*
X4338000Y-3068000D01*
X4338000Y-3028000D02*
X4298000Y-3068000D01*
X4298000Y-3282000D02*
X4338000Y-3322000D01*
X4338000Y-3282000D02*
X4298000Y-3322000D01*
X4298000Y-3536000D02*
X4338000Y-3576000D01*
X4338000Y-3536000D02*
X4298000Y-3576000D01*
X4298000Y-7701600D02*
X4338000Y-7741600D01*
X4338000Y-7701600D02*
X4298000Y-7741600D01*
X4298000Y-8108000D02*
X4338000Y-8148000D01*
X4338000Y-8108000D02*
X4298000Y-8148000D01*
X4298000Y-8362000D02*
X4338000Y-8402000D01*
X4338000Y-8362000D02*
X4298000Y-8402000D01*
X4298000Y-8616000D02*
X4338000Y-8656000D01*
X4338000Y-8616000D02*
X4298000Y-8656000D01*
X4298000Y-8870000D02*
X4338000Y-8910000D01*
X4338000Y-8870000D02*
X4298000Y-8910000D01*
X4298000Y-9124000D02*
X4338000Y-9164000D01*
X4338000Y-9124000D02*
X4298000Y-9164000D01*
X4298000Y-9378000D02*
X4338000Y-9418000D01*
X4338000Y-9378000D02*
X4298000Y-9418000D01*
X4298000Y-9632000D02*
X4338000Y-9672000D01*
X4338000Y-9632000D02*
X4298000Y-9672000D01*
X4298000Y-9886000D02*
X4338000Y-9926000D01*
X4338000Y-9886000D02*
X4298000Y-9926000D01*
X4348800Y-10343200D02*
X4388800Y-10383200D01*
X4388800Y-10343200D02*
X4348800Y-10383200D01*
X4425000Y-4094800D02*
X4465000Y-4134800D01*
X4465000Y-4094800D02*
X4425000Y-4134800D01*
X4425000Y-6076000D02*
X4465000Y-6116000D01*
X4465000Y-6076000D02*
X4425000Y-6116000D01*
X4425000Y-6203000D02*
X4465000Y-6243000D01*
X4465000Y-6203000D02*
X4425000Y-6243000D01*
X4437700Y-6955798D02*
X4477700Y-6995798D01*
X4477700Y-6955798D02*
X4437700Y-6995798D01*
X4437700Y-7269282D02*
X4477700Y-7309282D01*
X4477700Y-7269282D02*
X4437700Y-7309282D01*
X4450400Y-3866200D02*
X4490400Y-3906200D01*
X4490400Y-3866200D02*
X4450400Y-3906200D01*
X4501200Y-7701600D02*
X4541200Y-7741600D01*
X4541200Y-7701600D02*
X4501200Y-7741600D01*
X4501200Y-7917500D02*
X4541200Y-7957500D01*
X4541200Y-7917500D02*
X4501200Y-7957500D01*
X4552000Y-1758000D02*
X4592000Y-1798000D01*
X4592000Y-1758000D02*
X4552000Y-1798000D01*
X4552000Y-2520000D02*
X4592000Y-2560000D01*
X4592000Y-2520000D02*
X4552000Y-2560000D01*
X4552000Y-2520000D02*
X4592000Y-2560000D01*
X4592000Y-2520000D02*
X4552000Y-2560000D01*
X4552000Y-2774000D02*
X4592000Y-2814000D01*
X4592000Y-2774000D02*
X4552000Y-2814000D01*
X4552000Y-3028000D02*
X4592000Y-3068000D01*
X4592000Y-3028000D02*
X4552000Y-3068000D01*
X4552000Y-3282000D02*
X4592000Y-3322000D01*
X4592000Y-3282000D02*
X4552000Y-3322000D01*
X4552000Y-3536000D02*
X4592000Y-3576000D01*
X4592000Y-3536000D02*
X4552000Y-3576000D01*
X4552000Y-3790000D02*
X4592000Y-3830000D01*
X4592000Y-3790000D02*
X4552000Y-3830000D01*
X4552000Y-4552000D02*
X4592000Y-4592000D01*
X4592000Y-4552000D02*
X4552000Y-4592000D01*
X4552000Y-4806000D02*
X4592000Y-4846000D01*
X4592000Y-4806000D02*
X4552000Y-4846000D01*
X4552000Y-5060000D02*
X4592000Y-5100000D01*
X4592000Y-5060000D02*
X4552000Y-5100000D01*
X4552000Y-6076000D02*
X4592000Y-6116000D01*
X4592000Y-6076000D02*
X4552000Y-6116000D01*
X4552000Y-8108000D02*
X4592000Y-8148000D01*
X4592000Y-8108000D02*
X4552000Y-8148000D01*
X4552000Y-8362000D02*
X4592000Y-8402000D01*
X4592000Y-8362000D02*
X4552000Y-8402000D01*
X4552000Y-8616000D02*
X4592000Y-8656000D01*
X4592000Y-8616000D02*
X4552000Y-8656000D01*
X4552000Y-8616000D02*
X4592000Y-8656000D01*
X4592000Y-8616000D02*
X4552000Y-8656000D01*
X4552000Y-8870000D02*
X4592000Y-8910000D01*
X4592000Y-8870000D02*
X4552000Y-8910000D01*
X4552000Y-9124000D02*
X4592000Y-9164000D01*
X4592000Y-9124000D02*
X4552000Y-9164000D01*
X4552000Y-9378000D02*
X4592000Y-9418000D01*
X4592000Y-9378000D02*
X4552000Y-9418000D01*
X4552000Y-9632000D02*
X4592000Y-9672000D01*
X4592000Y-9632000D02*
X4552000Y-9672000D01*
X4552000Y-9886000D02*
X4592000Y-9926000D01*
X4592000Y-9886000D02*
X4552000Y-9926000D01*
X4552000Y-10140000D02*
X4592000Y-10180000D01*
X4592000Y-10140000D02*
X4552000Y-10180000D01*
X4552000Y-10648000D02*
X4592000Y-10688000D01*
X4592000Y-10648000D02*
X4552000Y-10688000D01*
X4552000Y-10902000D02*
X4592000Y-10942000D01*
X4592000Y-10902000D02*
X4552000Y-10942000D01*
X4552000Y-11156000D02*
X4592000Y-11196000D01*
X4592000Y-11156000D02*
X4552000Y-11196000D01*
X4567332Y-7310531D02*
X4607332Y-7350531D01*
X4607332Y-7310531D02*
X4567332Y-7350531D01*
X4638269Y-7381468D02*
X4678269Y-7421468D01*
X4678269Y-7381468D02*
X4638269Y-7421468D01*
X4679000Y-6711000D02*
X4719000Y-6751000D01*
X4719000Y-6711000D02*
X4679000Y-6751000D01*
X4806000Y-1758000D02*
X4846000Y-1798000D01*
X4846000Y-1758000D02*
X4806000Y-1798000D01*
X4806000Y-4298000D02*
X4846000Y-4338000D01*
X4846000Y-4298000D02*
X4806000Y-4338000D01*
X4806000Y-4552000D02*
X4846000Y-4592000D01*
X4846000Y-4552000D02*
X4806000Y-4592000D01*
X4806000Y-4806000D02*
X4846000Y-4846000D01*
X4846000Y-4806000D02*
X4806000Y-4846000D01*
X4806000Y-5060000D02*
X4846000Y-5100000D01*
X4846000Y-5060000D02*
X4806000Y-5100000D01*
X4806000Y-6584000D02*
X4846000Y-6624000D01*
X4846000Y-6584000D02*
X4806000Y-6624000D01*
X4806000Y-8108000D02*
X4846000Y-8148000D01*
X4846000Y-8108000D02*
X4806000Y-8148000D01*
X4806000Y-8362000D02*
X4846000Y-8402000D01*
X4846000Y-8362000D02*
X4806000Y-8402000D01*
X4806000Y-8616000D02*
X4846000Y-8656000D01*
X4846000Y-8616000D02*
X4806000Y-8656000D01*
X4806000Y-8870000D02*
X4846000Y-8910000D01*
X4846000Y-8870000D02*
X4806000Y-8910000D01*
X4806000Y-9124000D02*
X4846000Y-9164000D01*
X4846000Y-9124000D02*
X4806000Y-9164000D01*
X4806000Y-9378000D02*
X4846000Y-9418000D01*
X4846000Y-9378000D02*
X4806000Y-9418000D01*
X4806000Y-9632000D02*
X4846000Y-9672000D01*
X4846000Y-9632000D02*
X4806000Y-9672000D01*
X4806000Y-9886000D02*
X4846000Y-9926000D01*
X4846000Y-9886000D02*
X4806000Y-9926000D01*
X4806000Y-10140000D02*
X4846000Y-10180000D01*
X4846000Y-10140000D02*
X4806000Y-10180000D01*
X4806000Y-10394000D02*
X4846000Y-10434000D01*
X4846000Y-10394000D02*
X4806000Y-10434000D01*
X4831400Y-4069400D02*
X4871400Y-4109400D01*
X4871400Y-4069400D02*
X4831400Y-4109400D01*
X4894900Y-9695500D02*
X4934900Y-9735500D01*
X4934900Y-9695500D02*
X4894900Y-9735500D01*
X4933000Y-6457000D02*
X4973000Y-6497000D01*
X4973000Y-6457000D02*
X4933000Y-6497000D01*
X5009200Y-10622600D02*
X5049200Y-10662600D01*
X5049200Y-10622600D02*
X5009200Y-10662600D01*
X5037900Y-9908100D02*
X5077900Y-9948100D01*
X5077900Y-9908100D02*
X5037900Y-9948100D01*
X5060000Y-1758000D02*
X5100000Y-1798000D01*
X5100000Y-1758000D02*
X5060000Y-1798000D01*
X5060000Y-4552000D02*
X5100000Y-4592000D01*
X5100000Y-4552000D02*
X5060000Y-4592000D01*
X5060000Y-4806000D02*
X5100000Y-4846000D01*
X5100000Y-4806000D02*
X5060000Y-4846000D01*
X5060000Y-6330000D02*
X5100000Y-6370000D01*
X5100000Y-6330000D02*
X5060000Y-6370000D01*
X5060000Y-7092000D02*
X5100000Y-7132000D01*
X5100000Y-7092000D02*
X5060000Y-7132000D01*
X5060000Y-7346000D02*
X5100000Y-7386000D01*
X5100000Y-7346000D02*
X5060000Y-7386000D01*
X5060000Y-7600000D02*
X5100000Y-7640000D01*
X5100000Y-7600000D02*
X5060000Y-7640000D01*
X5060000Y-7854000D02*
X5100000Y-7894000D01*
X5100000Y-7854000D02*
X5060000Y-7894000D01*
X5060000Y-8108000D02*
X5100000Y-8148000D01*
X5100000Y-8108000D02*
X5060000Y-8148000D01*
X5060000Y-8362000D02*
X5100000Y-8402000D01*
X5100000Y-8362000D02*
X5060000Y-8402000D01*
X5060000Y-8616000D02*
X5100000Y-8656000D01*
X5100000Y-8616000D02*
X5060000Y-8656000D01*
X5060000Y-8870000D02*
X5100000Y-8910000D01*
X5100000Y-8870000D02*
X5060000Y-8910000D01*
X5060000Y-9124000D02*
X5100000Y-9164000D01*
X5100000Y-9124000D02*
X5060000Y-9164000D01*
X5060000Y-10140000D02*
X5100000Y-10180000D01*
X5100000Y-10140000D02*
X5060000Y-10180000D01*
X5085400Y-9403400D02*
X5125400Y-9443400D01*
X5125400Y-9403400D02*
X5085400Y-9443400D01*
X5136200Y-3586800D02*
X5176200Y-3626800D01*
X5176200Y-3586800D02*
X5136200Y-3626800D01*
X5187000Y-6203000D02*
X5227000Y-6243000D01*
X5227000Y-6203000D02*
X5187000Y-6243000D01*
X5187000Y-10317800D02*
X5227000Y-10357800D01*
X5227000Y-10317800D02*
X5187000Y-10357800D01*
X5212400Y-3764600D02*
X5252400Y-3804600D01*
X5252400Y-3764600D02*
X5212400Y-3804600D01*
X5212400Y-3866200D02*
X5252400Y-3906200D01*
X5252400Y-3866200D02*
X5212400Y-3906200D01*
X5314000Y-1758000D02*
X5354000Y-1798000D01*
X5354000Y-1758000D02*
X5314000Y-1798000D01*
X5314000Y-3282000D02*
X5354000Y-3322000D01*
X5354000Y-3282000D02*
X5314000Y-3322000D01*
X5314000Y-4298000D02*
X5354000Y-4338000D01*
X5354000Y-4298000D02*
X5314000Y-4338000D01*
X5314000Y-5187000D02*
X5354000Y-5227000D01*
X5354000Y-5187000D02*
X5314000Y-5227000D01*
X5314000Y-5441000D02*
X5354000Y-5481000D01*
X5354000Y-5441000D02*
X5314000Y-5481000D01*
X5314000Y-6076000D02*
X5354000Y-6116000D01*
X5354000Y-6076000D02*
X5314000Y-6116000D01*
X5314000Y-6838000D02*
X5354000Y-6878000D01*
X5354000Y-6838000D02*
X5314000Y-6878000D01*
X5314000Y-7092000D02*
X5354000Y-7132000D01*
X5354000Y-7092000D02*
X5314000Y-7132000D01*
X5314000Y-7346000D02*
X5354000Y-7386000D01*
X5354000Y-7346000D02*
X5314000Y-7386000D01*
X5314000Y-7600000D02*
X5354000Y-7640000D01*
X5354000Y-7600000D02*
X5314000Y-7640000D01*
X5314000Y-7854000D02*
X5354000Y-7894000D01*
X5354000Y-7854000D02*
X5314000Y-7894000D01*
X5314000Y-8108000D02*
X5354000Y-8148000D01*
X5354000Y-8108000D02*
X5314000Y-8148000D01*
X5314000Y-8362000D02*
X5354000Y-8402000D01*
X5354000Y-8362000D02*
X5314000Y-8402000D01*
X5314000Y-8616000D02*
X5354000Y-8656000D01*
X5354000Y-8616000D02*
X5314000Y-8656000D01*
X5314000Y-8870000D02*
X5354000Y-8910000D01*
X5354000Y-8870000D02*
X5314000Y-8910000D01*
X5314000Y-9886000D02*
X5354000Y-9926000D01*
X5354000Y-9886000D02*
X5314000Y-9926000D01*
X5314000Y-10140000D02*
X5354000Y-10180000D01*
X5354000Y-10140000D02*
X5314000Y-10180000D01*
X5314000Y-10394000D02*
X5354000Y-10434000D01*
X5354000Y-10394000D02*
X5314000Y-10434000D01*
X5314000Y-10648000D02*
X5354000Y-10688000D01*
X5354000Y-10648000D02*
X5314000Y-10688000D01*
X5314000Y-10902000D02*
X5354000Y-10942000D01*
X5354000Y-10902000D02*
X5314000Y-10942000D01*
X5314000Y-11156000D02*
X5354000Y-11196000D01*
X5354000Y-11156000D02*
X5314000Y-11196000D01*
X5377500Y-4450400D02*
X5417500Y-4490400D01*
X5417500Y-4450400D02*
X5377500Y-4490400D01*
X5441000Y-3473508D02*
X5481000Y-3513508D01*
X5481000Y-3473508D02*
X5441000Y-3513508D01*
X5441000Y-5060000D02*
X5481000Y-5100000D01*
X5481000Y-5060000D02*
X5441000Y-5100000D01*
X5441000Y-5187000D02*
X5481000Y-5227000D01*
X5481000Y-5187000D02*
X5441000Y-5227000D01*
X5441000Y-5314000D02*
X5481000Y-5354000D01*
X5481000Y-5314000D02*
X5441000Y-5354000D01*
X5441000Y-5441000D02*
X5481000Y-5481000D01*
X5481000Y-5441000D02*
X5441000Y-5481000D01*
X5441000Y-5568000D02*
X5481000Y-5608000D01*
X5481000Y-5568000D02*
X5441000Y-5608000D01*
X5441000Y-5949000D02*
X5481000Y-5989000D01*
X5481000Y-5949000D02*
X5441000Y-5989000D01*
X5475051Y-4445842D02*
X5515051Y-4485842D01*
X5515051Y-4445842D02*
X5475051Y-4485842D01*
X5483540Y-4348800D02*
X5523540Y-4388800D01*
X5523540Y-4348800D02*
X5483540Y-4388800D01*
X5539550Y-4110550D02*
X5579550Y-4150550D01*
X5579550Y-4110550D02*
X5539550Y-4150550D01*
X5545900Y-3717100D02*
X5585900Y-3757100D01*
X5585900Y-3717100D02*
X5545900Y-3757100D01*
X5568000Y-1758000D02*
X5608000Y-1798000D01*
X5608000Y-1758000D02*
X5568000Y-1798000D01*
X5568000Y-6584000D02*
X5608000Y-6624000D01*
X5608000Y-6584000D02*
X5568000Y-6624000D01*
X5568000Y-6838000D02*
X5608000Y-6878000D01*
X5608000Y-6838000D02*
X5568000Y-6878000D01*
X5568000Y-7092000D02*
X5608000Y-7132000D01*
X5608000Y-7092000D02*
X5568000Y-7132000D01*
X5568000Y-7346000D02*
X5608000Y-7386000D01*
X5608000Y-7346000D02*
X5568000Y-7386000D01*
X5568000Y-7600000D02*
X5608000Y-7640000D01*
X5608000Y-7600000D02*
X5568000Y-7640000D01*
X5568000Y-7854000D02*
X5608000Y-7894000D01*
X5608000Y-7854000D02*
X5568000Y-7894000D01*
X5568000Y-8108000D02*
X5608000Y-8148000D01*
X5608000Y-8108000D02*
X5568000Y-8148000D01*
X5568000Y-8362000D02*
X5608000Y-8402000D01*
X5608000Y-8362000D02*
X5568000Y-8402000D01*
X5568000Y-8616000D02*
X5608000Y-8656000D01*
X5608000Y-8616000D02*
X5568000Y-8656000D01*
X5568000Y-8870000D02*
X5608000Y-8910000D01*
X5608000Y-8870000D02*
X5568000Y-8910000D01*
X5568000Y-9378000D02*
X5608000Y-9418000D01*
X5608000Y-9378000D02*
X5568000Y-9418000D01*
X5568000Y-9632000D02*
X5608000Y-9672000D01*
X5608000Y-9632000D02*
X5568000Y-9672000D01*
X5568000Y-9886000D02*
X5608000Y-9926000D01*
X5608000Y-9886000D02*
X5568000Y-9926000D01*
X5568000Y-10140000D02*
X5608000Y-10180000D01*
X5608000Y-10140000D02*
X5568000Y-10180000D01*
X5568000Y-10394000D02*
X5608000Y-10434000D01*
X5608000Y-10394000D02*
X5568000Y-10434000D01*
X5568000Y-10648000D02*
X5608000Y-10688000D01*
X5608000Y-10648000D02*
X5568000Y-10688000D01*
X5579256Y-4766456D02*
X5619256Y-4806456D01*
X5619256Y-4766456D02*
X5579256Y-4806456D01*
X5606300Y-10775000D02*
X5646300Y-10815000D01*
X5646300Y-10775000D02*
X5606300Y-10815000D01*
X5631500Y-11029000D02*
X5671500Y-11069000D01*
X5671500Y-11029000D02*
X5631500Y-11069000D01*
X5720400Y-6025200D02*
X5760400Y-6065200D01*
X5760400Y-6025200D02*
X5720400Y-6065200D01*
X5733100Y-5326700D02*
X5773100Y-5366700D01*
X5773100Y-5326700D02*
X5733100Y-5366700D01*
X5771200Y-4780600D02*
X5811200Y-4820600D01*
X5811200Y-4780600D02*
X5771200Y-4820600D01*
X5822000Y-1758000D02*
X5862000Y-1798000D01*
X5862000Y-1758000D02*
X5822000Y-1798000D01*
X5822000Y-3028000D02*
X5862000Y-3068000D01*
X5862000Y-3028000D02*
X5822000Y-3068000D01*
X5822000Y-3282000D02*
X5862000Y-3322000D01*
X5862000Y-3282000D02*
X5822000Y-3322000D01*
X5822000Y-6330000D02*
X5862000Y-6370000D01*
X5862000Y-6330000D02*
X5822000Y-6370000D01*
X5822000Y-6584000D02*
X5862000Y-6624000D01*
X5862000Y-6584000D02*
X5822000Y-6624000D01*
X5822000Y-6838000D02*
X5862000Y-6878000D01*
X5862000Y-6838000D02*
X5822000Y-6878000D01*
X5822000Y-7092000D02*
X5862000Y-7132000D01*
X5862000Y-7092000D02*
X5822000Y-7132000D01*
X5822000Y-7346000D02*
X5862000Y-7386000D01*
X5862000Y-7346000D02*
X5822000Y-7386000D01*
X5822000Y-7600000D02*
X5862000Y-7640000D01*
X5862000Y-7600000D02*
X5822000Y-7640000D01*
X5822000Y-7854000D02*
X5862000Y-7894000D01*
X5862000Y-7854000D02*
X5822000Y-7894000D01*
X5822000Y-8108000D02*
X5862000Y-8148000D01*
X5862000Y-8108000D02*
X5822000Y-8148000D01*
X5822000Y-8362000D02*
X5862000Y-8402000D01*
X5862000Y-8362000D02*
X5822000Y-8402000D01*
X5822000Y-8616000D02*
X5862000Y-8656000D01*
X5862000Y-8616000D02*
X5822000Y-8656000D01*
X5822000Y-8870000D02*
X5862000Y-8910000D01*
X5862000Y-8870000D02*
X5822000Y-8910000D01*
X5822000Y-9886000D02*
X5862000Y-9926000D01*
X5862000Y-9886000D02*
X5822000Y-9926000D01*
X5822000Y-10140000D02*
X5862000Y-10180000D01*
X5862000Y-10140000D02*
X5822000Y-10180000D01*
X5822000Y-10394000D02*
X5862000Y-10434000D01*
X5862000Y-10394000D02*
X5822000Y-10434000D01*
X5822000Y-10648000D02*
X5862000Y-10688000D01*
X5862000Y-10648000D02*
X5822000Y-10688000D01*
X5917450Y-5828150D02*
X5957450Y-5868150D01*
X5957450Y-5828150D02*
X5917450Y-5868150D01*
X5949000Y-9301800D02*
X5989000Y-9341800D01*
X5989000Y-9301800D02*
X5949000Y-9341800D01*
X5961700Y-4818700D02*
X6001700Y-4858700D01*
X6001700Y-4818700D02*
X5961700Y-4858700D01*
X6076000Y-1758000D02*
X6116000Y-1798000D01*
X6116000Y-1758000D02*
X6076000Y-1798000D01*
X6076000Y-3028000D02*
X6116000Y-3068000D01*
X6116000Y-3028000D02*
X6076000Y-3068000D01*
X6076000Y-3282000D02*
X6116000Y-3322000D01*
X6116000Y-3282000D02*
X6076000Y-3322000D01*
X6076000Y-3536000D02*
X6116000Y-3576000D01*
X6116000Y-3536000D02*
X6076000Y-3576000D01*
X6076000Y-4298000D02*
X6116000Y-4338000D01*
X6116000Y-4298000D02*
X6076000Y-4338000D01*
X6076000Y-6330000D02*
X6116000Y-6370000D01*
X6116000Y-6330000D02*
X6076000Y-6370000D01*
X6076000Y-6584000D02*
X6116000Y-6624000D01*
X6116000Y-6584000D02*
X6076000Y-6624000D01*
X6076000Y-6838000D02*
X6116000Y-6878000D01*
X6116000Y-6838000D02*
X6076000Y-6878000D01*
X6076000Y-7092000D02*
X6116000Y-7132000D01*
X6116000Y-7092000D02*
X6076000Y-7132000D01*
X6076000Y-7346000D02*
X6116000Y-7386000D01*
X6116000Y-7346000D02*
X6076000Y-7386000D01*
X6076000Y-7600000D02*
X6116000Y-7640000D01*
X6116000Y-7600000D02*
X6076000Y-7640000D01*
X6076000Y-7854000D02*
X6116000Y-7894000D01*
X6116000Y-7854000D02*
X6076000Y-7894000D01*
X6076000Y-8108000D02*
X6116000Y-8148000D01*
X6116000Y-8108000D02*
X6076000Y-8148000D01*
X6076000Y-8362000D02*
X6116000Y-8402000D01*
X6116000Y-8362000D02*
X6076000Y-8402000D01*
X6076000Y-8616000D02*
X6116000Y-8656000D01*
X6116000Y-8616000D02*
X6076000Y-8656000D01*
X6076000Y-8870000D02*
X6116000Y-8910000D01*
X6116000Y-8870000D02*
X6076000Y-8910000D01*
X6076000Y-10394000D02*
X6116000Y-10434000D01*
X6116000Y-10394000D02*
X6076000Y-10434000D01*
X6101400Y-10775000D02*
X6141400Y-10815000D01*
X6141400Y-10775000D02*
X6101400Y-10815000D01*
X6152200Y-4780600D02*
X6192200Y-4820600D01*
X6192200Y-4780600D02*
X6152200Y-4820600D01*
X6203000Y-11079800D02*
X6243000Y-11119800D01*
X6243000Y-11079800D02*
X6203000Y-11119800D01*
X6330000Y-1758000D02*
X6370000Y-1798000D01*
X6370000Y-1758000D02*
X6330000Y-1798000D01*
X6330000Y-3028000D02*
X6370000Y-3068000D01*
X6370000Y-3028000D02*
X6330000Y-3068000D01*
X6330000Y-3282000D02*
X6370000Y-3322000D01*
X6370000Y-3282000D02*
X6330000Y-3322000D01*
X6330000Y-3536000D02*
X6370000Y-3576000D01*
X6370000Y-3536000D02*
X6330000Y-3576000D01*
X6330000Y-4298000D02*
X6370000Y-4338000D01*
X6370000Y-4298000D02*
X6330000Y-4338000D01*
X6330000Y-5415600D02*
X6370000Y-5455600D01*
X6370000Y-5415600D02*
X6330000Y-5455600D01*
X6330000Y-5949000D02*
X6370000Y-5989000D01*
X6370000Y-5949000D02*
X6330000Y-5989000D01*
X6330000Y-6584000D02*
X6370000Y-6624000D01*
X6370000Y-6584000D02*
X6330000Y-6624000D01*
X6330000Y-6838000D02*
X6370000Y-6878000D01*
X6370000Y-6838000D02*
X6330000Y-6878000D01*
X6330000Y-7092000D02*
X6370000Y-7132000D01*
X6370000Y-7092000D02*
X6330000Y-7132000D01*
X6330000Y-7346000D02*
X6370000Y-7386000D01*
X6370000Y-7346000D02*
X6330000Y-7386000D01*
X6330000Y-7600000D02*
X6370000Y-7640000D01*
X6370000Y-7600000D02*
X6330000Y-7640000D01*
X6330000Y-7854000D02*
X6370000Y-7894000D01*
X6370000Y-7854000D02*
X6330000Y-7894000D01*
X6330000Y-8108000D02*
X6370000Y-8148000D01*
X6370000Y-8108000D02*
X6330000Y-8148000D01*
X6330000Y-8362000D02*
X6370000Y-8402000D01*
X6370000Y-8362000D02*
X6330000Y-8402000D01*
X6330000Y-8616000D02*
X6370000Y-8656000D01*
X6370000Y-8616000D02*
X6330000Y-8656000D01*
X6330000Y-8870000D02*
X6370000Y-8910000D01*
X6370000Y-8870000D02*
X6330000Y-8910000D01*
X6330000Y-9124000D02*
X6370000Y-9164000D01*
X6370000Y-9124000D02*
X6330000Y-9164000D01*
X6330000Y-10394000D02*
X6370000Y-10434000D01*
X6370000Y-10394000D02*
X6330000Y-10434000D01*
X6330000Y-10648000D02*
X6370000Y-10688000D01*
X6370000Y-10648000D02*
X6330000Y-10688000D01*
X6355400Y-5517200D02*
X6395400Y-5557200D01*
X6395400Y-5517200D02*
X6355400Y-5557200D01*
X6523429Y-5101029D02*
X6563429Y-5141029D01*
X6563429Y-5101029D02*
X6523429Y-5141029D01*
X6533200Y-4806000D02*
X6573200Y-4846000D01*
X6573200Y-4806000D02*
X6533200Y-4846000D01*
X6558600Y-10013000D02*
X6598600Y-10053000D01*
X6598600Y-10013000D02*
X6558600Y-10053000D01*
X6584000Y-1758000D02*
X6624000Y-1798000D01*
X6624000Y-1758000D02*
X6584000Y-1798000D01*
X6584000Y-4298000D02*
X6624000Y-4338000D01*
X6624000Y-4298000D02*
X6584000Y-4338000D01*
X6584000Y-6838000D02*
X6624000Y-6878000D01*
X6624000Y-6838000D02*
X6584000Y-6878000D01*
X6584000Y-7092000D02*
X6624000Y-7132000D01*
X6624000Y-7092000D02*
X6584000Y-7132000D01*
X6584000Y-7346000D02*
X6624000Y-7386000D01*
X6624000Y-7346000D02*
X6584000Y-7386000D01*
X6584000Y-7600000D02*
X6624000Y-7640000D01*
X6624000Y-7600000D02*
X6584000Y-7640000D01*
X6584000Y-7854000D02*
X6624000Y-7894000D01*
X6624000Y-7854000D02*
X6584000Y-7894000D01*
X6584000Y-8108000D02*
X6624000Y-8148000D01*
X6624000Y-8108000D02*
X6584000Y-8148000D01*
X6584000Y-8362000D02*
X6624000Y-8402000D01*
X6624000Y-8362000D02*
X6584000Y-8402000D01*
X6584000Y-8616000D02*
X6624000Y-8656000D01*
X6624000Y-8616000D02*
X6584000Y-8656000D01*
X6584000Y-8870000D02*
X6624000Y-8910000D01*
X6624000Y-8870000D02*
X6584000Y-8910000D01*
X6584000Y-10394000D02*
X6624000Y-10434000D01*
X6624000Y-10394000D02*
X6584000Y-10434000D01*
X6685600Y-6609400D02*
X6725600Y-6649400D01*
X6725600Y-6609400D02*
X6685600Y-6649400D01*
X6712200Y-5493000D02*
X6752200Y-5533000D01*
X6752200Y-5493000D02*
X6712200Y-5533000D01*
X6728058Y-5606029D02*
X6768058Y-5646029D01*
X6768058Y-5606029D02*
X6728058Y-5646029D01*
X6736400Y-5796600D02*
X6776400Y-5836600D01*
X6776400Y-5796600D02*
X6736400Y-5836600D01*
X6736400Y-6380800D02*
X6776400Y-6420800D01*
X6776400Y-6380800D02*
X6736400Y-6420800D01*
X6824343Y-5825914D02*
X6864343Y-5865914D01*
X6864343Y-5825914D02*
X6824343Y-5865914D01*
X6828229Y-5606029D02*
X6868229Y-5646029D01*
X6868229Y-5606029D02*
X6828229Y-5646029D01*
X6838000Y-1758000D02*
X6878000Y-1798000D01*
X6878000Y-1758000D02*
X6838000Y-1798000D01*
X6838000Y-3028000D02*
X6878000Y-3068000D01*
X6878000Y-3028000D02*
X6838000Y-3068000D01*
X6838000Y-4298000D02*
X6878000Y-4338000D01*
X6878000Y-4298000D02*
X6838000Y-4338000D01*
X6838000Y-7600000D02*
X6878000Y-7640000D01*
X6878000Y-7600000D02*
X6838000Y-7640000D01*
X6838000Y-7854000D02*
X6878000Y-7894000D01*
X6878000Y-7854000D02*
X6838000Y-7894000D01*
X6838000Y-8108000D02*
X6878000Y-8148000D01*
X6878000Y-8108000D02*
X6838000Y-8148000D01*
X6838000Y-8362000D02*
X6878000Y-8402000D01*
X6878000Y-8362000D02*
X6838000Y-8402000D01*
X6838000Y-8616000D02*
X6878000Y-8656000D01*
X6878000Y-8616000D02*
X6838000Y-8656000D01*
X6838000Y-8870000D02*
X6878000Y-8910000D01*
X6878000Y-8870000D02*
X6838000Y-8910000D01*
X6838000Y-9632000D02*
X6878000Y-9672000D01*
X6878000Y-9632000D02*
X6838000Y-9672000D01*
X6838000Y-9886000D02*
X6878000Y-9926000D01*
X6878000Y-9886000D02*
X6838000Y-9926000D01*
X6838000Y-10140000D02*
X6878000Y-10180000D01*
X6878000Y-10140000D02*
X6838000Y-10180000D01*
X6838000Y-10394000D02*
X6878000Y-10434000D01*
X6878000Y-10394000D02*
X6838000Y-10434000D01*
X6838000Y-11130600D02*
X6878000Y-11170600D01*
X6878000Y-11130600D02*
X6838000Y-11170600D01*
X6897500Y-6457000D02*
X6937500Y-6497000D01*
X6937500Y-6457000D02*
X6897500Y-6497000D01*
X6905700Y-10775000D02*
X6945700Y-10815000D01*
X6945700Y-10775000D02*
X6905700Y-10815000D01*
X6914200Y-5872800D02*
X6954200Y-5912800D01*
X6954200Y-5872800D02*
X6914200Y-5912800D01*
X6991331Y-5924221D02*
X7031331Y-5964221D01*
X7031331Y-5924221D02*
X6991331Y-5964221D01*
X7041200Y-4856800D02*
X7081200Y-4896800D01*
X7081200Y-4856800D02*
X7041200Y-4896800D01*
X7092000Y-1758000D02*
X7132000Y-1798000D01*
X7132000Y-1758000D02*
X7092000Y-1798000D01*
X7092000Y-3028000D02*
X7132000Y-3068000D01*
X7132000Y-3028000D02*
X7092000Y-3068000D01*
X7092000Y-3790000D02*
X7132000Y-3830000D01*
X7132000Y-3790000D02*
X7092000Y-3830000D01*
X7092000Y-7600000D02*
X7132000Y-7640000D01*
X7132000Y-7600000D02*
X7092000Y-7640000D01*
X7092000Y-7854000D02*
X7132000Y-7894000D01*
X7132000Y-7854000D02*
X7092000Y-7894000D01*
X7092000Y-8108000D02*
X7132000Y-8148000D01*
X7132000Y-8108000D02*
X7092000Y-8148000D01*
X7092000Y-8362000D02*
X7132000Y-8402000D01*
X7132000Y-8362000D02*
X7092000Y-8402000D01*
X7092000Y-8616000D02*
X7132000Y-8656000D01*
X7132000Y-8616000D02*
X7092000Y-8656000D01*
X7092000Y-8870000D02*
X7132000Y-8910000D01*
X7132000Y-8870000D02*
X7092000Y-8910000D01*
X7092000Y-9124000D02*
X7132000Y-9164000D01*
X7132000Y-9124000D02*
X7092000Y-9164000D01*
X7092000Y-10394000D02*
X7132000Y-10434000D01*
X7132000Y-10394000D02*
X7092000Y-10434000D01*
X7142800Y-5949000D02*
X7182800Y-5989000D01*
X7182800Y-5949000D02*
X7142800Y-5989000D01*
X7219000Y-3497900D02*
X7259000Y-3537900D01*
X7259000Y-3497900D02*
X7219000Y-3537900D01*
X7219000Y-4056700D02*
X7259000Y-4096700D01*
X7259000Y-4056700D02*
X7219000Y-4096700D01*
X7244400Y-5974400D02*
X7284400Y-6014400D01*
X7284400Y-5974400D02*
X7244400Y-6014400D01*
X7296700Y-3002600D02*
X7336700Y-3042600D01*
X7336700Y-3002600D02*
X7296700Y-3042600D01*
X7317600Y-10009400D02*
X7357600Y-10049400D01*
X7357600Y-10009400D02*
X7317600Y-10049400D01*
X7337100Y-5974400D02*
X7377100Y-6014400D01*
X7377100Y-5974400D02*
X7337100Y-6014400D01*
X7346000Y-1758000D02*
X7386000Y-1798000D01*
X7386000Y-1758000D02*
X7346000Y-1798000D01*
X7346000Y-3536000D02*
X7386000Y-3576000D01*
X7386000Y-3536000D02*
X7346000Y-3576000D01*
X7346000Y-3790000D02*
X7386000Y-3830000D01*
X7386000Y-3790000D02*
X7346000Y-3830000D01*
X7346000Y-6330000D02*
X7386000Y-6370000D01*
X7386000Y-6330000D02*
X7346000Y-6370000D01*
X7346000Y-6584000D02*
X7386000Y-6624000D01*
X7386000Y-6584000D02*
X7346000Y-6624000D01*
X7346000Y-7600000D02*
X7386000Y-7640000D01*
X7386000Y-7600000D02*
X7346000Y-7640000D01*
X7346000Y-7854000D02*
X7386000Y-7894000D01*
X7386000Y-7854000D02*
X7346000Y-7894000D01*
X7346000Y-8108000D02*
X7386000Y-8148000D01*
X7386000Y-8108000D02*
X7346000Y-8148000D01*
X7346000Y-8362000D02*
X7386000Y-8402000D01*
X7386000Y-8362000D02*
X7346000Y-8402000D01*
X7346000Y-8616000D02*
X7386000Y-8656000D01*
X7386000Y-8616000D02*
X7346000Y-8656000D01*
X7346000Y-8870000D02*
X7386000Y-8910000D01*
X7386000Y-8870000D02*
X7346000Y-8910000D01*
X7346000Y-9124000D02*
X7386000Y-9164000D01*
X7386000Y-9124000D02*
X7346000Y-9164000D01*
X7346000Y-9378000D02*
X7386000Y-9418000D01*
X7386000Y-9378000D02*
X7346000Y-9418000D01*
X7346000Y-10394000D02*
X7386000Y-10434000D01*
X7386000Y-10394000D02*
X7346000Y-10434000D01*
X7371400Y-11079800D02*
X7411400Y-11119800D01*
X7411400Y-11079800D02*
X7371400Y-11119800D01*
X7396800Y-10775000D02*
X7436800Y-10815000D01*
X7436800Y-10775000D02*
X7396800Y-10815000D01*
X7397421Y-6407131D02*
X7437421Y-6447131D01*
X7437421Y-6407131D02*
X7397421Y-6447131D01*
X7444213Y-5238034D02*
X7484213Y-5278034D01*
X7484213Y-5238034D02*
X7444213Y-5278034D01*
X7473000Y-5355212D02*
X7513000Y-5395212D01*
X7513000Y-5355212D02*
X7473000Y-5395212D01*
X7473000Y-5606029D02*
X7513000Y-5646029D01*
X7513000Y-5606029D02*
X7473000Y-5646029D01*
X7473000Y-5999800D02*
X7513000Y-6039800D01*
X7513000Y-5999800D02*
X7473000Y-6039800D01*
X7475198Y-5896378D02*
X7515198Y-5936378D01*
X7515198Y-5896378D02*
X7475198Y-5936378D01*
X7486298Y-5804344D02*
X7526298Y-5844344D01*
X7526298Y-5804344D02*
X7486298Y-5844344D01*
X7600000Y-1758000D02*
X7640000Y-1798000D01*
X7640000Y-1758000D02*
X7600000Y-1798000D01*
X7600000Y-3028000D02*
X7640000Y-3068000D01*
X7640000Y-3028000D02*
X7600000Y-3068000D01*
X7600000Y-3282000D02*
X7640000Y-3322000D01*
X7640000Y-3282000D02*
X7600000Y-3322000D01*
X7600000Y-3536000D02*
X7640000Y-3576000D01*
X7640000Y-3536000D02*
X7600000Y-3576000D01*
X7600000Y-3790000D02*
X7640000Y-3830000D01*
X7640000Y-3790000D02*
X7600000Y-3830000D01*
X7600000Y-4298000D02*
X7640000Y-4338000D01*
X7640000Y-4298000D02*
X7600000Y-4338000D01*
X7600000Y-7600000D02*
X7640000Y-7640000D01*
X7640000Y-7600000D02*
X7600000Y-7640000D01*
X7600000Y-7854000D02*
X7640000Y-7894000D01*
X7640000Y-7854000D02*
X7600000Y-7894000D01*
X7600000Y-8108000D02*
X7640000Y-8148000D01*
X7640000Y-8108000D02*
X7600000Y-8148000D01*
X7600000Y-8362000D02*
X7640000Y-8402000D01*
X7640000Y-8362000D02*
X7600000Y-8402000D01*
X7600000Y-8616000D02*
X7640000Y-8656000D01*
X7640000Y-8616000D02*
X7600000Y-8656000D01*
X7600000Y-8870000D02*
X7640000Y-8910000D01*
X7640000Y-8870000D02*
X7600000Y-8910000D01*
X7600000Y-9124000D02*
X7640000Y-9164000D01*
X7640000Y-9124000D02*
X7600000Y-9164000D01*
X7600000Y-9378000D02*
X7640000Y-9418000D01*
X7640000Y-9378000D02*
X7600000Y-9418000D01*
X7600000Y-10140000D02*
X7640000Y-10180000D01*
X7640000Y-10140000D02*
X7600000Y-10180000D01*
X7600000Y-10394000D02*
X7640000Y-10434000D01*
X7640000Y-10394000D02*
X7600000Y-10434000D01*
X7600000Y-10648000D02*
X7640000Y-10688000D01*
X7640000Y-10648000D02*
X7600000Y-10688000D01*
X7650800Y-6037900D02*
X7690800Y-6077900D01*
X7690800Y-6037900D02*
X7650800Y-6077900D01*
X7803200Y-6279200D02*
X7843200Y-6319200D01*
X7843200Y-6279200D02*
X7803200Y-6319200D01*
X7825000Y-5343000D02*
X7865000Y-5383000D01*
X7865000Y-5343000D02*
X7825000Y-5383000D01*
X7828600Y-5974400D02*
X7868600Y-6014400D01*
X7868600Y-5974400D02*
X7828600Y-6014400D01*
X7829800Y-5643000D02*
X7869800Y-5683000D01*
X7869800Y-5643000D02*
X7829800Y-5683000D01*
X7854000Y-1758000D02*
X7894000Y-1798000D01*
X7894000Y-1758000D02*
X7854000Y-1798000D01*
X7854000Y-3028000D02*
X7894000Y-3068000D01*
X7894000Y-3028000D02*
X7854000Y-3068000D01*
X7854000Y-3282000D02*
X7894000Y-3322000D01*
X7894000Y-3282000D02*
X7854000Y-3322000D01*
X7854000Y-3536000D02*
X7894000Y-3576000D01*
X7894000Y-3536000D02*
X7854000Y-3576000D01*
X7854000Y-3790000D02*
X7894000Y-3830000D01*
X7894000Y-3790000D02*
X7854000Y-3830000D01*
X7854000Y-4298000D02*
X7894000Y-4338000D01*
X7894000Y-4298000D02*
X7854000Y-4338000D01*
X7854000Y-5060000D02*
X7894000Y-5100000D01*
X7894000Y-5060000D02*
X7854000Y-5100000D01*
X7854000Y-6838000D02*
X7894000Y-6878000D01*
X7894000Y-6838000D02*
X7854000Y-6878000D01*
X7854000Y-7092000D02*
X7894000Y-7132000D01*
X7894000Y-7092000D02*
X7854000Y-7132000D01*
X7854000Y-7346000D02*
X7894000Y-7386000D01*
X7894000Y-7346000D02*
X7854000Y-7386000D01*
X7854000Y-7600000D02*
X7894000Y-7640000D01*
X7894000Y-7600000D02*
X7854000Y-7640000D01*
X7854000Y-7854000D02*
X7894000Y-7894000D01*
X7894000Y-7854000D02*
X7854000Y-7894000D01*
X7854000Y-8108000D02*
X7894000Y-8148000D01*
X7894000Y-8108000D02*
X7854000Y-8148000D01*
X7854000Y-8362000D02*
X7894000Y-8402000D01*
X7894000Y-8362000D02*
X7854000Y-8402000D01*
X7854000Y-8616000D02*
X7894000Y-8656000D01*
X7894000Y-8616000D02*
X7854000Y-8656000D01*
X7854000Y-8870000D02*
X7894000Y-8910000D01*
X7894000Y-8870000D02*
X7854000Y-8910000D01*
X7854000Y-9124000D02*
X7894000Y-9164000D01*
X7894000Y-9124000D02*
X7854000Y-9164000D01*
X7854000Y-9378000D02*
X7894000Y-9418000D01*
X7894000Y-9378000D02*
X7854000Y-9418000D01*
X7854000Y-9632000D02*
X7894000Y-9672000D01*
X7894000Y-9632000D02*
X7854000Y-9672000D01*
X7854000Y-9886000D02*
X7894000Y-9926000D01*
X7894000Y-9886000D02*
X7854000Y-9926000D01*
X7854000Y-10140000D02*
X7894000Y-10180000D01*
X7894000Y-10140000D02*
X7854000Y-10180000D01*
X7854000Y-10394000D02*
X7894000Y-10434000D01*
X7894000Y-10394000D02*
X7854000Y-10434000D01*
X7854000Y-10648000D02*
X7894000Y-10688000D01*
X7894000Y-10648000D02*
X7854000Y-10688000D01*
X7854000Y-10902000D02*
X7894000Y-10942000D01*
X7894000Y-10902000D02*
X7854000Y-10942000D01*
X7854000Y-11156000D02*
X7894000Y-11196000D01*
X7894000Y-11156000D02*
X7854000Y-11196000D01*
X7920131Y-5908268D02*
X7960131Y-5948268D01*
X7960131Y-5908268D02*
X7920131Y-5948268D01*
X7991068Y-5837331D02*
X8031068Y-5877331D01*
X8031068Y-5837331D02*
X7991068Y-5877331D01*
X8066600Y-5584000D02*
X8106600Y-5624000D01*
X8106600Y-5584000D02*
X8066600Y-5624000D01*
X8082600Y-11156000D02*
X8122600Y-11196000D01*
X8122600Y-11156000D02*
X8082600Y-11196000D01*
X8108000Y-1758000D02*
X8148000Y-1798000D01*
X8148000Y-1758000D02*
X8108000Y-1798000D01*
X8108000Y-3028000D02*
X8148000Y-3068000D01*
X8148000Y-3028000D02*
X8108000Y-3068000D01*
X8108000Y-3282000D02*
X8148000Y-3322000D01*
X8148000Y-3282000D02*
X8108000Y-3322000D01*
X8108000Y-3536000D02*
X8148000Y-3576000D01*
X8148000Y-3536000D02*
X8108000Y-3576000D01*
X8108000Y-3790000D02*
X8148000Y-3830000D01*
X8148000Y-3790000D02*
X8108000Y-3830000D01*
X8108000Y-4806000D02*
X8148000Y-4846000D01*
X8148000Y-4806000D02*
X8108000Y-4846000D01*
X8108000Y-5060000D02*
X8148000Y-5100000D01*
X8148000Y-5060000D02*
X8108000Y-5100000D01*
X8108000Y-6584000D02*
X8148000Y-6624000D01*
X8148000Y-6584000D02*
X8108000Y-6624000D01*
X8108000Y-6838000D02*
X8148000Y-6878000D01*
X8148000Y-6838000D02*
X8108000Y-6878000D01*
X8108000Y-7092000D02*
X8148000Y-7132000D01*
X8148000Y-7092000D02*
X8108000Y-7132000D01*
X8108000Y-7346000D02*
X8148000Y-7386000D01*
X8148000Y-7346000D02*
X8108000Y-7386000D01*
X8108000Y-7600000D02*
X8148000Y-7640000D01*
X8148000Y-7600000D02*
X8108000Y-7640000D01*
X8108000Y-7854000D02*
X8148000Y-7894000D01*
X8148000Y-7854000D02*
X8108000Y-7894000D01*
X8108000Y-8108000D02*
X8148000Y-8148000D01*
X8148000Y-8108000D02*
X8108000Y-8148000D01*
X8108000Y-8362000D02*
X8148000Y-8402000D01*
X8148000Y-8362000D02*
X8108000Y-8402000D01*
X8108000Y-8616000D02*
X8148000Y-8656000D01*
X8148000Y-8616000D02*
X8108000Y-8656000D01*
X8108000Y-8870000D02*
X8148000Y-8910000D01*
X8148000Y-8870000D02*
X8108000Y-8910000D01*
X8108000Y-9124000D02*
X8148000Y-9164000D01*
X8148000Y-9124000D02*
X8108000Y-9164000D01*
X8108000Y-9378000D02*
X8148000Y-9418000D01*
X8148000Y-9378000D02*
X8108000Y-9418000D01*
X8108000Y-9632000D02*
X8148000Y-9672000D01*
X8148000Y-9632000D02*
X8108000Y-9672000D01*
X8108000Y-9886000D02*
X8148000Y-9926000D01*
X8148000Y-9886000D02*
X8108000Y-9926000D01*
X8108000Y-10140000D02*
X8148000Y-10180000D01*
X8148000Y-10140000D02*
X8108000Y-10180000D01*
X8108000Y-10394000D02*
X8148000Y-10434000D01*
X8148000Y-10394000D02*
X8108000Y-10434000D01*
X8108000Y-10648000D02*
X8148000Y-10688000D01*
X8148000Y-10648000D02*
X8108000Y-10688000D01*
X8158800Y-10775000D02*
X8198800Y-10815000D01*
X8198800Y-10775000D02*
X8158800Y-10815000D01*
X8235000Y-6126800D02*
X8275000Y-6166800D01*
X8275000Y-6126800D02*
X8235000Y-6166800D01*
X8362000Y-1758000D02*
X8402000Y-1798000D01*
X8402000Y-1758000D02*
X8362000Y-1798000D01*
X8362000Y-3790000D02*
X8402000Y-3830000D01*
X8402000Y-3790000D02*
X8362000Y-3830000D01*
X8362000Y-4552000D02*
X8402000Y-4592000D01*
X8402000Y-4552000D02*
X8362000Y-4592000D01*
X8362000Y-4806000D02*
X8402000Y-4846000D01*
X8402000Y-4806000D02*
X8362000Y-4846000D01*
X8362000Y-5060000D02*
X8402000Y-5100000D01*
X8402000Y-5060000D02*
X8362000Y-5100000D01*
X8362000Y-5314000D02*
X8402000Y-5354000D01*
X8402000Y-5314000D02*
X8362000Y-5354000D01*
X8362000Y-7346000D02*
X8402000Y-7386000D01*
X8402000Y-7346000D02*
X8362000Y-7386000D01*
X8362000Y-7600000D02*
X8402000Y-7640000D01*
X8402000Y-7600000D02*
X8362000Y-7640000D01*
X8362000Y-7854000D02*
X8402000Y-7894000D01*
X8402000Y-7854000D02*
X8362000Y-7894000D01*
X8362000Y-8108000D02*
X8402000Y-8148000D01*
X8402000Y-8108000D02*
X8362000Y-8148000D01*
X8362000Y-8362000D02*
X8402000Y-8402000D01*
X8402000Y-8362000D02*
X8362000Y-8402000D01*
X8362000Y-8616000D02*
X8402000Y-8656000D01*
X8402000Y-8616000D02*
X8362000Y-8656000D01*
X8362000Y-8870000D02*
X8402000Y-8910000D01*
X8402000Y-8870000D02*
X8362000Y-8910000D01*
X8362000Y-9124000D02*
X8402000Y-9164000D01*
X8402000Y-9124000D02*
X8362000Y-9164000D01*
X8362000Y-9378000D02*
X8402000Y-9418000D01*
X8402000Y-9378000D02*
X8362000Y-9418000D01*
X8362000Y-9632000D02*
X8402000Y-9672000D01*
X8402000Y-9632000D02*
X8362000Y-9672000D01*
X8362000Y-9886000D02*
X8402000Y-9926000D01*
X8402000Y-9886000D02*
X8362000Y-9926000D01*
X8362000Y-10140000D02*
X8402000Y-10180000D01*
X8402000Y-10140000D02*
X8362000Y-10180000D01*
X8362000Y-10394000D02*
X8402000Y-10434000D01*
X8402000Y-10394000D02*
X8362000Y-10434000D01*
X8362000Y-10648000D02*
X8402000Y-10688000D01*
X8402000Y-10648000D02*
X8362000Y-10688000D01*
X8387400Y-6304600D02*
X8427400Y-6344600D01*
X8427400Y-6304600D02*
X8387400Y-6344600D01*
X8412800Y-6126800D02*
X8452800Y-6166800D01*
X8452800Y-6126800D02*
X8412800Y-6166800D01*
X8489000Y-5654644D02*
X8529000Y-5694644D01*
X8529000Y-5654644D02*
X8489000Y-5694644D01*
X8590600Y-5720400D02*
X8630600Y-5760400D01*
X8630600Y-5720400D02*
X8590600Y-5760400D01*
X8616000Y-1758000D02*
X8656000Y-1798000D01*
X8656000Y-1758000D02*
X8616000Y-1798000D01*
X8616000Y-3028000D02*
X8656000Y-3068000D01*
X8656000Y-3028000D02*
X8616000Y-3068000D01*
X8616000Y-4298000D02*
X8656000Y-4338000D01*
X8656000Y-4298000D02*
X8616000Y-4338000D01*
X8616000Y-4552000D02*
X8656000Y-4592000D01*
X8656000Y-4552000D02*
X8616000Y-4592000D01*
X8616000Y-4806000D02*
X8656000Y-4846000D01*
X8656000Y-4806000D02*
X8616000Y-4846000D01*
X8616000Y-5060000D02*
X8656000Y-5100000D01*
X8656000Y-5060000D02*
X8616000Y-5100000D01*
X8616000Y-5314000D02*
X8656000Y-5354000D01*
X8656000Y-5314000D02*
X8616000Y-5354000D01*
X8616000Y-6076000D02*
X8656000Y-6116000D01*
X8656000Y-6076000D02*
X8616000Y-6116000D01*
X8616000Y-6330000D02*
X8656000Y-6370000D01*
X8656000Y-6330000D02*
X8616000Y-6370000D01*
X8616000Y-6584000D02*
X8656000Y-6624000D01*
X8656000Y-6584000D02*
X8616000Y-6624000D01*
X8616000Y-6838000D02*
X8656000Y-6878000D01*
X8656000Y-6838000D02*
X8616000Y-6878000D01*
X8616000Y-7600000D02*
X8656000Y-7640000D01*
X8656000Y-7600000D02*
X8616000Y-7640000D01*
X8616000Y-7854000D02*
X8656000Y-7894000D01*
X8656000Y-7854000D02*
X8616000Y-7894000D01*
X8616000Y-8108000D02*
X8656000Y-8148000D01*
X8656000Y-8108000D02*
X8616000Y-8148000D01*
X8616000Y-8362000D02*
X8656000Y-8402000D01*
X8656000Y-8362000D02*
X8616000Y-8402000D01*
X8616000Y-8616000D02*
X8656000Y-8656000D01*
X8656000Y-8616000D02*
X8616000Y-8656000D01*
X8616000Y-8870000D02*
X8656000Y-8910000D01*
X8656000Y-8870000D02*
X8616000Y-8910000D01*
X8616000Y-9124000D02*
X8656000Y-9164000D01*
X8656000Y-9124000D02*
X8616000Y-9164000D01*
X8616000Y-9378000D02*
X8656000Y-9418000D01*
X8656000Y-9378000D02*
X8616000Y-9418000D01*
X8616000Y-9632000D02*
X8656000Y-9672000D01*
X8656000Y-9632000D02*
X8616000Y-9672000D01*
X8616000Y-9886000D02*
X8656000Y-9926000D01*
X8656000Y-9886000D02*
X8616000Y-9926000D01*
X8616000Y-10140000D02*
X8656000Y-10180000D01*
X8656000Y-10140000D02*
X8616000Y-10180000D01*
X8616000Y-10394000D02*
X8656000Y-10434000D01*
X8656000Y-10394000D02*
X8616000Y-10434000D01*
X8616000Y-10648000D02*
X8656000Y-10688000D01*
X8656000Y-10648000D02*
X8616000Y-10688000D01*
X8624500Y-10775000D02*
X8664500Y-10815000D01*
X8664500Y-10775000D02*
X8624500Y-10815000D01*
X8692200Y-11105200D02*
X8732200Y-11145200D01*
X8732200Y-11105200D02*
X8692200Y-11145200D01*
X8870000Y-1758000D02*
X8910000Y-1798000D01*
X8910000Y-1758000D02*
X8870000Y-1798000D01*
X8870000Y-3028000D02*
X8910000Y-3068000D01*
X8910000Y-3028000D02*
X8870000Y-3068000D01*
X8870000Y-4044000D02*
X8910000Y-4084000D01*
X8910000Y-4044000D02*
X8870000Y-4084000D01*
X8870000Y-4298000D02*
X8910000Y-4338000D01*
X8910000Y-4298000D02*
X8870000Y-4338000D01*
X8870000Y-4552000D02*
X8910000Y-4592000D01*
X8910000Y-4552000D02*
X8870000Y-4592000D01*
X8870000Y-4806000D02*
X8910000Y-4846000D01*
X8910000Y-4806000D02*
X8870000Y-4846000D01*
X8870000Y-5060000D02*
X8910000Y-5100000D01*
X8910000Y-5060000D02*
X8870000Y-5100000D01*
X8870000Y-5314000D02*
X8910000Y-5354000D01*
X8910000Y-5314000D02*
X8870000Y-5354000D01*
X8870000Y-5568000D02*
X8910000Y-5608000D01*
X8910000Y-5568000D02*
X8870000Y-5608000D01*
X8870000Y-5822000D02*
X8910000Y-5862000D01*
X8910000Y-5822000D02*
X8870000Y-5862000D01*
X8870000Y-6076000D02*
X8910000Y-6116000D01*
X8910000Y-6076000D02*
X8870000Y-6116000D01*
X8870000Y-6330000D02*
X8910000Y-6370000D01*
X8910000Y-6330000D02*
X8870000Y-6370000D01*
X8870000Y-6584000D02*
X8910000Y-6624000D01*
X8910000Y-6584000D02*
X8870000Y-6624000D01*
X8870000Y-6838000D02*
X8910000Y-6878000D01*
X8910000Y-6838000D02*
X8870000Y-6878000D01*
X8870000Y-7092000D02*
X8910000Y-7132000D01*
X8910000Y-7092000D02*
X8870000Y-7132000D01*
X8870000Y-7854000D02*
X8910000Y-7894000D01*
X8910000Y-7854000D02*
X8870000Y-7894000D01*
X8870000Y-8108000D02*
X8910000Y-8148000D01*
X8910000Y-8108000D02*
X8870000Y-8148000D01*
X8870000Y-8362000D02*
X8910000Y-8402000D01*
X8910000Y-8362000D02*
X8870000Y-8402000D01*
X8870000Y-8616000D02*
X8910000Y-8656000D01*
X8910000Y-8616000D02*
X8870000Y-8656000D01*
X8870000Y-8870000D02*
X8910000Y-8910000D01*
X8910000Y-8870000D02*
X8870000Y-8910000D01*
X8870000Y-9124000D02*
X8910000Y-9164000D01*
X8910000Y-9124000D02*
X8870000Y-9164000D01*
X8870000Y-9378000D02*
X8910000Y-9418000D01*
X8910000Y-9378000D02*
X8870000Y-9418000D01*
X8870000Y-9632000D02*
X8910000Y-9672000D01*
X8910000Y-9632000D02*
X8870000Y-9672000D01*
X8870000Y-9886000D02*
X8910000Y-9926000D01*
X8910000Y-9886000D02*
X8870000Y-9926000D01*
X8870000Y-10140000D02*
X8910000Y-10180000D01*
X8910000Y-10140000D02*
X8870000Y-10180000D01*
X8870000Y-10394000D02*
X8910000Y-10434000D01*
X8910000Y-10394000D02*
X8870000Y-10434000D01*
X8870000Y-10648000D02*
X8910000Y-10688000D01*
X8910000Y-10648000D02*
X8870000Y-10688000D01*
X8997000Y-3485200D02*
X9037000Y-3525200D01*
X9037000Y-3485200D02*
X8997000Y-3525200D01*
X8997000Y-3485200D02*
X9037000Y-3525200D01*
X9037000Y-3485200D02*
X8997000Y-3525200D01*
X9124000Y-1758000D02*
X9164000Y-1798000D01*
X9164000Y-1758000D02*
X9124000Y-1798000D01*
X9124000Y-3536000D02*
X9164000Y-3576000D01*
X9164000Y-3536000D02*
X9124000Y-3576000D01*
X9124000Y-4044000D02*
X9164000Y-4084000D01*
X9164000Y-4044000D02*
X9124000Y-4084000D01*
X9124000Y-4806000D02*
X9164000Y-4846000D01*
X9164000Y-4806000D02*
X9124000Y-4846000D01*
X9124000Y-5060000D02*
X9164000Y-5100000D01*
X9164000Y-5060000D02*
X9124000Y-5100000D01*
X9124000Y-5314000D02*
X9164000Y-5354000D01*
X9164000Y-5314000D02*
X9124000Y-5354000D01*
X9124000Y-5568000D02*
X9164000Y-5608000D01*
X9164000Y-5568000D02*
X9124000Y-5608000D01*
X9124000Y-5822000D02*
X9164000Y-5862000D01*
X9164000Y-5822000D02*
X9124000Y-5862000D01*
X9124000Y-6076000D02*
X9164000Y-6116000D01*
X9164000Y-6076000D02*
X9124000Y-6116000D01*
X9124000Y-6838000D02*
X9164000Y-6878000D01*
X9164000Y-6838000D02*
X9124000Y-6878000D01*
X9124000Y-7092000D02*
X9164000Y-7132000D01*
X9164000Y-7092000D02*
X9124000Y-7132000D01*
X9124000Y-7346000D02*
X9164000Y-7386000D01*
X9164000Y-7346000D02*
X9124000Y-7386000D01*
X9124000Y-8108000D02*
X9164000Y-8148000D01*
X9164000Y-8108000D02*
X9124000Y-8148000D01*
X9124000Y-8870000D02*
X9164000Y-8910000D01*
X9164000Y-8870000D02*
X9124000Y-8910000D01*
X9124000Y-9124000D02*
X9164000Y-9164000D01*
X9164000Y-9124000D02*
X9124000Y-9164000D01*
X9124000Y-9378000D02*
X9164000Y-9418000D01*
X9164000Y-9378000D02*
X9124000Y-9418000D01*
X9124000Y-9632000D02*
X9164000Y-9672000D01*
X9164000Y-9632000D02*
X9124000Y-9672000D01*
X9124000Y-9886000D02*
X9164000Y-9926000D01*
X9164000Y-9886000D02*
X9124000Y-9926000D01*
X9124000Y-10140000D02*
X9164000Y-10180000D01*
X9164000Y-10140000D02*
X9124000Y-10180000D01*
X9124000Y-10394000D02*
X9164000Y-10434000D01*
X9164000Y-10394000D02*
X9124000Y-10434000D01*
X9124000Y-10648000D02*
X9164000Y-10688000D01*
X9164000Y-10648000D02*
X9124000Y-10688000D01*
X9124000Y-10902000D02*
X9164000Y-10942000D01*
X9164000Y-10902000D02*
X9124000Y-10942000D01*
X9124000Y-11156000D02*
X9164000Y-11196000D01*
X9164000Y-11156000D02*
X9124000Y-11196000D01*
X9378000Y-1758000D02*
X9418000Y-1798000D01*
X9418000Y-1758000D02*
X9378000Y-1798000D01*
X9378000Y-3028000D02*
X9418000Y-3068000D01*
X9418000Y-3028000D02*
X9378000Y-3068000D01*
X9378000Y-3282000D02*
X9418000Y-3322000D01*
X9418000Y-3282000D02*
X9378000Y-3322000D01*
X9378000Y-3536000D02*
X9418000Y-3576000D01*
X9418000Y-3536000D02*
X9378000Y-3576000D01*
X9378000Y-4044000D02*
X9418000Y-4084000D01*
X9418000Y-4044000D02*
X9378000Y-4084000D01*
X9378000Y-5060000D02*
X9418000Y-5100000D01*
X9418000Y-5060000D02*
X9378000Y-5100000D01*
X9378000Y-5314000D02*
X9418000Y-5354000D01*
X9418000Y-5314000D02*
X9378000Y-5354000D01*
X9378000Y-5568000D02*
X9418000Y-5608000D01*
X9418000Y-5568000D02*
X9378000Y-5608000D01*
X9378000Y-5822000D02*
X9418000Y-5862000D01*
X9418000Y-5822000D02*
X9378000Y-5862000D01*
X9378000Y-5822000D02*
X9418000Y-5862000D01*
X9418000Y-5822000D02*
X9378000Y-5862000D01*
X9378000Y-6076000D02*
X9418000Y-6116000D01*
X9418000Y-6076000D02*
X9378000Y-6116000D01*
X9378000Y-7092000D02*
X9418000Y-7132000D01*
X9418000Y-7092000D02*
X9378000Y-7132000D01*
X9378000Y-7346000D02*
X9418000Y-7386000D01*
X9418000Y-7346000D02*
X9378000Y-7386000D01*
X9378000Y-7600000D02*
X9418000Y-7640000D01*
X9418000Y-7600000D02*
X9378000Y-7640000D01*
X9378000Y-9378000D02*
X9418000Y-9418000D01*
X9418000Y-9378000D02*
X9378000Y-9418000D01*
X9378000Y-9632000D02*
X9418000Y-9672000D01*
X9418000Y-9632000D02*
X9378000Y-9672000D01*
X9378000Y-9886000D02*
X9418000Y-9926000D01*
X9418000Y-9886000D02*
X9378000Y-9926000D01*
X9378000Y-10140000D02*
X9418000Y-10180000D01*
X9418000Y-10140000D02*
X9378000Y-10180000D01*
X9378000Y-10394000D02*
X9418000Y-10434000D01*
X9418000Y-10394000D02*
X9378000Y-10434000D01*
X9378000Y-10648000D02*
X9418000Y-10688000D01*
X9418000Y-10648000D02*
X9378000Y-10688000D01*
X9378000Y-10902000D02*
X9418000Y-10942000D01*
X9418000Y-10902000D02*
X9378000Y-10942000D01*
X9386500Y-10775000D02*
X9426500Y-10815000D01*
X9426500Y-10775000D02*
X9386500Y-10815000D01*
X9454200Y-11105200D02*
X9494200Y-11145200D01*
X9494200Y-11105200D02*
X9454200Y-11145200D01*
X9555800Y-8412800D02*
X9595800Y-8452800D01*
X9595800Y-8412800D02*
X9555800Y-8452800D01*
X9632000Y-1758000D02*
X9672000Y-1798000D01*
X9672000Y-1758000D02*
X9632000Y-1798000D01*
X9632000Y-3536000D02*
X9672000Y-3576000D01*
X9672000Y-3536000D02*
X9632000Y-3576000D01*
X9632000Y-4044000D02*
X9672000Y-4084000D01*
X9672000Y-4044000D02*
X9632000Y-4084000D01*
X9632000Y-5822000D02*
X9672000Y-5862000D01*
X9672000Y-5822000D02*
X9632000Y-5862000D01*
X9632000Y-6076000D02*
X9672000Y-6116000D01*
X9672000Y-6076000D02*
X9632000Y-6116000D01*
X9632000Y-7600000D02*
X9672000Y-7640000D01*
X9672000Y-7600000D02*
X9632000Y-7640000D01*
X9632000Y-9124000D02*
X9672000Y-9164000D01*
X9672000Y-9124000D02*
X9632000Y-9164000D01*
X9632000Y-9378000D02*
X9672000Y-9418000D01*
X9672000Y-9378000D02*
X9632000Y-9418000D01*
X9632000Y-9632000D02*
X9672000Y-9672000D01*
X9672000Y-9632000D02*
X9632000Y-9672000D01*
X9632000Y-9886000D02*
X9672000Y-9926000D01*
X9672000Y-9886000D02*
X9632000Y-9926000D01*
X9632000Y-10140000D02*
X9672000Y-10180000D01*
X9672000Y-10140000D02*
X9632000Y-10180000D01*
X9632000Y-10394000D02*
X9672000Y-10434000D01*
X9672000Y-10394000D02*
X9632000Y-10434000D01*
X9632000Y-10648000D02*
X9672000Y-10688000D01*
X9672000Y-10648000D02*
X9632000Y-10688000D01*
X9632000Y-10902000D02*
X9672000Y-10942000D01*
X9672000Y-10902000D02*
X9632000Y-10942000D01*
X9632000Y-11156000D02*
X9672000Y-11196000D01*
X9672000Y-11156000D02*
X9632000Y-11196000D01*
X9657400Y-6457000D02*
X9697400Y-6497000D01*
X9697400Y-6457000D02*
X9657400Y-6497000D01*
X9657400Y-8311200D02*
X9697400Y-8351200D01*
X9697400Y-8311200D02*
X9657400Y-8351200D01*
X9682800Y-4323400D02*
X9722800Y-4363400D01*
X9722800Y-4323400D02*
X9682800Y-4363400D01*
X9708200Y-4475800D02*
X9748200Y-4515800D01*
X9748200Y-4475800D02*
X9708200Y-4515800D01*
X9708200Y-6330000D02*
X9748200Y-6370000D01*
X9748200Y-6330000D02*
X9708200Y-6370000D01*
X9860600Y-10775000D02*
X9900600Y-10815000D01*
X9900600Y-10775000D02*
X9860600Y-10815000D01*
X9886000Y-1758000D02*
X9926000Y-1798000D01*
X9926000Y-1758000D02*
X9886000Y-1798000D01*
X9886000Y-2012000D02*
X9926000Y-2052000D01*
X9926000Y-2012000D02*
X9886000Y-2052000D01*
X9886000Y-2266000D02*
X9926000Y-2306000D01*
X9926000Y-2266000D02*
X9886000Y-2306000D01*
X9886000Y-2520000D02*
X9926000Y-2560000D01*
X9926000Y-2520000D02*
X9886000Y-2560000D01*
X9886000Y-2774000D02*
X9926000Y-2814000D01*
X9926000Y-2774000D02*
X9886000Y-2814000D01*
X9886000Y-9124000D02*
X9926000Y-9164000D01*
X9926000Y-9124000D02*
X9886000Y-9164000D01*
X9886000Y-9378000D02*
X9926000Y-9418000D01*
X9926000Y-9378000D02*
X9886000Y-9418000D01*
X9886000Y-9632000D02*
X9926000Y-9672000D01*
X9926000Y-9632000D02*
X9886000Y-9672000D01*
X9886000Y-9886000D02*
X9926000Y-9926000D01*
X9926000Y-9886000D02*
X9886000Y-9926000D01*
X9886000Y-10140000D02*
X9926000Y-10180000D01*
X9926000Y-10140000D02*
X9886000Y-10180000D01*
X9886000Y-10394000D02*
X9926000Y-10434000D01*
X9926000Y-10394000D02*
X9886000Y-10434000D01*
X9886000Y-10648000D02*
X9926000Y-10688000D01*
X9926000Y-10648000D02*
X9886000Y-10688000D01*
X9886000Y-11105200D02*
X9926000Y-11145200D01*
X9926000Y-11105200D02*
X9886000Y-11145200D01*
X9905300Y-3516700D02*
X9945300Y-3556700D01*
X9945300Y-3516700D02*
X9905300Y-3556700D01*
X9905300Y-7580700D02*
X9945300Y-7620700D01*
X9945300Y-7580700D02*
X9905300Y-7620700D01*
X10089200Y-4475800D02*
X10129200Y-4515800D01*
X10129200Y-4475800D02*
X10089200Y-4515800D01*
X10089200Y-4780600D02*
X10129200Y-4820600D01*
X10129200Y-4780600D02*
X10089200Y-4820600D01*
X10089200Y-6507800D02*
X10129200Y-6547800D01*
X10129200Y-6507800D02*
X10089200Y-6547800D01*
X10089200Y-6838000D02*
X10129200Y-6878000D01*
X10129200Y-6838000D02*
X10089200Y-6878000D01*
X10089200Y-8539800D02*
X10129200Y-8579800D01*
X10129200Y-8539800D02*
X10089200Y-8579800D01*
X10089200Y-8870000D02*
X10129200Y-8910000D01*
X10129200Y-8870000D02*
X10089200Y-8910000D01*
X10140000Y-1758000D02*
X10180000Y-1798000D01*
X10180000Y-1758000D02*
X10140000Y-1798000D01*
X10140000Y-2012000D02*
X10180000Y-2052000D01*
X10180000Y-2012000D02*
X10140000Y-2052000D01*
X10140000Y-2266000D02*
X10180000Y-2306000D01*
X10180000Y-2266000D02*
X10140000Y-2306000D01*
X10140000Y-2520000D02*
X10180000Y-2560000D01*
X10180000Y-2520000D02*
X10140000Y-2560000D01*
X10140000Y-2774000D02*
X10180000Y-2814000D01*
X10180000Y-2774000D02*
X10140000Y-2814000D01*
X10140000Y-9124000D02*
X10180000Y-9164000D01*
X10180000Y-9124000D02*
X10140000Y-9164000D01*
X10140000Y-9378000D02*
X10180000Y-9418000D01*
X10180000Y-9378000D02*
X10140000Y-9418000D01*
X10140000Y-9632000D02*
X10180000Y-9672000D01*
X10180000Y-9632000D02*
X10140000Y-9672000D01*
X10140000Y-9886000D02*
X10180000Y-9926000D01*
X10180000Y-9886000D02*
X10140000Y-9926000D01*
X10140000Y-10140000D02*
X10180000Y-10180000D01*
X10180000Y-10140000D02*
X10140000Y-10180000D01*
X10140000Y-10394000D02*
X10180000Y-10434000D01*
X10180000Y-10394000D02*
X10140000Y-10434000D01*
X10140000Y-10648000D02*
X10180000Y-10688000D01*
X10180000Y-10648000D02*
X10140000Y-10688000D01*
X10140000Y-10902000D02*
X10180000Y-10942000D01*
X10180000Y-10902000D02*
X10140000Y-10942000D01*
X10140000Y-11156000D02*
X10180000Y-11196000D01*
X10180000Y-11156000D02*
X10140000Y-11196000D01*
X10394000Y-1758000D02*
X10434000Y-1798000D01*
X10434000Y-1758000D02*
X10394000Y-1798000D01*
X10394000Y-2012000D02*
X10434000Y-2052000D01*
X10434000Y-2012000D02*
X10394000Y-2052000D01*
X10394000Y-2266000D02*
X10434000Y-2306000D01*
X10434000Y-2266000D02*
X10394000Y-2306000D01*
X10394000Y-2520000D02*
X10434000Y-2560000D01*
X10434000Y-2520000D02*
X10394000Y-2560000D01*
X10394000Y-2774000D02*
X10434000Y-2814000D01*
X10434000Y-2774000D02*
X10394000Y-2814000D01*
X10394000Y-3282000D02*
X10434000Y-3322000D01*
X10434000Y-3282000D02*
X10394000Y-3322000D01*
X10394000Y-3536000D02*
X10434000Y-3576000D01*
X10434000Y-3536000D02*
X10394000Y-3576000D01*
X10394000Y-8870000D02*
X10434000Y-8910000D01*
X10434000Y-8870000D02*
X10394000Y-8910000D01*
X10394000Y-9124000D02*
X10434000Y-9164000D01*
X10434000Y-9124000D02*
X10394000Y-9164000D01*
X10394000Y-9378000D02*
X10434000Y-9418000D01*
X10434000Y-9378000D02*
X10394000Y-9418000D01*
X10394000Y-9632000D02*
X10434000Y-9672000D01*
X10434000Y-9632000D02*
X10394000Y-9672000D01*
X10394000Y-9886000D02*
X10434000Y-9926000D01*
X10434000Y-9886000D02*
X10394000Y-9926000D01*
X10394000Y-10140000D02*
X10434000Y-10180000D01*
X10434000Y-10140000D02*
X10394000Y-10180000D01*
X10394000Y-10394000D02*
X10434000Y-10434000D01*
X10434000Y-10394000D02*
X10394000Y-10434000D01*
X10394000Y-10648000D02*
X10434000Y-10688000D01*
X10434000Y-10648000D02*
X10394000Y-10688000D01*
X10648000Y-2520000D02*
X10688000Y-2560000D01*
X10688000Y-2520000D02*
X10648000Y-2560000D01*
X10648000Y-2774000D02*
X10688000Y-2814000D01*
X10688000Y-2774000D02*
X10648000Y-2814000D01*
X10648000Y-8870000D02*
X10688000Y-8910000D01*
X10688000Y-8870000D02*
X10648000Y-8910000D01*
X10648000Y-9124000D02*
X10688000Y-9164000D01*
X10688000Y-9124000D02*
X10648000Y-9164000D01*
X10648000Y-9378000D02*
X10688000Y-9418000D01*
X10688000Y-9378000D02*
X10648000Y-9418000D01*
X10648000Y-9632000D02*
X10688000Y-9672000D01*
X10688000Y-9632000D02*
X10648000Y-9672000D01*
X10648000Y-9886000D02*
X10688000Y-9926000D01*
X10688000Y-9886000D02*
X10648000Y-9926000D01*
X10648000Y-10140000D02*
X10688000Y-10180000D01*
X10688000Y-10140000D02*
X10648000Y-10180000D01*
X10648000Y-10394000D02*
X10688000Y-10434000D01*
X10688000Y-10394000D02*
X10648000Y-10434000D01*
X10902000Y-2520000D02*
X10942000Y-2560000D01*
X10942000Y-2520000D02*
X10902000Y-2560000D01*
X10902000Y-2774000D02*
X10942000Y-2814000D01*
X10942000Y-2774000D02*
X10902000Y-2814000D01*
X10902000Y-8870000D02*
X10942000Y-8910000D01*
X10942000Y-8870000D02*
X10902000Y-8910000D01*
X10902000Y-9124000D02*
X10942000Y-9164000D01*
X10942000Y-9124000D02*
X10902000Y-9164000D01*
X10902000Y-9378000D02*
X10942000Y-9418000D01*
X10942000Y-9378000D02*
X10902000Y-9418000D01*
X10902000Y-9632000D02*
X10942000Y-9672000D01*
X10942000Y-9632000D02*
X10902000Y-9672000D01*
X10902000Y-9886000D02*
X10942000Y-9926000D01*
X10942000Y-9886000D02*
X10902000Y-9926000D01*
X10902000Y-10140000D02*
X10942000Y-10180000D01*
X10942000Y-10140000D02*
X10902000Y-10180000D01*
X10902000Y-10394000D02*
X10942000Y-10434000D01*
X10942000Y-10394000D02*
X10902000Y-10434000D01*
X11156000Y-2520000D02*
X11196000Y-2560000D01*
X11196000Y-2520000D02*
X11156000Y-2560000D01*
X11156000Y-2774000D02*
X11196000Y-2814000D01*
X11196000Y-2774000D02*
X11156000Y-2814000D01*
X11156000Y-3028000D02*
X11196000Y-3068000D01*
X11196000Y-3028000D02*
X11156000Y-3068000D01*
X11156000Y-3282000D02*
X11196000Y-3322000D01*
X11196000Y-3282000D02*
X11156000Y-3322000D01*
X11156000Y-3536000D02*
X11196000Y-3576000D01*
X11196000Y-3536000D02*
X11156000Y-3576000D01*
X11156000Y-3790000D02*
X11196000Y-3830000D01*
X11196000Y-3790000D02*
X11156000Y-3830000D01*
X11156000Y-4044000D02*
X11196000Y-4084000D01*
X11196000Y-4044000D02*
X11156000Y-4084000D01*
X11156000Y-4298000D02*
X11196000Y-4338000D01*
X11196000Y-4298000D02*
X11156000Y-4338000D01*
X11156000Y-4552000D02*
X11196000Y-4592000D01*
X11196000Y-4552000D02*
X11156000Y-4592000D01*
X11156000Y-4806000D02*
X11196000Y-4846000D01*
X11196000Y-4806000D02*
X11156000Y-4846000D01*
X11156000Y-5060000D02*
X11196000Y-5100000D01*
X11196000Y-5060000D02*
X11156000Y-5100000D01*
X11156000Y-5314000D02*
X11196000Y-5354000D01*
X11196000Y-5314000D02*
X11156000Y-5354000D01*
X11156000Y-5568000D02*
X11196000Y-5608000D01*
X11196000Y-5568000D02*
X11156000Y-5608000D01*
X11156000Y-5822000D02*
X11196000Y-5862000D01*
X11196000Y-5822000D02*
X11156000Y-5862000D01*
X11156000Y-6076000D02*
X11196000Y-6116000D01*
X11196000Y-6076000D02*
X11156000Y-6116000D01*
X11156000Y-6330000D02*
X11196000Y-6370000D01*
X11196000Y-6330000D02*
X11156000Y-6370000D01*
X11156000Y-6584000D02*
X11196000Y-6624000D01*
X11196000Y-6584000D02*
X11156000Y-6624000D01*
X11156000Y-6838000D02*
X11196000Y-6878000D01*
X11196000Y-6838000D02*
X11156000Y-6878000D01*
X11156000Y-7092000D02*
X11196000Y-7132000D01*
X11196000Y-7092000D02*
X11156000Y-7132000D01*
X11156000Y-7346000D02*
X11196000Y-7386000D01*
X11196000Y-7346000D02*
X11156000Y-7386000D01*
X11156000Y-7600000D02*
X11196000Y-7640000D01*
X11196000Y-7600000D02*
X11156000Y-7640000D01*
X11156000Y-7854000D02*
X11196000Y-7894000D01*
X11196000Y-7854000D02*
X11156000Y-7894000D01*
X11156000Y-8108000D02*
X11196000Y-8148000D01*
X11196000Y-8108000D02*
X11156000Y-8148000D01*
X11156000Y-8362000D02*
X11196000Y-8402000D01*
X11196000Y-8362000D02*
X11156000Y-8402000D01*
X11156000Y-8616000D02*
X11196000Y-8656000D01*
X11196000Y-8616000D02*
X11156000Y-8656000D01*
X11156000Y-8870000D02*
X11196000Y-8910000D01*
X11196000Y-8870000D02*
X11156000Y-8910000D01*
X11156000Y-9124000D02*
X11196000Y-9164000D01*
X11196000Y-9124000D02*
X11156000Y-9164000D01*
X11156000Y-9378000D02*
X11196000Y-9418000D01*
X11196000Y-9378000D02*
X11156000Y-9418000D01*
X11156000Y-9632000D02*
X11196000Y-9672000D01*
X11196000Y-9632000D02*
X11156000Y-9672000D01*
X11156000Y-9886000D02*
X11196000Y-9926000D01*
X11196000Y-9886000D02*
X11156000Y-9926000D01*
X11156000Y-10140000D02*
X11196000Y-10180000D01*
X11196000Y-10140000D02*
X11156000Y-10180000D01*
X11156000Y-10394000D02*
X11196000Y-10434000D01*
X11196000Y-10394000D02*
X11156000Y-10434000D01*
X1817000Y-2032000D02*
G75*
G03*
X1817000Y-2032000I-25000J0D01*
G01*
X1817000Y-10922000D02*
G75*
G03*
X1817000Y-10922000I-25000J0D01*
G01*
X1887294Y-1862294D02*
G75*
G03*
X1887294Y-1862294I-25000J0D01*
G01*
X1887294Y-2201706D02*
G75*
G03*
X1887294Y-2201706I-25000J0D01*
G01*
X1887294Y-10752294D02*
G75*
G03*
X1887294Y-10752294I-25000J0D01*
G01*
X1887294Y-11091706D02*
G75*
G03*
X1887294Y-11091706I-25000J0D01*
G01*
X2057000Y-1792000D02*
G75*
G03*
X2057000Y-1792000I-25000J0D01*
G01*
X2057000Y-2272000D02*
G75*
G03*
X2057000Y-2272000I-25000J0D01*
G01*
X2057000Y-10682000D02*
G75*
G03*
X2057000Y-10682000I-25000J0D01*
G01*
X2057000Y-11162000D02*
G75*
G03*
X2057000Y-11162000I-25000J0D01*
G01*
X2226706Y-1862294D02*
G75*
G03*
X2226706Y-1862294I-25000J0D01*
G01*
X2226706Y-2201706D02*
G75*
G03*
X2226706Y-2201706I-25000J0D01*
G01*
X2226706Y-10752294D02*
G75*
G03*
X2226706Y-10752294I-25000J0D01*
G01*
X2226706Y-11091706D02*
G75*
G03*
X2226706Y-11091706I-25000J0D01*
G01*
X2297000Y-2032000D02*
G75*
G03*
X2297000Y-2032000I-25000J0D01*
G01*
X2297000Y-10922000D02*
G75*
G03*
X2297000Y-10922000I-25000J0D01*
G01*
X10707000Y-2032000D02*
G75*
G03*
X10707000Y-2032000I-25000J0D01*
G01*
X10707000Y-10922000D02*
G75*
G03*
X10707000Y-10922000I-25000J0D01*
G01*
X10777294Y-1862294D02*
G75*
G03*
X10777294Y-1862294I-25000J0D01*
G01*
X10777294Y-2201706D02*
G75*
G03*
X10777294Y-2201706I-25000J0D01*
G01*
X10777294Y-10752294D02*
G75*
G03*
X10777294Y-10752294I-25000J0D01*
G01*
X10777294Y-11091706D02*
G75*
G03*
X10777294Y-11091706I-25000J0D01*
G01*
X10947000Y-1792000D02*
G75*
G03*
X10947000Y-1792000I-25000J0D01*
G01*
X10947000Y-2272000D02*
G75*
G03*
X10947000Y-2272000I-25000J0D01*
G01*
X10947000Y-10682000D02*
G75*
G03*
X10947000Y-10682000I-25000J0D01*
G01*
X10947000Y-11162000D02*
G75*
G03*
X10947000Y-11162000I-25000J0D01*
G01*
X11116706Y-1862294D02*
G75*
G03*
X11116706Y-1862294I-25000J0D01*
G01*
X11116706Y-2201706D02*
G75*
G03*
X11116706Y-2201706I-25000J0D01*
G01*
X11116706Y-10752294D02*
G75*
G03*
X11116706Y-10752294I-25000J0D01*
G01*
X11116706Y-11091706D02*
G75*
G03*
X11116706Y-11091706I-25000J0D01*
G01*
X11187000Y-2032000D02*
G75*
G03*
X11187000Y-2032000I-25000J0D01*
G01*
X11187000Y-10922000D02*
G75*
G03*
X11187000Y-10922000I-25000J0D01*
G01*
X6931500Y-6824000D02*
X6931500Y-6892000D01*
X6897500Y-6858000D02*
X6965500Y-6858000D01*
X7419500Y-6824000D02*
X7419500Y-6892000D01*
X7385500Y-6858000D02*
X7453500Y-6858000D01*
X9299285Y-4286785D02*
X9299285Y-4230216D01*
X9242716Y-4230216D01*
X9242716Y-4286785D01*
X9299285Y-4286785D01*
X9299285Y-4536785D02*
X9299285Y-4480216D01*
X9242716Y-4480216D01*
X9242716Y-4536785D01*
X9299285Y-4536785D01*
X9299285Y-6318784D02*
X9299285Y-6262215D01*
X9242716Y-6262215D01*
X9242716Y-6318784D01*
X9299285Y-6318784D01*
X9299285Y-6568784D02*
X9299285Y-6512215D01*
X9242716Y-6512215D01*
X9242716Y-6568784D01*
X9299285Y-6568784D01*
X9299285Y-8350784D02*
X9299285Y-8294215D01*
X9242716Y-8294215D01*
X9242716Y-8350784D01*
X9299285Y-8350784D01*
X9299285Y-8600785D02*
X9299285Y-8544216D01*
X9242716Y-8544216D01*
X9242716Y-8600785D01*
X9299285Y-8600785D01*
X2667000Y-11094000D02*
X2712000Y-11049000D01*
X2667000Y-11004000D01*
X2622000Y-11049000D01*
X2667000Y-11094000D01*
X2921000Y-11094000D02*
X2966000Y-11049000D01*
X2921000Y-11004000D01*
X2876000Y-11049000D01*
X2921000Y-11094000D01*
X3429000Y-11094000D02*
X3474000Y-11049000D01*
X3429000Y-11004000D01*
X3384000Y-11049000D01*
X3429000Y-11094000D01*
X3683000Y-11094000D02*
X3728000Y-11049000D01*
X3683000Y-11004000D01*
X3638000Y-11049000D01*
X3683000Y-11094000D01*
X4191000Y-11094000D02*
X4236000Y-11049000D01*
X4191000Y-11004000D01*
X4146000Y-11049000D01*
X4191000Y-11094000D01*
X4445000Y-11094000D02*
X4490000Y-11049000D01*
X4445000Y-11004000D01*
X4400000Y-11049000D01*
X4445000Y-11094000D01*
X4953000Y-11094000D02*
X4998000Y-11049000D01*
X4953000Y-11004000D01*
X4908000Y-11049000D01*
X4953000Y-11094000D01*
X5207000Y-11094000D02*
X5252000Y-11049000D01*
X5207000Y-11004000D01*
X5162000Y-11049000D01*
X5207000Y-11094000D01*
X1982000Y-8078000D02*
X2082000Y-8178000D01*
X2082000Y-8078000D02*
X1982000Y-8178000D01*
X2082000Y-8128000D02*
G75*
G03*
X2082000Y-8128000I-50000J0D01*
G01*
X1982000Y-8332000D02*
X2082000Y-8432000D01*
X2082000Y-8332000D02*
X1982000Y-8432000D01*
X2082000Y-8382000D02*
G75*
G03*
X2082000Y-8382000I-50000J0D01*
G01*
X1982000Y-8586000D02*
X2082000Y-8686000D01*
X2082000Y-8586000D02*
X1982000Y-8686000D01*
X2082000Y-8636000D02*
G75*
G03*
X2082000Y-8636000I-50000J0D01*
G01*
X1982000Y-8840000D02*
X2082000Y-8940000D01*
X2082000Y-8840000D02*
X1982000Y-8940000D01*
X2082000Y-8890000D02*
G75*
G03*
X2082000Y-8890000I-50000J0D01*
G01*
X1982000Y-9094000D02*
X2082000Y-9194000D01*
X2082000Y-9094000D02*
X1982000Y-9194000D01*
X2082000Y-9144000D02*
G75*
G03*
X2082000Y-9144000I-50000J0D01*
G01*
X1982000Y-9348000D02*
X2082000Y-9448000D01*
X2082000Y-9348000D02*
X1982000Y-9448000D01*
X2082000Y-9398000D02*
G75*
G03*
X2082000Y-9398000I-50000J0D01*
G01*
X1982000Y-9856000D02*
X2082000Y-9956000D01*
X2082000Y-9856000D02*
X1982000Y-9956000D01*
X2082000Y-9906000D02*
G75*
G03*
X2082000Y-9906000I-50000J0D01*
G01*
X1982000Y-10110000D02*
X2082000Y-10210000D01*
X2082000Y-10110000D02*
X1982000Y-10210000D01*
X2082000Y-10160000D02*
G75*
G03*
X2082000Y-10160000I-50000J0D01*
G01*
X5284000Y-2417000D02*
X5384000Y-2517000D01*
X5384000Y-2417000D02*
X5284000Y-2517000D01*
X5384000Y-2467000D02*
G75*
G03*
X5384000Y-2467000I-50000J0D01*
G01*
X5284000Y-2617000D02*
X5384000Y-2717000D01*
X5384000Y-2617000D02*
X5284000Y-2717000D01*
X5384000Y-2667000D02*
G75*
G03*
X5384000Y-2667000I-50000J0D01*
G01*
X5534000Y-2417000D02*
X5634000Y-2517000D01*
X5634000Y-2417000D02*
X5534000Y-2517000D01*
X5634000Y-2467000D02*
G75*
G03*
X5634000Y-2467000I-50000J0D01*
G01*
X5534000Y-2617000D02*
X5634000Y-2717000D01*
X5634000Y-2617000D02*
X5534000Y-2717000D01*
X5634000Y-2667000D02*
G75*
G03*
X5634000Y-2667000I-50000J0D01*
G01*
X7062000Y-2417000D02*
X7162000Y-2517000D01*
X7162000Y-2417000D02*
X7062000Y-2517000D01*
X7162000Y-2467000D02*
G75*
G03*
X7162000Y-2467000I-50000J0D01*
G01*
X7062000Y-2617000D02*
X7162000Y-2717000D01*
X7162000Y-2617000D02*
X7062000Y-2717000D01*
X7162000Y-2667000D02*
G75*
G03*
X7162000Y-2667000I-50000J0D01*
G01*
X7312000Y-2417000D02*
X7412000Y-2517000D01*
X7412000Y-2417000D02*
X7312000Y-2517000D01*
X7412000Y-2467000D02*
G75*
G03*
X7412000Y-2467000I-50000J0D01*
G01*
X7312000Y-2617000D02*
X7412000Y-2717000D01*
X7412000Y-2617000D02*
X7312000Y-2717000D01*
X7412000Y-2667000D02*
G75*
G03*
X7412000Y-2667000I-50000J0D01*
G01*
X8840000Y-2417000D02*
X8940000Y-2517000D01*
X8940000Y-2417000D02*
X8840000Y-2517000D01*
X8940000Y-2467000D02*
G75*
G03*
X8940000Y-2467000I-50000J0D01*
G01*
X8840000Y-2617000D02*
X8940000Y-2717000D01*
X8940000Y-2617000D02*
X8840000Y-2717000D01*
X8940000Y-2667000D02*
G75*
G03*
X8940000Y-2667000I-50000J0D01*
G01*
X9090000Y-2417000D02*
X9190000Y-2517000D01*
X9190000Y-2417000D02*
X9090000Y-2517000D01*
X9190000Y-2467000D02*
G75*
G03*
X9190000Y-2467000I-50000J0D01*
G01*
X9090000Y-2617000D02*
X9190000Y-2717000D01*
X9190000Y-2617000D02*
X9090000Y-2717000D01*
X9190000Y-2667000D02*
G75*
G03*
X9190000Y-2667000I-50000J0D01*
G01*
X10489500Y-3376000D02*
X10592500Y-3479000D01*
X10592500Y-3376000D02*
X10489500Y-3479000D01*
X10541000Y-3376000D02*
X10541000Y-3479000D01*
X10489500Y-3427500D02*
X10592500Y-3427500D01*
X10489500Y-3626000D02*
X10592500Y-3729000D01*
X10592500Y-3626000D02*
X10489500Y-3729000D01*
X10541000Y-3626000D02*
X10541000Y-3729000D01*
X10489500Y-3677500D02*
X10592500Y-3677500D01*
X10489500Y-3826000D02*
X10592500Y-3929000D01*
X10592500Y-3826000D02*
X10489500Y-3929000D01*
X10541000Y-3826000D02*
X10541000Y-3929000D01*
X10489500Y-3877500D02*
X10592500Y-3877500D01*
X10489500Y-4076000D02*
X10592500Y-4179000D01*
X10592500Y-4076000D02*
X10489500Y-4179000D01*
X10541000Y-4076000D02*
X10541000Y-4179000D01*
X10489500Y-4127500D02*
X10592500Y-4127500D01*
X10489500Y-5408000D02*
X10592500Y-5511000D01*
X10592500Y-5408000D02*
X10489500Y-5511000D01*
X10541000Y-5408000D02*
X10541000Y-5511000D01*
X10489500Y-5459500D02*
X10592500Y-5459500D01*
X10489500Y-5658000D02*
X10592500Y-5761000D01*
X10592500Y-5658000D02*
X10489500Y-5761000D01*
X10541000Y-5658000D02*
X10541000Y-5761000D01*
X10489500Y-5709500D02*
X10592500Y-5709500D01*
X10489500Y-5858000D02*
X10592500Y-5961000D01*
X10592500Y-5858000D02*
X10489500Y-5961000D01*
X10541000Y-5858000D02*
X10541000Y-5961000D01*
X10489500Y-5909500D02*
X10592500Y-5909500D01*
X10489500Y-6108000D02*
X10592500Y-6211000D01*
X10592500Y-6108000D02*
X10489500Y-6211000D01*
X10541000Y-6108000D02*
X10541000Y-6211000D01*
X10489500Y-6159500D02*
X10592500Y-6159500D01*
X10489500Y-7440000D02*
X10592500Y-7543000D01*
X10592500Y-7440000D02*
X10489500Y-7543000D01*
X10541000Y-7440000D02*
X10541000Y-7543000D01*
X10489500Y-7491500D02*
X10592500Y-7491500D01*
X10489500Y-7690000D02*
X10592500Y-7793000D01*
X10592500Y-7690000D02*
X10489500Y-7793000D01*
X10541000Y-7690000D02*
X10541000Y-7793000D01*
X10489500Y-7741500D02*
X10592500Y-7741500D01*
X10489500Y-7890000D02*
X10592500Y-7993000D01*
X10592500Y-7890000D02*
X10489500Y-7993000D01*
X10541000Y-7890000D02*
X10541000Y-7993000D01*
X10489500Y-7941500D02*
X10592500Y-7941500D01*
X10489500Y-8140000D02*
X10592500Y-8243000D01*
X10592500Y-8140000D02*
X10489500Y-8243000D01*
X10541000Y-8140000D02*
X10541000Y-8243000D01*
X10489500Y-8191500D02*
X10592500Y-8191500D01*
X4738000Y-2077000D02*
X4976000Y-2315000D01*
X4976000Y-2077000D02*
X4738000Y-2315000D01*
X4941147Y-2280147D02*
X4941147Y-2111854D01*
X4772854Y-2111854D01*
X4772854Y-2280147D01*
X4941147Y-2280147D01*
X5942000Y-2077000D02*
X6180000Y-2315000D01*
X6180000Y-2077000D02*
X5942000Y-2315000D01*
X6145146Y-2280147D02*
X6145146Y-2111854D01*
X5976853Y-2111854D01*
X5976853Y-2280147D01*
X6145146Y-2280147D01*
X6516000Y-2077000D02*
X6754000Y-2315000D01*
X6754000Y-2077000D02*
X6516000Y-2315000D01*
X6719146Y-2280147D02*
X6719146Y-2111854D01*
X6550853Y-2111854D01*
X6550853Y-2280147D01*
X6719146Y-2280147D01*
X7720000Y-2077000D02*
X7958000Y-2315000D01*
X7958000Y-2077000D02*
X7720000Y-2315000D01*
X7923146Y-2280147D02*
X7923146Y-2111854D01*
X7754853Y-2111854D01*
X7754853Y-2280147D01*
X7923146Y-2280147D01*
X8294000Y-2077000D02*
X8532000Y-2315000D01*
X8532000Y-2077000D02*
X8294000Y-2315000D01*
X8497147Y-2280147D02*
X8497147Y-2111854D01*
X8328853Y-2111854D01*
X8328853Y-2280147D01*
X8497147Y-2280147D01*
X9498000Y-2077000D02*
X9736000Y-2315000D01*
X9736000Y-2077000D02*
X9498000Y-2315000D01*
X9701147Y-2280147D02*
X9701147Y-2111854D01*
X9532854Y-2111854D01*
X9532854Y-2280147D01*
X9701147Y-2280147D01*
X10693000Y-3001500D02*
X10931000Y-3239500D01*
X10931000Y-3001500D02*
X10693000Y-3239500D01*
X10896147Y-3204646D02*
X10896147Y-3036353D01*
X10727854Y-3036353D01*
X10727854Y-3204646D01*
X10896147Y-3204646D01*
X10693000Y-4315500D02*
X10931000Y-4553500D01*
X10931000Y-4315500D02*
X10693000Y-4553500D01*
X10896147Y-4518647D02*
X10896147Y-4350354D01*
X10727854Y-4350354D01*
X10727854Y-4518647D01*
X10896147Y-4518647D01*
X10693000Y-5033500D02*
X10931000Y-5271500D01*
X10931000Y-5033500D02*
X10693000Y-5271500D01*
X10896147Y-5236647D02*
X10896147Y-5068354D01*
X10727854Y-5068354D01*
X10727854Y-5236647D01*
X10896147Y-5236647D01*
X10693000Y-6347500D02*
X10931000Y-6585500D01*
X10931000Y-6347500D02*
X10693000Y-6585500D01*
X10896147Y-6550646D02*
X10896147Y-6382353D01*
X10727854Y-6382353D01*
X10727854Y-6550646D01*
X10896147Y-6550646D01*
X10693000Y-7065500D02*
X10931000Y-7303500D01*
X10931000Y-7065500D02*
X10693000Y-7303500D01*
X10896147Y-7268646D02*
X10896147Y-7100353D01*
X10727854Y-7100353D01*
X10727854Y-7268646D01*
X10896147Y-7268646D01*
X10693000Y-8379500D02*
X10931000Y-8617500D01*
X10931000Y-8379500D02*
X10693000Y-8617500D01*
X10896147Y-8582647D02*
X10896147Y-8414354D01*
X10727854Y-8414354D01*
X10727854Y-8582647D01*
X10896147Y-8582647D01*
X1872000Y-1872000D02*
X2192000Y-2192000D01*
X2192000Y-1872000D02*
X1872000Y-2192000D01*
X2032000Y-2192000D02*
X2192000Y-2032000D01*
X2032000Y-1872000D01*
X1872000Y-2032000D01*
X2032000Y-2192000D01*
X1872000Y-10762000D02*
X2192000Y-11082000D01*
X2192000Y-10762000D02*
X1872000Y-11082000D01*
X2032000Y-11082000D02*
X2192000Y-10922000D01*
X2032000Y-10762000D01*
X1872000Y-10922000D01*
X2032000Y-11082000D01*
X10762000Y-1872000D02*
X11082000Y-2192000D01*
X11082000Y-1872000D02*
X10762000Y-2192000D01*
X10922000Y-2192000D02*
X11082000Y-2032000D01*
X10922000Y-1872000D01*
X10762000Y-2032000D01*
X10922000Y-2192000D01*
X10762000Y-10762000D02*
X11082000Y-11082000D01*
X11082000Y-10762000D02*
X10762000Y-11082000D01*
X10922000Y-11082000D02*
X11082000Y-10922000D01*
X10922000Y-10762000D01*
X10762000Y-10922000D01*
X10922000Y-11082000D01*
D12*
X1807928Y-11898214D02*
X1807928Y-11598214D01*
X1879357Y-11598214D01*
X1922214Y-11612500D01*
X1950786Y-11641071D01*
X1965071Y-11669643D01*
X1979357Y-11726786D01*
X1979357Y-11769643D01*
X1965071Y-11826786D01*
X1950786Y-11855357D01*
X1922214Y-11883929D01*
X1879357Y-11898214D01*
X1807928Y-11898214D01*
X2107928Y-11898214D02*
X2107928Y-11698214D01*
X2107928Y-11755357D02*
X2122214Y-11726786D01*
X2136500Y-11712500D01*
X2165071Y-11698214D01*
X2193643Y-11698214D01*
X2293643Y-11898214D02*
X2293643Y-11698214D01*
X2293643Y-11598214D02*
X2279357Y-11612500D01*
X2293643Y-11626786D01*
X2307928Y-11612500D01*
X2293643Y-11598214D01*
X2293643Y-11626786D01*
X2479357Y-11898214D02*
X2450786Y-11883929D01*
X2436500Y-11855357D01*
X2436500Y-11598214D01*
X2636500Y-11898214D02*
X2607928Y-11883929D01*
X2593643Y-11855357D01*
X2593643Y-11598214D01*
X2979357Y-11898214D02*
X2979357Y-11598214D01*
X3079357Y-11812500D01*
X3179357Y-11598214D01*
X3179357Y-11898214D01*
X3450786Y-11898214D02*
X3450786Y-11741071D01*
X3436500Y-11712500D01*
X3407928Y-11698214D01*
X3350786Y-11698214D01*
X3322214Y-11712500D01*
X3450786Y-11883929D02*
X3422214Y-11898214D01*
X3350786Y-11898214D01*
X3322214Y-11883929D01*
X3307928Y-11855357D01*
X3307928Y-11826786D01*
X3322214Y-11798214D01*
X3350786Y-11783929D01*
X3422214Y-11783929D01*
X3450786Y-11769643D01*
X3593643Y-11698214D02*
X3593643Y-11998214D01*
X3593643Y-11712500D02*
X3622214Y-11698214D01*
X3679357Y-11698214D01*
X3707928Y-11712500D01*
X3722214Y-11726786D01*
X3736500Y-11755357D01*
X3736500Y-11841071D01*
X3722214Y-11869643D01*
X3707928Y-11883929D01*
X3679357Y-11898214D01*
X3622214Y-11898214D01*
X3593643Y-11883929D01*
X3865071Y-11869643D02*
X3879357Y-11883929D01*
X3865071Y-11898214D01*
X3850786Y-11883929D01*
X3865071Y-11869643D01*
X3865071Y-11898214D01*
X3865071Y-11712500D02*
X3879357Y-11726786D01*
X3865071Y-11741071D01*
X3850786Y-11726786D01*
X3865071Y-11712500D01*
X3865071Y-11741071D01*
X1481500Y-12372500D02*
X1521500Y-12412500D01*
X1521500Y-12372500D02*
X1481500Y-12412500D01*
X1865071Y-12228214D02*
X1893643Y-12228214D01*
X1922214Y-12242500D01*
X1936500Y-12256786D01*
X1950786Y-12285357D01*
X1965071Y-12342500D01*
X1965071Y-12413929D01*
X1950786Y-12471071D01*
X1936500Y-12499643D01*
X1922214Y-12513929D01*
X1893643Y-12528214D01*
X1865071Y-12528214D01*
X1836500Y-12513929D01*
X1822214Y-12499643D01*
X1807928Y-12471071D01*
X1793643Y-12413929D01*
X1793643Y-12342500D01*
X1807928Y-12285357D01*
X1822214Y-12256786D01*
X1836500Y-12242500D01*
X1865071Y-12228214D01*
X2093643Y-12499643D02*
X2107928Y-12513929D01*
X2093643Y-12528214D01*
X2079357Y-12513929D01*
X2093643Y-12499643D01*
X2093643Y-12528214D01*
X2365071Y-12328214D02*
X2365071Y-12528214D01*
X2293643Y-12213929D02*
X2222214Y-12428214D01*
X2407928Y-12428214D01*
X2579357Y-12228214D02*
X2607928Y-12228214D01*
X2636500Y-12242500D01*
X2650786Y-12256786D01*
X2665071Y-12285357D01*
X2679357Y-12342500D01*
X2679357Y-12413929D01*
X2665071Y-12471071D01*
X2650786Y-12499643D01*
X2636500Y-12513929D01*
X2607928Y-12528214D01*
X2579357Y-12528214D01*
X2550786Y-12513929D01*
X2536500Y-12499643D01*
X2522214Y-12471071D01*
X2507928Y-12413929D01*
X2507928Y-12342500D01*
X2522214Y-12285357D01*
X2536500Y-12256786D01*
X2550786Y-12242500D01*
X2579357Y-12228214D01*
X2865071Y-12228214D02*
X2893643Y-12228214D01*
X2922214Y-12242500D01*
X2936500Y-12256786D01*
X2950786Y-12285357D01*
X2965071Y-12342500D01*
X2965071Y-12413929D01*
X2950786Y-12471071D01*
X2936500Y-12499643D01*
X2922214Y-12513929D01*
X2893643Y-12528214D01*
X2865071Y-12528214D01*
X2836500Y-12513929D01*
X2822214Y-12499643D01*
X2807928Y-12471071D01*
X2793643Y-12413929D01*
X2793643Y-12342500D01*
X2807928Y-12285357D01*
X2822214Y-12256786D01*
X2836500Y-12242500D01*
X2865071Y-12228214D01*
X3093643Y-12528214D02*
X3093643Y-12328214D01*
X3093643Y-12356786D02*
X3107928Y-12342500D01*
X3136500Y-12328214D01*
X3179357Y-12328214D01*
X3207928Y-12342500D01*
X3222214Y-12371071D01*
X3222214Y-12528214D01*
X3222214Y-12371071D02*
X3236500Y-12342500D01*
X3265071Y-12328214D01*
X3307928Y-12328214D01*
X3336500Y-12342500D01*
X3350786Y-12371071D01*
X3350786Y-12528214D01*
X3493643Y-12528214D02*
X3493643Y-12328214D01*
X3493643Y-12356786D02*
X3507928Y-12342500D01*
X3536500Y-12328214D01*
X3579357Y-12328214D01*
X3607928Y-12342500D01*
X3622214Y-12371071D01*
X3622214Y-12528214D01*
X3622214Y-12371071D02*
X3636500Y-12342500D01*
X3665071Y-12328214D01*
X3707928Y-12328214D01*
X3736500Y-12342500D01*
X3750786Y-12371071D01*
X3750786Y-12528214D01*
X4336500Y-12213929D02*
X4079357Y-12599643D01*
X4722214Y-12228214D02*
X4750786Y-12228214D01*
X4779357Y-12242500D01*
X4793643Y-12256786D01*
X4807928Y-12285357D01*
X4822214Y-12342500D01*
X4822214Y-12413929D01*
X4807928Y-12471071D01*
X4793643Y-12499643D01*
X4779357Y-12513929D01*
X4750786Y-12528214D01*
X4722214Y-12528214D01*
X4693643Y-12513929D01*
X4679357Y-12499643D01*
X4665071Y-12471071D01*
X4650786Y-12413929D01*
X4650786Y-12342500D01*
X4665071Y-12285357D01*
X4679357Y-12256786D01*
X4693643Y-12242500D01*
X4722214Y-12228214D01*
X4950786Y-12499643D02*
X4965071Y-12513929D01*
X4950786Y-12528214D01*
X4936500Y-12513929D01*
X4950786Y-12499643D01*
X4950786Y-12528214D01*
X5150786Y-12228214D02*
X5179357Y-12228214D01*
X5207928Y-12242500D01*
X5222214Y-12256786D01*
X5236500Y-12285357D01*
X5250786Y-12342500D01*
X5250786Y-12413929D01*
X5236500Y-12471071D01*
X5222214Y-12499643D01*
X5207928Y-12513929D01*
X5179357Y-12528214D01*
X5150786Y-12528214D01*
X5122214Y-12513929D01*
X5107928Y-12499643D01*
X5093643Y-12471071D01*
X5079357Y-12413929D01*
X5079357Y-12342500D01*
X5093643Y-12285357D01*
X5107928Y-12256786D01*
X5122214Y-12242500D01*
X5150786Y-12228214D01*
X5536500Y-12528214D02*
X5365071Y-12528214D01*
X5450786Y-12528214D02*
X5450786Y-12228214D01*
X5422214Y-12271071D01*
X5393643Y-12299643D01*
X5365071Y-12313929D01*
X5807928Y-12228214D02*
X5665071Y-12228214D01*
X5650786Y-12371071D01*
X5665071Y-12356786D01*
X5693643Y-12342500D01*
X5765071Y-12342500D01*
X5793643Y-12356786D01*
X5807928Y-12371071D01*
X5822214Y-12399643D01*
X5822214Y-12471071D01*
X5807928Y-12499643D01*
X5793643Y-12513929D01*
X5765071Y-12528214D01*
X5693643Y-12528214D01*
X5665071Y-12513929D01*
X5650786Y-12499643D01*
X5922214Y-12228214D02*
X6122214Y-12228214D01*
X5993643Y-12528214D01*
X6222214Y-12228214D02*
X6222214Y-12285357D01*
X6336500Y-12228214D02*
X6336500Y-12285357D01*
X6779357Y-12642500D02*
X6765071Y-12628214D01*
X6736500Y-12585357D01*
X6722214Y-12556786D01*
X6707928Y-12513929D01*
X6693643Y-12442500D01*
X6693643Y-12385357D01*
X6707928Y-12313929D01*
X6722214Y-12271071D01*
X6736500Y-12242500D01*
X6765071Y-12199643D01*
X6779357Y-12185357D01*
X6936500Y-12356786D02*
X6907928Y-12342500D01*
X6893643Y-12328214D01*
X6879357Y-12299643D01*
X6879357Y-12285357D01*
X6893643Y-12256786D01*
X6907928Y-12242500D01*
X6936500Y-12228214D01*
X6993643Y-12228214D01*
X7022214Y-12242500D01*
X7036500Y-12256786D01*
X7050786Y-12285357D01*
X7050786Y-12299643D01*
X7036500Y-12328214D01*
X7022214Y-12342500D01*
X6993643Y-12356786D01*
X6936500Y-12356786D01*
X6907928Y-12371071D01*
X6893643Y-12385357D01*
X6879357Y-12413929D01*
X6879357Y-12471071D01*
X6893643Y-12499643D01*
X6907928Y-12513929D01*
X6936500Y-12528214D01*
X6993643Y-12528214D01*
X7022214Y-12513929D01*
X7036500Y-12499643D01*
X7050786Y-12471071D01*
X7050786Y-12413929D01*
X7036500Y-12385357D01*
X7022214Y-12371071D01*
X6993643Y-12356786D01*
X7307928Y-12228214D02*
X7250786Y-12228214D01*
X7222214Y-12242500D01*
X7207928Y-12256786D01*
X7179357Y-12299643D01*
X7165071Y-12356786D01*
X7165071Y-12471071D01*
X7179357Y-12499643D01*
X7193643Y-12513929D01*
X7222214Y-12528214D01*
X7279357Y-12528214D01*
X7307928Y-12513929D01*
X7322214Y-12499643D01*
X7336500Y-12471071D01*
X7336500Y-12399643D01*
X7322214Y-12371071D01*
X7307928Y-12356786D01*
X7279357Y-12342500D01*
X7222214Y-12342500D01*
X7193643Y-12356786D01*
X7179357Y-12371071D01*
X7165071Y-12399643D01*
X7436500Y-12228214D02*
X7622214Y-12228214D01*
X7522214Y-12342500D01*
X7565071Y-12342500D01*
X7593643Y-12356786D01*
X7607928Y-12371071D01*
X7622214Y-12399643D01*
X7622214Y-12471071D01*
X7607928Y-12499643D01*
X7593643Y-12513929D01*
X7565071Y-12528214D01*
X7479357Y-12528214D01*
X7450786Y-12513929D01*
X7436500Y-12499643D01*
X7979357Y-12528214D02*
X7979357Y-12228214D01*
X8107928Y-12528214D02*
X8107928Y-12371071D01*
X8093643Y-12342500D01*
X8065071Y-12328214D01*
X8022214Y-12328214D01*
X7993643Y-12342500D01*
X7979357Y-12356786D01*
X8293643Y-12528214D02*
X8265071Y-12513929D01*
X8250786Y-12499643D01*
X8236500Y-12471071D01*
X8236500Y-12385357D01*
X8250786Y-12356786D01*
X8265071Y-12342500D01*
X8293643Y-12328214D01*
X8336500Y-12328214D01*
X8365071Y-12342500D01*
X8379357Y-12356786D01*
X8393643Y-12385357D01*
X8393643Y-12471071D01*
X8379357Y-12499643D01*
X8365071Y-12513929D01*
X8336500Y-12528214D01*
X8293643Y-12528214D01*
X8565071Y-12528214D02*
X8536500Y-12513929D01*
X8522214Y-12485357D01*
X8522214Y-12228214D01*
X8793643Y-12513929D02*
X8765071Y-12528214D01*
X8707928Y-12528214D01*
X8679357Y-12513929D01*
X8665071Y-12485357D01*
X8665071Y-12371071D01*
X8679357Y-12342500D01*
X8707928Y-12328214D01*
X8765071Y-12328214D01*
X8793643Y-12342500D01*
X8807928Y-12371071D01*
X8807928Y-12399643D01*
X8665071Y-12428214D01*
X8922214Y-12513929D02*
X8950786Y-12528214D01*
X9007928Y-12528214D01*
X9036500Y-12513929D01*
X9050786Y-12485357D01*
X9050786Y-12471071D01*
X9036500Y-12442500D01*
X9007928Y-12428214D01*
X8965071Y-12428214D01*
X8936500Y-12413929D01*
X8922214Y-12385357D01*
X8922214Y-12371071D01*
X8936500Y-12342500D01*
X8965071Y-12328214D01*
X9007928Y-12328214D01*
X9036500Y-12342500D01*
X9150786Y-12642500D02*
X9165071Y-12628214D01*
X9193643Y-12585357D01*
X9207928Y-12556786D01*
X9222214Y-12513929D01*
X9236500Y-12442500D01*
X9236500Y-12385357D01*
X9222214Y-12313929D01*
X9207928Y-12271071D01*
X9193643Y-12242500D01*
X9165071Y-12199643D01*
X9150786Y-12185357D01*
X1521500Y-12788500D02*
G75*
G03*
X1521500Y-12788500I-25000J0D01*
G01*
X1865071Y-12624214D02*
X1893643Y-12624214D01*
X1922214Y-12638500D01*
X1936500Y-12652786D01*
X1950786Y-12681357D01*
X1965071Y-12738500D01*
X1965071Y-12809929D01*
X1950786Y-12867071D01*
X1936500Y-12895643D01*
X1922214Y-12909929D01*
X1893643Y-12924214D01*
X1865071Y-12924214D01*
X1836500Y-12909929D01*
X1822214Y-12895643D01*
X1807928Y-12867071D01*
X1793643Y-12809929D01*
X1793643Y-12738500D01*
X1807928Y-12681357D01*
X1822214Y-12652786D01*
X1836500Y-12638500D01*
X1865071Y-12624214D01*
X2093643Y-12895643D02*
X2107928Y-12909929D01*
X2093643Y-12924214D01*
X2079357Y-12909929D01*
X2093643Y-12895643D01*
X2093643Y-12924214D01*
X2379357Y-12624214D02*
X2236500Y-12624214D01*
X2222214Y-12767071D01*
X2236500Y-12752786D01*
X2265071Y-12738500D01*
X2336500Y-12738500D01*
X2365071Y-12752786D01*
X2379357Y-12767071D01*
X2393643Y-12795643D01*
X2393643Y-12867071D01*
X2379357Y-12895643D01*
X2365071Y-12909929D01*
X2336500Y-12924214D01*
X2265071Y-12924214D01*
X2236500Y-12909929D01*
X2222214Y-12895643D01*
X2579357Y-12624214D02*
X2607928Y-12624214D01*
X2636500Y-12638500D01*
X2650786Y-12652786D01*
X2665071Y-12681357D01*
X2679357Y-12738500D01*
X2679357Y-12809929D01*
X2665071Y-12867071D01*
X2650786Y-12895643D01*
X2636500Y-12909929D01*
X2607928Y-12924214D01*
X2579357Y-12924214D01*
X2550786Y-12909929D01*
X2536500Y-12895643D01*
X2522214Y-12867071D01*
X2507928Y-12809929D01*
X2507928Y-12738500D01*
X2522214Y-12681357D01*
X2536500Y-12652786D01*
X2550786Y-12638500D01*
X2579357Y-12624214D01*
X2865071Y-12624214D02*
X2893643Y-12624214D01*
X2922214Y-12638500D01*
X2936500Y-12652786D01*
X2950786Y-12681357D01*
X2965071Y-12738500D01*
X2965071Y-12809929D01*
X2950786Y-12867071D01*
X2936500Y-12895643D01*
X2922214Y-12909929D01*
X2893643Y-12924214D01*
X2865071Y-12924214D01*
X2836500Y-12909929D01*
X2822214Y-12895643D01*
X2807928Y-12867071D01*
X2793643Y-12809929D01*
X2793643Y-12738500D01*
X2807928Y-12681357D01*
X2822214Y-12652786D01*
X2836500Y-12638500D01*
X2865071Y-12624214D01*
X3093643Y-12924214D02*
X3093643Y-12724214D01*
X3093643Y-12752786D02*
X3107928Y-12738500D01*
X3136500Y-12724214D01*
X3179357Y-12724214D01*
X3207928Y-12738500D01*
X3222214Y-12767071D01*
X3222214Y-12924214D01*
X3222214Y-12767071D02*
X3236500Y-12738500D01*
X3265071Y-12724214D01*
X3307928Y-12724214D01*
X3336500Y-12738500D01*
X3350786Y-12767071D01*
X3350786Y-12924214D01*
X3493643Y-12924214D02*
X3493643Y-12724214D01*
X3493643Y-12752786D02*
X3507928Y-12738500D01*
X3536500Y-12724214D01*
X3579357Y-12724214D01*
X3607928Y-12738500D01*
X3622214Y-12767071D01*
X3622214Y-12924214D01*
X3622214Y-12767071D02*
X3636500Y-12738500D01*
X3665071Y-12724214D01*
X3707928Y-12724214D01*
X3736500Y-12738500D01*
X3750786Y-12767071D01*
X3750786Y-12924214D01*
X4336500Y-12609929D02*
X4079357Y-12995643D01*
X4722214Y-12624214D02*
X4750786Y-12624214D01*
X4779357Y-12638500D01*
X4793643Y-12652786D01*
X4807928Y-12681357D01*
X4822214Y-12738500D01*
X4822214Y-12809929D01*
X4807928Y-12867071D01*
X4793643Y-12895643D01*
X4779357Y-12909929D01*
X4750786Y-12924214D01*
X4722214Y-12924214D01*
X4693643Y-12909929D01*
X4679357Y-12895643D01*
X4665071Y-12867071D01*
X4650786Y-12809929D01*
X4650786Y-12738500D01*
X4665071Y-12681357D01*
X4679357Y-12652786D01*
X4693643Y-12638500D01*
X4722214Y-12624214D01*
X4950786Y-12895643D02*
X4965071Y-12909929D01*
X4950786Y-12924214D01*
X4936500Y-12909929D01*
X4950786Y-12895643D01*
X4950786Y-12924214D01*
X5150786Y-12624214D02*
X5179357Y-12624214D01*
X5207928Y-12638500D01*
X5222214Y-12652786D01*
X5236500Y-12681357D01*
X5250786Y-12738500D01*
X5250786Y-12809929D01*
X5236500Y-12867071D01*
X5222214Y-12895643D01*
X5207928Y-12909929D01*
X5179357Y-12924214D01*
X5150786Y-12924214D01*
X5122214Y-12909929D01*
X5107928Y-12895643D01*
X5093643Y-12867071D01*
X5079357Y-12809929D01*
X5079357Y-12738500D01*
X5093643Y-12681357D01*
X5107928Y-12652786D01*
X5122214Y-12638500D01*
X5150786Y-12624214D01*
X5536500Y-12924214D02*
X5365071Y-12924214D01*
X5450786Y-12924214D02*
X5450786Y-12624214D01*
X5422214Y-12667071D01*
X5393643Y-12695643D01*
X5365071Y-12709929D01*
X5679357Y-12924214D02*
X5736500Y-12924214D01*
X5765071Y-12909929D01*
X5779357Y-12895643D01*
X5807928Y-12852786D01*
X5822214Y-12795643D01*
X5822214Y-12681357D01*
X5807928Y-12652786D01*
X5793643Y-12638500D01*
X5765071Y-12624214D01*
X5707928Y-12624214D01*
X5679357Y-12638500D01*
X5665071Y-12652786D01*
X5650786Y-12681357D01*
X5650786Y-12752786D01*
X5665071Y-12781357D01*
X5679357Y-12795643D01*
X5707928Y-12809929D01*
X5765071Y-12809929D01*
X5793643Y-12795643D01*
X5807928Y-12781357D01*
X5822214Y-12752786D01*
X5922214Y-12624214D02*
X6122214Y-12624214D01*
X5993643Y-12924214D01*
X6222214Y-12624214D02*
X6222214Y-12681357D01*
X6336500Y-12624214D02*
X6336500Y-12681357D01*
X6779357Y-13038500D02*
X6765071Y-13024214D01*
X6736500Y-12981357D01*
X6722214Y-12952786D01*
X6707928Y-12909929D01*
X6693643Y-12838500D01*
X6693643Y-12781357D01*
X6707928Y-12709929D01*
X6722214Y-12667071D01*
X6736500Y-12638500D01*
X6765071Y-12595643D01*
X6779357Y-12581357D01*
X6865071Y-12624214D02*
X7050786Y-12624214D01*
X6950786Y-12738500D01*
X6993643Y-12738500D01*
X7022214Y-12752786D01*
X7036500Y-12767071D01*
X7050786Y-12795643D01*
X7050786Y-12867071D01*
X7036500Y-12895643D01*
X7022214Y-12909929D01*
X6993643Y-12924214D01*
X6907928Y-12924214D01*
X6879357Y-12909929D01*
X6865071Y-12895643D01*
X7165071Y-12652786D02*
X7179357Y-12638500D01*
X7207928Y-12624214D01*
X7279357Y-12624214D01*
X7307928Y-12638500D01*
X7322214Y-12652786D01*
X7336500Y-12681357D01*
X7336500Y-12709929D01*
X7322214Y-12752786D01*
X7150786Y-12924214D01*
X7336500Y-12924214D01*
X7693643Y-12924214D02*
X7693643Y-12624214D01*
X7822214Y-12924214D02*
X7822214Y-12767071D01*
X7807928Y-12738500D01*
X7779357Y-12724214D01*
X7736500Y-12724214D01*
X7707928Y-12738500D01*
X7693643Y-12752786D01*
X8007928Y-12924214D02*
X7979357Y-12909929D01*
X7965071Y-12895643D01*
X7950786Y-12867071D01*
X7950786Y-12781357D01*
X7965071Y-12752786D01*
X7979357Y-12738500D01*
X8007928Y-12724214D01*
X8050786Y-12724214D01*
X8079357Y-12738500D01*
X8093643Y-12752786D01*
X8107928Y-12781357D01*
X8107928Y-12867071D01*
X8093643Y-12895643D01*
X8079357Y-12909929D01*
X8050786Y-12924214D01*
X8007928Y-12924214D01*
X8279357Y-12924214D02*
X8250786Y-12909929D01*
X8236500Y-12881357D01*
X8236500Y-12624214D01*
X8507928Y-12909929D02*
X8479357Y-12924214D01*
X8422214Y-12924214D01*
X8393643Y-12909929D01*
X8379357Y-12881357D01*
X8379357Y-12767071D01*
X8393643Y-12738500D01*
X8422214Y-12724214D01*
X8479357Y-12724214D01*
X8507928Y-12738500D01*
X8522214Y-12767071D01*
X8522214Y-12795643D01*
X8379357Y-12824214D01*
X8636500Y-12909929D02*
X8665071Y-12924214D01*
X8722214Y-12924214D01*
X8750786Y-12909929D01*
X8765071Y-12881357D01*
X8765071Y-12867071D01*
X8750786Y-12838500D01*
X8722214Y-12824214D01*
X8679357Y-12824214D01*
X8650786Y-12809929D01*
X8636500Y-12781357D01*
X8636500Y-12767071D01*
X8650786Y-12738500D01*
X8679357Y-12724214D01*
X8722214Y-12724214D01*
X8750786Y-12738500D01*
X8865071Y-13038500D02*
X8879357Y-13024214D01*
X8907928Y-12981357D01*
X8922214Y-12952786D01*
X8936500Y-12909929D01*
X8950786Y-12838500D01*
X8950786Y-12781357D01*
X8936500Y-12709929D01*
X8922214Y-12667071D01*
X8907928Y-12638500D01*
X8879357Y-12595643D01*
X8865071Y-12581357D01*
X1487500Y-13150500D02*
X1487500Y-13218500D01*
X1453500Y-13184500D02*
X1521500Y-13184500D01*
X1865071Y-13020214D02*
X1893643Y-13020214D01*
X1922214Y-13034500D01*
X1936500Y-13048786D01*
X1950786Y-13077357D01*
X1965071Y-13134500D01*
X1965071Y-13205929D01*
X1950786Y-13263071D01*
X1936500Y-13291643D01*
X1922214Y-13305929D01*
X1893643Y-13320214D01*
X1865071Y-13320214D01*
X1836500Y-13305929D01*
X1822214Y-13291643D01*
X1807928Y-13263071D01*
X1793643Y-13205929D01*
X1793643Y-13134500D01*
X1807928Y-13077357D01*
X1822214Y-13048786D01*
X1836500Y-13034500D01*
X1865071Y-13020214D01*
X2093643Y-13291643D02*
X2107928Y-13305929D01*
X2093643Y-13320214D01*
X2079357Y-13305929D01*
X2093643Y-13291643D01*
X2093643Y-13320214D01*
X2365071Y-13020214D02*
X2307928Y-13020214D01*
X2279357Y-13034500D01*
X2265071Y-13048786D01*
X2236500Y-13091643D01*
X2222214Y-13148786D01*
X2222214Y-13263071D01*
X2236500Y-13291643D01*
X2250786Y-13305929D01*
X2279357Y-13320214D01*
X2336500Y-13320214D01*
X2365071Y-13305929D01*
X2379357Y-13291643D01*
X2393643Y-13263071D01*
X2393643Y-13191643D01*
X2379357Y-13163071D01*
X2365071Y-13148786D01*
X2336500Y-13134500D01*
X2279357Y-13134500D01*
X2250786Y-13148786D01*
X2236500Y-13163071D01*
X2222214Y-13191643D01*
X2565071Y-13148786D02*
X2536500Y-13134500D01*
X2522214Y-13120214D01*
X2507928Y-13091643D01*
X2507928Y-13077357D01*
X2522214Y-13048786D01*
X2536500Y-13034500D01*
X2565071Y-13020214D01*
X2622214Y-13020214D01*
X2650786Y-13034500D01*
X2665071Y-13048786D01*
X2679357Y-13077357D01*
X2679357Y-13091643D01*
X2665071Y-13120214D01*
X2650786Y-13134500D01*
X2622214Y-13148786D01*
X2565071Y-13148786D01*
X2536500Y-13163071D01*
X2522214Y-13177357D01*
X2507928Y-13205929D01*
X2507928Y-13263071D01*
X2522214Y-13291643D01*
X2536500Y-13305929D01*
X2565071Y-13320214D01*
X2622214Y-13320214D01*
X2650786Y-13305929D01*
X2665071Y-13291643D01*
X2679357Y-13263071D01*
X2679357Y-13205929D01*
X2665071Y-13177357D01*
X2650786Y-13163071D01*
X2622214Y-13148786D01*
X2865071Y-13020214D02*
X2893643Y-13020214D01*
X2922214Y-13034500D01*
X2936500Y-13048786D01*
X2950786Y-13077357D01*
X2965071Y-13134500D01*
X2965071Y-13205929D01*
X2950786Y-13263071D01*
X2936500Y-13291643D01*
X2922214Y-13305929D01*
X2893643Y-13320214D01*
X2865071Y-13320214D01*
X2836500Y-13305929D01*
X2822214Y-13291643D01*
X2807928Y-13263071D01*
X2793643Y-13205929D01*
X2793643Y-13134500D01*
X2807928Y-13077357D01*
X2822214Y-13048786D01*
X2836500Y-13034500D01*
X2865071Y-13020214D01*
X3093643Y-13320214D02*
X3093643Y-13120214D01*
X3093643Y-13148786D02*
X3107928Y-13134500D01*
X3136500Y-13120214D01*
X3179357Y-13120214D01*
X3207928Y-13134500D01*
X3222214Y-13163071D01*
X3222214Y-13320214D01*
X3222214Y-13163071D02*
X3236500Y-13134500D01*
X3265071Y-13120214D01*
X3307928Y-13120214D01*
X3336500Y-13134500D01*
X3350786Y-13163071D01*
X3350786Y-13320214D01*
X3493643Y-13320214D02*
X3493643Y-13120214D01*
X3493643Y-13148786D02*
X3507928Y-13134500D01*
X3536500Y-13120214D01*
X3579357Y-13120214D01*
X3607928Y-13134500D01*
X3622214Y-13163071D01*
X3622214Y-13320214D01*
X3622214Y-13163071D02*
X3636500Y-13134500D01*
X3665071Y-13120214D01*
X3707928Y-13120214D01*
X3736500Y-13134500D01*
X3750786Y-13163071D01*
X3750786Y-13320214D01*
X4336500Y-13005929D02*
X4079357Y-13391643D01*
X4722214Y-13020214D02*
X4750786Y-13020214D01*
X4779357Y-13034500D01*
X4793643Y-13048786D01*
X4807928Y-13077357D01*
X4822214Y-13134500D01*
X4822214Y-13205929D01*
X4807928Y-13263071D01*
X4793643Y-13291643D01*
X4779357Y-13305929D01*
X4750786Y-13320214D01*
X4722214Y-13320214D01*
X4693643Y-13305929D01*
X4679357Y-13291643D01*
X4665071Y-13263071D01*
X4650786Y-13205929D01*
X4650786Y-13134500D01*
X4665071Y-13077357D01*
X4679357Y-13048786D01*
X4693643Y-13034500D01*
X4722214Y-13020214D01*
X4950786Y-13291643D02*
X4965071Y-13305929D01*
X4950786Y-13320214D01*
X4936500Y-13305929D01*
X4950786Y-13291643D01*
X4950786Y-13320214D01*
X5150786Y-13020214D02*
X5179357Y-13020214D01*
X5207928Y-13034500D01*
X5222214Y-13048786D01*
X5236500Y-13077357D01*
X5250786Y-13134500D01*
X5250786Y-13205929D01*
X5236500Y-13263071D01*
X5222214Y-13291643D01*
X5207928Y-13305929D01*
X5179357Y-13320214D01*
X5150786Y-13320214D01*
X5122214Y-13305929D01*
X5107928Y-13291643D01*
X5093643Y-13263071D01*
X5079357Y-13205929D01*
X5079357Y-13134500D01*
X5093643Y-13077357D01*
X5107928Y-13048786D01*
X5122214Y-13034500D01*
X5150786Y-13020214D01*
X5365071Y-13048786D02*
X5379357Y-13034500D01*
X5407928Y-13020214D01*
X5479357Y-13020214D01*
X5507928Y-13034500D01*
X5522214Y-13048786D01*
X5536500Y-13077357D01*
X5536500Y-13105929D01*
X5522214Y-13148786D01*
X5350786Y-13320214D01*
X5536500Y-13320214D01*
X5793643Y-13020214D02*
X5736500Y-13020214D01*
X5707928Y-13034500D01*
X5693643Y-13048786D01*
X5665071Y-13091643D01*
X5650786Y-13148786D01*
X5650786Y-13263071D01*
X5665071Y-13291643D01*
X5679357Y-13305929D01*
X5707928Y-13320214D01*
X5765071Y-13320214D01*
X5793643Y-13305929D01*
X5807928Y-13291643D01*
X5822214Y-13263071D01*
X5822214Y-13191643D01*
X5807928Y-13163071D01*
X5793643Y-13148786D01*
X5765071Y-13134500D01*
X5707928Y-13134500D01*
X5679357Y-13148786D01*
X5665071Y-13163071D01*
X5650786Y-13191643D01*
X5993643Y-13148786D02*
X5965071Y-13134500D01*
X5950786Y-13120214D01*
X5936500Y-13091643D01*
X5936500Y-13077357D01*
X5950786Y-13048786D01*
X5965071Y-13034500D01*
X5993643Y-13020214D01*
X6050786Y-13020214D01*
X6079357Y-13034500D01*
X6093643Y-13048786D01*
X6107928Y-13077357D01*
X6107928Y-13091643D01*
X6093643Y-13120214D01*
X6079357Y-13134500D01*
X6050786Y-13148786D01*
X5993643Y-13148786D01*
X5965071Y-13163071D01*
X5950786Y-13177357D01*
X5936500Y-13205929D01*
X5936500Y-13263071D01*
X5950786Y-13291643D01*
X5965071Y-13305929D01*
X5993643Y-13320214D01*
X6050786Y-13320214D01*
X6079357Y-13305929D01*
X6093643Y-13291643D01*
X6107928Y-13263071D01*
X6107928Y-13205929D01*
X6093643Y-13177357D01*
X6079357Y-13163071D01*
X6050786Y-13148786D01*
X6222214Y-13020214D02*
X6222214Y-13077357D01*
X6336500Y-13020214D02*
X6336500Y-13077357D01*
X6779357Y-13434500D02*
X6765071Y-13420214D01*
X6736500Y-13377357D01*
X6722214Y-13348786D01*
X6707928Y-13305929D01*
X6693643Y-13234500D01*
X6693643Y-13177357D01*
X6707928Y-13105929D01*
X6722214Y-13063071D01*
X6736500Y-13034500D01*
X6765071Y-12991643D01*
X6779357Y-12977357D01*
X6879357Y-13048786D02*
X6893643Y-13034500D01*
X6922214Y-13020214D01*
X6993643Y-13020214D01*
X7022214Y-13034500D01*
X7036500Y-13048786D01*
X7050786Y-13077357D01*
X7050786Y-13105929D01*
X7036500Y-13148786D01*
X6865071Y-13320214D01*
X7050786Y-13320214D01*
X7407928Y-13320214D02*
X7407928Y-13020214D01*
X7536500Y-13320214D02*
X7536500Y-13163071D01*
X7522214Y-13134500D01*
X7493643Y-13120214D01*
X7450786Y-13120214D01*
X7422214Y-13134500D01*
X7407928Y-13148786D01*
X7722214Y-13320214D02*
X7693643Y-13305929D01*
X7679357Y-13291643D01*
X7665071Y-13263071D01*
X7665071Y-13177357D01*
X7679357Y-13148786D01*
X7693643Y-13134500D01*
X7722214Y-13120214D01*
X7765071Y-13120214D01*
X7793643Y-13134500D01*
X7807928Y-13148786D01*
X7822214Y-13177357D01*
X7822214Y-13263071D01*
X7807928Y-13291643D01*
X7793643Y-13305929D01*
X7765071Y-13320214D01*
X7722214Y-13320214D01*
X7993643Y-13320214D02*
X7965071Y-13305929D01*
X7950786Y-13277357D01*
X7950786Y-13020214D01*
X8222214Y-13305929D02*
X8193643Y-13320214D01*
X8136500Y-13320214D01*
X8107928Y-13305929D01*
X8093643Y-13277357D01*
X8093643Y-13163071D01*
X8107928Y-13134500D01*
X8136500Y-13120214D01*
X8193643Y-13120214D01*
X8222214Y-13134500D01*
X8236500Y-13163071D01*
X8236500Y-13191643D01*
X8093643Y-13220214D01*
X8350786Y-13305929D02*
X8379357Y-13320214D01*
X8436500Y-13320214D01*
X8465071Y-13305929D01*
X8479357Y-13277357D01*
X8479357Y-13263071D01*
X8465071Y-13234500D01*
X8436500Y-13220214D01*
X8393643Y-13220214D01*
X8365071Y-13205929D01*
X8350786Y-13177357D01*
X8350786Y-13163071D01*
X8365071Y-13134500D01*
X8393643Y-13120214D01*
X8436500Y-13120214D01*
X8465071Y-13134500D01*
X8579357Y-13434500D02*
X8593643Y-13420214D01*
X8622214Y-13377357D01*
X8636500Y-13348786D01*
X8650786Y-13305929D01*
X8665071Y-13234500D01*
X8665071Y-13177357D01*
X8650786Y-13105929D01*
X8636500Y-13063071D01*
X8622214Y-13034500D01*
X8593643Y-12991643D01*
X8579357Y-12977357D01*
X1509784Y-13608785D02*
X1509784Y-13552216D01*
X1453215Y-13552216D01*
X1453215Y-13608785D01*
X1509784Y-13608785D01*
X1865071Y-13416214D02*
X1893643Y-13416214D01*
X1922214Y-13430500D01*
X1936500Y-13444786D01*
X1950786Y-13473357D01*
X1965071Y-13530500D01*
X1965071Y-13601929D01*
X1950786Y-13659071D01*
X1936500Y-13687643D01*
X1922214Y-13701929D01*
X1893643Y-13716214D01*
X1865071Y-13716214D01*
X1836500Y-13701929D01*
X1822214Y-13687643D01*
X1807928Y-13659071D01*
X1793643Y-13601929D01*
X1793643Y-13530500D01*
X1807928Y-13473357D01*
X1822214Y-13444786D01*
X1836500Y-13430500D01*
X1865071Y-13416214D01*
X2093643Y-13687643D02*
X2107928Y-13701929D01*
X2093643Y-13716214D01*
X2079357Y-13701929D01*
X2093643Y-13687643D01*
X2093643Y-13716214D01*
X2279357Y-13544786D02*
X2250786Y-13530500D01*
X2236500Y-13516214D01*
X2222214Y-13487643D01*
X2222214Y-13473357D01*
X2236500Y-13444786D01*
X2250786Y-13430500D01*
X2279357Y-13416214D01*
X2336500Y-13416214D01*
X2365071Y-13430500D01*
X2379357Y-13444786D01*
X2393643Y-13473357D01*
X2393643Y-13487643D01*
X2379357Y-13516214D01*
X2365071Y-13530500D01*
X2336500Y-13544786D01*
X2279357Y-13544786D01*
X2250786Y-13559071D01*
X2236500Y-13573357D01*
X2222214Y-13601929D01*
X2222214Y-13659071D01*
X2236500Y-13687643D01*
X2250786Y-13701929D01*
X2279357Y-13716214D01*
X2336500Y-13716214D01*
X2365071Y-13701929D01*
X2379357Y-13687643D01*
X2393643Y-13659071D01*
X2393643Y-13601929D01*
X2379357Y-13573357D01*
X2365071Y-13559071D01*
X2336500Y-13544786D01*
X2579357Y-13416214D02*
X2607928Y-13416214D01*
X2636500Y-13430500D01*
X2650786Y-13444786D01*
X2665071Y-13473357D01*
X2679357Y-13530500D01*
X2679357Y-13601929D01*
X2665071Y-13659071D01*
X2650786Y-13687643D01*
X2636500Y-13701929D01*
X2607928Y-13716214D01*
X2579357Y-13716214D01*
X2550786Y-13701929D01*
X2536500Y-13687643D01*
X2522214Y-13659071D01*
X2507928Y-13601929D01*
X2507928Y-13530500D01*
X2522214Y-13473357D01*
X2536500Y-13444786D01*
X2550786Y-13430500D01*
X2579357Y-13416214D01*
X2865071Y-13416214D02*
X2893643Y-13416214D01*
X2922214Y-13430500D01*
X2936500Y-13444786D01*
X2950786Y-13473357D01*
X2965071Y-13530500D01*
X2965071Y-13601929D01*
X2950786Y-13659071D01*
X2936500Y-13687643D01*
X2922214Y-13701929D01*
X2893643Y-13716214D01*
X2865071Y-13716214D01*
X2836500Y-13701929D01*
X2822214Y-13687643D01*
X2807928Y-13659071D01*
X2793643Y-13601929D01*
X2793643Y-13530500D01*
X2807928Y-13473357D01*
X2822214Y-13444786D01*
X2836500Y-13430500D01*
X2865071Y-13416214D01*
X3093643Y-13716214D02*
X3093643Y-13516214D01*
X3093643Y-13544786D02*
X3107928Y-13530500D01*
X3136500Y-13516214D01*
X3179357Y-13516214D01*
X3207928Y-13530500D01*
X3222214Y-13559071D01*
X3222214Y-13716214D01*
X3222214Y-13559071D02*
X3236500Y-13530500D01*
X3265071Y-13516214D01*
X3307928Y-13516214D01*
X3336500Y-13530500D01*
X3350786Y-13559071D01*
X3350786Y-13716214D01*
X3493643Y-13716214D02*
X3493643Y-13516214D01*
X3493643Y-13544786D02*
X3507928Y-13530500D01*
X3536500Y-13516214D01*
X3579357Y-13516214D01*
X3607928Y-13530500D01*
X3622214Y-13559071D01*
X3622214Y-13716214D01*
X3622214Y-13559071D02*
X3636500Y-13530500D01*
X3665071Y-13516214D01*
X3707928Y-13516214D01*
X3736500Y-13530500D01*
X3750786Y-13559071D01*
X3750786Y-13716214D01*
X4336500Y-13401929D02*
X4079357Y-13787643D01*
X4722214Y-13416214D02*
X4750786Y-13416214D01*
X4779357Y-13430500D01*
X4793643Y-13444786D01*
X4807928Y-13473357D01*
X4822214Y-13530500D01*
X4822214Y-13601929D01*
X4807928Y-13659071D01*
X4793643Y-13687643D01*
X4779357Y-13701929D01*
X4750786Y-13716214D01*
X4722214Y-13716214D01*
X4693643Y-13701929D01*
X4679357Y-13687643D01*
X4665071Y-13659071D01*
X4650786Y-13601929D01*
X4650786Y-13530500D01*
X4665071Y-13473357D01*
X4679357Y-13444786D01*
X4693643Y-13430500D01*
X4722214Y-13416214D01*
X4950786Y-13687643D02*
X4965071Y-13701929D01*
X4950786Y-13716214D01*
X4936500Y-13701929D01*
X4950786Y-13687643D01*
X4950786Y-13716214D01*
X5150786Y-13416214D02*
X5179357Y-13416214D01*
X5207928Y-13430500D01*
X5222214Y-13444786D01*
X5236500Y-13473357D01*
X5250786Y-13530500D01*
X5250786Y-13601929D01*
X5236500Y-13659071D01*
X5222214Y-13687643D01*
X5207928Y-13701929D01*
X5179357Y-13716214D01*
X5150786Y-13716214D01*
X5122214Y-13701929D01*
X5107928Y-13687643D01*
X5093643Y-13659071D01*
X5079357Y-13601929D01*
X5079357Y-13530500D01*
X5093643Y-13473357D01*
X5107928Y-13444786D01*
X5122214Y-13430500D01*
X5150786Y-13416214D01*
X5350786Y-13416214D02*
X5536500Y-13416214D01*
X5436500Y-13530500D01*
X5479357Y-13530500D01*
X5507928Y-13544786D01*
X5522214Y-13559071D01*
X5536500Y-13587643D01*
X5536500Y-13659071D01*
X5522214Y-13687643D01*
X5507928Y-13701929D01*
X5479357Y-13716214D01*
X5393643Y-13716214D01*
X5365071Y-13701929D01*
X5350786Y-13687643D01*
X5822214Y-13716214D02*
X5650786Y-13716214D01*
X5736500Y-13716214D02*
X5736500Y-13416214D01*
X5707928Y-13459071D01*
X5679357Y-13487643D01*
X5650786Y-13501929D01*
X6093643Y-13416214D02*
X5950786Y-13416214D01*
X5936500Y-13559071D01*
X5950786Y-13544786D01*
X5979357Y-13530500D01*
X6050786Y-13530500D01*
X6079357Y-13544786D01*
X6093643Y-13559071D01*
X6107928Y-13587643D01*
X6107928Y-13659071D01*
X6093643Y-13687643D01*
X6079357Y-13701929D01*
X6050786Y-13716214D01*
X5979357Y-13716214D01*
X5950786Y-13701929D01*
X5936500Y-13687643D01*
X6222214Y-13416214D02*
X6222214Y-13473357D01*
X6336500Y-13416214D02*
X6336500Y-13473357D01*
X6779357Y-13830500D02*
X6765071Y-13816214D01*
X6736500Y-13773357D01*
X6722214Y-13744786D01*
X6707928Y-13701929D01*
X6693643Y-13630500D01*
X6693643Y-13573357D01*
X6707928Y-13501929D01*
X6722214Y-13459071D01*
X6736500Y-13430500D01*
X6765071Y-13387643D01*
X6779357Y-13373357D01*
X7022214Y-13416214D02*
X6965071Y-13416214D01*
X6936500Y-13430500D01*
X6922214Y-13444786D01*
X6893643Y-13487643D01*
X6879357Y-13544786D01*
X6879357Y-13659071D01*
X6893643Y-13687643D01*
X6907928Y-13701929D01*
X6936500Y-13716214D01*
X6993643Y-13716214D01*
X7022214Y-13701929D01*
X7036500Y-13687643D01*
X7050786Y-13659071D01*
X7050786Y-13587643D01*
X7036500Y-13559071D01*
X7022214Y-13544786D01*
X6993643Y-13530500D01*
X6936500Y-13530500D01*
X6907928Y-13544786D01*
X6893643Y-13559071D01*
X6879357Y-13587643D01*
X7407928Y-13716214D02*
X7407928Y-13416214D01*
X7536500Y-13716214D02*
X7536500Y-13559071D01*
X7522214Y-13530500D01*
X7493643Y-13516214D01*
X7450786Y-13516214D01*
X7422214Y-13530500D01*
X7407928Y-13544786D01*
X7722214Y-13716214D02*
X7693643Y-13701929D01*
X7679357Y-13687643D01*
X7665071Y-13659071D01*
X7665071Y-13573357D01*
X7679357Y-13544786D01*
X7693643Y-13530500D01*
X7722214Y-13516214D01*
X7765071Y-13516214D01*
X7793643Y-13530500D01*
X7807928Y-13544786D01*
X7822214Y-13573357D01*
X7822214Y-13659071D01*
X7807928Y-13687643D01*
X7793643Y-13701929D01*
X7765071Y-13716214D01*
X7722214Y-13716214D01*
X7993643Y-13716214D02*
X7965071Y-13701929D01*
X7950786Y-13673357D01*
X7950786Y-13416214D01*
X8222214Y-13701929D02*
X8193643Y-13716214D01*
X8136500Y-13716214D01*
X8107928Y-13701929D01*
X8093643Y-13673357D01*
X8093643Y-13559071D01*
X8107928Y-13530500D01*
X8136500Y-13516214D01*
X8193643Y-13516214D01*
X8222214Y-13530500D01*
X8236500Y-13559071D01*
X8236500Y-13587643D01*
X8093643Y-13616214D01*
X8350786Y-13701929D02*
X8379357Y-13716214D01*
X8436500Y-13716214D01*
X8465071Y-13701929D01*
X8479357Y-13673357D01*
X8479357Y-13659071D01*
X8465071Y-13630500D01*
X8436500Y-13616214D01*
X8393643Y-13616214D01*
X8365071Y-13601929D01*
X8350786Y-13573357D01*
X8350786Y-13559071D01*
X8365071Y-13530500D01*
X8393643Y-13516214D01*
X8436500Y-13516214D01*
X8465071Y-13530500D01*
X8579357Y-13830500D02*
X8593643Y-13816214D01*
X8622214Y-13773357D01*
X8636500Y-13744786D01*
X8650786Y-13701929D01*
X8665071Y-13630500D01*
X8665071Y-13573357D01*
X8650786Y-13501929D01*
X8636500Y-13459071D01*
X8622214Y-13430500D01*
X8593643Y-13387643D01*
X8579357Y-13373357D01*
X1476500Y-14021500D02*
X1521500Y-13976500D01*
X1476500Y-13931500D01*
X1431500Y-13976500D01*
X1476500Y-14021500D01*
X1865071Y-13812214D02*
X1893643Y-13812214D01*
X1922214Y-13826500D01*
X1936500Y-13840786D01*
X1950786Y-13869357D01*
X1965071Y-13926500D01*
X1965071Y-13997929D01*
X1950786Y-14055071D01*
X1936500Y-14083643D01*
X1922214Y-14097929D01*
X1893643Y-14112214D01*
X1865071Y-14112214D01*
X1836500Y-14097929D01*
X1822214Y-14083643D01*
X1807928Y-14055071D01*
X1793643Y-13997929D01*
X1793643Y-13926500D01*
X1807928Y-13869357D01*
X1822214Y-13840786D01*
X1836500Y-13826500D01*
X1865071Y-13812214D01*
X2093643Y-14083643D02*
X2107928Y-14097929D01*
X2093643Y-14112214D01*
X2079357Y-14097929D01*
X2093643Y-14083643D01*
X2093643Y-14112214D01*
X2250786Y-14112214D02*
X2307928Y-14112214D01*
X2336500Y-14097929D01*
X2350786Y-14083643D01*
X2379357Y-14040786D01*
X2393643Y-13983643D01*
X2393643Y-13869357D01*
X2379357Y-13840786D01*
X2365071Y-13826500D01*
X2336500Y-13812214D01*
X2279357Y-13812214D01*
X2250786Y-13826500D01*
X2236500Y-13840786D01*
X2222214Y-13869357D01*
X2222214Y-13940786D01*
X2236500Y-13969357D01*
X2250786Y-13983643D01*
X2279357Y-13997929D01*
X2336500Y-13997929D01*
X2365071Y-13983643D01*
X2379357Y-13969357D01*
X2393643Y-13940786D01*
X2579357Y-13812214D02*
X2607928Y-13812214D01*
X2636500Y-13826500D01*
X2650786Y-13840786D01*
X2665071Y-13869357D01*
X2679357Y-13926500D01*
X2679357Y-13997929D01*
X2665071Y-14055071D01*
X2650786Y-14083643D01*
X2636500Y-14097929D01*
X2607928Y-14112214D01*
X2579357Y-14112214D01*
X2550786Y-14097929D01*
X2536500Y-14083643D01*
X2522214Y-14055071D01*
X2507928Y-13997929D01*
X2507928Y-13926500D01*
X2522214Y-13869357D01*
X2536500Y-13840786D01*
X2550786Y-13826500D01*
X2579357Y-13812214D01*
X2865071Y-13812214D02*
X2893643Y-13812214D01*
X2922214Y-13826500D01*
X2936500Y-13840786D01*
X2950786Y-13869357D01*
X2965071Y-13926500D01*
X2965071Y-13997929D01*
X2950786Y-14055071D01*
X2936500Y-14083643D01*
X2922214Y-14097929D01*
X2893643Y-14112214D01*
X2865071Y-14112214D01*
X2836500Y-14097929D01*
X2822214Y-14083643D01*
X2807928Y-14055071D01*
X2793643Y-13997929D01*
X2793643Y-13926500D01*
X2807928Y-13869357D01*
X2822214Y-13840786D01*
X2836500Y-13826500D01*
X2865071Y-13812214D01*
X3093643Y-14112214D02*
X3093643Y-13912214D01*
X3093643Y-13940786D02*
X3107928Y-13926500D01*
X3136500Y-13912214D01*
X3179357Y-13912214D01*
X3207928Y-13926500D01*
X3222214Y-13955071D01*
X3222214Y-14112214D01*
X3222214Y-13955071D02*
X3236500Y-13926500D01*
X3265071Y-13912214D01*
X3307928Y-13912214D01*
X3336500Y-13926500D01*
X3350786Y-13955071D01*
X3350786Y-14112214D01*
X3493643Y-14112214D02*
X3493643Y-13912214D01*
X3493643Y-13940786D02*
X3507928Y-13926500D01*
X3536500Y-13912214D01*
X3579357Y-13912214D01*
X3607928Y-13926500D01*
X3622214Y-13955071D01*
X3622214Y-14112214D01*
X3622214Y-13955071D02*
X3636500Y-13926500D01*
X3665071Y-13912214D01*
X3707928Y-13912214D01*
X3736500Y-13926500D01*
X3750786Y-13955071D01*
X3750786Y-14112214D01*
X4336500Y-13797929D02*
X4079357Y-14183643D01*
X4722214Y-13812214D02*
X4750786Y-13812214D01*
X4779357Y-13826500D01*
X4793643Y-13840786D01*
X4807928Y-13869357D01*
X4822214Y-13926500D01*
X4822214Y-13997929D01*
X4807928Y-14055071D01*
X4793643Y-14083643D01*
X4779357Y-14097929D01*
X4750786Y-14112214D01*
X4722214Y-14112214D01*
X4693643Y-14097929D01*
X4679357Y-14083643D01*
X4665071Y-14055071D01*
X4650786Y-13997929D01*
X4650786Y-13926500D01*
X4665071Y-13869357D01*
X4679357Y-13840786D01*
X4693643Y-13826500D01*
X4722214Y-13812214D01*
X4950786Y-14083643D02*
X4965071Y-14097929D01*
X4950786Y-14112214D01*
X4936500Y-14097929D01*
X4950786Y-14083643D01*
X4950786Y-14112214D01*
X5150786Y-13812214D02*
X5179357Y-13812214D01*
X5207928Y-13826500D01*
X5222214Y-13840786D01*
X5236500Y-13869357D01*
X5250786Y-13926500D01*
X5250786Y-13997929D01*
X5236500Y-14055071D01*
X5222214Y-14083643D01*
X5207928Y-14097929D01*
X5179357Y-14112214D01*
X5150786Y-14112214D01*
X5122214Y-14097929D01*
X5107928Y-14083643D01*
X5093643Y-14055071D01*
X5079357Y-13997929D01*
X5079357Y-13926500D01*
X5093643Y-13869357D01*
X5107928Y-13840786D01*
X5122214Y-13826500D01*
X5150786Y-13812214D01*
X5350786Y-13812214D02*
X5536500Y-13812214D01*
X5436500Y-13926500D01*
X5479357Y-13926500D01*
X5507928Y-13940786D01*
X5522214Y-13955071D01*
X5536500Y-13983643D01*
X5536500Y-14055071D01*
X5522214Y-14083643D01*
X5507928Y-14097929D01*
X5479357Y-14112214D01*
X5393643Y-14112214D01*
X5365071Y-14097929D01*
X5350786Y-14083643D01*
X5807928Y-13812214D02*
X5665071Y-13812214D01*
X5650786Y-13955071D01*
X5665071Y-13940786D01*
X5693643Y-13926500D01*
X5765071Y-13926500D01*
X5793643Y-13940786D01*
X5807928Y-13955071D01*
X5822214Y-13983643D01*
X5822214Y-14055071D01*
X5807928Y-14083643D01*
X5793643Y-14097929D01*
X5765071Y-14112214D01*
X5693643Y-14112214D01*
X5665071Y-14097929D01*
X5650786Y-14083643D01*
X6079357Y-13912214D02*
X6079357Y-14112214D01*
X6007928Y-13797929D02*
X5936500Y-14012214D01*
X6122214Y-14012214D01*
X6222214Y-13812214D02*
X6222214Y-13869357D01*
X6336500Y-13812214D02*
X6336500Y-13869357D01*
X6779357Y-14226500D02*
X6765071Y-14212214D01*
X6736500Y-14169357D01*
X6722214Y-14140786D01*
X6707928Y-14097929D01*
X6693643Y-14026500D01*
X6693643Y-13969357D01*
X6707928Y-13897929D01*
X6722214Y-13855071D01*
X6736500Y-13826500D01*
X6765071Y-13783643D01*
X6779357Y-13769357D01*
X6936500Y-13940786D02*
X6907928Y-13926500D01*
X6893643Y-13912214D01*
X6879357Y-13883643D01*
X6879357Y-13869357D01*
X6893643Y-13840786D01*
X6907928Y-13826500D01*
X6936500Y-13812214D01*
X6993643Y-13812214D01*
X7022214Y-13826500D01*
X7036500Y-13840786D01*
X7050786Y-13869357D01*
X7050786Y-13883643D01*
X7036500Y-13912214D01*
X7022214Y-13926500D01*
X6993643Y-13940786D01*
X6936500Y-13940786D01*
X6907928Y-13955071D01*
X6893643Y-13969357D01*
X6879357Y-13997929D01*
X6879357Y-14055071D01*
X6893643Y-14083643D01*
X6907928Y-14097929D01*
X6936500Y-14112214D01*
X6993643Y-14112214D01*
X7022214Y-14097929D01*
X7036500Y-14083643D01*
X7050786Y-14055071D01*
X7050786Y-13997929D01*
X7036500Y-13969357D01*
X7022214Y-13955071D01*
X6993643Y-13940786D01*
X7407928Y-14112214D02*
X7407928Y-13812214D01*
X7536500Y-14112214D02*
X7536500Y-13955071D01*
X7522214Y-13926500D01*
X7493643Y-13912214D01*
X7450786Y-13912214D01*
X7422214Y-13926500D01*
X7407928Y-13940786D01*
X7722214Y-14112214D02*
X7693643Y-14097929D01*
X7679357Y-14083643D01*
X7665071Y-14055071D01*
X7665071Y-13969357D01*
X7679357Y-13940786D01*
X7693643Y-13926500D01*
X7722214Y-13912214D01*
X7765071Y-13912214D01*
X7793643Y-13926500D01*
X7807928Y-13940786D01*
X7822214Y-13969357D01*
X7822214Y-14055071D01*
X7807928Y-14083643D01*
X7793643Y-14097929D01*
X7765071Y-14112214D01*
X7722214Y-14112214D01*
X7993643Y-14112214D02*
X7965071Y-14097929D01*
X7950786Y-14069357D01*
X7950786Y-13812214D01*
X8222214Y-14097929D02*
X8193643Y-14112214D01*
X8136500Y-14112214D01*
X8107928Y-14097929D01*
X8093643Y-14069357D01*
X8093643Y-13955071D01*
X8107928Y-13926500D01*
X8136500Y-13912214D01*
X8193643Y-13912214D01*
X8222214Y-13926500D01*
X8236500Y-13955071D01*
X8236500Y-13983643D01*
X8093643Y-14012214D01*
X8350786Y-14097929D02*
X8379357Y-14112214D01*
X8436500Y-14112214D01*
X8465071Y-14097929D01*
X8479357Y-14069357D01*
X8479357Y-14055071D01*
X8465071Y-14026500D01*
X8436500Y-14012214D01*
X8393643Y-14012214D01*
X8365071Y-13997929D01*
X8350786Y-13969357D01*
X8350786Y-13955071D01*
X8365071Y-13926500D01*
X8393643Y-13912214D01*
X8436500Y-13912214D01*
X8465071Y-13926500D01*
X8579357Y-14226500D02*
X8593643Y-14212214D01*
X8622214Y-14169357D01*
X8636500Y-14140786D01*
X8650786Y-14097929D01*
X8665071Y-14026500D01*
X8665071Y-13969357D01*
X8650786Y-13897929D01*
X8636500Y-13855071D01*
X8622214Y-13826500D01*
X8593643Y-13783643D01*
X8579357Y-13769357D01*
X1421500Y-14322500D02*
X1521500Y-14422500D01*
X1521500Y-14322500D02*
X1421500Y-14422500D01*
X1521500Y-14372500D02*
G75*
G03*
X1521500Y-14372500I-50000J0D01*
G01*
X1965071Y-14508214D02*
X1793643Y-14508214D01*
X1879357Y-14508214D02*
X1879357Y-14208214D01*
X1850786Y-14251071D01*
X1822214Y-14279643D01*
X1793643Y-14293929D01*
X2093643Y-14479643D02*
X2107928Y-14493929D01*
X2093643Y-14508214D01*
X2079357Y-14493929D01*
X2093643Y-14479643D01*
X2093643Y-14508214D01*
X2293643Y-14208214D02*
X2322214Y-14208214D01*
X2350786Y-14222500D01*
X2365071Y-14236786D01*
X2379357Y-14265357D01*
X2393643Y-14322500D01*
X2393643Y-14393929D01*
X2379357Y-14451071D01*
X2365071Y-14479643D01*
X2350786Y-14493929D01*
X2322214Y-14508214D01*
X2293643Y-14508214D01*
X2265071Y-14493929D01*
X2250786Y-14479643D01*
X2236500Y-14451071D01*
X2222214Y-14393929D01*
X2222214Y-14322500D01*
X2236500Y-14265357D01*
X2250786Y-14236786D01*
X2265071Y-14222500D01*
X2293643Y-14208214D01*
X2579357Y-14208214D02*
X2607928Y-14208214D01*
X2636500Y-14222500D01*
X2650786Y-14236786D01*
X2665071Y-14265357D01*
X2679357Y-14322500D01*
X2679357Y-14393929D01*
X2665071Y-14451071D01*
X2650786Y-14479643D01*
X2636500Y-14493929D01*
X2607928Y-14508214D01*
X2579357Y-14508214D01*
X2550786Y-14493929D01*
X2536500Y-14479643D01*
X2522214Y-14451071D01*
X2507928Y-14393929D01*
X2507928Y-14322500D01*
X2522214Y-14265357D01*
X2536500Y-14236786D01*
X2550786Y-14222500D01*
X2579357Y-14208214D01*
X2865071Y-14208214D02*
X2893643Y-14208214D01*
X2922214Y-14222500D01*
X2936500Y-14236786D01*
X2950786Y-14265357D01*
X2965071Y-14322500D01*
X2965071Y-14393929D01*
X2950786Y-14451071D01*
X2936500Y-14479643D01*
X2922214Y-14493929D01*
X2893643Y-14508214D01*
X2865071Y-14508214D01*
X2836500Y-14493929D01*
X2822214Y-14479643D01*
X2807928Y-14451071D01*
X2793643Y-14393929D01*
X2793643Y-14322500D01*
X2807928Y-14265357D01*
X2822214Y-14236786D01*
X2836500Y-14222500D01*
X2865071Y-14208214D01*
X3093643Y-14508214D02*
X3093643Y-14308214D01*
X3093643Y-14336786D02*
X3107928Y-14322500D01*
X3136500Y-14308214D01*
X3179357Y-14308214D01*
X3207928Y-14322500D01*
X3222214Y-14351071D01*
X3222214Y-14508214D01*
X3222214Y-14351071D02*
X3236500Y-14322500D01*
X3265071Y-14308214D01*
X3307928Y-14308214D01*
X3336500Y-14322500D01*
X3350786Y-14351071D01*
X3350786Y-14508214D01*
X3493643Y-14508214D02*
X3493643Y-14308214D01*
X3493643Y-14336786D02*
X3507928Y-14322500D01*
X3536500Y-14308214D01*
X3579357Y-14308214D01*
X3607928Y-14322500D01*
X3622214Y-14351071D01*
X3622214Y-14508214D01*
X3622214Y-14351071D02*
X3636500Y-14322500D01*
X3665071Y-14308214D01*
X3707928Y-14308214D01*
X3736500Y-14322500D01*
X3750786Y-14351071D01*
X3750786Y-14508214D01*
X4336500Y-14193929D02*
X4079357Y-14579643D01*
X4722214Y-14208214D02*
X4750786Y-14208214D01*
X4779357Y-14222500D01*
X4793643Y-14236786D01*
X4807928Y-14265357D01*
X4822214Y-14322500D01*
X4822214Y-14393929D01*
X4807928Y-14451071D01*
X4793643Y-14479643D01*
X4779357Y-14493929D01*
X4750786Y-14508214D01*
X4722214Y-14508214D01*
X4693643Y-14493929D01*
X4679357Y-14479643D01*
X4665071Y-14451071D01*
X4650786Y-14393929D01*
X4650786Y-14322500D01*
X4665071Y-14265357D01*
X4679357Y-14236786D01*
X4693643Y-14222500D01*
X4722214Y-14208214D01*
X4950786Y-14479643D02*
X4965071Y-14493929D01*
X4950786Y-14508214D01*
X4936500Y-14493929D01*
X4950786Y-14479643D01*
X4950786Y-14508214D01*
X5150786Y-14208214D02*
X5179357Y-14208214D01*
X5207928Y-14222500D01*
X5222214Y-14236786D01*
X5236500Y-14265357D01*
X5250786Y-14322500D01*
X5250786Y-14393929D01*
X5236500Y-14451071D01*
X5222214Y-14479643D01*
X5207928Y-14493929D01*
X5179357Y-14508214D01*
X5150786Y-14508214D01*
X5122214Y-14493929D01*
X5107928Y-14479643D01*
X5093643Y-14451071D01*
X5079357Y-14393929D01*
X5079357Y-14322500D01*
X5093643Y-14265357D01*
X5107928Y-14236786D01*
X5122214Y-14222500D01*
X5150786Y-14208214D01*
X5350786Y-14208214D02*
X5536500Y-14208214D01*
X5436500Y-14322500D01*
X5479357Y-14322500D01*
X5507928Y-14336786D01*
X5522214Y-14351071D01*
X5536500Y-14379643D01*
X5536500Y-14451071D01*
X5522214Y-14479643D01*
X5507928Y-14493929D01*
X5479357Y-14508214D01*
X5393643Y-14508214D01*
X5365071Y-14493929D01*
X5350786Y-14479643D01*
X5679357Y-14508214D02*
X5736500Y-14508214D01*
X5765071Y-14493929D01*
X5779357Y-14479643D01*
X5807928Y-14436786D01*
X5822214Y-14379643D01*
X5822214Y-14265357D01*
X5807928Y-14236786D01*
X5793643Y-14222500D01*
X5765071Y-14208214D01*
X5707928Y-14208214D01*
X5679357Y-14222500D01*
X5665071Y-14236786D01*
X5650786Y-14265357D01*
X5650786Y-14336786D01*
X5665071Y-14365357D01*
X5679357Y-14379643D01*
X5707928Y-14393929D01*
X5765071Y-14393929D01*
X5793643Y-14379643D01*
X5807928Y-14365357D01*
X5822214Y-14336786D01*
X6079357Y-14308214D02*
X6079357Y-14508214D01*
X6007928Y-14193929D02*
X5936500Y-14408214D01*
X6122214Y-14408214D01*
X6222214Y-14208214D02*
X6222214Y-14265357D01*
X6336500Y-14208214D02*
X6336500Y-14265357D01*
X6779357Y-14622500D02*
X6765071Y-14608214D01*
X6736500Y-14565357D01*
X6722214Y-14536786D01*
X6707928Y-14493929D01*
X6693643Y-14422500D01*
X6693643Y-14365357D01*
X6707928Y-14293929D01*
X6722214Y-14251071D01*
X6736500Y-14222500D01*
X6765071Y-14179643D01*
X6779357Y-14165357D01*
X6879357Y-14236786D02*
X6893643Y-14222500D01*
X6922214Y-14208214D01*
X6993643Y-14208214D01*
X7022214Y-14222500D01*
X7036500Y-14236786D01*
X7050786Y-14265357D01*
X7050786Y-14293929D01*
X7036500Y-14336786D01*
X6865071Y-14508214D01*
X7050786Y-14508214D01*
X7236500Y-14208214D02*
X7265071Y-14208214D01*
X7293643Y-14222500D01*
X7307928Y-14236786D01*
X7322214Y-14265357D01*
X7336500Y-14322500D01*
X7336500Y-14393929D01*
X7322214Y-14451071D01*
X7307928Y-14479643D01*
X7293643Y-14493929D01*
X7265071Y-14508214D01*
X7236500Y-14508214D01*
X7207928Y-14493929D01*
X7193643Y-14479643D01*
X7179357Y-14451071D01*
X7165071Y-14393929D01*
X7165071Y-14322500D01*
X7179357Y-14265357D01*
X7193643Y-14236786D01*
X7207928Y-14222500D01*
X7236500Y-14208214D01*
X7693643Y-14508214D02*
X7693643Y-14208214D01*
X7822214Y-14508214D02*
X7822214Y-14351071D01*
X7807928Y-14322500D01*
X7779357Y-14308214D01*
X7736500Y-14308214D01*
X7707928Y-14322500D01*
X7693643Y-14336786D01*
X8007928Y-14508214D02*
X7979357Y-14493929D01*
X7965071Y-14479643D01*
X7950786Y-14451071D01*
X7950786Y-14365357D01*
X7965071Y-14336786D01*
X7979357Y-14322500D01*
X8007928Y-14308214D01*
X8050786Y-14308214D01*
X8079357Y-14322500D01*
X8093643Y-14336786D01*
X8107928Y-14365357D01*
X8107928Y-14451071D01*
X8093643Y-14479643D01*
X8079357Y-14493929D01*
X8050786Y-14508214D01*
X8007928Y-14508214D01*
X8279357Y-14508214D02*
X8250786Y-14493929D01*
X8236500Y-14465357D01*
X8236500Y-14208214D01*
X8507928Y-14493929D02*
X8479357Y-14508214D01*
X8422214Y-14508214D01*
X8393643Y-14493929D01*
X8379357Y-14465357D01*
X8379357Y-14351071D01*
X8393643Y-14322500D01*
X8422214Y-14308214D01*
X8479357Y-14308214D01*
X8507928Y-14322500D01*
X8522214Y-14351071D01*
X8522214Y-14379643D01*
X8379357Y-14408214D01*
X8636500Y-14493929D02*
X8665071Y-14508214D01*
X8722214Y-14508214D01*
X8750786Y-14493929D01*
X8765071Y-14465357D01*
X8765071Y-14451071D01*
X8750786Y-14422500D01*
X8722214Y-14408214D01*
X8679357Y-14408214D01*
X8650786Y-14393929D01*
X8636500Y-14365357D01*
X8636500Y-14351071D01*
X8650786Y-14322500D01*
X8679357Y-14308214D01*
X8722214Y-14308214D01*
X8750786Y-14322500D01*
X8865071Y-14622500D02*
X8879357Y-14608214D01*
X8907928Y-14565357D01*
X8922214Y-14536786D01*
X8936500Y-14493929D01*
X8950786Y-14422500D01*
X8950786Y-14365357D01*
X8936500Y-14293929D01*
X8922214Y-14251071D01*
X8907928Y-14222500D01*
X8879357Y-14179643D01*
X8865071Y-14165357D01*
X1418500Y-14717000D02*
X1521500Y-14820000D01*
X1521500Y-14717000D02*
X1418500Y-14820000D01*
X1470000Y-14717000D02*
X1470000Y-14820000D01*
X1418500Y-14768500D02*
X1521500Y-14768500D01*
X1965071Y-14904214D02*
X1793643Y-14904214D01*
X1879357Y-14904214D02*
X1879357Y-14604214D01*
X1850786Y-14647071D01*
X1822214Y-14675643D01*
X1793643Y-14689929D01*
X2093643Y-14875643D02*
X2107928Y-14889929D01*
X2093643Y-14904214D01*
X2079357Y-14889929D01*
X2093643Y-14875643D01*
X2093643Y-14904214D01*
X2293643Y-14604214D02*
X2322214Y-14604214D01*
X2350786Y-14618500D01*
X2365071Y-14632786D01*
X2379357Y-14661357D01*
X2393643Y-14718500D01*
X2393643Y-14789929D01*
X2379357Y-14847071D01*
X2365071Y-14875643D01*
X2350786Y-14889929D01*
X2322214Y-14904214D01*
X2293643Y-14904214D01*
X2265071Y-14889929D01*
X2250786Y-14875643D01*
X2236500Y-14847071D01*
X2222214Y-14789929D01*
X2222214Y-14718500D01*
X2236500Y-14661357D01*
X2250786Y-14632786D01*
X2265071Y-14618500D01*
X2293643Y-14604214D01*
X2493643Y-14604214D02*
X2679357Y-14604214D01*
X2579357Y-14718500D01*
X2622214Y-14718500D01*
X2650786Y-14732786D01*
X2665071Y-14747071D01*
X2679357Y-14775643D01*
X2679357Y-14847071D01*
X2665071Y-14875643D01*
X2650786Y-14889929D01*
X2622214Y-14904214D01*
X2536500Y-14904214D01*
X2507928Y-14889929D01*
X2493643Y-14875643D01*
X2865071Y-14604214D02*
X2893643Y-14604214D01*
X2922214Y-14618500D01*
X2936500Y-14632786D01*
X2950786Y-14661357D01*
X2965071Y-14718500D01*
X2965071Y-14789929D01*
X2950786Y-14847071D01*
X2936500Y-14875643D01*
X2922214Y-14889929D01*
X2893643Y-14904214D01*
X2865071Y-14904214D01*
X2836500Y-14889929D01*
X2822214Y-14875643D01*
X2807928Y-14847071D01*
X2793643Y-14789929D01*
X2793643Y-14718500D01*
X2807928Y-14661357D01*
X2822214Y-14632786D01*
X2836500Y-14618500D01*
X2865071Y-14604214D01*
X3093643Y-14904214D02*
X3093643Y-14704214D01*
X3093643Y-14732786D02*
X3107928Y-14718500D01*
X3136500Y-14704214D01*
X3179357Y-14704214D01*
X3207928Y-14718500D01*
X3222214Y-14747071D01*
X3222214Y-14904214D01*
X3222214Y-14747071D02*
X3236500Y-14718500D01*
X3265071Y-14704214D01*
X3307928Y-14704214D01*
X3336500Y-14718500D01*
X3350786Y-14747071D01*
X3350786Y-14904214D01*
X3493643Y-14904214D02*
X3493643Y-14704214D01*
X3493643Y-14732786D02*
X3507928Y-14718500D01*
X3536500Y-14704214D01*
X3579357Y-14704214D01*
X3607928Y-14718500D01*
X3622214Y-14747071D01*
X3622214Y-14904214D01*
X3622214Y-14747071D02*
X3636500Y-14718500D01*
X3665071Y-14704214D01*
X3707928Y-14704214D01*
X3736500Y-14718500D01*
X3750786Y-14747071D01*
X3750786Y-14904214D01*
X4336500Y-14589929D02*
X4079357Y-14975643D01*
X4722214Y-14604214D02*
X4750786Y-14604214D01*
X4779357Y-14618500D01*
X4793643Y-14632786D01*
X4807928Y-14661357D01*
X4822214Y-14718500D01*
X4822214Y-14789929D01*
X4807928Y-14847071D01*
X4793643Y-14875643D01*
X4779357Y-14889929D01*
X4750786Y-14904214D01*
X4722214Y-14904214D01*
X4693643Y-14889929D01*
X4679357Y-14875643D01*
X4665071Y-14847071D01*
X4650786Y-14789929D01*
X4650786Y-14718500D01*
X4665071Y-14661357D01*
X4679357Y-14632786D01*
X4693643Y-14618500D01*
X4722214Y-14604214D01*
X4950786Y-14875643D02*
X4965071Y-14889929D01*
X4950786Y-14904214D01*
X4936500Y-14889929D01*
X4950786Y-14875643D01*
X4950786Y-14904214D01*
X5150786Y-14604214D02*
X5179357Y-14604214D01*
X5207928Y-14618500D01*
X5222214Y-14632786D01*
X5236500Y-14661357D01*
X5250786Y-14718500D01*
X5250786Y-14789929D01*
X5236500Y-14847071D01*
X5222214Y-14875643D01*
X5207928Y-14889929D01*
X5179357Y-14904214D01*
X5150786Y-14904214D01*
X5122214Y-14889929D01*
X5107928Y-14875643D01*
X5093643Y-14847071D01*
X5079357Y-14789929D01*
X5079357Y-14718500D01*
X5093643Y-14661357D01*
X5107928Y-14632786D01*
X5122214Y-14618500D01*
X5150786Y-14604214D01*
X5507928Y-14704214D02*
X5507928Y-14904214D01*
X5436500Y-14589929D02*
X5365071Y-14804214D01*
X5550786Y-14804214D01*
X5722214Y-14604214D02*
X5750786Y-14604214D01*
X5779357Y-14618500D01*
X5793643Y-14632786D01*
X5807928Y-14661357D01*
X5822214Y-14718500D01*
X5822214Y-14789929D01*
X5807928Y-14847071D01*
X5793643Y-14875643D01*
X5779357Y-14889929D01*
X5750786Y-14904214D01*
X5722214Y-14904214D01*
X5693643Y-14889929D01*
X5679357Y-14875643D01*
X5665071Y-14847071D01*
X5650786Y-14789929D01*
X5650786Y-14718500D01*
X5665071Y-14661357D01*
X5679357Y-14632786D01*
X5693643Y-14618500D01*
X5722214Y-14604214D01*
X6079357Y-14604214D02*
X6022214Y-14604214D01*
X5993643Y-14618500D01*
X5979357Y-14632786D01*
X5950786Y-14675643D01*
X5936500Y-14732786D01*
X5936500Y-14847071D01*
X5950786Y-14875643D01*
X5965071Y-14889929D01*
X5993643Y-14904214D01*
X6050786Y-14904214D01*
X6079357Y-14889929D01*
X6093643Y-14875643D01*
X6107928Y-14847071D01*
X6107928Y-14775643D01*
X6093643Y-14747071D01*
X6079357Y-14732786D01*
X6050786Y-14718500D01*
X5993643Y-14718500D01*
X5965071Y-14732786D01*
X5950786Y-14747071D01*
X5936500Y-14775643D01*
X6222214Y-14604214D02*
X6222214Y-14661357D01*
X6336500Y-14604214D02*
X6336500Y-14661357D01*
X6779357Y-15018500D02*
X6765071Y-15004214D01*
X6736500Y-14961357D01*
X6722214Y-14932786D01*
X6707928Y-14889929D01*
X6693643Y-14818500D01*
X6693643Y-14761357D01*
X6707928Y-14689929D01*
X6722214Y-14647071D01*
X6736500Y-14618500D01*
X6765071Y-14575643D01*
X6779357Y-14561357D01*
X7050786Y-14904214D02*
X6879357Y-14904214D01*
X6965071Y-14904214D02*
X6965071Y-14604214D01*
X6936500Y-14647071D01*
X6907928Y-14675643D01*
X6879357Y-14689929D01*
X7165071Y-14632786D02*
X7179357Y-14618500D01*
X7207928Y-14604214D01*
X7279357Y-14604214D01*
X7307928Y-14618500D01*
X7322214Y-14632786D01*
X7336500Y-14661357D01*
X7336500Y-14689929D01*
X7322214Y-14732786D01*
X7150786Y-14904214D01*
X7336500Y-14904214D01*
X7693643Y-14904214D02*
X7693643Y-14604214D01*
X7822214Y-14904214D02*
X7822214Y-14747071D01*
X7807928Y-14718500D01*
X7779357Y-14704214D01*
X7736500Y-14704214D01*
X7707928Y-14718500D01*
X7693643Y-14732786D01*
X8007928Y-14904214D02*
X7979357Y-14889929D01*
X7965071Y-14875643D01*
X7950786Y-14847071D01*
X7950786Y-14761357D01*
X7965071Y-14732786D01*
X7979357Y-14718500D01*
X8007928Y-14704214D01*
X8050786Y-14704214D01*
X8079357Y-14718500D01*
X8093643Y-14732786D01*
X8107928Y-14761357D01*
X8107928Y-14847071D01*
X8093643Y-14875643D01*
X8079357Y-14889929D01*
X8050786Y-14904214D01*
X8007928Y-14904214D01*
X8279357Y-14904214D02*
X8250786Y-14889929D01*
X8236500Y-14861357D01*
X8236500Y-14604214D01*
X8507928Y-14889929D02*
X8479357Y-14904214D01*
X8422214Y-14904214D01*
X8393643Y-14889929D01*
X8379357Y-14861357D01*
X8379357Y-14747071D01*
X8393643Y-14718500D01*
X8422214Y-14704214D01*
X8479357Y-14704214D01*
X8507928Y-14718500D01*
X8522214Y-14747071D01*
X8522214Y-14775643D01*
X8379357Y-14804214D01*
X8636500Y-14889929D02*
X8665071Y-14904214D01*
X8722214Y-14904214D01*
X8750786Y-14889929D01*
X8765071Y-14861357D01*
X8765071Y-14847071D01*
X8750786Y-14818500D01*
X8722214Y-14804214D01*
X8679357Y-14804214D01*
X8650786Y-14789929D01*
X8636500Y-14761357D01*
X8636500Y-14747071D01*
X8650786Y-14718500D01*
X8679357Y-14704214D01*
X8722214Y-14704214D01*
X8750786Y-14718500D01*
X8865071Y-15018500D02*
X8879357Y-15004214D01*
X8907928Y-14961357D01*
X8922214Y-14932786D01*
X8936500Y-14889929D01*
X8950786Y-14818500D01*
X8950786Y-14761357D01*
X8936500Y-14689929D01*
X8922214Y-14647071D01*
X8907928Y-14618500D01*
X8879357Y-14575643D01*
X8865071Y-14561357D01*
X1283500Y-15045500D02*
X1521500Y-15283500D01*
X1521500Y-15045500D02*
X1283500Y-15283500D01*
X1486646Y-15248647D02*
X1486646Y-15080354D01*
X1318353Y-15080354D01*
X1318353Y-15248647D01*
X1486646Y-15248647D01*
X1793643Y-15028786D02*
X1807928Y-15014500D01*
X1836500Y-15000214D01*
X1907928Y-15000214D01*
X1936500Y-15014500D01*
X1950786Y-15028786D01*
X1965071Y-15057357D01*
X1965071Y-15085929D01*
X1950786Y-15128786D01*
X1779357Y-15300214D01*
X1965071Y-15300214D01*
X2093643Y-15271643D02*
X2107928Y-15285929D01*
X2093643Y-15300214D01*
X2079357Y-15285929D01*
X2093643Y-15271643D01*
X2093643Y-15300214D01*
X2207928Y-15000214D02*
X2393643Y-15000214D01*
X2293643Y-15114500D01*
X2336500Y-15114500D01*
X2365071Y-15128786D01*
X2379357Y-15143071D01*
X2393643Y-15171643D01*
X2393643Y-15243071D01*
X2379357Y-15271643D01*
X2365071Y-15285929D01*
X2336500Y-15300214D01*
X2250786Y-15300214D01*
X2222214Y-15285929D01*
X2207928Y-15271643D01*
X2565071Y-15128786D02*
X2536500Y-15114500D01*
X2522214Y-15100214D01*
X2507928Y-15071643D01*
X2507928Y-15057357D01*
X2522214Y-15028786D01*
X2536500Y-15014500D01*
X2565071Y-15000214D01*
X2622214Y-15000214D01*
X2650786Y-15014500D01*
X2665071Y-15028786D01*
X2679357Y-15057357D01*
X2679357Y-15071643D01*
X2665071Y-15100214D01*
X2650786Y-15114500D01*
X2622214Y-15128786D01*
X2565071Y-15128786D01*
X2536500Y-15143071D01*
X2522214Y-15157357D01*
X2507928Y-15185929D01*
X2507928Y-15243071D01*
X2522214Y-15271643D01*
X2536500Y-15285929D01*
X2565071Y-15300214D01*
X2622214Y-15300214D01*
X2650786Y-15285929D01*
X2665071Y-15271643D01*
X2679357Y-15243071D01*
X2679357Y-15185929D01*
X2665071Y-15157357D01*
X2650786Y-15143071D01*
X2622214Y-15128786D01*
X2865071Y-15000214D02*
X2893643Y-15000214D01*
X2922214Y-15014500D01*
X2936500Y-15028786D01*
X2950786Y-15057357D01*
X2965071Y-15114500D01*
X2965071Y-15185929D01*
X2950786Y-15243071D01*
X2936500Y-15271643D01*
X2922214Y-15285929D01*
X2893643Y-15300214D01*
X2865071Y-15300214D01*
X2836500Y-15285929D01*
X2822214Y-15271643D01*
X2807928Y-15243071D01*
X2793643Y-15185929D01*
X2793643Y-15114500D01*
X2807928Y-15057357D01*
X2822214Y-15028786D01*
X2836500Y-15014500D01*
X2865071Y-15000214D01*
X3093643Y-15300214D02*
X3093643Y-15100214D01*
X3093643Y-15128786D02*
X3107928Y-15114500D01*
X3136500Y-15100214D01*
X3179357Y-15100214D01*
X3207928Y-15114500D01*
X3222214Y-15143071D01*
X3222214Y-15300214D01*
X3222214Y-15143071D02*
X3236500Y-15114500D01*
X3265071Y-15100214D01*
X3307928Y-15100214D01*
X3336500Y-15114500D01*
X3350786Y-15143071D01*
X3350786Y-15300214D01*
X3493643Y-15300214D02*
X3493643Y-15100214D01*
X3493643Y-15128786D02*
X3507928Y-15114500D01*
X3536500Y-15100214D01*
X3579357Y-15100214D01*
X3607928Y-15114500D01*
X3622214Y-15143071D01*
X3622214Y-15300214D01*
X3622214Y-15143071D02*
X3636500Y-15114500D01*
X3665071Y-15100214D01*
X3707928Y-15100214D01*
X3736500Y-15114500D01*
X3750786Y-15143071D01*
X3750786Y-15300214D01*
X4336500Y-14985929D02*
X4079357Y-15371643D01*
X4722214Y-15000214D02*
X4750786Y-15000214D01*
X4779357Y-15014500D01*
X4793643Y-15028786D01*
X4807928Y-15057357D01*
X4822214Y-15114500D01*
X4822214Y-15185929D01*
X4807928Y-15243071D01*
X4793643Y-15271643D01*
X4779357Y-15285929D01*
X4750786Y-15300214D01*
X4722214Y-15300214D01*
X4693643Y-15285929D01*
X4679357Y-15271643D01*
X4665071Y-15243071D01*
X4650786Y-15185929D01*
X4650786Y-15114500D01*
X4665071Y-15057357D01*
X4679357Y-15028786D01*
X4693643Y-15014500D01*
X4722214Y-15000214D01*
X4950786Y-15271643D02*
X4965071Y-15285929D01*
X4950786Y-15300214D01*
X4936500Y-15285929D01*
X4950786Y-15271643D01*
X4950786Y-15300214D01*
X5150786Y-15000214D02*
X5179357Y-15000214D01*
X5207928Y-15014500D01*
X5222214Y-15028786D01*
X5236500Y-15057357D01*
X5250786Y-15114500D01*
X5250786Y-15185929D01*
X5236500Y-15243071D01*
X5222214Y-15271643D01*
X5207928Y-15285929D01*
X5179357Y-15300214D01*
X5150786Y-15300214D01*
X5122214Y-15285929D01*
X5107928Y-15271643D01*
X5093643Y-15243071D01*
X5079357Y-15185929D01*
X5079357Y-15114500D01*
X5093643Y-15057357D01*
X5107928Y-15028786D01*
X5122214Y-15014500D01*
X5150786Y-15000214D01*
X5393643Y-15300214D02*
X5450786Y-15300214D01*
X5479357Y-15285929D01*
X5493643Y-15271643D01*
X5522214Y-15228786D01*
X5536500Y-15171643D01*
X5536500Y-15057357D01*
X5522214Y-15028786D01*
X5507928Y-15014500D01*
X5479357Y-15000214D01*
X5422214Y-15000214D01*
X5393643Y-15014500D01*
X5379357Y-15028786D01*
X5365071Y-15057357D01*
X5365071Y-15128786D01*
X5379357Y-15157357D01*
X5393643Y-15171643D01*
X5422214Y-15185929D01*
X5479357Y-15185929D01*
X5507928Y-15171643D01*
X5522214Y-15157357D01*
X5536500Y-15128786D01*
X5636500Y-15000214D02*
X5822214Y-15000214D01*
X5722214Y-15114500D01*
X5765071Y-15114500D01*
X5793643Y-15128786D01*
X5807928Y-15143071D01*
X5822214Y-15171643D01*
X5822214Y-15243071D01*
X5807928Y-15271643D01*
X5793643Y-15285929D01*
X5765071Y-15300214D01*
X5679357Y-15300214D01*
X5650786Y-15285929D01*
X5636500Y-15271643D01*
X5922214Y-15000214D02*
X6122214Y-15000214D01*
X5993643Y-15300214D01*
X6222214Y-15000214D02*
X6222214Y-15057357D01*
X6336500Y-15000214D02*
X6336500Y-15057357D01*
X6779357Y-15414500D02*
X6765071Y-15400214D01*
X6736500Y-15357357D01*
X6722214Y-15328786D01*
X6707928Y-15285929D01*
X6693643Y-15214500D01*
X6693643Y-15157357D01*
X6707928Y-15085929D01*
X6722214Y-15043071D01*
X6736500Y-15014500D01*
X6765071Y-14971643D01*
X6779357Y-14957357D01*
X7050786Y-15300214D02*
X6879357Y-15300214D01*
X6965071Y-15300214D02*
X6965071Y-15000214D01*
X6936500Y-15043071D01*
X6907928Y-15071643D01*
X6879357Y-15085929D01*
X7165071Y-15028786D02*
X7179357Y-15014500D01*
X7207928Y-15000214D01*
X7279357Y-15000214D01*
X7307928Y-15014500D01*
X7322214Y-15028786D01*
X7336500Y-15057357D01*
X7336500Y-15085929D01*
X7322214Y-15128786D01*
X7150786Y-15300214D01*
X7336500Y-15300214D01*
X7693643Y-15300214D02*
X7693643Y-15000214D01*
X7822214Y-15300214D02*
X7822214Y-15143071D01*
X7807928Y-15114500D01*
X7779357Y-15100214D01*
X7736500Y-15100214D01*
X7707928Y-15114500D01*
X7693643Y-15128786D01*
X8007928Y-15300214D02*
X7979357Y-15285929D01*
X7965071Y-15271643D01*
X7950786Y-15243071D01*
X7950786Y-15157357D01*
X7965071Y-15128786D01*
X7979357Y-15114500D01*
X8007928Y-15100214D01*
X8050786Y-15100214D01*
X8079357Y-15114500D01*
X8093643Y-15128786D01*
X8107928Y-15157357D01*
X8107928Y-15243071D01*
X8093643Y-15271643D01*
X8079357Y-15285929D01*
X8050786Y-15300214D01*
X8007928Y-15300214D01*
X8279357Y-15300214D02*
X8250786Y-15285929D01*
X8236500Y-15257357D01*
X8236500Y-15000214D01*
X8507928Y-15285929D02*
X8479357Y-15300214D01*
X8422214Y-15300214D01*
X8393643Y-15285929D01*
X8379357Y-15257357D01*
X8379357Y-15143071D01*
X8393643Y-15114500D01*
X8422214Y-15100214D01*
X8479357Y-15100214D01*
X8507928Y-15114500D01*
X8522214Y-15143071D01*
X8522214Y-15171643D01*
X8379357Y-15200214D01*
X8636500Y-15285929D02*
X8665071Y-15300214D01*
X8722214Y-15300214D01*
X8750786Y-15285929D01*
X8765071Y-15257357D01*
X8765071Y-15243071D01*
X8750786Y-15214500D01*
X8722214Y-15200214D01*
X8679357Y-15200214D01*
X8650786Y-15185929D01*
X8636500Y-15157357D01*
X8636500Y-15143071D01*
X8650786Y-15114500D01*
X8679357Y-15100214D01*
X8722214Y-15100214D01*
X8750786Y-15114500D01*
X8865071Y-15414500D02*
X8879357Y-15400214D01*
X8907928Y-15357357D01*
X8922214Y-15328786D01*
X8936500Y-15285929D01*
X8950786Y-15214500D01*
X8950786Y-15157357D01*
X8936500Y-15085929D01*
X8922214Y-15043071D01*
X8907928Y-15014500D01*
X8879357Y-14971643D01*
X8865071Y-14957357D01*
X1201500Y-15400500D02*
X1521500Y-15720500D01*
X1521500Y-15400500D02*
X1201500Y-15720500D01*
X1361500Y-15720500D02*
X1521500Y-15560500D01*
X1361500Y-15400500D01*
X1201500Y-15560500D01*
X1361500Y-15720500D01*
X1779357Y-15396214D02*
X1965071Y-15396214D01*
X1865071Y-15510500D01*
X1907928Y-15510500D01*
X1936500Y-15524786D01*
X1950786Y-15539071D01*
X1965071Y-15567643D01*
X1965071Y-15639071D01*
X1950786Y-15667643D01*
X1936500Y-15681929D01*
X1907928Y-15696214D01*
X1822214Y-15696214D01*
X1793643Y-15681929D01*
X1779357Y-15667643D01*
X2093643Y-15667643D02*
X2107928Y-15681929D01*
X2093643Y-15696214D01*
X2079357Y-15681929D01*
X2093643Y-15667643D01*
X2093643Y-15696214D01*
X2222214Y-15424786D02*
X2236500Y-15410500D01*
X2265071Y-15396214D01*
X2336500Y-15396214D01*
X2365071Y-15410500D01*
X2379357Y-15424786D01*
X2393643Y-15453357D01*
X2393643Y-15481929D01*
X2379357Y-15524786D01*
X2207928Y-15696214D01*
X2393643Y-15696214D01*
X2579357Y-15396214D02*
X2607928Y-15396214D01*
X2636500Y-15410500D01*
X2650786Y-15424786D01*
X2665071Y-15453357D01*
X2679357Y-15510500D01*
X2679357Y-15581929D01*
X2665071Y-15639071D01*
X2650786Y-15667643D01*
X2636500Y-15681929D01*
X2607928Y-15696214D01*
X2579357Y-15696214D01*
X2550786Y-15681929D01*
X2536500Y-15667643D01*
X2522214Y-15639071D01*
X2507928Y-15581929D01*
X2507928Y-15510500D01*
X2522214Y-15453357D01*
X2536500Y-15424786D01*
X2550786Y-15410500D01*
X2579357Y-15396214D01*
X2865071Y-15396214D02*
X2893643Y-15396214D01*
X2922214Y-15410500D01*
X2936500Y-15424786D01*
X2950786Y-15453357D01*
X2965071Y-15510500D01*
X2965071Y-15581929D01*
X2950786Y-15639071D01*
X2936500Y-15667643D01*
X2922214Y-15681929D01*
X2893643Y-15696214D01*
X2865071Y-15696214D01*
X2836500Y-15681929D01*
X2822214Y-15667643D01*
X2807928Y-15639071D01*
X2793643Y-15581929D01*
X2793643Y-15510500D01*
X2807928Y-15453357D01*
X2822214Y-15424786D01*
X2836500Y-15410500D01*
X2865071Y-15396214D01*
X3093643Y-15696214D02*
X3093643Y-15496214D01*
X3093643Y-15524786D02*
X3107928Y-15510500D01*
X3136500Y-15496214D01*
X3179357Y-15496214D01*
X3207928Y-15510500D01*
X3222214Y-15539071D01*
X3222214Y-15696214D01*
X3222214Y-15539071D02*
X3236500Y-15510500D01*
X3265071Y-15496214D01*
X3307928Y-15496214D01*
X3336500Y-15510500D01*
X3350786Y-15539071D01*
X3350786Y-15696214D01*
X3493643Y-15696214D02*
X3493643Y-15496214D01*
X3493643Y-15524786D02*
X3507928Y-15510500D01*
X3536500Y-15496214D01*
X3579357Y-15496214D01*
X3607928Y-15510500D01*
X3622214Y-15539071D01*
X3622214Y-15696214D01*
X3622214Y-15539071D02*
X3636500Y-15510500D01*
X3665071Y-15496214D01*
X3707928Y-15496214D01*
X3736500Y-15510500D01*
X3750786Y-15539071D01*
X3750786Y-15696214D01*
X4336500Y-15381929D02*
X4079357Y-15767643D01*
X4722214Y-15396214D02*
X4750786Y-15396214D01*
X4779357Y-15410500D01*
X4793643Y-15424786D01*
X4807928Y-15453357D01*
X4822214Y-15510500D01*
X4822214Y-15581929D01*
X4807928Y-15639071D01*
X4793643Y-15667643D01*
X4779357Y-15681929D01*
X4750786Y-15696214D01*
X4722214Y-15696214D01*
X4693643Y-15681929D01*
X4679357Y-15667643D01*
X4665071Y-15639071D01*
X4650786Y-15581929D01*
X4650786Y-15510500D01*
X4665071Y-15453357D01*
X4679357Y-15424786D01*
X4693643Y-15410500D01*
X4722214Y-15396214D01*
X4950786Y-15667643D02*
X4965071Y-15681929D01*
X4950786Y-15696214D01*
X4936500Y-15681929D01*
X4950786Y-15667643D01*
X4950786Y-15696214D01*
X5250786Y-15696214D02*
X5079357Y-15696214D01*
X5165071Y-15696214D02*
X5165071Y-15396214D01*
X5136500Y-15439071D01*
X5107928Y-15467643D01*
X5079357Y-15481929D01*
X5365071Y-15424786D02*
X5379357Y-15410500D01*
X5407928Y-15396214D01*
X5479357Y-15396214D01*
X5507928Y-15410500D01*
X5522214Y-15424786D01*
X5536500Y-15453357D01*
X5536500Y-15481929D01*
X5522214Y-15524786D01*
X5350786Y-15696214D01*
X5536500Y-15696214D01*
X5793643Y-15396214D02*
X5736500Y-15396214D01*
X5707928Y-15410500D01*
X5693643Y-15424786D01*
X5665071Y-15467643D01*
X5650786Y-15524786D01*
X5650786Y-15639071D01*
X5665071Y-15667643D01*
X5679357Y-15681929D01*
X5707928Y-15696214D01*
X5765071Y-15696214D01*
X5793643Y-15681929D01*
X5807928Y-15667643D01*
X5822214Y-15639071D01*
X5822214Y-15567643D01*
X5807928Y-15539071D01*
X5793643Y-15524786D01*
X5765071Y-15510500D01*
X5707928Y-15510500D01*
X5679357Y-15524786D01*
X5665071Y-15539071D01*
X5650786Y-15567643D01*
X6007928Y-15396214D02*
X6036500Y-15396214D01*
X6065071Y-15410500D01*
X6079357Y-15424786D01*
X6093643Y-15453357D01*
X6107928Y-15510500D01*
X6107928Y-15581929D01*
X6093643Y-15639071D01*
X6079357Y-15667643D01*
X6065071Y-15681929D01*
X6036500Y-15696214D01*
X6007928Y-15696214D01*
X5979357Y-15681929D01*
X5965071Y-15667643D01*
X5950786Y-15639071D01*
X5936500Y-15581929D01*
X5936500Y-15510500D01*
X5950786Y-15453357D01*
X5965071Y-15424786D01*
X5979357Y-15410500D01*
X6007928Y-15396214D01*
X6222214Y-15396214D02*
X6222214Y-15453357D01*
X6336500Y-15396214D02*
X6336500Y-15453357D01*
X6779357Y-15810500D02*
X6765071Y-15796214D01*
X6736500Y-15753357D01*
X6722214Y-15724786D01*
X6707928Y-15681929D01*
X6693643Y-15610500D01*
X6693643Y-15553357D01*
X6707928Y-15481929D01*
X6722214Y-15439071D01*
X6736500Y-15410500D01*
X6765071Y-15367643D01*
X6779357Y-15353357D01*
X7022214Y-15496214D02*
X7022214Y-15696214D01*
X6950786Y-15381929D02*
X6879357Y-15596214D01*
X7065071Y-15596214D01*
X7407928Y-15696214D02*
X7407928Y-15396214D01*
X7536500Y-15696214D02*
X7536500Y-15539071D01*
X7522214Y-15510500D01*
X7493643Y-15496214D01*
X7450786Y-15496214D01*
X7422214Y-15510500D01*
X7407928Y-15524786D01*
X7722214Y-15696214D02*
X7693643Y-15681929D01*
X7679357Y-15667643D01*
X7665071Y-15639071D01*
X7665071Y-15553357D01*
X7679357Y-15524786D01*
X7693643Y-15510500D01*
X7722214Y-15496214D01*
X7765071Y-15496214D01*
X7793643Y-15510500D01*
X7807928Y-15524786D01*
X7822214Y-15553357D01*
X7822214Y-15639071D01*
X7807928Y-15667643D01*
X7793643Y-15681929D01*
X7765071Y-15696214D01*
X7722214Y-15696214D01*
X7993643Y-15696214D02*
X7965071Y-15681929D01*
X7950786Y-15653357D01*
X7950786Y-15396214D01*
X8222214Y-15681929D02*
X8193643Y-15696214D01*
X8136500Y-15696214D01*
X8107928Y-15681929D01*
X8093643Y-15653357D01*
X8093643Y-15539071D01*
X8107928Y-15510500D01*
X8136500Y-15496214D01*
X8193643Y-15496214D01*
X8222214Y-15510500D01*
X8236500Y-15539071D01*
X8236500Y-15567643D01*
X8093643Y-15596214D01*
X8350786Y-15681929D02*
X8379357Y-15696214D01*
X8436500Y-15696214D01*
X8465071Y-15681929D01*
X8479357Y-15653357D01*
X8479357Y-15639071D01*
X8465071Y-15610500D01*
X8436500Y-15596214D01*
X8393643Y-15596214D01*
X8365071Y-15581929D01*
X8350786Y-15553357D01*
X8350786Y-15539071D01*
X8365071Y-15510500D01*
X8393643Y-15496214D01*
X8436500Y-15496214D01*
X8465071Y-15510500D01*
X8579357Y-15810500D02*
X8593643Y-15796214D01*
X8622214Y-15753357D01*
X8636500Y-15724786D01*
X8650786Y-15681929D01*
X8665071Y-15610500D01*
X8665071Y-15553357D01*
X8650786Y-15481929D01*
X8636500Y-15439071D01*
X8622214Y-15410500D01*
X8593643Y-15367643D01*
X8579357Y-15353357D01*
M02*
