%TF.GenerationSoftware,KiCad,Pcbnew,(5.99.0-12724-g8c8d66a181)*%
%TF.CreationDate,2021-10-09T23:30:49+02:00*%
%TF.ProjectId,MUXUS,4d555855-532e-46b6-9963-61645f706362,rev?*%
%TF.SameCoordinates,Original*%
%TF.FileFunction,Soldermask,Top*%
%TF.FilePolarity,Negative*%
%FSLAX46Y46*%
G04 Gerber Fmt 4.6, Leading zero omitted, Abs format (unit mm)*
G04 Created by KiCad (PCBNEW (5.99.0-12724-g8c8d66a181)) date 2021-10-09 23:30:49*
%MOMM*%
%LPD*%
G01*
G04 APERTURE LIST*
G04 Aperture macros list*
%AMRoundRect*
0 Rectangle with rounded corners*
0 $1 Rounding radius*
0 $2 $3 $4 $5 $6 $7 $8 $9 X,Y pos of 4 corners*
0 Add a 4 corners polygon primitive as box body*
4,1,4,$2,$3,$4,$5,$6,$7,$8,$9,$2,$3,0*
0 Add four circle primitives for the rounded corners*
1,1,$1+$1,$2,$3*
1,1,$1+$1,$4,$5*
1,1,$1+$1,$6,$7*
1,1,$1+$1,$8,$9*
0 Add four rect primitives between the rounded corners*
20,1,$1+$1,$2,$3,$4,$5,0*
20,1,$1+$1,$4,$5,$6,$7,0*
20,1,$1+$1,$6,$7,$8,$9,0*
20,1,$1+$1,$8,$9,$2,$3,0*%
G04 Aperture macros list end*
%ADD10RoundRect,0.250000X-0.250000X-0.475000X0.250000X-0.475000X0.250000X0.475000X-0.250000X0.475000X0*%
%ADD11RoundRect,0.250000X0.250000X0.475000X-0.250000X0.475000X-0.250000X-0.475000X0.250000X-0.475000X0*%
%ADD12RoundRect,0.250000X0.650000X-0.325000X0.650000X0.325000X-0.650000X0.325000X-0.650000X-0.325000X0*%
%ADD13RoundRect,0.250000X-0.325000X-0.650000X0.325000X-0.650000X0.325000X0.650000X-0.325000X0.650000X0*%
%ADD14RoundRect,0.250000X-0.650000X0.325000X-0.650000X-0.325000X0.650000X-0.325000X0.650000X0.325000X0*%
%ADD15RoundRect,0.250000X-0.475000X0.250000X-0.475000X-0.250000X0.475000X-0.250000X0.475000X0.250000X0*%
%ADD16RoundRect,0.250000X0.475000X-0.250000X0.475000X0.250000X-0.475000X0.250000X-0.475000X-0.250000X0*%
%ADD17C,1.600000*%
%ADD18RoundRect,0.250000X0.325000X1.100000X-0.325000X1.100000X-0.325000X-1.100000X0.325000X-1.100000X0*%
%ADD19RoundRect,0.250000X-0.375000X-0.625000X0.375000X-0.625000X0.375000X0.625000X-0.375000X0.625000X0*%
%ADD20R,1.800000X1.800000*%
%ADD21C,1.800000*%
%ADD22R,3.300000X2.500000*%
%ADD23RoundRect,0.250000X0.625000X-0.375000X0.625000X0.375000X-0.625000X0.375000X-0.625000X-0.375000X0*%
%ADD24C,0.800000*%
%ADD25C,6.400000*%
%ADD26C,1.545000*%
%ADD27C,3.570000*%
%ADD28R,3.200000X2.800000*%
%ADD29RoundRect,0.250000X0.262500X0.450000X-0.262500X0.450000X-0.262500X-0.450000X0.262500X-0.450000X0*%
%ADD30RoundRect,0.250000X-0.625000X0.312500X-0.625000X-0.312500X0.625000X-0.312500X0.625000X0.312500X0*%
%ADD31RoundRect,0.250000X-0.312500X-0.625000X0.312500X-0.625000X0.312500X0.625000X-0.312500X0.625000X0*%
%ADD32RoundRect,0.250000X0.625000X-0.312500X0.625000X0.312500X-0.625000X0.312500X-0.625000X-0.312500X0*%
%ADD33RoundRect,0.250000X-0.262500X-0.450000X0.262500X-0.450000X0.262500X0.450000X-0.262500X0.450000X0*%
%ADD34RoundRect,0.250000X0.450000X-0.262500X0.450000X0.262500X-0.450000X0.262500X-0.450000X-0.262500X0*%
%ADD35RoundRect,0.250000X0.312500X0.625000X-0.312500X0.625000X-0.312500X-0.625000X0.312500X-0.625000X0*%
%ADD36R,1.550000X1.300000*%
%ADD37R,1.060000X0.650000*%
%ADD38R,0.650000X1.060000*%
%ADD39R,0.200000X0.850000*%
%ADD40R,0.850000X0.200000*%
%ADD41C,1.080000*%
%ADD42R,1.500000X1.500000*%
%ADD43C,1.500000*%
%ADD44C,1.020000*%
%ADD45R,2.790000X0.740000*%
%ADD46R,1.525000X0.650000*%
%ADD47R,1.700000X1.700000*%
%ADD48O,1.700000X1.700000*%
%ADD49RoundRect,0.075000X0.700000X0.075000X-0.700000X0.075000X-0.700000X-0.075000X0.700000X-0.075000X0*%
%ADD50RoundRect,0.075000X0.075000X0.700000X-0.075000X0.700000X-0.075000X-0.700000X0.075000X-0.700000X0*%
%ADD51R,0.850000X0.250000*%
%ADD52R,0.250000X0.850000*%
%ADD53R,3.600000X3.600000*%
%ADD54RoundRect,0.250000X-1.100000X0.325000X-1.100000X-0.325000X1.100000X-0.325000X1.100000X0.325000X0*%
%ADD55C,0.650000*%
%ADD56R,0.300000X1.150000*%
%ADD57R,2.180000X2.000000*%
G04 APERTURE END LIST*
D10*
X68265000Y-73660000D03*
X70165000Y-73660000D03*
X73345000Y-73660000D03*
X75245000Y-73660000D03*
D11*
X43114000Y-17018000D03*
X41214000Y-17018000D03*
D12*
X76835000Y-64975000D03*
X76835000Y-62025000D03*
D13*
X58977000Y-56388000D03*
X61927000Y-56388000D03*
D14*
X65405000Y-46785000D03*
X65405000Y-49735000D03*
D12*
X65405000Y-64975000D03*
X65405000Y-62025000D03*
D11*
X81722000Y-56896000D03*
X79822000Y-56896000D03*
X81595000Y-53340000D03*
X79695000Y-53340000D03*
D15*
X71755000Y-45405000D03*
X71755000Y-47305000D03*
X68580000Y-45405000D03*
X68580000Y-47305000D03*
D16*
X100965000Y-73340000D03*
X100965000Y-71440000D03*
D10*
X48326000Y-32385000D03*
X50226000Y-32385000D03*
D17*
X92710000Y-85725000D03*
X92710000Y-83225000D03*
D10*
X56454000Y-42164000D03*
X58354000Y-42164000D03*
X93284000Y-90170000D03*
X95184000Y-90170000D03*
X98110000Y-88900000D03*
X100010000Y-88900000D03*
X47310000Y-77216000D03*
X49210000Y-77216000D03*
D16*
X100965000Y-53020000D03*
X100965000Y-51120000D03*
D10*
X66106000Y-32385000D03*
X68006000Y-32385000D03*
D16*
X75438000Y-98994000D03*
X75438000Y-97094000D03*
X50038000Y-98994000D03*
X50038000Y-97094000D03*
D10*
X93030000Y-69850000D03*
X94930000Y-69850000D03*
D15*
X27305000Y-27625000D03*
X27305000Y-29525000D03*
D10*
X98110000Y-68580000D03*
X100010000Y-68580000D03*
D11*
X36510000Y-37465000D03*
X34610000Y-37465000D03*
D16*
X17780000Y-35240000D03*
X17780000Y-33340000D03*
X100965000Y-32954000D03*
X100965000Y-31054000D03*
D10*
X83886000Y-32512000D03*
X85786000Y-32512000D03*
X93030000Y-49530000D03*
X94930000Y-49530000D03*
D18*
X29415000Y-52705000D03*
X26465000Y-52705000D03*
D10*
X98110000Y-48260000D03*
X100010000Y-48260000D03*
D19*
X100200000Y-113030000D03*
X103000000Y-113030000D03*
X95120000Y-113030000D03*
X97920000Y-113030000D03*
X87500000Y-113030000D03*
X90300000Y-113030000D03*
X82420000Y-113030000D03*
X85220000Y-113030000D03*
X74670000Y-113030000D03*
X77470000Y-113030000D03*
X69720000Y-113030000D03*
X72520000Y-113030000D03*
X62100000Y-113030000D03*
X64900000Y-113030000D03*
X57020000Y-113030000D03*
X59820000Y-113030000D03*
D20*
X26670000Y-110490000D03*
D21*
X29210000Y-110490000D03*
D20*
X34290000Y-110490000D03*
D21*
X36830000Y-110490000D03*
D20*
X41910000Y-110490000D03*
D21*
X44450000Y-110490000D03*
D22*
X31750000Y-41685000D03*
X31750000Y-48485000D03*
D23*
X24130000Y-29975000D03*
X24130000Y-27175000D03*
D24*
X109220000Y-22720000D03*
D25*
X109220000Y-20320000D03*
D24*
X107522944Y-18622944D03*
X110917056Y-18622944D03*
X110917056Y-22017056D03*
X106820000Y-20320000D03*
X107522944Y-22017056D03*
X111620000Y-20320000D03*
X109220000Y-17920000D03*
X17920000Y-20320000D03*
X20320000Y-22720000D03*
X18622944Y-22017056D03*
X22720000Y-20320000D03*
X20320000Y-17920000D03*
X22017056Y-22017056D03*
X22017056Y-18622944D03*
X18622944Y-18622944D03*
D25*
X20320000Y-20320000D03*
D24*
X110917056Y-110917056D03*
X109220000Y-111620000D03*
X111620000Y-109220000D03*
X109220000Y-106820000D03*
D25*
X109220000Y-109220000D03*
D24*
X110917056Y-107522944D03*
X107522944Y-110917056D03*
X106820000Y-109220000D03*
X107522944Y-107522944D03*
D26*
X105410000Y-81915000D03*
X105410000Y-79415000D03*
X105410000Y-77415000D03*
X105410000Y-74915000D03*
D27*
X108120000Y-84985000D03*
X108120000Y-71845000D03*
D28*
X24130000Y-42285000D03*
X24130000Y-47885000D03*
D29*
X43076500Y-20320000D03*
X41251500Y-20320000D03*
D30*
X57404000Y-58481500D03*
X57404000Y-61406500D03*
D31*
X79055500Y-64516000D03*
X81980500Y-64516000D03*
D29*
X97432500Y-107950000D03*
X95607500Y-107950000D03*
X89812500Y-107950000D03*
X87987500Y-107950000D03*
X84732500Y-107950000D03*
X82907500Y-107950000D03*
X77112500Y-107950000D03*
X75287500Y-107950000D03*
X72032500Y-107950000D03*
X70207500Y-107950000D03*
X64412500Y-107950000D03*
X62587500Y-107950000D03*
D32*
X36449000Y-56326500D03*
X36449000Y-53401500D03*
X41529000Y-56326500D03*
X41529000Y-53401500D03*
D29*
X59332500Y-107950000D03*
X57507500Y-107950000D03*
D33*
X48363500Y-36068000D03*
X50188500Y-36068000D03*
D30*
X57785000Y-46797500D03*
X57785000Y-49722500D03*
D31*
X67037505Y-91948000D03*
X69962505Y-91948000D03*
D34*
X97536000Y-52982500D03*
X97536000Y-51157500D03*
D33*
X66143500Y-36068000D03*
X67968500Y-36068000D03*
D31*
X55433500Y-91948000D03*
X58358500Y-91948000D03*
D33*
X27385000Y-104775000D03*
X29210000Y-104775000D03*
X35005000Y-104775000D03*
X36830000Y-104775000D03*
X42625000Y-104775000D03*
X44450000Y-104775000D03*
X50245000Y-104775000D03*
X52070000Y-104775000D03*
D35*
X32577500Y-37465000D03*
X29652500Y-37465000D03*
D34*
X97536000Y-32916500D03*
X97536000Y-31091500D03*
D33*
X83923500Y-36068000D03*
X85748500Y-36068000D03*
D32*
X17780000Y-45912500D03*
X17780000Y-42987500D03*
X17780000Y-40832500D03*
X17780000Y-37907500D03*
D36*
X60871000Y-95794000D03*
X52921000Y-95794000D03*
X60871000Y-100294000D03*
X52921000Y-100294000D03*
D37*
X34120000Y-28890000D03*
X34120000Y-27940000D03*
X34120000Y-26990000D03*
X31920000Y-26990000D03*
X31920000Y-27940000D03*
X31920000Y-28890000D03*
X100160000Y-79055000D03*
X100160000Y-78105000D03*
X100160000Y-77155000D03*
X97960000Y-77155000D03*
X97960000Y-78105000D03*
X97960000Y-79055000D03*
D38*
X55560000Y-31920000D03*
X54610000Y-31920000D03*
X53660000Y-31920000D03*
X53660000Y-34120000D03*
X54610000Y-34120000D03*
X55560000Y-34120000D03*
X100010000Y-83355000D03*
X99060000Y-83355000D03*
X98110000Y-83355000D03*
X98110000Y-85555000D03*
X100010000Y-85555000D03*
D39*
X55210000Y-38520000D03*
X54810000Y-38520000D03*
X54410000Y-38520000D03*
X54010000Y-38520000D03*
D40*
X53360000Y-38770000D03*
X53360000Y-39170000D03*
X53360000Y-39570000D03*
X53360000Y-39970000D03*
D39*
X54010000Y-40220000D03*
X54410000Y-40220000D03*
X54810000Y-40220000D03*
X55210000Y-40220000D03*
D40*
X55860000Y-39970000D03*
X55860000Y-39570000D03*
X55860000Y-39170000D03*
X55860000Y-38770000D03*
D38*
X73340000Y-31920000D03*
X72390000Y-31920000D03*
X71440000Y-31920000D03*
X71440000Y-34120000D03*
X72390000Y-34120000D03*
X73340000Y-34120000D03*
X91120000Y-31920000D03*
X90170000Y-31920000D03*
X89220000Y-31920000D03*
X89220000Y-34120000D03*
X90170000Y-34120000D03*
X91120000Y-34120000D03*
D41*
X69315000Y-68580000D03*
X74195000Y-68580000D03*
D42*
X53340000Y-26670000D03*
D43*
X55840000Y-26670000D03*
X55840000Y-24670000D03*
X53340000Y-24670000D03*
D27*
X60610000Y-21960000D03*
X48570000Y-21960000D03*
D42*
X88900000Y-26670000D03*
D43*
X91400000Y-26670000D03*
X91400000Y-24670000D03*
X88900000Y-24670000D03*
D27*
X96170000Y-21960000D03*
X84130000Y-21960000D03*
D42*
X71120000Y-26670000D03*
D43*
X73620000Y-26670000D03*
X73620000Y-24670000D03*
X71120000Y-24670000D03*
D27*
X66350000Y-21960000D03*
X78390000Y-21960000D03*
D24*
X22017056Y-110917056D03*
X22720000Y-109220000D03*
X20320000Y-111620000D03*
X20320000Y-106820000D03*
X22017056Y-107522944D03*
X18622944Y-110917056D03*
X18622944Y-107522944D03*
D25*
X20320000Y-109220000D03*
D24*
X17920000Y-109220000D03*
D36*
X64525005Y-95794000D03*
X72475005Y-95794000D03*
X72475005Y-100294000D03*
X64525005Y-100294000D03*
D44*
X20320000Y-76835000D03*
X20320000Y-70485000D03*
D45*
X18285000Y-69850000D03*
X22355000Y-69850000D03*
X18285000Y-71120000D03*
X22355000Y-71120000D03*
X18285000Y-72390000D03*
X22355000Y-72390000D03*
X18285000Y-73660000D03*
X22355000Y-73660000D03*
X18285000Y-74930000D03*
X22355000Y-74930000D03*
X18285000Y-76200000D03*
X22355000Y-76200000D03*
X18285000Y-77470000D03*
X22355000Y-77470000D03*
D46*
X21418000Y-33655000D03*
X21418000Y-34925000D03*
X21418000Y-36195000D03*
X21418000Y-37465000D03*
X26842000Y-37465000D03*
X26842000Y-36195000D03*
X26842000Y-34925000D03*
X26842000Y-33655000D03*
D20*
X49530000Y-110490000D03*
D21*
X52070000Y-110490000D03*
D29*
X102512500Y-107950000D03*
X100687500Y-107950000D03*
D30*
X61468000Y-58481500D03*
X61468000Y-61406500D03*
D37*
X100160000Y-38415000D03*
X100160000Y-37465000D03*
X100160000Y-36515000D03*
X97960000Y-36515000D03*
X97960000Y-37465000D03*
X97960000Y-38415000D03*
D38*
X100010000Y-42715000D03*
X99060000Y-42715000D03*
X98110000Y-42715000D03*
X98110000Y-44915000D03*
X100010000Y-44915000D03*
D26*
X105410000Y-41275000D03*
X105410000Y-38775000D03*
X105410000Y-36775000D03*
X105410000Y-34275000D03*
D27*
X108120000Y-44345000D03*
X108120000Y-31205000D03*
D17*
X92710000Y-45085000D03*
X92710000Y-42585000D03*
D38*
X100010000Y-63035000D03*
X99060000Y-63035000D03*
X98110000Y-63035000D03*
X98110000Y-65235000D03*
X100010000Y-65235000D03*
D37*
X100160000Y-58735000D03*
X100160000Y-57785000D03*
X100160000Y-56835000D03*
X97960000Y-56835000D03*
X97960000Y-57785000D03*
X97960000Y-58735000D03*
D26*
X105410000Y-61595000D03*
X105410000Y-59095000D03*
X105410000Y-57095000D03*
X105410000Y-54595000D03*
D27*
X108120000Y-64665000D03*
X108120000Y-51525000D03*
D17*
X92710000Y-65405000D03*
X92710000Y-62905000D03*
D30*
X61595000Y-46797500D03*
X61595000Y-49722500D03*
D35*
X37911500Y-58674000D03*
X34986500Y-58674000D03*
D10*
X47310000Y-79375000D03*
X49210000Y-79375000D03*
X56454000Y-36576000D03*
X58354000Y-36576000D03*
D34*
X97536000Y-73302500D03*
X97536000Y-71477500D03*
D47*
X20320000Y-99060000D03*
D48*
X20320000Y-101600000D03*
D49*
X76795000Y-59630000D03*
X76795000Y-59130000D03*
X76795000Y-58630000D03*
X76795000Y-58130000D03*
X76795000Y-57630000D03*
X76795000Y-57130000D03*
X76795000Y-56630000D03*
X76795000Y-56130000D03*
X76795000Y-55630000D03*
X76795000Y-55130000D03*
X76795000Y-54630000D03*
X76795000Y-54130000D03*
X76795000Y-53630000D03*
X76795000Y-53130000D03*
X76795000Y-52630000D03*
X76795000Y-52130000D03*
D50*
X74870000Y-50205000D03*
X74370000Y-50205000D03*
X73870000Y-50205000D03*
X73370000Y-50205000D03*
X72870000Y-50205000D03*
X72370000Y-50205000D03*
X71870000Y-50205000D03*
X71370000Y-50205000D03*
X70870000Y-50205000D03*
X70370000Y-50205000D03*
X69870000Y-50205000D03*
X69370000Y-50205000D03*
X68870000Y-50205000D03*
X68370000Y-50205000D03*
X67870000Y-50205000D03*
X67370000Y-50205000D03*
D49*
X65445000Y-52130000D03*
X65445000Y-52630000D03*
X65445000Y-53130000D03*
X65445000Y-53630000D03*
X65445000Y-54130000D03*
X65445000Y-54630000D03*
X65445000Y-55130000D03*
X65445000Y-55630000D03*
X65445000Y-56130000D03*
X65445000Y-56630000D03*
X65445000Y-57130000D03*
X65445000Y-57630000D03*
X65445000Y-58130000D03*
X65445000Y-58630000D03*
X65445000Y-59130000D03*
X65445000Y-59630000D03*
D50*
X67370000Y-61555000D03*
X67870000Y-61555000D03*
X68370000Y-61555000D03*
X68870000Y-61555000D03*
X69370000Y-61555000D03*
X69870000Y-61555000D03*
X70370000Y-61555000D03*
X70870000Y-61555000D03*
X71370000Y-61555000D03*
X71870000Y-61555000D03*
X72370000Y-61555000D03*
X72870000Y-61555000D03*
X73370000Y-61555000D03*
X73870000Y-61555000D03*
X74370000Y-61555000D03*
X74870000Y-61555000D03*
D47*
X20320000Y-81280000D03*
D48*
X20320000Y-83820000D03*
X20320000Y-86360000D03*
X20320000Y-88900000D03*
X20320000Y-91440000D03*
X20320000Y-93980000D03*
D32*
X51689000Y-56326500D03*
X51689000Y-53401500D03*
D35*
X53151500Y-58674000D03*
X50226500Y-58674000D03*
D51*
X36920000Y-72545000D03*
X36920000Y-73045000D03*
X36920000Y-73545000D03*
X36920000Y-74045000D03*
X36920000Y-74545000D03*
X36920000Y-75045000D03*
X36920000Y-75545000D03*
X36920000Y-76045000D03*
D52*
X37620000Y-76745000D03*
X38120000Y-76745000D03*
X38620000Y-76745000D03*
X39120000Y-76745000D03*
X39620000Y-76745000D03*
X40120000Y-76745000D03*
X40620000Y-76745000D03*
X41120000Y-76745000D03*
D51*
X41820000Y-76045000D03*
X41820000Y-75545000D03*
X41820000Y-75045000D03*
X41820000Y-74545000D03*
X41820000Y-74045000D03*
X41820000Y-73545000D03*
X41820000Y-73045000D03*
X41820000Y-72545000D03*
D52*
X41120000Y-71845000D03*
X40620000Y-71845000D03*
X40120000Y-71845000D03*
X39620000Y-71845000D03*
X39120000Y-71845000D03*
X38620000Y-71845000D03*
X38120000Y-71845000D03*
X37620000Y-71845000D03*
D53*
X39370000Y-74295000D03*
D32*
X46609000Y-56326500D03*
X46609000Y-53401500D03*
D35*
X42991500Y-58674000D03*
X40066500Y-58674000D03*
X48071500Y-58674000D03*
X45146500Y-58674000D03*
D11*
X81214000Y-60960000D03*
X79314000Y-60960000D03*
D12*
X34036000Y-69547000D03*
X34036000Y-66597000D03*
D16*
X36576000Y-67498000D03*
X36576000Y-65598000D03*
D54*
X20320000Y-27100000D03*
X20320000Y-30050000D03*
D55*
X35910000Y-19875000D03*
X30130000Y-19875000D03*
D56*
X36370000Y-20950000D03*
X35570000Y-20950000D03*
X34270000Y-20950000D03*
X33270000Y-20950000D03*
X32770000Y-20950000D03*
X31770000Y-20950000D03*
X30470000Y-20950000D03*
X29670000Y-20950000D03*
X29970000Y-20950000D03*
X30770000Y-20950000D03*
X31270000Y-20950000D03*
X32270000Y-20950000D03*
X33770000Y-20950000D03*
X34770000Y-20950000D03*
X35270000Y-20950000D03*
X36070000Y-20950000D03*
D57*
X27910000Y-20375000D03*
X38130000Y-20375000D03*
X38130000Y-16445000D03*
X27910000Y-16445000D03*
M02*
