M48
; DRILL file {KiCad (5.99.0-12724-g8c8d66a181)} date Sat Oct  9 23:30:50 2021
; FORMAT={-:-/ absolute / metric / decimal}
; #@! TF.CreationDate,2021-10-09T23:30:50+02:00
; #@! TF.GenerationSoftware,Kicad,Pcbnew,(5.99.0-12724-g8c8d66a181)
; #@! TF.FileFunction,Plated,1,4,PTH
FMAT,2
METRIC
; #@! TA.AperFunction,Plated,PTH,ViaDrill
T1C0.400
; #@! TA.AperFunction,Plated,PTH,ComponentDrill
T2C0.500
; #@! TA.AperFunction,Plated,PTH,ComponentDrill
T3C0.680
; #@! TA.AperFunction,Plated,PTH,ComponentDrill
T4C0.800
; #@! TA.AperFunction,Plated,PTH,ComponentDrill
T5C0.900
; #@! TA.AperFunction,Plated,PTH,ComponentDrill
T6C1.000
; #@! TA.AperFunction,Plated,PTH,ComponentDrill
T7C1.030
; #@! TA.AperFunction,Plated,PTH,ComponentDrill
T8C2.380
; #@! TA.AperFunction,Plated,PTH,ComponentDrill
T9C3.200
%
G90
G05
T1
X16.383Y-71.12
X17.36Y-30.06
X17.78Y-25.4
X17.78Y-27.94
X17.78Y-48.26
X17.78Y-50.8
X17.78Y-53.34
X17.78Y-55.88
X17.78Y-58.42
X17.78Y-60.96
X17.78Y-63.5
X17.78Y-66.04
X17.78Y-68.58
X17.78Y-78.74
X17.78Y-81.28
X17.78Y-83.82
X17.78Y-86.36
X17.78Y-88.9
X17.78Y-91.44
X17.78Y-93.98
X17.78Y-96.52
X17.78Y-99.06
X17.78Y-101.6
X17.78Y-104.14
X18.7Y-46.832
X19.752Y-47.885
X20.32Y-25.4
X20.32Y-43.18
X20.32Y-45.72
X20.32Y-50.8
X20.32Y-53.34
X20.32Y-55.88
X20.32Y-58.42
X20.32Y-60.96
X20.32Y-63.5
X20.32Y-66.04
X20.32Y-68.58
X20.32Y-78.74
X20.32Y-96.52
X20.32Y-104.14
X21.203Y-47.885
X22.86Y-25.4
X22.86Y-53.34
X22.86Y-55.88
X22.86Y-58.42
X22.86Y-60.96
X22.86Y-63.5
X22.86Y-66.04
X22.86Y-68.58
X22.86Y-78.74
X22.86Y-83.82
X22.86Y-86.36
X22.86Y-88.9
X22.86Y-91.44
X22.86Y-93.98
X22.86Y-96.52
X22.86Y-99.06
X22.86Y-101.6
X22.86Y-104.14
X22.984Y-50.168
X24.0Y-50.168
X24.0Y-51.184
X24.765Y-71.12
X24.765Y-72.39
X25.016Y-50.168
X25.016Y-51.184
X25.016Y-52.2
X25.4Y-17.78
X25.4Y-20.32
X25.4Y-22.86
X25.4Y-25.4
X25.4Y-55.88
X25.4Y-58.42
X25.4Y-60.96
X25.4Y-63.5
X25.4Y-66.04
X25.4Y-68.58
X25.4Y-76.2
X25.4Y-78.74
X25.4Y-81.28
X25.4Y-83.82
X25.4Y-86.36
X25.4Y-88.9
X25.4Y-91.44
X25.4Y-93.98
X25.4Y-96.52
X25.4Y-99.06
X25.4Y-101.6
X25.4Y-104.14
X25.4Y-106.68
X26.162Y-71.12
X27.432Y-106.426
X27.91Y-18.318
X27.94Y-40.64
X27.94Y-45.72
X27.94Y-48.26
X27.94Y-50.8
X27.94Y-55.88
X27.94Y-58.42
X27.94Y-60.96
X27.94Y-63.5
X27.94Y-66.04
X27.94Y-68.58
X27.94Y-71.12
X27.94Y-76.2
X27.94Y-78.74
X27.94Y-81.28
X27.94Y-83.82
X27.94Y-86.36
X27.94Y-88.9
X27.94Y-91.44
X27.94Y-93.98
X27.94Y-96.52
X27.94Y-99.06
X27.94Y-101.6
X29.21Y-103.378
X29.783Y-16.445
X29.974Y-23.116
X30.48Y-33.02
X30.48Y-35.56
X30.48Y-45.72
X30.48Y-55.88
X30.48Y-58.42
X30.48Y-60.96
X30.48Y-63.5
X30.48Y-66.04
X30.48Y-68.58
X30.48Y-71.12
X30.48Y-76.2
X30.48Y-78.74
X30.48Y-81.28
X30.48Y-83.82
X30.48Y-86.36
X30.48Y-88.9
X30.48Y-91.44
X30.48Y-93.98
X30.48Y-96.52
X30.48Y-99.06
X30.48Y-101.6
X30.48Y-104.14
X30.48Y-106.68
X30.48Y-109.22
X30.48Y-111.76
X30.988Y-25.908
X31.026Y-29.172
X32.512Y-77.851
X32.831Y-16.445
X33.02Y-35.56
X33.02Y-45.72
X33.02Y-50.8
X33.02Y-53.34
X33.02Y-55.88
X33.02Y-58.42
X33.02Y-60.96
X33.02Y-81.28
X33.02Y-83.82
X33.02Y-86.36
X33.02Y-88.9
X33.02Y-91.44
X33.02Y-93.98
X33.02Y-96.52
X33.02Y-99.06
X33.02Y-101.6
X33.02Y-104.14
X33.02Y-106.68
X33.782Y-75.438
X34.798Y-65.278
X34.798Y-74.722
X35.038Y-45.197
X35.052Y-106.426
X35.14Y-70.651
X35.223Y-75.736
X35.306Y-27.94
X35.56Y-23.114
X35.56Y-25.4
X35.56Y-40.64
X35.56Y-43.18
X35.56Y-48.26
X35.56Y-50.8
X35.56Y-81.28
X35.56Y-83.82
X35.56Y-86.36
X35.56Y-88.9
X35.56Y-91.44
X35.56Y-93.98
X35.56Y-96.52
X35.56Y-99.06
X35.56Y-101.6
X35.902Y-71.413
X36.387Y-16.445
X36.83Y-63.5
X36.83Y-103.378
X36.92Y-68.871
X36.92Y-70.014
X38.1Y-25.4
X38.1Y-27.94
X38.1Y-30.48
X38.1Y-62.23
X38.1Y-63.5
X38.1Y-64.77
X38.1Y-109.22
X38.1Y-111.76
X38.13Y-18.258
X38.574Y-69.503
X38.989Y-57.277
X39.37Y-74.295
X40.513Y-68.199
X40.64Y-25.4
X40.64Y-27.94
X40.64Y-30.48
X40.64Y-33.02
X40.64Y-40.64
X40.64Y-43.18
X40.64Y-45.72
X40.64Y-48.26
X40.64Y-50.8
X40.64Y-60.96
X40.64Y-62.23
X40.64Y-63.5
X40.64Y-64.77
X40.64Y-66.04
X40.64Y-70.612
X40.64Y-81.28
X40.64Y-83.82
X40.64Y-86.36
X40.64Y-88.9
X40.64Y-91.44
X40.64Y-93.98
X40.64Y-96.52
X40.64Y-101.6
X40.64Y-104.14
X40.64Y-106.68
X41.275Y-79.375
X41.328Y-78.178
X41.529Y-70.231
X41.783Y-68.199
X41.783Y-76.835
X41.91Y-60.96
X41.91Y-62.23
X41.91Y-63.5
X41.91Y-64.77
X42.545Y-79.375
X42.672Y-106.426
X42.799Y-71.247
X43.111Y-38.804
X43.146Y-72.887
X43.18Y-25.4
X43.18Y-27.94
X43.18Y-30.48
X43.18Y-33.02
X43.18Y-35.56
X43.18Y-77.216
X43.18Y-81.28
X43.18Y-83.82
X43.18Y-86.36
X43.18Y-88.9
X43.18Y-91.44
X43.18Y-93.98
X43.18Y-96.52
X43.18Y-99.06
X43.688Y-103.632
X44.45Y-41.148
X44.45Y-60.96
X44.45Y-62.23
X44.577Y-69.758
X44.577Y-72.893
X44.704Y-38.862
X45.212Y-77.216
X45.212Y-79.375
X45.72Y-17.78
X45.72Y-27.94
X45.72Y-30.48
X45.72Y-33.02
X45.72Y-35.56
X45.72Y-38.1
X45.72Y-45.72
X45.72Y-48.26
X45.72Y-50.8
X45.72Y-60.96
X45.72Y-81.28
X45.72Y-83.82
X45.72Y-86.36
X45.72Y-88.9
X45.72Y-91.44
X45.72Y-93.98
X45.72Y-96.52
X45.72Y-99.06
X45.72Y-101.6
X45.72Y-106.68
X45.72Y-109.22
X45.72Y-111.76
X45.873Y-73.305
X46.583Y-74.015
X46.99Y-67.31
X48.26Y-17.78
X48.26Y-43.18
X48.26Y-45.72
X48.26Y-48.26
X48.26Y-50.8
X48.26Y-66.04
X48.26Y-81.28
X48.26Y-83.82
X48.26Y-86.36
X48.26Y-88.9
X48.26Y-91.44
X48.26Y-93.98
X48.26Y-95.25
X48.26Y-96.52
X48.26Y-99.06
X48.26Y-101.6
X48.26Y-104.14
X48.514Y-40.894
X49.53Y-64.77
X50.292Y-106.426
X50.8Y-17.78
X50.8Y-45.72
X50.8Y-48.26
X50.8Y-63.5
X50.8Y-71.12
X50.8Y-73.66
X50.8Y-76.2
X50.8Y-78.74
X50.8Y-81.28
X50.8Y-83.82
X50.8Y-86.36
X50.8Y-88.9
X50.8Y-91.44
X50.8Y-101.6
X51.054Y-94.234
X51.562Y-36.068
X52.07Y-62.23
X52.07Y-103.378
X52.324Y-37.846
X52.324Y-38.862
X53.34Y-17.78
X53.34Y-33.02
X53.34Y-43.18
X53.34Y-52.07
X53.34Y-54.61
X53.34Y-60.96
X53.34Y-68.58
X53.34Y-71.12
X53.34Y-73.66
X53.34Y-76.2
X53.34Y-78.74
X53.34Y-81.28
X53.34Y-83.82
X53.34Y-86.36
X53.34Y-88.9
X53.34Y-99.06
X53.34Y-101.6
X53.34Y-104.14
X53.34Y-106.68
X53.34Y-109.22
X53.34Y-111.76
X53.975Y-44.704
X54.61Y-34.935
X54.61Y-50.8
X54.61Y-52.07
X54.61Y-53.34
X54.61Y-54.61
X54.61Y-55.88
X54.61Y-59.69
X54.951Y-44.658
X55.035Y-43.688
X55.595Y-41.305
X55.659Y-37.371
X55.88Y-17.78
X55.88Y-66.04
X55.88Y-68.58
X55.88Y-71.12
X55.88Y-73.66
X55.88Y-76.2
X55.88Y-78.74
X55.88Y-81.28
X55.88Y-83.82
X55.88Y-86.36
X55.88Y-88.9
X55.88Y-93.98
X55.88Y-96.52
X55.88Y-99.06
X55.88Y-101.6
X55.88Y-104.14
X55.88Y-106.68
X55.993Y-47.865
X56.263Y-107.95
X56.515Y-110.49
X57.404Y-60.452
X57.531Y-53.467
X57.912Y-48.006
X58.42Y-17.78
X58.42Y-30.48
X58.42Y-33.02
X58.42Y-63.5
X58.42Y-66.04
X58.42Y-68.58
X58.42Y-71.12
X58.42Y-73.66
X58.42Y-76.2
X58.42Y-78.74
X58.42Y-81.28
X58.42Y-83.82
X58.42Y-86.36
X58.42Y-88.9
X58.42Y-96.52
X58.42Y-99.06
X58.42Y-101.6
X58.42Y-104.14
X58.42Y-106.68
X59.374Y-58.481
X59.69Y-93.218
X59.817Y-48.387
X60.96Y-17.78
X60.96Y-30.48
X60.96Y-33.02
X60.96Y-35.56
X60.96Y-43.18
X60.96Y-63.5
X60.96Y-66.04
X60.96Y-68.58
X60.96Y-71.12
X60.96Y-73.66
X60.96Y-76.2
X60.96Y-78.74
X60.96Y-81.28
X60.96Y-83.82
X60.96Y-86.36
X60.96Y-88.9
X60.96Y-104.14
X61.214Y-107.95
X61.722Y-48.006
X62.23Y-110.998
X63.5Y-17.78
X63.5Y-30.48
X63.5Y-33.02
X63.5Y-35.56
X63.5Y-43.18
X63.5Y-54.356
X63.5Y-59.69
X63.5Y-66.04
X63.5Y-68.58
X63.5Y-71.12
X63.5Y-73.66
X63.5Y-76.2
X63.5Y-78.74
X63.5Y-81.28
X63.5Y-83.82
X63.5Y-86.36
X63.5Y-88.9
X63.5Y-91.44
X63.5Y-104.14
X63.5Y-106.68
X63.754Y-55.372
X65.434Y-51.21
X65.532Y-48.26
X66.04Y-17.78
X66.04Y-43.18
X66.04Y-68.58
X66.04Y-71.12
X66.04Y-73.66
X66.04Y-76.2
X66.04Y-78.74
X66.04Y-81.28
X66.04Y-83.82
X66.04Y-86.36
X66.04Y-88.9
X66.04Y-104.14
X66.214Y-100.33
X67.056Y-66.294
X67.322Y-55.13
X67.481Y-56.26
X67.564Y-58.166
X67.564Y-64.008
X68.443Y-58.459
X68.482Y-56.26
X68.58Y-17.78
X68.58Y-30.48
X68.58Y-43.18
X68.58Y-76.2
X68.58Y-78.74
X68.58Y-81.28
X68.58Y-83.82
X68.58Y-86.36
X68.58Y-88.9
X68.58Y-96.52
X68.58Y-99.06
X68.58Y-101.6
X68.58Y-104.14
X68.58Y-111.506
X69.175Y-64.77
X69.257Y-107.95
X69.342Y-58.928
X70.113Y-59.442
X70.612Y-48.768
X71.12Y-17.78
X71.12Y-30.48
X71.12Y-38.1
X71.12Y-76.2
X71.12Y-78.74
X71.12Y-81.28
X71.12Y-83.82
X71.12Y-86.36
X71.12Y-88.9
X71.12Y-104.14
X71.628Y-59.69
X72.39Y-35.179
X72.39Y-40.767
X72.644Y-59.944
X73.167Y-30.226
X73.571Y-59.944
X73.66Y-17.78
X73.66Y-35.56
X73.66Y-38.1
X73.66Y-63.5
X73.66Y-66.04
X73.66Y-76.2
X73.66Y-78.74
X73.66Y-81.28
X73.66Y-83.82
X73.66Y-86.36
X73.66Y-88.9
X73.66Y-91.44
X73.66Y-104.14
X73.804Y-100.294
X73.914Y-110.998
X74.168Y-107.95
X74.174Y-64.271
X74.642Y-52.58
X74.93Y-53.752
X74.93Y-56.26
X74.93Y-60.198
X74.952Y-59.164
X75.063Y-58.243
X76.2Y-17.78
X76.2Y-30.48
X76.2Y-33.02
X76.2Y-35.56
X76.2Y-38.1
X76.2Y-43.18
X76.2Y-76.2
X76.2Y-78.74
X76.2Y-81.28
X76.2Y-83.82
X76.2Y-86.36
X76.2Y-88.9
X76.2Y-91.44
X76.2Y-93.98
X76.2Y-101.6
X76.2Y-104.14
X76.2Y-106.68
X76.708Y-60.579
X78.232Y-62.992
X78.45Y-53.63
X78.486Y-59.944
X78.498Y-56.63
X78.74Y-17.78
X78.74Y-30.48
X78.74Y-33.02
X78.74Y-35.56
X78.74Y-38.1
X78.74Y-43.18
X78.74Y-50.8
X78.74Y-68.58
X78.74Y-71.12
X78.74Y-73.66
X78.74Y-76.2
X78.74Y-78.74
X78.74Y-81.28
X78.74Y-83.82
X78.74Y-86.36
X78.74Y-88.9
X78.74Y-91.44
X78.74Y-93.98
X78.74Y-96.52
X78.74Y-99.06
X78.74Y-101.6
X78.74Y-104.14
X78.74Y-106.68
X78.74Y-109.22
X78.74Y-111.76
X79.401Y-59.283
X80.111Y-58.573
X80.866Y-56.04
X81.026Y-111.76
X81.28Y-17.78
X81.28Y-30.48
X81.28Y-33.02
X81.28Y-35.56
X81.28Y-38.1
X81.28Y-48.26
X81.28Y-50.8
X81.28Y-66.04
X81.28Y-68.58
X81.28Y-71.12
X81.28Y-73.66
X81.28Y-76.2
X81.28Y-78.74
X81.28Y-81.28
X81.28Y-83.82
X81.28Y-86.36
X81.28Y-88.9
X81.28Y-91.44
X81.28Y-93.98
X81.28Y-96.52
X81.28Y-99.06
X81.28Y-101.6
X81.28Y-104.14
X81.28Y-106.68
X81.788Y-107.95
X82.55Y-61.468
X83.82Y-17.78
X83.82Y-38.1
X83.82Y-45.72
X83.82Y-48.26
X83.82Y-50.8
X83.82Y-53.34
X83.82Y-73.66
X83.82Y-76.2
X83.82Y-78.74
X83.82Y-81.28
X83.82Y-83.82
X83.82Y-86.36
X83.82Y-88.9
X83.82Y-91.44
X83.82Y-93.98
X83.82Y-96.52
X83.82Y-99.06
X83.82Y-101.6
X83.82Y-104.14
X83.82Y-106.68
X84.074Y-63.246
X84.328Y-61.468
X85.09Y-56.746
X86.106Y-57.404
X86.36Y-17.78
X86.36Y-30.48
X86.36Y-43.18
X86.36Y-45.72
X86.36Y-48.26
X86.36Y-50.8
X86.36Y-53.34
X86.36Y-60.96
X86.36Y-63.5
X86.36Y-66.04
X86.36Y-68.58
X86.36Y-76.2
X86.36Y-78.74
X86.36Y-81.28
X86.36Y-83.82
X86.36Y-86.36
X86.36Y-88.9
X86.36Y-91.44
X86.36Y-93.98
X86.36Y-96.52
X86.36Y-99.06
X86.36Y-101.6
X86.36Y-104.14
X86.36Y-106.68
X86.445Y-107.95
X87.122Y-111.252
X88.9Y-17.78
X88.9Y-30.48
X88.9Y-40.64
X88.9Y-43.18
X88.9Y-45.72
X88.9Y-48.26
X88.9Y-50.8
X88.9Y-53.34
X88.9Y-55.88
X88.9Y-58.42
X88.9Y-60.96
X88.9Y-63.5
X88.9Y-66.04
X88.9Y-68.58
X88.9Y-71.12
X88.9Y-78.74
X88.9Y-81.28
X88.9Y-83.82
X88.9Y-86.36
X88.9Y-88.9
X88.9Y-91.44
X88.9Y-93.98
X88.9Y-96.52
X88.9Y-99.06
X88.9Y-101.6
X88.9Y-104.14
X88.9Y-106.68
X90.17Y-35.052
X91.44Y-17.78
X91.44Y-35.56
X91.44Y-40.64
X91.44Y-48.26
X91.44Y-50.8
X91.44Y-53.34
X91.44Y-55.88
X91.44Y-58.42
X91.44Y-60.96
X91.44Y-68.58
X91.44Y-71.12
X91.44Y-73.66
X91.44Y-81.28
X91.44Y-88.9
X91.44Y-91.44
X91.44Y-93.98
X91.44Y-96.52
X91.44Y-99.06
X91.44Y-101.6
X91.44Y-104.14
X91.44Y-106.68
X91.44Y-109.22
X91.44Y-111.76
X93.98Y-17.78
X93.98Y-30.48
X93.98Y-33.02
X93.98Y-35.56
X93.98Y-40.64
X93.98Y-50.8
X93.98Y-53.34
X93.98Y-55.88
X93.98Y-58.42
X93.98Y-60.96
X93.98Y-71.12
X93.98Y-73.66
X93.98Y-76.2
X93.98Y-93.98
X93.98Y-96.52
X93.98Y-99.06
X93.98Y-101.6
X93.98Y-104.14
X93.98Y-106.68
X93.98Y-109.22
X94.065Y-107.95
X94.742Y-111.252
X95.758Y-84.328
X96.52Y-17.78
X96.52Y-35.56
X96.52Y-40.64
X96.52Y-58.42
X96.52Y-60.96
X96.52Y-76.2
X96.52Y-91.44
X96.52Y-93.98
X96.52Y-96.52
X96.52Y-99.06
X96.52Y-101.6
X96.52Y-104.14
X96.52Y-106.68
X96.52Y-109.22
X96.52Y-111.76
X96.774Y-64.77
X96.774Y-83.312
X97.028Y-43.434
X97.282Y-44.958
X97.282Y-63.5
X98.806Y-107.95
X99.06Y-17.78
X99.06Y-20.32
X99.06Y-22.86
X99.06Y-25.4
X99.06Y-27.94
X99.06Y-91.44
X99.06Y-93.98
X99.06Y-96.52
X99.06Y-99.06
X99.06Y-101.6
X99.06Y-104.14
X99.06Y-106.68
X99.06Y-111.252
X99.253Y-35.367
X99.253Y-76.007
X101.092Y-44.958
X101.092Y-48.006
X101.092Y-65.278
X101.092Y-68.58
X101.092Y-85.598
X101.092Y-88.9
X101.6Y-17.78
X101.6Y-20.32
X101.6Y-22.86
X101.6Y-25.4
X101.6Y-27.94
X101.6Y-91.44
X101.6Y-93.98
X101.6Y-96.52
X101.6Y-99.06
X101.6Y-101.6
X101.6Y-104.14
X101.6Y-106.68
X101.6Y-109.22
X101.6Y-111.76
X104.14Y-17.78
X104.14Y-20.32
X104.14Y-22.86
X104.14Y-25.4
X104.14Y-27.94
X104.14Y-33.02
X104.14Y-35.56
X104.14Y-88.9
X104.14Y-91.44
X104.14Y-93.98
X104.14Y-96.52
X104.14Y-99.06
X104.14Y-101.6
X104.14Y-104.14
X104.14Y-106.68
X106.68Y-25.4
X106.68Y-27.94
X106.68Y-88.9
X106.68Y-91.44
X106.68Y-93.98
X106.68Y-96.52
X106.68Y-99.06
X106.68Y-101.6
X106.68Y-104.14
X109.22Y-25.4
X109.22Y-27.94
X109.22Y-88.9
X109.22Y-91.44
X109.22Y-93.98
X109.22Y-96.52
X109.22Y-99.06
X109.22Y-101.6
X109.22Y-104.14
X111.76Y-25.4
X111.76Y-27.94
X111.76Y-30.48
X111.76Y-33.02
X111.76Y-35.56
X111.76Y-38.1
X111.76Y-40.64
X111.76Y-43.18
X111.76Y-45.72
X111.76Y-48.26
X111.76Y-50.8
X111.76Y-53.34
X111.76Y-55.88
X111.76Y-58.42
X111.76Y-60.96
X111.76Y-63.5
X111.76Y-66.04
X111.76Y-68.58
X111.76Y-71.12
X111.76Y-73.66
X111.76Y-76.2
X111.76Y-78.74
X111.76Y-81.28
X111.76Y-83.82
X111.76Y-86.36
X111.76Y-88.9
X111.76Y-91.44
X111.76Y-93.98
X111.76Y-96.52
X111.76Y-99.06
X111.76Y-101.6
X111.76Y-104.14
T2
X17.92Y-20.32
X17.92Y-109.22
X18.623Y-18.623
X18.623Y-22.017
X18.623Y-107.523
X18.623Y-110.917
X20.32Y-17.92
X20.32Y-22.72
X20.32Y-106.82
X20.32Y-111.62
X22.017Y-18.623
X22.017Y-22.017
X22.017Y-107.523
X22.017Y-110.917
X22.72Y-20.32
X22.72Y-109.22
X106.82Y-20.32
X106.82Y-109.22
X107.523Y-18.623
X107.523Y-22.017
X107.523Y-107.523
X107.523Y-110.917
X109.22Y-17.92
X109.22Y-22.72
X109.22Y-106.82
X109.22Y-111.62
X110.917Y-18.623
X110.917Y-22.017
X110.917Y-107.523
X110.917Y-110.917
X111.62Y-20.32
X111.62Y-109.22
T3
X69.315Y-68.58
X74.195Y-68.58
T4
X92.71Y-42.585
X92.71Y-45.085
X92.71Y-62.905
X92.71Y-65.405
X92.71Y-83.225
X92.71Y-85.725
T5
X26.67Y-110.49
X29.21Y-110.49
X34.29Y-110.49
X36.83Y-110.49
X41.91Y-110.49
X44.45Y-110.49
X49.53Y-110.49
X52.07Y-110.49
T6
X20.32Y-81.28
X20.32Y-83.82
X20.32Y-86.36
X20.32Y-88.9
X20.32Y-91.44
X20.32Y-93.98
X20.32Y-99.06
X20.32Y-101.6
X53.34Y-24.67
X53.34Y-26.67
X55.84Y-24.67
X55.84Y-26.67
X71.12Y-24.67
X71.12Y-26.67
X73.62Y-24.67
X73.62Y-26.67
X88.9Y-24.67
X88.9Y-26.67
X91.4Y-24.67
X91.4Y-26.67
T7
X105.41Y-34.275
X105.41Y-36.775
X105.41Y-38.775
X105.41Y-41.275
X105.41Y-54.595
X105.41Y-57.095
X105.41Y-59.095
X105.41Y-61.595
X105.41Y-74.915
X105.41Y-77.415
X105.41Y-79.415
X105.41Y-81.915
T8
X48.57Y-21.96
X60.61Y-21.96
X66.35Y-21.96
X78.39Y-21.96
X84.13Y-21.96
X96.17Y-21.96
X108.12Y-31.205
X108.12Y-44.345
X108.12Y-51.525
X108.12Y-64.665
X108.12Y-71.845
X108.12Y-84.985
T9
X20.32Y-20.32
X20.32Y-109.22
X109.22Y-20.32
X109.22Y-109.22
T0
M30
